<svg width="143" height="143" viewBox="0 0 143 143" fill="none" xmlns="http://www.w3.org/2000/svg">
<g filter="url(#filter0_d_72_129)">
<rect x="4" width="135" height="135" rx="21" fill="white"/>
</g>
<path d="M36.712 65.768V77H33.976V70.264L31.464 77H29.256L26.728 70.248V77H23.992V65.768H27.224L30.376 73.544L33.496 65.768H36.712ZM47.7995 68.072L42.1995 81.24H39.2555L41.3035 76.696L37.6715 68.072H40.7275L42.7915 73.656L44.8395 68.072H47.7995ZM51.6355 72.52C51.6355 71.6027 51.8062 70.7973 52.1475 70.104C52.4995 69.4107 52.9742 68.8773 53.5715 68.504C54.1688 68.1307 54.8355 67.944 55.5715 67.944C56.2008 67.944 56.7502 68.072 57.2195 68.328C57.6995 68.584 58.0675 68.92 58.3235 69.336V68.072H61.0595V77H58.3235V75.736C58.0568 76.152 57.6835 76.488 57.2035 76.744C56.7342 77 56.1848 77.128 55.5555 77.128C54.8302 77.128 54.1688 76.9413 53.5715 76.568C52.9742 76.184 52.4995 75.6453 52.1475 74.952C51.8062 74.248 51.6355 73.4373 51.6355 72.52ZM58.3235 72.536C58.3235 71.8533 58.1315 71.3147 57.7475 70.92C57.3742 70.5253 56.9155 70.328 56.3715 70.328C55.8275 70.328 55.3635 70.5253 54.9795 70.92C54.6062 71.304 54.4195 71.8373 54.4195 72.52C54.4195 73.2027 54.6062 73.7467 54.9795 74.152C55.3635 74.5467 55.8275 74.744 56.3715 74.744C56.9155 74.744 57.3742 74.5467 57.7475 74.152C58.1315 73.7573 58.3235 73.2187 58.3235 72.536ZM66.4309 67.944C67.0602 67.944 67.6095 68.072 68.0789 68.328C68.5589 68.584 68.9269 68.92 69.1829 69.336V68.072H71.9189V76.984C71.9189 77.8053 71.7535 78.5467 71.4229 79.208C71.1029 79.88 70.6069 80.4133 69.9349 80.808C69.2735 81.2027 68.4469 81.4 67.4549 81.4C66.1322 81.4 65.0602 81.0853 64.2389 80.456C63.4175 79.8373 62.9482 78.9947 62.8309 77.928H65.5349C65.6202 78.2693 65.8229 78.536 66.1429 78.728C66.4629 78.9307 66.8575 79.032 67.3269 79.032C67.8922 79.032 68.3402 78.8667 68.6709 78.536C69.0122 78.216 69.1829 77.6987 69.1829 76.984V75.72C68.9162 76.136 68.5482 76.4773 68.0789 76.744C67.6095 77 67.0602 77.128 66.4309 77.128C65.6949 77.128 65.0282 76.9413 64.4309 76.568C63.8335 76.184 63.3589 75.6453 63.0069 74.952C62.6655 74.248 62.4949 73.4373 62.4949 72.52C62.4949 71.6027 62.6655 70.7973 63.0069 70.104C63.3589 69.4107 63.8335 68.8773 64.4309 68.504C65.0282 68.1307 65.6949 67.944 66.4309 67.944ZM69.1829 72.536C69.1829 71.8533 68.9909 71.3147 68.6069 70.92C68.2335 70.5253 67.7749 70.328 67.2309 70.328C66.6869 70.328 66.2229 70.5253 65.8389 70.92C65.4655 71.304 65.2789 71.8373 65.2789 72.52C65.2789 73.2027 65.4655 73.7467 65.8389 74.152C66.2229 74.5467 66.6869 74.744 67.2309 74.744C67.7749 74.744 68.2335 74.5467 68.6069 74.152C68.9909 73.7573 69.1829 73.2187 69.1829 72.536ZM82.3142 72.392C82.3142 72.648 82.2983 72.9147 82.2663 73.192H76.0743C76.1169 73.7467 76.2929 74.1733 76.6023 74.472C76.9223 74.76 77.3116 74.904 77.7703 74.904C78.4529 74.904 78.9276 74.616 79.1943 74.04H82.1063C81.9569 74.6267 81.6849 75.1547 81.2903 75.624C80.9063 76.0933 80.4209 76.4613 79.8343 76.728C79.2476 76.9947 78.5916 77.128 77.8663 77.128C76.9916 77.128 76.2129 76.9413 75.5303 76.568C74.8476 76.1947 74.3143 75.6613 73.9303 74.968C73.5463 74.2747 73.3543 73.464 73.3543 72.536C73.3543 71.608 73.5409 70.7973 73.9143 70.104C74.2983 69.4107 74.8316 68.8773 75.5143 68.504C76.1969 68.1307 76.9809 67.944 77.8663 67.944C78.7303 67.944 79.4983 68.1253 80.1703 68.488C80.8423 68.8507 81.3649 69.368 81.7383 70.04C82.1223 70.712 82.3142 71.496 82.3142 72.392ZM79.5143 71.672C79.5143 71.2027 79.3543 70.8293 79.0343 70.552C78.7143 70.2747 78.3143 70.136 77.8343 70.136C77.3756 70.136 76.9863 70.2693 76.6663 70.536C76.3569 70.8027 76.1649 71.1813 76.0903 71.672H79.5143ZM89.1976 67.976C90.243 67.976 91.075 68.3173 91.6936 69C92.323 69.672 92.6376 70.6 92.6376 71.784V77H89.9176V72.152C89.9176 71.5547 89.763 71.0907 89.4536 70.76C89.1443 70.4293 88.7283 70.264 88.2056 70.264C87.683 70.264 87.267 70.4293 86.9576 70.76C86.6483 71.0907 86.4936 71.5547 86.4936 72.152V77H83.7576V68.072H86.4936V69.256C86.771 68.8613 87.1443 68.552 87.6136 68.328C88.083 68.0933 88.611 67.976 89.1976 67.976ZM93.9949 72.536C93.9949 71.608 94.1815 70.7973 94.5549 70.104C94.9389 69.4107 95.4669 68.8773 96.1389 68.504C96.8215 68.1307 97.6002 67.944 98.4749 67.944C99.5949 67.944 100.528 68.2373 101.275 68.824C102.032 69.4107 102.528 70.2373 102.763 71.304H99.8509C99.6055 70.6213 99.1309 70.28 98.4269 70.28C97.9255 70.28 97.5255 70.4773 97.2269 70.872C96.9282 71.256 96.7789 71.8107 96.7789 72.536C96.7789 73.2613 96.9282 73.8213 97.2269 74.216C97.5255 74.6 97.9255 74.792 98.4269 74.792C99.1309 74.792 99.6055 74.4507 99.8509 73.768H102.763C102.528 74.8133 102.032 75.6347 101.275 76.232C100.518 76.8293 99.5842 77.128 98.4749 77.128C97.6002 77.128 96.8215 76.9413 96.1389 76.568C95.4669 76.1947 94.9389 75.6613 94.5549 74.968C94.1815 74.2747 93.9949 73.464 93.9949 72.536ZM113.346 68.072L107.746 81.24H104.802L106.85 76.696L103.218 68.072H106.274L108.338 73.656L110.386 68.072H113.346Z" fill="black"/>
<defs>
<filter id="filter0_d_72_129" x="0" y="0" width="143" height="143" filterUnits="userSpaceOnUse" color-interpolation-filters="sRGB">
<feFlood flood-opacity="0" result="BackgroundImageFix"/>
<feColorMatrix in="SourceAlpha" type="matrix" values="0 0 0 0 0 0 0 0 0 0 0 0 0 0 0 0 0 0 127 0" result="hardAlpha"/>
<feOffset dy="4"/>
<feGaussianBlur stdDeviation="2"/>
<feComposite in2="hardAlpha" operator="out"/>
<feColorMatrix type="matrix" values="0 0 0 0 0 0 0 0 0 0 0 0 0 0 0 0 0 0 0.25 0"/>
<feBlend mode="normal" in2="BackgroundImageFix" result="effect1_dropShadow_72_129"/>
<feBlend mode="normal" in="SourceGraphic" in2="effect1_dropShadow_72_129" result="shape"/>
</filter>
</defs>
</svg>
