<svg width="143" height="143" viewBox="0 0 143 143" fill="none" xmlns="http://www.w3.org/2000/svg">
<g filter="url(#filter0_d_72_135)">
<rect x="4" width="135" height="135" rx="21" fill="white"/>
</g>
<path d="M37.712 65.768V77H34.976V70.264L32.464 77H30.256L27.728 70.248V77H24.992V65.768H28.224L31.376 73.544L34.496 65.768H37.712ZM48.7995 68.072L43.1995 81.24H40.2555L42.3035 76.696L38.6715 68.072H41.7275L43.7915 73.656L45.8395 68.072H48.7995ZM55.9155 69.336C56.1822 68.92 56.5502 68.584 57.0195 68.328C57.4888 68.072 58.0382 67.944 58.6675 67.944C59.4035 67.944 60.0702 68.1307 60.6675 68.504C61.2648 68.8773 61.7342 69.4107 62.0755 70.104C62.4275 70.7973 62.6035 71.6027 62.6035 72.52C62.6035 73.4373 62.4275 74.248 62.0755 74.952C61.7342 75.6453 61.2648 76.184 60.6675 76.568C60.0702 76.9413 59.4035 77.128 58.6675 77.128C58.0488 77.128 57.4995 77 57.0195 76.744C56.5502 76.488 56.1822 76.1573 55.9155 75.752V81.256H53.1795V68.072H55.9155V69.336ZM59.8195 72.52C59.8195 71.8373 59.6275 71.304 59.2435 70.92C58.8702 70.5253 58.4062 70.328 57.8515 70.328C57.3075 70.328 56.8435 70.5253 56.4595 70.92C56.0862 71.3147 55.8995 71.8533 55.8995 72.536C55.8995 73.2187 56.0862 73.7573 56.4595 74.152C56.8435 74.5467 57.3075 74.744 57.8515 74.744C58.3955 74.744 58.8595 74.5467 59.2435 74.152C59.6275 73.7467 59.8195 73.2027 59.8195 72.52ZM66.7749 69.56C67.0949 69.0693 67.4949 68.6853 67.9749 68.408C68.4549 68.12 68.9882 67.976 69.5749 67.976V70.872H68.8229C68.1402 70.872 67.6282 71.0213 67.2869 71.32C66.9455 71.608 66.7749 72.12 66.7749 72.856V77H64.0389V68.072H66.7749V69.56ZM74.9466 77.128C74.072 77.128 73.2826 76.9413 72.5786 76.568C71.8853 76.1947 71.336 75.6613 70.9306 74.968C70.536 74.2747 70.3386 73.464 70.3386 72.536C70.3386 71.6187 70.5413 70.8133 70.9466 70.12C71.352 69.416 71.9066 68.8773 72.6106 68.504C73.3146 68.1307 74.104 67.944 74.9786 67.944C75.8533 67.944 76.6426 68.1307 77.3466 68.504C78.0506 68.8773 78.6053 69.416 79.0106 70.12C79.416 70.8133 79.6186 71.6187 79.6186 72.536C79.6186 73.4533 79.4106 74.264 78.9946 74.968C78.5893 75.6613 78.0293 76.1947 77.3146 76.568C76.6106 76.9413 75.8213 77.128 74.9466 77.128ZM74.9466 74.76C75.4693 74.76 75.912 74.568 76.2746 74.184C76.648 73.8 76.8346 73.2507 76.8346 72.536C76.8346 71.8213 76.6533 71.272 76.2906 70.888C75.9386 70.504 75.5013 70.312 74.9786 70.312C74.4453 70.312 74.0026 70.504 73.6506 70.888C73.2986 71.2613 73.1226 71.8107 73.1226 72.536C73.1226 73.2507 73.2933 73.8 73.6346 74.184C73.9866 74.568 74.424 74.76 74.9466 74.76ZM82.4301 67.144C81.9501 67.144 81.5555 67.0053 81.2461 66.728C80.9475 66.44 80.7981 66.088 80.7981 65.672C80.7981 65.2453 80.9475 64.8933 81.2461 64.616C81.5555 64.328 81.9501 64.184 82.4301 64.184C82.8995 64.184 83.2835 64.328 83.5821 64.616C83.8915 64.8933 84.0461 65.2453 84.0461 65.672C84.0461 66.088 83.8915 66.44 83.5821 66.728C83.2835 67.0053 82.8995 67.144 82.4301 67.144ZM83.8061 78.152C83.8061 79.2507 83.5288 80.04 82.9741 80.52C82.4195 81.0107 81.6461 81.256 80.6541 81.256H79.5821V78.936H80.2381C80.5368 78.936 80.7501 78.8773 80.8781 78.76C81.0061 78.6427 81.0701 78.4507 81.0701 78.184V68.072H83.8061V78.152ZM94.1892 72.392C94.1892 72.648 94.1733 72.9147 94.1413 73.192H87.9493C87.9919 73.7467 88.1679 74.1733 88.4773 74.472C88.7973 74.76 89.1866 74.904 89.6453 74.904C90.3279 74.904 90.8026 74.616 91.0693 74.04H93.9813C93.8319 74.6267 93.5599 75.1547 93.1653 75.624C92.7813 76.0933 92.2959 76.4613 91.7093 76.728C91.1226 76.9947 90.4666 77.128 89.7413 77.128C88.8666 77.128 88.0879 76.9413 87.4053 76.568C86.7226 76.1947 86.1893 75.6613 85.8053 74.968C85.4213 74.2747 85.2293 73.464 85.2293 72.536C85.2293 71.608 85.4159 70.7973 85.7893 70.104C86.1733 69.4107 86.7066 68.8773 87.3893 68.504C88.0719 68.1307 88.8559 67.944 89.7413 67.944C90.6053 67.944 91.3733 68.1253 92.0453 68.488C92.7173 68.8507 93.2399 69.368 93.6133 70.04C93.9973 70.712 94.1892 71.496 94.1892 72.392ZM91.3893 71.672C91.3893 71.2027 91.2293 70.8293 90.9093 70.552C90.5893 70.2747 90.1893 70.136 89.7093 70.136C89.2506 70.136 88.8613 70.2693 88.5413 70.536C88.2319 70.8027 88.0399 71.1813 87.9653 71.672H91.3893ZM95.0886 72.536C95.0886 71.608 95.2753 70.7973 95.6486 70.104C96.0326 69.4107 96.5606 68.8773 97.2326 68.504C97.9153 68.1307 98.694 67.944 99.5686 67.944C100.689 67.944 101.622 68.2373 102.369 68.824C103.126 69.4107 103.622 70.2373 103.857 71.304H100.945C100.699 70.6213 100.225 70.28 99.5206 70.28C99.0193 70.28 98.6193 70.4773 98.3206 70.872C98.022 71.256 97.8726 71.8107 97.8726 72.536C97.8726 73.2613 98.022 73.8213 98.3206 74.216C98.6193 74.6 99.0193 74.792 99.5206 74.792C100.225 74.792 100.699 74.4507 100.945 73.768H103.857C103.622 74.8133 103.126 75.6347 102.369 76.232C101.611 76.8293 100.678 77.128 99.5686 77.128C98.694 77.128 97.9153 76.9413 97.2326 76.568C96.5606 76.1947 96.0326 75.6613 95.6486 74.968C95.2753 74.2747 95.0886 73.464 95.0886 72.536ZM110.296 74.68V77H108.904C107.912 77 107.139 76.76 106.584 76.28C106.029 75.7893 105.752 74.9947 105.752 73.896V70.344H104.664V68.072H105.752V65.896H108.488V68.072H110.28V70.344H108.488V73.928C108.488 74.1947 108.552 74.3867 108.68 74.504C108.808 74.6213 109.021 74.68 109.32 74.68H110.296ZM115.452 77.128C114.673 77.128 113.98 76.9947 113.372 76.728C112.764 76.4613 112.284 76.0987 111.932 75.64C111.58 75.1707 111.383 74.648 111.34 74.072H114.044C114.076 74.3813 114.22 74.632 114.476 74.824C114.732 75.016 115.047 75.112 115.42 75.112C115.761 75.112 116.023 75.048 116.204 74.92C116.396 74.7813 116.492 74.6053 116.492 74.392C116.492 74.136 116.359 73.9493 116.092 73.832C115.825 73.704 115.393 73.5653 114.796 73.416C114.156 73.2667 113.623 73.112 113.196 72.952C112.769 72.7813 112.401 72.52 112.092 72.168C111.783 71.8053 111.628 71.32 111.628 70.712C111.628 70.2 111.767 69.736 112.044 69.32C112.332 68.8933 112.748 68.5573 113.292 68.312C113.847 68.0667 114.503 67.944 115.26 67.944C116.38 67.944 117.26 68.2213 117.9 68.776C118.551 69.3307 118.924 70.0667 119.02 70.984H116.492C116.449 70.6747 116.311 70.4293 116.076 70.248C115.852 70.0667 115.553 69.976 115.18 69.976C114.86 69.976 114.615 70.04 114.444 70.168C114.273 70.2853 114.188 70.4507 114.188 70.664C114.188 70.92 114.321 71.112 114.588 71.24C114.865 71.368 115.292 71.496 115.868 71.624C116.529 71.7947 117.068 71.9653 117.484 72.136C117.9 72.296 118.263 72.5627 118.572 72.936C118.892 73.2987 119.057 73.7893 119.068 74.408C119.068 74.9307 118.919 75.4 118.62 75.816C118.332 76.2213 117.911 76.5413 117.356 76.776C116.812 77.0107 116.177 77.128 115.452 77.128Z" fill="black"/>
<defs>
<filter id="filter0_d_72_135" x="0" y="0" width="143" height="143" filterUnits="userSpaceOnUse" color-interpolation-filters="sRGB">
<feFlood flood-opacity="0" result="BackgroundImageFix"/>
<feColorMatrix in="SourceAlpha" type="matrix" values="0 0 0 0 0 0 0 0 0 0 0 0 0 0 0 0 0 0 127 0" result="hardAlpha"/>
<feOffset dy="4"/>
<feGaussianBlur stdDeviation="2"/>
<feComposite in2="hardAlpha" operator="out"/>
<feColorMatrix type="matrix" values="0 0 0 0 0 0 0 0 0 0 0 0 0 0 0 0 0 0 0.25 0"/>
<feBlend mode="normal" in2="BackgroundImageFix" result="effect1_dropShadow_72_135"/>
<feBlend mode="normal" in="SourceGraphic" in2="effect1_dropShadow_72_135" result="shape"/>
</filter>
</defs>
</svg>
