<svg width="143" height="143" viewBox="0 0 143 143" fill="none" xmlns="http://www.w3.org/2000/svg">
<g filter="url(#filter0_d_72_132)">
<rect x="4" width="135" height="135" rx="21" fill="white"/>
</g>
<path d="M32.072 65.768V67.96H29.096V77H26.36V67.96H23.384V65.768H32.072ZM38.9331 67.976C39.9571 67.976 40.7785 68.3173 41.3971 69C42.0158 69.672 42.3251 70.6 42.3251 71.784V77H39.6051V72.152C39.6051 71.5547 39.4505 71.0907 39.1411 70.76C38.8318 70.4293 38.4158 70.264 37.8931 70.264C37.3705 70.264 36.9545 70.4293 36.6451 70.76C36.3358 71.0907 36.1811 71.5547 36.1811 72.152V77H33.4451V65.16H36.1811V69.272C36.4585 68.8773 36.8371 68.5627 37.3171 68.328C37.7971 68.0933 38.3358 67.976 38.9331 67.976ZM52.6424 72.392C52.6424 72.648 52.6264 72.9147 52.5944 73.192H46.4024C46.445 73.7467 46.621 74.1733 46.9304 74.472C47.2504 74.76 47.6397 74.904 48.0984 74.904C48.781 74.904 49.2557 74.616 49.5224 74.04H52.4344C52.285 74.6267 52.013 75.1547 51.6184 75.624C51.2344 76.0933 50.749 76.4613 50.1624 76.728C49.5757 76.9947 48.9197 77.128 48.1944 77.128C47.3197 77.128 46.541 76.9413 45.8584 76.568C45.1757 76.1947 44.6424 75.6613 44.2584 74.968C43.8744 74.2747 43.6824 73.464 43.6824 72.536C43.6824 71.608 43.869 70.7973 44.2424 70.104C44.6264 69.4107 45.1597 68.8773 45.8424 68.504C46.525 68.1307 47.309 67.944 48.1944 67.944C49.0584 67.944 49.8264 68.1253 50.4984 68.488C51.1704 68.8507 51.693 69.368 52.0664 70.04C52.4504 70.712 52.6424 71.496 52.6424 72.392ZM49.8424 71.672C49.8424 71.2027 49.6824 70.8293 49.3624 70.552C49.0424 70.2747 48.6424 70.136 48.1624 70.136C47.7037 70.136 47.3144 70.2693 46.9944 70.536C46.685 70.8027 46.493 71.1813 46.4184 71.672H49.8424ZM60.2124 69.336C60.479 68.92 60.847 68.584 61.3164 68.328C61.7857 68.072 62.335 67.944 62.9644 67.944C63.7004 67.944 64.367 68.1307 64.9644 68.504C65.5617 68.8773 66.031 69.4107 66.3724 70.104C66.7244 70.7973 66.9004 71.6027 66.9004 72.52C66.9004 73.4373 66.7244 74.248 66.3724 74.952C66.031 75.6453 65.5617 76.184 64.9644 76.568C64.367 76.9413 63.7004 77.128 62.9644 77.128C62.3457 77.128 61.7964 77 61.3164 76.744C60.847 76.488 60.479 76.1573 60.2124 75.752V81.256H57.4764V68.072H60.2124V69.336ZM64.1164 72.52C64.1164 71.8373 63.9244 71.304 63.5404 70.92C63.167 70.5253 62.703 70.328 62.1484 70.328C61.6044 70.328 61.1404 70.5253 60.7564 70.92C60.383 71.3147 60.1964 71.8533 60.1964 72.536C60.1964 73.2187 60.383 73.7573 60.7564 74.152C61.1404 74.5467 61.6044 74.744 62.1484 74.744C62.6924 74.744 63.1564 74.5467 63.5404 74.152C63.9244 73.7467 64.1164 73.2027 64.1164 72.52ZM71.0718 69.56C71.3918 69.0693 71.7918 68.6853 72.2718 68.408C72.7518 68.12 73.2851 67.976 73.8718 67.976V70.872H73.1198C72.4371 70.872 71.9251 71.0213 71.5838 71.32C71.2424 71.608 71.0718 72.12 71.0718 72.856V77H68.3358V68.072H71.0718V69.56ZM79.2435 77.128C78.3688 77.128 77.5795 76.9413 76.8755 76.568C76.1822 76.1947 75.6328 75.6613 75.2275 74.968C74.8328 74.2747 74.6355 73.464 74.6355 72.536C74.6355 71.6187 74.8382 70.8133 75.2435 70.12C75.6488 69.416 76.2035 68.8773 76.9075 68.504C77.6115 68.1307 78.4008 67.944 79.2755 67.944C80.1502 67.944 80.9395 68.1307 81.6435 68.504C82.3475 68.8773 82.9022 69.416 83.3075 70.12C83.7128 70.8133 83.9155 71.6187 83.9155 72.536C83.9155 73.4533 83.7075 74.264 83.2915 74.968C82.8862 75.6613 82.3262 76.1947 81.6115 76.568C80.9075 76.9413 80.1182 77.128 79.2435 77.128ZM79.2435 74.76C79.7662 74.76 80.2088 74.568 80.5715 74.184C80.9448 73.8 81.1315 73.2507 81.1315 72.536C81.1315 71.8213 80.9502 71.272 80.5875 70.888C80.2355 70.504 79.7982 70.312 79.2755 70.312C78.7422 70.312 78.2995 70.504 77.9475 70.888C77.5955 71.2613 77.4195 71.8107 77.4195 72.536C77.4195 73.2507 77.5902 73.8 77.9315 74.184C78.2835 74.568 78.7208 74.76 79.2435 74.76ZM86.727 67.144C86.247 67.144 85.8523 67.0053 85.543 66.728C85.2443 66.44 85.095 66.088 85.095 65.672C85.095 65.2453 85.2443 64.8933 85.543 64.616C85.8523 64.328 86.247 64.184 86.727 64.184C87.1963 64.184 87.5803 64.328 87.879 64.616C88.1883 64.8933 88.343 65.2453 88.343 65.672C88.343 66.088 88.1883 66.44 87.879 66.728C87.5803 67.0053 87.1963 67.144 86.727 67.144ZM88.103 78.152C88.103 79.2507 87.8257 80.04 87.271 80.52C86.7163 81.0107 85.943 81.256 84.951 81.256H83.879V78.936H84.535C84.8337 78.936 85.047 78.8773 85.175 78.76C85.303 78.6427 85.367 78.4507 85.367 78.184V68.072H88.103V78.152ZM98.4861 72.392C98.4861 72.648 98.4701 72.9147 98.4381 73.192H92.2461C92.2888 73.7467 92.4648 74.1733 92.7741 74.472C93.0941 74.76 93.4835 74.904 93.9421 74.904C94.6248 74.904 95.0995 74.616 95.3661 74.04H98.2781C98.1288 74.6267 97.8568 75.1547 97.4621 75.624C97.0781 76.0933 96.5928 76.4613 96.0061 76.728C95.4195 76.9947 94.7635 77.128 94.0381 77.128C93.1635 77.128 92.3848 76.9413 91.7021 76.568C91.0195 76.1947 90.4861 75.6613 90.1021 74.968C89.7181 74.2747 89.5261 73.464 89.5261 72.536C89.5261 71.608 89.7128 70.7973 90.0861 70.104C90.4701 69.4107 91.0035 68.8773 91.6861 68.504C92.3688 68.1307 93.1528 67.944 94.0381 67.944C94.9021 67.944 95.6701 68.1253 96.3421 68.488C97.0141 68.8507 97.5368 69.368 97.9101 70.04C98.2941 70.712 98.4861 71.496 98.4861 72.392ZM95.6861 71.672C95.6861 71.2027 95.5261 70.8293 95.2061 70.552C94.8861 70.2747 94.4861 70.136 94.0061 70.136C93.5475 70.136 93.1581 70.2693 92.8381 70.536C92.5288 70.8027 92.3368 71.1813 92.2621 71.672H95.6861ZM99.3855 72.536C99.3855 71.608 99.5722 70.7973 99.9455 70.104C100.33 69.4107 100.858 68.8773 101.53 68.504C102.212 68.1307 102.991 67.944 103.866 67.944C104.986 67.944 105.919 68.2373 106.666 68.824C107.423 69.4107 107.919 70.2373 108.154 71.304H105.242C104.996 70.6213 104.522 70.28 103.818 70.28C103.316 70.28 102.916 70.4773 102.618 70.872C102.319 71.256 102.17 71.8107 102.17 72.536C102.17 73.2613 102.319 73.8213 102.618 74.216C102.916 74.6 103.316 74.792 103.818 74.792C104.522 74.792 104.996 74.4507 105.242 73.768H108.154C107.919 74.8133 107.423 75.6347 106.666 76.232C105.908 76.8293 104.975 77.128 103.866 77.128C102.991 77.128 102.212 76.9413 101.53 76.568C100.858 76.1947 100.33 75.6613 99.9455 74.968C99.5722 74.2747 99.3855 73.464 99.3855 72.536ZM114.593 74.68V77H113.201C112.209 77 111.436 76.76 110.881 76.28C110.326 75.7893 110.049 74.9947 110.049 73.896V70.344H108.961V68.072H110.049V65.896H112.785V68.072H114.577V70.344H112.785V73.928C112.785 74.1947 112.849 74.3867 112.977 74.504C113.105 74.6213 113.318 74.68 113.617 74.68H114.593ZM119.749 77.128C118.97 77.128 118.277 76.9947 117.669 76.728C117.061 76.4613 116.581 76.0987 116.229 75.64C115.877 75.1707 115.68 74.648 115.637 74.072H118.341C118.373 74.3813 118.517 74.632 118.773 74.824C119.029 75.016 119.344 75.112 119.717 75.112C120.058 75.112 120.32 75.048 120.501 74.92C120.693 74.7813 120.789 74.6053 120.789 74.392C120.789 74.136 120.656 73.9493 120.389 73.832C120.122 73.704 119.69 73.5653 119.093 73.416C118.453 73.2667 117.92 73.112 117.493 72.952C117.066 72.7813 116.698 72.52 116.389 72.168C116.08 71.8053 115.925 71.32 115.925 70.712C115.925 70.2 116.064 69.736 116.341 69.32C116.629 68.8933 117.045 68.5573 117.589 68.312C118.144 68.0667 118.8 67.944 119.557 67.944C120.677 67.944 121.557 68.2213 122.197 68.776C122.848 69.3307 123.221 70.0667 123.317 70.984H120.789C120.746 70.6747 120.608 70.4293 120.373 70.248C120.149 70.0667 119.85 69.976 119.477 69.976C119.157 69.976 118.912 70.04 118.741 70.168C118.57 70.2853 118.485 70.4507 118.485 70.664C118.485 70.92 118.618 71.112 118.885 71.24C119.162 71.368 119.589 71.496 120.165 71.624C120.826 71.7947 121.365 71.9653 121.781 72.136C122.197 72.296 122.56 72.5627 122.869 72.936C123.189 73.2987 123.354 73.7893 123.365 74.408C123.365 74.9307 123.216 75.4 122.917 75.816C122.629 76.2213 122.208 76.5413 121.653 76.776C121.109 77.0107 120.474 77.128 119.749 77.128Z" fill="black"/>
<defs>
<filter id="filter0_d_72_132" x="0" y="0" width="143" height="143" filterUnits="userSpaceOnUse" color-interpolation-filters="sRGB">
<feFlood flood-opacity="0" result="BackgroundImageFix"/>
<feColorMatrix in="SourceAlpha" type="matrix" values="0 0 0 0 0 0 0 0 0 0 0 0 0 0 0 0 0 0 127 0" result="hardAlpha"/>
<feOffset dy="4"/>
<feGaussianBlur stdDeviation="2"/>
<feComposite in2="hardAlpha" operator="out"/>
<feColorMatrix type="matrix" values="0 0 0 0 0 0 0 0 0 0 0 0 0 0 0 0 0 0 0.25 0"/>
<feBlend mode="normal" in2="BackgroundImageFix" result="effect1_dropShadow_72_132"/>
<feBlend mode="normal" in="SourceGraphic" in2="effect1_dropShadow_72_132" result="shape"/>
</filter>
</defs>
</svg>
