<svg width="143" height="143" viewBox="0 0 143 143" fill="none" xmlns="http://www.w3.org/2000/svg">
<g filter="url(#filter0_d_72_131)">
<rect x="4" width="135" height="135" rx="21" fill="white"/>
</g>
<path d="M26.072 65.768V67.96H23.096V77H20.36V67.96H17.384V65.768H26.072ZM32.9331 67.976C33.9571 67.976 34.7785 68.3173 35.3971 69C36.0158 69.672 36.3251 70.6 36.3251 71.784V77H33.6051V72.152C33.6051 71.5547 33.4505 71.0907 33.1411 70.76C32.8318 70.4293 32.4158 70.264 31.8931 70.264C31.3705 70.264 30.9545 70.4293 30.6451 70.76C30.3358 71.0907 30.1811 71.5547 30.1811 72.152V77H27.4451V65.16H30.1811V69.272C30.4585 68.8773 30.8371 68.5627 31.3171 68.328C31.7971 68.0933 32.3358 67.976 32.9331 67.976ZM46.6424 72.392C46.6424 72.648 46.6264 72.9147 46.5944 73.192H40.4024C40.445 73.7467 40.621 74.1733 40.9304 74.472C41.2504 74.76 41.6397 74.904 42.0984 74.904C42.781 74.904 43.2557 74.616 43.5224 74.04H46.4344C46.285 74.6267 46.013 75.1547 45.6184 75.624C45.2344 76.0933 44.749 76.4613 44.1624 76.728C43.5757 76.9947 42.9197 77.128 42.1944 77.128C41.3197 77.128 40.541 76.9413 39.8584 76.568C39.1757 76.1947 38.6424 75.6613 38.2584 74.968C37.8744 74.2747 37.6824 73.464 37.6824 72.536C37.6824 71.608 37.869 70.7973 38.2424 70.104C38.6264 69.4107 39.1597 68.8773 39.8424 68.504C40.525 68.1307 41.309 67.944 42.1944 67.944C43.0584 67.944 43.8264 68.1253 44.4984 68.488C45.1704 68.8507 45.693 69.368 46.0664 70.04C46.4504 70.712 46.6424 71.496 46.6424 72.392ZM43.8424 71.672C43.8424 71.2027 43.6824 70.8293 43.3624 70.552C43.0424 70.2747 42.6424 70.136 42.1624 70.136C41.7037 70.136 41.3144 70.2693 40.9944 70.536C40.685 70.8027 40.493 71.1813 40.4184 71.672H43.8424ZM50.9324 72.52C50.9324 71.6027 51.103 70.7973 51.4444 70.104C51.7964 69.4107 52.271 68.8773 52.8684 68.504C53.4657 68.1307 54.1324 67.944 54.8684 67.944C55.4977 67.944 56.047 68.072 56.5164 68.328C56.9964 68.584 57.3644 68.92 57.6204 69.336V68.072H60.3564V77H57.6204V75.736C57.3537 76.152 56.9804 76.488 56.5004 76.744C56.031 77 55.4817 77.128 54.8524 77.128C54.127 77.128 53.4657 76.9413 52.8684 76.568C52.271 76.184 51.7964 75.6453 51.4444 74.952C51.103 74.248 50.9324 73.4373 50.9324 72.52ZM57.6204 72.536C57.6204 71.8533 57.4284 71.3147 57.0444 70.92C56.671 70.5253 56.2124 70.328 55.6684 70.328C55.1244 70.328 54.6604 70.5253 54.2764 70.92C53.903 71.304 53.7164 71.8373 53.7164 72.52C53.7164 73.2027 53.903 73.7467 54.2764 74.152C54.6604 74.5467 55.1244 74.744 55.6684 74.744C56.2124 74.744 56.671 74.5467 57.0444 74.152C57.4284 73.7573 57.6204 73.2187 57.6204 72.536ZM65.0718 69.336C65.3384 68.92 65.7064 68.584 66.1758 68.328C66.6451 68.072 67.1944 67.944 67.8238 67.944C68.5598 67.944 69.2264 68.1307 69.8238 68.504C70.4211 68.8773 70.8904 69.4107 71.2318 70.104C71.5838 70.7973 71.7598 71.6027 71.7598 72.52C71.7598 73.4373 71.5838 74.248 71.2318 74.952C70.8904 75.6453 70.4211 76.184 69.8238 76.568C69.2264 76.9413 68.5598 77.128 67.8238 77.128C67.2051 77.128 66.6558 77 66.1758 76.744C65.7064 76.488 65.3384 76.1573 65.0718 75.752V81.256H62.3358V68.072H65.0718V69.336ZM68.9758 72.52C68.9758 71.8373 68.7838 71.304 68.3998 70.92C68.0264 70.5253 67.5624 70.328 67.0078 70.328C66.4638 70.328 65.9998 70.5253 65.6158 70.92C65.2424 71.3147 65.0558 71.8533 65.0558 72.536C65.0558 73.2187 65.2424 73.7573 65.6158 74.152C65.9998 74.5467 66.4638 74.744 67.0078 74.744C67.5518 74.744 68.0158 74.5467 68.3998 74.152C68.7838 73.7467 68.9758 73.2027 68.9758 72.52ZM76.8271 77.128C76.0485 77.128 75.3551 76.9947 74.7471 76.728C74.1391 76.4613 73.6591 76.0987 73.3071 75.64C72.9551 75.1707 72.7578 74.648 72.7151 74.072H75.4191C75.4511 74.3813 75.5951 74.632 75.8511 74.824C76.1071 75.016 76.4218 75.112 76.7951 75.112C77.1365 75.112 77.3978 75.048 77.5791 74.92C77.7711 74.7813 77.8671 74.6053 77.8671 74.392C77.8671 74.136 77.7338 73.9493 77.4671 73.832C77.2005 73.704 76.7685 73.5653 76.1711 73.416C75.5311 73.2667 74.9978 73.112 74.5711 72.952C74.1445 72.7813 73.7765 72.52 73.4671 72.168C73.1578 71.8053 73.0031 71.32 73.0031 70.712C73.0031 70.2 73.1418 69.736 73.4191 69.32C73.7071 68.8933 74.1231 68.5573 74.6671 68.312C75.2218 68.0667 75.8778 67.944 76.6351 67.944C77.7551 67.944 78.6351 68.2213 79.2751 68.776C79.9258 69.3307 80.2991 70.0667 80.3951 70.984H77.8671C77.8245 70.6747 77.6858 70.4293 77.4511 70.248C77.2271 70.0667 76.9285 69.976 76.5551 69.976C76.2351 69.976 75.9898 70.04 75.8191 70.168C75.6485 70.2853 75.5631 70.4507 75.5631 70.664C75.5631 70.92 75.6965 71.112 75.9631 71.24C76.2405 71.368 76.6671 71.496 77.2431 71.624C77.9045 71.7947 78.4431 71.9653 78.8591 72.136C79.2751 72.296 79.6378 72.5627 79.9471 72.936C80.2671 73.2987 80.4325 73.7893 80.4431 74.408C80.4431 74.9307 80.2938 75.4 79.9951 75.816C79.7071 76.2213 79.2858 76.5413 78.7311 76.776C78.1871 77.0107 77.5525 77.128 76.8271 77.128ZM83.493 67.144C83.013 67.144 82.6183 67.0053 82.309 66.728C82.0103 66.44 81.861 66.088 81.861 65.672C81.861 65.2453 82.0103 64.8933 82.309 64.616C82.6183 64.328 83.013 64.184 83.493 64.184C83.9623 64.184 84.3463 64.328 84.645 64.616C84.9543 64.8933 85.109 65.2453 85.109 65.672C85.109 66.088 84.9543 66.44 84.645 66.728C84.3463 67.0053 83.9623 67.144 83.493 67.144ZM84.853 68.072V77H82.117V68.072H84.853ZM86.2918 72.52C86.2918 71.6027 86.4624 70.7973 86.8038 70.104C87.1558 69.4107 87.6304 68.8773 88.2278 68.504C88.8251 68.1307 89.4918 67.944 90.2278 67.944C90.8144 67.944 91.3478 68.0667 91.8278 68.312C92.3184 68.5573 92.7024 68.888 92.9798 69.304V65.16H95.7158V77H92.9798V75.72C92.7238 76.1467 92.3558 76.488 91.8758 76.744C91.4064 77 90.8571 77.128 90.2278 77.128C89.4918 77.128 88.8251 76.9413 88.2278 76.568C87.6304 76.184 87.1558 75.6453 86.8038 74.952C86.4624 74.248 86.2918 73.4373 86.2918 72.52ZM92.9798 72.536C92.9798 71.8533 92.7878 71.3147 92.4038 70.92C92.0304 70.5253 91.5718 70.328 91.0278 70.328C90.4838 70.328 90.0198 70.5253 89.6358 70.92C89.2624 71.304 89.0758 71.8373 89.0758 72.52C89.0758 73.2027 89.2624 73.7467 89.6358 74.152C90.0198 74.5467 90.4838 74.744 91.0278 74.744C91.5718 74.744 92.0304 74.5467 92.4038 74.152C92.7878 73.7573 92.9798 73.2187 92.9798 72.536ZM106.111 72.392C106.111 72.648 106.095 72.9147 106.063 73.192H99.8711C99.9138 73.7467 100.09 74.1733 100.399 74.472C100.719 74.76 101.108 74.904 101.567 74.904C102.25 74.904 102.724 74.616 102.991 74.04H105.903C105.754 74.6267 105.482 75.1547 105.087 75.624C104.703 76.0933 104.218 76.4613 103.631 76.728C103.044 76.9947 102.388 77.128 101.663 77.128C100.788 77.128 100.01 76.9413 99.3271 76.568C98.6445 76.1947 98.1111 75.6613 97.7271 74.968C97.3431 74.2747 97.1511 73.464 97.1511 72.536C97.1511 71.608 97.3378 70.7973 97.7111 70.104C98.0951 69.4107 98.6285 68.8773 99.3111 68.504C99.9938 68.1307 100.778 67.944 101.663 67.944C102.527 67.944 103.295 68.1253 103.967 68.488C104.639 68.8507 105.162 69.368 105.535 70.04C105.919 70.712 106.111 71.496 106.111 72.392ZM103.311 71.672C103.311 71.2027 103.151 70.8293 102.831 70.552C102.511 70.2747 102.111 70.136 101.631 70.136C101.172 70.136 100.783 70.2693 100.463 70.536C100.154 70.8027 99.9618 71.1813 99.8871 71.672H103.311ZM110.291 69.56C110.611 69.0693 111.011 68.6853 111.491 68.408C111.971 68.12 112.504 67.976 113.091 67.976V70.872H112.339C111.656 70.872 111.144 71.0213 110.803 71.32C110.461 71.608 110.291 72.12 110.291 72.856V77H107.555V68.072H110.291V69.56ZM118.03 77.128C117.252 77.128 116.558 76.9947 115.95 76.728C115.342 76.4613 114.862 76.0987 114.51 75.64C114.158 75.1707 113.961 74.648 113.918 74.072H116.622C116.654 74.3813 116.798 74.632 117.054 74.824C117.31 75.016 117.625 75.112 117.998 75.112C118.34 75.112 118.601 75.048 118.782 74.92C118.974 74.7813 119.07 74.6053 119.07 74.392C119.07 74.136 118.937 73.9493 118.67 73.832C118.404 73.704 117.972 73.5653 117.374 73.416C116.734 73.2667 116.201 73.112 115.774 72.952C115.348 72.7813 114.98 72.52 114.67 72.168C114.361 71.8053 114.206 71.32 114.206 70.712C114.206 70.2 114.345 69.736 114.622 69.32C114.91 68.8933 115.326 68.5573 115.87 68.312C116.425 68.0667 117.081 67.944 117.838 67.944C118.958 67.944 119.838 68.2213 120.478 68.776C121.129 69.3307 121.502 70.0667 121.598 70.984H119.07C119.028 70.6747 118.889 70.4293 118.654 70.248C118.43 70.0667 118.132 69.976 117.758 69.976C117.438 69.976 117.193 70.04 117.022 70.168C116.852 70.2853 116.766 70.4507 116.766 70.664C116.766 70.92 116.9 71.112 117.166 71.24C117.444 71.368 117.87 71.496 118.446 71.624C119.108 71.7947 119.646 71.9653 120.062 72.136C120.478 72.296 120.841 72.5627 121.15 72.936C121.47 73.2987 121.636 73.7893 121.646 74.408C121.646 74.9307 121.497 75.4 121.198 75.816C120.91 76.2213 120.489 76.5413 119.934 76.776C119.39 77.0107 118.756 77.128 118.03 77.128Z" fill="black"/>
<defs>
<filter id="filter0_d_72_131" x="0" y="0" width="143" height="143" filterUnits="userSpaceOnUse" color-interpolation-filters="sRGB">
<feFlood flood-opacity="0" result="BackgroundImageFix"/>
<feColorMatrix in="SourceAlpha" type="matrix" values="0 0 0 0 0 0 0 0 0 0 0 0 0 0 0 0 0 0 127 0" result="hardAlpha"/>
<feOffset dy="4"/>
<feGaussianBlur stdDeviation="2"/>
<feComposite in2="hardAlpha" operator="out"/>
<feColorMatrix type="matrix" values="0 0 0 0 0 0 0 0 0 0 0 0 0 0 0 0 0 0 0.25 0"/>
<feBlend mode="normal" in2="BackgroundImageFix" result="effect1_dropShadow_72_131"/>
<feBlend mode="normal" in="SourceGraphic" in2="effect1_dropShadow_72_131" result="shape"/>
</filter>
</defs>
</svg>
