<svg width="143" height="143" viewBox="0 0 143 143" fill="none" xmlns="http://www.w3.org/2000/svg">
<g filter="url(#filter0_d_72_134)">
<rect x="4" width="135" height="135" rx="21" fill="white"/>
</g>
<path d="M43.552 61.384C43.552 62.0347 43.4027 62.632 43.104 63.176C42.8053 63.7093 42.3467 64.1413 41.728 64.472C41.1093 64.8027 40.3413 64.968 39.424 64.968H37.728V69H34.992V57.768H39.424C40.32 57.768 41.0773 57.9227 41.696 58.232C42.3147 58.5413 42.7787 58.968 43.088 59.512C43.3973 60.056 43.552 60.68 43.552 61.384ZM39.216 62.792C39.7387 62.792 40.128 62.6693 40.384 62.424C40.64 62.1787 40.768 61.832 40.768 61.384C40.768 60.936 40.64 60.5893 40.384 60.344C40.128 60.0987 39.7387 59.976 39.216 59.976H37.728V62.792H39.216ZM44.4324 64.52C44.4324 63.6027 44.603 62.7973 44.9444 62.104C45.2964 61.4107 45.771 60.8773 46.3684 60.504C46.9657 60.1307 47.6324 59.944 48.3684 59.944C48.9977 59.944 49.547 60.072 50.0164 60.328C50.4964 60.584 50.8644 60.92 51.1204 61.336V60.072H53.8564V69H51.1204V67.736C50.8537 68.152 50.4804 68.488 50.0004 68.744C49.531 69 48.9817 69.128 48.3524 69.128C47.627 69.128 46.9657 68.9413 46.3684 68.568C45.771 68.184 45.2964 67.6453 44.9444 66.952C44.603 66.248 44.4324 65.4373 44.4324 64.52ZM51.1204 64.536C51.1204 63.8533 50.9284 63.3147 50.5444 62.92C50.171 62.5253 49.7124 62.328 49.1684 62.328C48.6244 62.328 48.1604 62.5253 47.7764 62.92C47.403 63.304 47.2164 63.8373 47.2164 64.52C47.2164 65.2027 47.403 65.7467 47.7764 66.152C48.1604 66.5467 48.6244 66.744 49.1684 66.744C49.7124 66.744 50.171 66.5467 50.5444 66.152C50.9284 65.7573 51.1204 65.2187 51.1204 64.536ZM58.5718 61.56C58.8918 61.0693 59.2918 60.6853 59.7718 60.408C60.2518 60.12 60.7851 59.976 61.3718 59.976V62.872H60.6198C59.9371 62.872 59.4251 63.0213 59.0838 63.32C58.7424 63.608 58.5718 64.12 58.5718 64.856V69H55.8358V60.072H58.5718V61.56ZM67.6555 66.68V69H66.2635C65.2715 69 64.4982 68.76 63.9435 68.28C63.3888 67.7893 63.1115 66.9947 63.1115 65.896V62.344H62.0235V60.072H63.1115V57.896H65.8475V60.072H67.6395V62.344H65.8475V65.928C65.8475 66.1947 65.9115 66.3867 66.0395 66.504C66.1675 66.6213 66.3808 66.68 66.6795 66.68H67.6555ZM74.6195 59.976C75.6648 59.976 76.4968 60.3173 77.1155 61C77.7448 61.672 78.0595 62.6 78.0595 63.784V69H75.3395V64.152C75.3395 63.5547 75.1848 63.0907 74.8755 62.76C74.5662 62.4293 74.1502 62.264 73.6275 62.264C73.1048 62.264 72.6888 62.4293 72.3795 62.76C72.0702 63.0907 71.9155 63.5547 71.9155 64.152V69H69.1795V60.072H71.9155V61.256C72.1928 60.8613 72.5662 60.552 73.0355 60.328C73.5048 60.0933 74.0328 59.976 74.6195 59.976ZM88.3767 64.392C88.3767 64.648 88.3608 64.9147 88.3288 65.192H82.1368C82.1794 65.7467 82.3554 66.1733 82.6648 66.472C82.9848 66.76 83.3741 66.904 83.8328 66.904C84.5154 66.904 84.9901 66.616 85.2568 66.04H88.1688C88.0194 66.6267 87.7474 67.1547 87.3528 67.624C86.9688 68.0933 86.4834 68.4613 85.8968 68.728C85.3101 68.9947 84.6541 69.128 83.9288 69.128C83.0541 69.128 82.2754 68.9413 81.5928 68.568C80.9101 68.1947 80.3768 67.6613 79.9928 66.968C79.6088 66.2747 79.4168 65.464 79.4168 64.536C79.4168 63.608 79.6034 62.7973 79.9768 62.104C80.3608 61.4107 80.8941 60.8773 81.5768 60.504C82.2594 60.1307 83.0434 59.944 83.9288 59.944C84.7928 59.944 85.5608 60.1253 86.2328 60.488C86.9048 60.8507 87.4274 61.368 87.8008 62.04C88.1848 62.712 88.3767 63.496 88.3767 64.392ZM85.5768 63.672C85.5768 63.2027 85.4168 62.8293 85.0968 62.552C84.7768 62.2747 84.3768 62.136 83.8968 62.136C83.4381 62.136 83.0488 62.2693 82.7288 62.536C82.4194 62.8027 82.2274 63.1813 82.1528 63.672H85.5768ZM92.5561 61.56C92.8761 61.0693 93.2761 60.6853 93.7561 60.408C94.2361 60.12 94.7695 59.976 95.3561 59.976V62.872H94.6041C93.9215 62.872 93.4095 63.0213 93.0681 63.32C92.7268 63.608 92.5561 64.12 92.5561 64.856V69H89.8201V60.072H92.5561V61.56ZM100.296 69.128C99.5172 69.128 98.8239 68.9947 98.2159 68.728C97.6079 68.4613 97.1279 68.0987 96.7759 67.64C96.4239 67.1707 96.2265 66.648 96.1839 66.072H98.8879C98.9199 66.3813 99.0639 66.632 99.3199 66.824C99.5759 67.016 99.8905 67.112 100.264 67.112C100.605 67.112 100.867 67.048 101.048 66.92C101.24 66.7813 101.336 66.6053 101.336 66.392C101.336 66.136 101.203 65.9493 100.936 65.832C100.669 65.704 100.237 65.5653 99.6399 65.416C98.9999 65.2667 98.4665 65.112 98.0399 64.952C97.6132 64.7813 97.2452 64.52 96.9359 64.168C96.6265 63.8053 96.4719 63.32 96.4719 62.712C96.4719 62.2 96.6105 61.736 96.8879 61.32C97.1759 60.8933 97.5919 60.5573 98.1359 60.312C98.6905 60.0667 99.3465 59.944 100.104 59.944C101.224 59.944 102.104 60.2213 102.744 60.776C103.395 61.3307 103.768 62.0667 103.864 62.984H101.336C101.293 62.6747 101.155 62.4293 100.92 62.248C100.696 62.0667 100.397 61.976 100.024 61.976C99.7039 61.976 99.4585 62.04 99.2879 62.168C99.1172 62.2853 99.0319 62.4507 99.0319 62.664C99.0319 62.92 99.1652 63.112 99.4319 63.24C99.7092 63.368 100.136 63.496 100.712 63.624C101.373 63.7947 101.912 63.9653 102.328 64.136C102.744 64.296 103.107 64.5627 103.416 64.936C103.736 65.2987 103.901 65.7893 103.912 66.408C103.912 66.9307 103.763 67.4 103.464 67.816C103.176 68.2213 102.755 68.5413 102.2 68.776C101.656 69.0107 101.021 69.128 100.296 69.128Z" fill="black"/>
<defs>
<filter id="filter0_d_72_134" x="0" y="0" width="143" height="143" filterUnits="userSpaceOnUse" color-interpolation-filters="sRGB">
<feFlood flood-opacity="0" result="BackgroundImageFix"/>
<feColorMatrix in="SourceAlpha" type="matrix" values="0 0 0 0 0 0 0 0 0 0 0 0 0 0 0 0 0 0 127 0" result="hardAlpha"/>
<feOffset dy="4"/>
<feGaussianBlur stdDeviation="2"/>
<feComposite in2="hardAlpha" operator="out"/>
<feColorMatrix type="matrix" values="0 0 0 0 0 0 0 0 0 0 0 0 0 0 0 0 0 0 0.25 0"/>
<feBlend mode="normal" in2="BackgroundImageFix" result="effect1_dropShadow_72_134"/>
<feBlend mode="normal" in="SourceGraphic" in2="effect1_dropShadow_72_134" result="shape"/>
</filter>
</defs>
</svg>
