<svg width="143" height="143" viewBox="0 0 143 143" fill="none" xmlns="http://www.w3.org/2000/svg">
<g filter="url(#filter0_d_72_133)">
<rect x="4" width="135" height="135" rx="21" fill="white"/>
</g>
<path d="M33.072 62.768V64.96H30.096V74H27.36V64.96H24.384V62.768H33.072ZM39.9331 64.976C40.9571 64.976 41.7785 65.3173 42.3971 66C43.0158 66.672 43.3251 67.6 43.3251 68.784V74H40.6051V69.152C40.6051 68.5547 40.4505 68.0907 40.1411 67.76C39.8318 67.4293 39.4158 67.264 38.8931 67.264C38.3705 67.264 37.9545 67.4293 37.6451 67.76C37.3358 68.0907 37.1811 68.5547 37.1811 69.152V74H34.4451V62.16H37.1811V66.272C37.4585 65.8773 37.8371 65.5627 38.3171 65.328C38.7971 65.0933 39.3358 64.976 39.9331 64.976ZM53.6424 69.392C53.6424 69.648 53.6264 69.9147 53.5944 70.192H47.4024C47.445 70.7467 47.621 71.1733 47.9304 71.472C48.2504 71.76 48.6397 71.904 49.0984 71.904C49.781 71.904 50.2557 71.616 50.5224 71.04H53.4344C53.285 71.6267 53.013 72.1547 52.6184 72.624C52.2344 73.0933 51.749 73.4613 51.1624 73.728C50.5757 73.9947 49.9197 74.128 49.1944 74.128C48.3197 74.128 47.541 73.9413 46.8584 73.568C46.1757 73.1947 45.6424 72.6613 45.2584 71.968C44.8744 71.2747 44.6824 70.464 44.6824 69.536C44.6824 68.608 44.869 67.7973 45.2424 67.104C45.6264 66.4107 46.1597 65.8773 46.8424 65.504C47.525 65.1307 48.309 64.944 49.1944 64.944C50.0584 64.944 50.8264 65.1253 51.4984 65.488C52.1704 65.8507 52.693 66.368 53.0664 67.04C53.4504 67.712 53.6424 68.496 53.6424 69.392ZM50.8424 68.672C50.8424 68.2027 50.6824 67.8293 50.3624 67.552C50.0424 67.2747 49.6424 67.136 49.1624 67.136C48.7037 67.136 48.3144 67.2693 47.9944 67.536C47.685 67.8027 47.493 68.1813 47.4184 68.672H50.8424ZM57.9324 69.536C57.9324 68.608 58.119 67.7973 58.4924 67.104C58.8764 66.4107 59.4044 65.8773 60.0764 65.504C60.759 65.1307 61.5377 64.944 62.4124 64.944C63.5324 64.944 64.4657 65.2373 65.2124 65.824C65.9697 66.4107 66.4657 67.2373 66.7004 68.304H63.7884C63.543 67.6213 63.0684 67.28 62.3644 67.28C61.863 67.28 61.463 67.4773 61.1644 67.872C60.8657 68.256 60.7164 68.8107 60.7164 69.536C60.7164 70.2613 60.8657 70.8213 61.1644 71.216C61.463 71.6 61.863 71.792 62.3644 71.792C63.0684 71.792 63.543 71.4507 63.7884 70.768H66.7004C66.4657 71.8133 65.9697 72.6347 65.2124 73.232C64.455 73.8293 63.5217 74.128 62.4124 74.128C61.5377 74.128 60.759 73.9413 60.0764 73.568C59.4044 73.1947 58.8764 72.6613 58.4924 71.968C58.119 71.2747 57.9324 70.464 57.9324 69.536ZM70.8999 62.16V74H68.1639V62.16H70.8999ZM74.2586 64.144C73.7786 64.144 73.384 64.0053 73.0746 63.728C72.776 63.44 72.6266 63.088 72.6266 62.672C72.6266 62.2453 72.776 61.8933 73.0746 61.616C73.384 61.328 73.7786 61.184 74.2586 61.184C74.728 61.184 75.112 61.328 75.4106 61.616C75.72 61.8933 75.8746 62.2453 75.8746 62.672C75.8746 63.088 75.72 63.44 75.4106 63.728C75.112 64.0053 74.728 64.144 74.2586 64.144ZM75.6186 65.072V74H72.8826V65.072H75.6186ZM86.0174 69.392C86.0174 69.648 86.0014 69.9147 85.9694 70.192H79.7774C79.82 70.7467 79.996 71.1733 80.3054 71.472C80.6254 71.76 81.0147 71.904 81.4734 71.904C82.156 71.904 82.6307 71.616 82.8974 71.04H85.8094C85.66 71.6267 85.388 72.1547 84.9934 72.624C84.6094 73.0933 84.124 73.4613 83.5374 73.728C82.9507 73.9947 82.2947 74.128 81.5694 74.128C80.6947 74.128 79.916 73.9413 79.2334 73.568C78.5507 73.1947 78.0174 72.6613 77.6334 71.968C77.2494 71.2747 77.0574 70.464 77.0574 69.536C77.0574 68.608 77.244 67.7973 77.6174 67.104C78.0014 66.4107 78.5347 65.8773 79.2174 65.504C79.9 65.1307 80.684 64.944 81.5694 64.944C82.4334 64.944 83.2014 65.1253 83.8734 65.488C84.5454 65.8507 85.068 66.368 85.4414 67.04C85.8254 67.712 86.0174 68.496 86.0174 69.392ZM83.2174 68.672C83.2174 68.2027 83.0574 67.8293 82.7374 67.552C82.4174 67.2747 82.0174 67.136 81.5374 67.136C81.0787 67.136 80.6894 67.2693 80.3694 67.536C80.06 67.8027 79.868 68.1813 79.7934 68.672H83.2174ZM92.9008 64.976C93.9461 64.976 94.7781 65.3173 95.3968 66C96.0261 66.672 96.3408 67.6 96.3408 68.784V74H93.6208V69.152C93.6208 68.5547 93.4661 68.0907 93.1568 67.76C92.8474 67.4293 92.4314 67.264 91.9088 67.264C91.3861 67.264 90.9701 67.4293 90.6608 67.76C90.3514 68.0907 90.1968 68.5547 90.1968 69.152V74H87.4608V65.072H90.1968V66.256C90.4741 65.8613 90.8474 65.552 91.3168 65.328C91.7861 65.0933 92.3141 64.976 92.9008 64.976ZM103.218 71.68V74H101.826C100.834 74 100.061 73.76 99.506 73.28C98.9513 72.7893 98.674 71.9947 98.674 70.896V67.344H97.586V65.072H98.674V62.896H101.41V65.072H103.202V67.344H101.41V70.928C101.41 71.1947 101.474 71.3867 101.602 71.504C101.73 71.6213 101.943 71.68 102.242 71.68H103.218ZM108.374 74.128C107.595 74.128 106.902 73.9947 106.294 73.728C105.686 73.4613 105.206 73.0987 104.854 72.64C104.502 72.1707 104.305 71.648 104.262 71.072H106.966C106.998 71.3813 107.142 71.632 107.398 71.824C107.654 72.016 107.969 72.112 108.342 72.112C108.683 72.112 108.945 72.048 109.126 71.92C109.318 71.7813 109.414 71.6053 109.414 71.392C109.414 71.136 109.281 70.9493 109.014 70.832C108.747 70.704 108.315 70.5653 107.718 70.416C107.078 70.2667 106.545 70.112 106.118 69.952C105.691 69.7813 105.323 69.52 105.014 69.168C104.705 68.8053 104.55 68.32 104.55 67.712C104.55 67.2 104.689 66.736 104.966 66.32C105.254 65.8933 105.67 65.5573 106.214 65.312C106.769 65.0667 107.425 64.944 108.182 64.944C109.302 64.944 110.182 65.2213 110.822 65.776C111.473 66.3307 111.846 67.0667 111.942 67.984H109.414C109.371 67.6747 109.233 67.4293 108.998 67.248C108.774 67.0667 108.475 66.976 108.102 66.976C107.782 66.976 107.537 67.04 107.366 67.168C107.195 67.2853 107.11 67.4507 107.11 67.664C107.11 67.92 107.243 68.112 107.51 68.24C107.787 68.368 108.214 68.496 108.79 68.624C109.451 68.7947 109.99 68.9653 110.406 69.136C110.822 69.296 111.185 69.5627 111.494 69.936C111.814 70.2987 111.979 70.7893 111.99 71.408C111.99 71.9307 111.841 72.4 111.542 72.816C111.254 73.2213 110.833 73.5413 110.278 73.776C109.734 74.0107 109.099 74.128 108.374 74.128Z" fill="black"/>
<defs>
<filter id="filter0_d_72_133" x="0" y="0" width="143" height="143" filterUnits="userSpaceOnUse" color-interpolation-filters="sRGB">
<feFlood flood-opacity="0" result="BackgroundImageFix"/>
<feColorMatrix in="SourceAlpha" type="matrix" values="0 0 0 0 0 0 0 0 0 0 0 0 0 0 0 0 0 0 127 0" result="hardAlpha"/>
<feOffset dy="4"/>
<feGaussianBlur stdDeviation="2"/>
<feComposite in2="hardAlpha" operator="out"/>
<feColorMatrix type="matrix" values="0 0 0 0 0 0 0 0 0 0 0 0 0 0 0 0 0 0 0.25 0"/>
<feBlend mode="normal" in2="BackgroundImageFix" result="effect1_dropShadow_72_133"/>
<feBlend mode="normal" in="SourceGraphic" in2="effect1_dropShadow_72_133" result="shape"/>
</filter>
</defs>
</svg>
