<svg width="143" height="143" viewBox="0 0 143 143" fill="none" xmlns="http://www.w3.org/2000/svg">
<g filter="url(#filter0_d_72_130)">
<rect x="4" width="135" height="135" rx="21" fill="white"/>
</g>
<path d="M25.072 58.768V60.96H22.096V70H19.36V60.96H16.384V58.768H25.072ZM31.9331 60.976C32.9571 60.976 33.7785 61.3173 34.3971 62C35.0158 62.672 35.3251 63.6 35.3251 64.784V70H32.6051V65.152C32.6051 64.5547 32.4505 64.0907 32.1411 63.76C31.8318 63.4293 31.4158 63.264 30.8931 63.264C30.3705 63.264 29.9545 63.4293 29.6451 63.76C29.3358 64.0907 29.1811 64.5547 29.1811 65.152V70H26.4451V58.16H29.1811V62.272C29.4585 61.8773 29.8371 61.5627 30.3171 61.328C30.7971 61.0933 31.3358 60.976 31.9331 60.976ZM45.6424 65.392C45.6424 65.648 45.6264 65.9147 45.5944 66.192H39.4024C39.445 66.7467 39.621 67.1733 39.9304 67.472C40.2504 67.76 40.6397 67.904 41.0984 67.904C41.781 67.904 42.2557 67.616 42.5224 67.04H45.4344C45.285 67.6267 45.013 68.1547 44.6184 68.624C44.2344 69.0933 43.749 69.4613 43.1624 69.728C42.5757 69.9947 41.9197 70.128 41.1944 70.128C40.3197 70.128 39.541 69.9413 38.8584 69.568C38.1757 69.1947 37.6424 68.6613 37.2584 67.968C36.8744 67.2747 36.6824 66.464 36.6824 65.536C36.6824 64.608 36.869 63.7973 37.2424 63.104C37.6264 62.4107 38.1597 61.8773 38.8424 61.504C39.525 61.1307 40.309 60.944 41.1944 60.944C42.0584 60.944 42.8264 61.1253 43.4984 61.488C44.1704 61.8507 44.693 62.368 45.0664 63.04C45.4504 63.712 45.6424 64.496 45.6424 65.392ZM42.8424 64.672C42.8424 64.2027 42.6824 63.8293 42.3624 63.552C42.0424 63.2747 41.6424 63.136 41.1624 63.136C40.7037 63.136 40.3144 63.2693 39.9944 63.536C39.685 63.8027 39.493 64.1813 39.4184 64.672H42.8424ZM49.9324 65.52C49.9324 64.6027 50.103 63.7973 50.4444 63.104C50.7964 62.4107 51.271 61.8773 51.8684 61.504C52.4657 61.1307 53.1324 60.944 53.8684 60.944C54.4977 60.944 55.047 61.072 55.5164 61.328C55.9964 61.584 56.3644 61.92 56.6204 62.336V61.072H59.3564V70H56.6204V68.736C56.3537 69.152 55.9804 69.488 55.5004 69.744C55.031 70 54.4817 70.128 53.8524 70.128C53.127 70.128 52.4657 69.9413 51.8684 69.568C51.271 69.184 50.7964 68.6453 50.4444 67.952C50.103 67.248 49.9324 66.4373 49.9324 65.52ZM56.6204 65.536C56.6204 64.8533 56.4284 64.3147 56.0444 63.92C55.671 63.5253 55.2124 63.328 54.6684 63.328C54.1244 63.328 53.6604 63.5253 53.2764 63.92C52.903 64.304 52.7164 64.8373 52.7164 65.52C52.7164 66.2027 52.903 66.7467 53.2764 67.152C53.6604 67.5467 54.1244 67.744 54.6684 67.744C55.2124 67.744 55.671 67.5467 56.0444 67.152C56.4284 66.7573 56.6204 66.2187 56.6204 65.536ZM64.7278 60.944C65.3571 60.944 65.9064 61.072 66.3758 61.328C66.8558 61.584 67.2238 61.92 67.4798 62.336V61.072H70.2158V69.984C70.2158 70.8053 70.0504 71.5467 69.7198 72.208C69.3998 72.88 68.9038 73.4133 68.2318 73.808C67.5704 74.2027 66.7438 74.4 65.7518 74.4C64.4291 74.4 63.3571 74.0853 62.5358 73.456C61.7144 72.8373 61.2451 71.9947 61.1278 70.928H63.8318C63.9171 71.2693 64.1198 71.536 64.4398 71.728C64.7598 71.9307 65.1544 72.032 65.6238 72.032C66.1891 72.032 66.6371 71.8667 66.9678 71.536C67.3091 71.216 67.4798 70.6987 67.4798 69.984V68.72C67.2131 69.136 66.8451 69.4773 66.3758 69.744C65.9064 70 65.3571 70.128 64.7278 70.128C63.9918 70.128 63.3251 69.9413 62.7278 69.568C62.1304 69.184 61.6558 68.6453 61.3038 67.952C60.9624 67.248 60.7918 66.4373 60.7918 65.52C60.7918 64.6027 60.9624 63.7973 61.3038 63.104C61.6558 62.4107 62.1304 61.8773 62.7278 61.504C63.3251 61.1307 63.9918 60.944 64.7278 60.944ZM67.4798 65.536C67.4798 64.8533 67.2878 64.3147 66.9038 63.92C66.5304 63.5253 66.0718 63.328 65.5278 63.328C64.9838 63.328 64.5198 63.5253 64.1358 63.92C63.7624 64.304 63.5758 64.8373 63.5758 65.52C63.5758 66.2027 63.7624 66.7467 64.1358 67.152C64.5198 67.5467 64.9838 67.744 65.5278 67.744C66.0718 67.744 66.5304 67.5467 66.9038 67.152C67.2878 66.7573 67.4798 66.2187 67.4798 65.536ZM80.6111 65.392C80.6111 65.648 80.5951 65.9147 80.5631 66.192H74.3711C74.4138 66.7467 74.5898 67.1733 74.8991 67.472C75.2191 67.76 75.6085 67.904 76.0671 67.904C76.7498 67.904 77.2245 67.616 77.4911 67.04H80.4031C80.2538 67.6267 79.9818 68.1547 79.5871 68.624C79.2031 69.0933 78.7178 69.4613 78.1311 69.728C77.5445 69.9947 76.8885 70.128 76.1631 70.128C75.2885 70.128 74.5098 69.9413 73.8271 69.568C73.1445 69.1947 72.6111 68.6613 72.2271 67.968C71.8431 67.2747 71.6511 66.464 71.6511 65.536C71.6511 64.608 71.8378 63.7973 72.2111 63.104C72.5951 62.4107 73.1285 61.8773 73.8111 61.504C74.4938 61.1307 75.2778 60.944 76.1631 60.944C77.0271 60.944 77.7951 61.1253 78.4671 61.488C79.1391 61.8507 79.6618 62.368 80.0351 63.04C80.4191 63.712 80.6111 64.496 80.6111 65.392ZM77.8111 64.672C77.8111 64.2027 77.6511 63.8293 77.3311 63.552C77.0111 63.2747 76.6111 63.136 76.1311 63.136C75.6725 63.136 75.2831 63.2693 74.9631 63.536C74.6538 63.8027 74.4618 64.1813 74.3871 64.672H77.8111ZM87.4945 60.976C88.5398 60.976 89.3718 61.3173 89.9905 62C90.6198 62.672 90.9345 63.6 90.9345 64.784V70H88.2145V65.152C88.2145 64.5547 88.0598 64.0907 87.7505 63.76C87.4412 63.4293 87.0252 63.264 86.5025 63.264C85.9798 63.264 85.5638 63.4293 85.2545 63.76C84.9452 64.0907 84.7905 64.5547 84.7905 65.152V70H82.0545V61.072H84.7905V62.256C85.0678 61.8613 85.4412 61.552 85.9105 61.328C86.3798 61.0933 86.9078 60.976 87.4945 60.976ZM92.2918 65.536C92.2918 64.608 92.4784 63.7973 92.8518 63.104C93.2358 62.4107 93.7638 61.8773 94.4358 61.504C95.1184 61.1307 95.8971 60.944 96.7718 60.944C97.8918 60.944 98.8251 61.2373 99.5718 61.824C100.329 62.4107 100.825 63.2373 101.06 64.304H98.1478C97.9024 63.6213 97.4278 63.28 96.7238 63.28C96.2224 63.28 95.8224 63.4773 95.5238 63.872C95.2251 64.256 95.0758 64.8107 95.0758 65.536C95.0758 66.2613 95.2251 66.8213 95.5238 67.216C95.8224 67.6 96.2224 67.792 96.7238 67.792C97.4278 67.792 97.9024 67.4507 98.1478 66.768H101.06C100.825 67.8133 100.329 68.6347 99.5718 69.232C98.8144 69.8293 97.8811 70.128 96.7718 70.128C95.8971 70.128 95.1184 69.9413 94.4358 69.568C93.7638 69.1947 93.2358 68.6613 92.8518 67.968C92.4784 67.2747 92.2918 66.464 92.2918 65.536ZM103.899 60.144C103.419 60.144 103.025 60.0053 102.715 59.728C102.417 59.44 102.267 59.088 102.267 58.672C102.267 58.2453 102.417 57.8933 102.715 57.616C103.025 57.328 103.419 57.184 103.899 57.184C104.369 57.184 104.753 57.328 105.051 57.616C105.361 57.8933 105.515 58.2453 105.515 58.672C105.515 59.088 105.361 59.44 105.051 59.728C104.753 60.0053 104.369 60.144 103.899 60.144ZM105.259 61.072V70H102.523V61.072H105.259ZM115.658 65.392C115.658 65.648 115.642 65.9147 115.61 66.192H109.418C109.461 66.7467 109.637 67.1733 109.946 67.472C110.266 67.76 110.655 67.904 111.114 67.904C111.797 67.904 112.271 67.616 112.538 67.04H115.45C115.301 67.6267 115.029 68.1547 114.634 68.624C114.25 69.0933 113.765 69.4613 113.178 69.728C112.591 69.9947 111.935 70.128 111.21 70.128C110.335 70.128 109.557 69.9413 108.874 69.568C108.191 69.1947 107.658 68.6613 107.274 67.968C106.89 67.2747 106.698 66.464 106.698 65.536C106.698 64.608 106.885 63.7973 107.258 63.104C107.642 62.4107 108.175 61.8773 108.858 61.504C109.541 61.1307 110.325 60.944 111.21 60.944C112.074 60.944 112.842 61.1253 113.514 61.488C114.186 61.8507 114.709 62.368 115.082 63.04C115.466 63.712 115.658 64.496 115.658 65.392ZM112.858 64.672C112.858 64.2027 112.698 63.8293 112.378 63.552C112.058 63.2747 111.658 63.136 111.178 63.136C110.719 63.136 110.33 63.2693 110.01 63.536C109.701 63.8027 109.509 64.1813 109.434 64.672H112.858ZM120.733 70.128C119.955 70.128 119.261 69.9947 118.653 69.728C118.045 69.4613 117.565 69.0987 117.213 68.64C116.861 68.1707 116.664 67.648 116.621 67.072H119.325C119.357 67.3813 119.501 67.632 119.757 67.824C120.013 68.016 120.328 68.112 120.701 68.112C121.043 68.112 121.304 68.048 121.485 67.92C121.677 67.7813 121.773 67.6053 121.773 67.392C121.773 67.136 121.64 66.9493 121.373 66.832C121.107 66.704 120.675 66.5653 120.077 66.416C119.437 66.2667 118.904 66.112 118.477 65.952C118.051 65.7813 117.683 65.52 117.373 65.168C117.064 64.8053 116.909 64.32 116.909 63.712C116.909 63.2 117.048 62.736 117.325 62.32C117.613 61.8933 118.029 61.5573 118.573 61.312C119.128 61.0667 119.784 60.944 120.541 60.944C121.661 60.944 122.541 61.2213 123.181 61.776C123.832 62.3307 124.205 63.0667 124.301 63.984H121.773C121.731 63.6747 121.592 63.4293 121.357 63.248C121.133 63.0667 120.835 62.976 120.461 62.976C120.141 62.976 119.896 63.04 119.725 63.168C119.555 63.2853 119.469 63.4507 119.469 63.664C119.469 63.92 119.603 64.112 119.869 64.24C120.147 64.368 120.573 64.496 121.149 64.624C121.811 64.7947 122.349 64.9653 122.765 65.136C123.181 65.296 123.544 65.5627 123.853 65.936C124.173 66.2987 124.339 66.7893 124.349 67.408C124.349 67.9307 124.2 68.4 123.901 68.816C123.613 69.2213 123.192 69.5413 122.637 69.776C122.093 70.0107 121.459 70.128 120.733 70.128Z" fill="black"/>
<defs>
<filter id="filter0_d_72_130" x="0" y="0" width="143" height="143" filterUnits="userSpaceOnUse" color-interpolation-filters="sRGB">
<feFlood flood-opacity="0" result="BackgroundImageFix"/>
<feColorMatrix in="SourceAlpha" type="matrix" values="0 0 0 0 0 0 0 0 0 0 0 0 0 0 0 0 0 0 127 0" result="hardAlpha"/>
<feOffset dy="4"/>
<feGaussianBlur stdDeviation="2"/>
<feComposite in2="hardAlpha" operator="out"/>
<feColorMatrix type="matrix" values="0 0 0 0 0 0 0 0 0 0 0 0 0 0 0 0 0 0 0.25 0"/>
<feBlend mode="normal" in2="BackgroundImageFix" result="effect1_dropShadow_72_130"/>
<feBlend mode="normal" in="SourceGraphic" in2="effect1_dropShadow_72_130" result="shape"/>
</filter>
</defs>
</svg>
