<svg width="248" height="495" viewBox="0 0 248 495" fill="none" xmlns="http://www.w3.org/2000/svg">
<path fill-rule="evenodd" clip-rule="evenodd" d="M57.9826 172.089C53.9476 176.81 54.3044 178.123 56.4542 182.889C61.2038 193.949 68.0139 205.191 75.7451 215.446C75.2345 192.438 74.7956 169.305 74.0408 146.088C69.4442 155.059 64.5489 163.162 57.9826 172.089ZM57.2213 456.446C54.6815 456.2 36.8063 456.861 41.5901 451.647C40.1135 448.441 44.2389 445.735 46.781 443.296C49.1594 441.026 51.5034 438.504 53.9458 435.586C56.2202 432.881 58.7841 429.683 60.4417 425.951C60.8086 425.366 61.1813 424.957 61.5503 424.733L61.7631 424.604L61.8957 424.393C63.2946 422.16 64.45 419.852 65.7211 417.577C62.612 416.454 59.7873 415.325 56.266 413.766C61.2347 384.496 68.6818 355.979 73.4966 326.622C76.4275 301.077 78.0005 275.291 84.7073 250.132L85.5649 250.198L86.0431 248.55C85.3391 248.531 83.9119 248.484 83.2054 248.456L83.3709 249.3C80.1736 248.929 77.0409 248.018 73.933 247.245C72.3466 247.028 70.7565 245.893 71.3274 244.002C71.5107 241.258 72.0784 238.582 72.3454 235.839C71.3337 235.148 70.2903 234.36 69.2907 233.551C66.6477 234.798 63.4535 238.823 60.5635 237.799C53.8096 228.731 48.1415 217.83 43.0121 209.121C30.6233 188.981 26.6912 176.392 39.4686 155.392C50.5156 137.799 62.4318 109.837 84.5773 105.422C87.0636 104.958 89.6692 104.938 92.0585 103.805C92.1816 102.18 92.9928 101.246 93.5871 101.233C95.0301 100.916 96.6145 100.407 98.0238 100.394C98.5205 100.186 99.1268 100.357 99.6044 100.451C101.025 97.5987 100.898 93.9579 102.454 91.2849C102.51 89.2599 103.127 87.0216 109.368 86.6148C113.615 86.26 119.632 85.918 123.027 87.7749C125.403 89.6882 125.427 93.9744 125.129 96.9946C124.802 99.2132 124.948 101.793 126.685 104.398C131.634 102.869 135.085 106.1 138.183 112.127C151.152 113.893 153.949 114.896 158.98 127.747C161.38 133.32 163.879 139.273 165.749 145.374C168.254 152.832 168.474 160.639 170.91 168.15C177.525 184.704 184.251 195.387 186.37 214.659C187.403 223.168 186.809 227.387 185.827 228.665C183.031 227.857 179.425 227.237 176.489 226.893L179.63 229.283C176.968 241.358 184.635 275.79 163.847 273.145C163.663 272.696 164.002 270.224 164.091 269.198C163.522 269.238 162.471 269.275 161.912 269.205C160.921 272.067 159.432 274.638 158.493 277.548C158.028 279.322 157.441 281.107 156.867 282.832C143.776 326.938 141.183 369.398 147.025 413.678L146.761 413.774L146.654 413.963L146.494 414.024C146.081 414.575 145.497 414.598 144.565 414.6C138.839 414.801 133.807 415.059 129.141 415.189C129.637 417.668 129.319 420.277 129.101 422.799C131.817 422.608 134.308 423.71 136.79 425.034C141.533 427.363 146.256 429.81 150.849 432.485C155.408 435.403 162.781 437.899 159.121 443.144L160.179 443.56C160.215 443.574 160.238 443.587 160.251 443.595C160.376 444.04 158.942 445.885 158.517 445.864C148.491 446.333 139.94 443.991 127.115 441.537C124.179 440.471 109.391 438.659 109.328 435.861C109.375 434.99 110.276 435.049 110.905 434.94C109.021 425.422 115.39 424.654 116.302 416.018C115.041 416.258 113.677 416.464 112.386 416.109C111.252 397.679 113.073 378.813 111.059 360.202L109.013 359.975C102.132 380.226 94.9977 400.946 89.5183 421.981C89.4142 422.439 88.9018 422.126 88.6677 421.959C85.0866 421.874 81.5042 421.492 77.9929 420.888C77.9086 422.957 77.8198 425.065 77.7322 427.132L78.2739 427.422C78.6228 427.908 78.4756 430.184 78.4128 431.163C78.3488 432.164 78.2961 432.888 78.3849 433.567C79.5139 435.795 75.6525 440.622 73.6095 443.306C69.1594 449.068 65.4731 457.601 57.2213 456.446Z" fill="white"/>
<path fill-rule="evenodd" clip-rule="evenodd" d="M101.403 91.349C102.615 90.5278 100.888 97.6514 100.886 98.3368L100.855 98.4865C100.553 99.9372 100.021 101.625 98.7966 102.556C99.3611 107.174 100.064 111.777 100.93 116.347L101.438 116.414C108.988 117.414 116.587 118.788 124.264 118.072C128.399 118.104 131.137 115.277 132.805 111.77C132.692 111.357 132.579 110.945 132.463 110.531C127.211 107.317 123.234 100.795 125.6 94.6382C125.701 94.3755 126.014 94.3571 126.175 94.4942C126.201 94.4967 126.226 94.5176 126.224 94.5468L126.139 95.8484C125.979 98.4383 125.926 101.115 127.328 103.445C133.043 102.143 136.596 106.903 138.985 111.409L140.702 111.663C147.269 112.638 153.602 113.792 156.844 120.513L157.288 121.458C161.82 131.117 166.042 141.049 168.514 151.45C169.758 156.983 170.208 162.685 172.034 168.082C175.824 178.103 181.165 187.522 184.06 197.896C185.857 201.64 190.914 229.819 185.926 230.033C184.131 229.497 182.304 229.062 180.458 228.753C180.742 228.97 180.846 229.339 180.792 229.714C180.148 234.231 180.099 238.806 180.102 243.362C180.442 254.392 180.137 278.123 163.511 274.314C162.297 273.868 163.086 271.923 163.037 270.564C162.942 270.569 162.845 270.567 162.749 270.561C161.795 273.135 160.456 275.51 159.617 278.125C158.906 280.372 158.409 282.79 157.418 284.942C146.921 322.242 142.587 361.475 146.692 400.082C146.922 402.394 147.181 404.703 147.471 407.007C147.43 408.483 149.151 414.425 147.609 414.885C147.549 415.002 147.342 415.136 147.219 415.177C146.288 416.182 144.739 415.809 143.509 415.943C139.163 416.136 134.818 416.315 130.47 416.459C130.73 418.302 130.52 420.173 130.366 422.014C133.537 422.04 136.451 423.968 139.255 425.278C143.42 427.331 147.517 429.525 151.536 431.852C155.247 434.447 163.538 436.953 160.686 442.836C162.812 443.699 159.857 447.305 158.24 447.346C147.721 447.293 137.269 444.909 126.989 442.816C121.148 441.273 114.774 440.688 109.371 438.028C107.837 437.335 108.158 434.571 109.846 434.314C108.593 425.101 113.677 425.228 115.109 417.553C114.276 417.689 113.357 417.612 112.522 417.443C110.59 419.229 111.299 405.171 111.037 403.797C110.985 389.382 111.668 374.936 110.132 360.57L107.52 368.254C101.431 386.188 95.433 404.168 90.6595 422.503C90.3728 423.609 89.2102 423.742 88.4675 423.259C85.3329 423.167 82.2104 422.873 79.1177 422.373C79.0574 423.84 78.9959 425.306 78.9344 426.772C80.2682 427.491 79.365 432.016 79.535 433.547C80.9875 436.855 75.1078 443.296 73.2024 446.01C69.7723 450.799 66.3644 457.501 59.7302 457.724L59.5281 457.729C54.5756 457.85 49.5785 457.56 44.6741 456.853L44.0772 456.756C42.6787 456.522 41.1303 456.18 40.3253 454.937C39.6356 453.872 39.7199 452.497 40.5573 451.684C39.4514 447.673 43.7564 445.244 46.161 442.802C50.6527 438.471 54.7353 433.708 58.2658 428.564L58.4686 428.084C59.123 426.541 59.9049 424.828 61.1232 424.089C62.2849 422.246 63.2783 420.306 64.3271 418.399C61.4621 417.348 58.6409 416.173 55.851 414.937C55.2959 414.69 55.1193 413.968 55.2163 413.432L55.2233 413.395C60.6698 385.127 67.1997 357.061 72.2783 328.728C75.522 302.616 76.852 276.172 83.6717 250.635C80.3627 250.291 77.0702 249.341 73.8234 248.529C71.2203 247.975 69.9042 246.654 70.4174 243.898C70.5937 241.449 71.0846 239.039 71.3497 236.6C70.6565 236.116 69.9804 235.606 69.322 235.082C68.1023 235.992 66.8426 236.85 65.5487 237.649C62.4507 239.88 60.0593 240.227 58.1453 236.571C52.602 227.819 47.2563 218.938 42.2113 209.889C37.5316 201.208 31.7319 192.545 30.544 182.55C28.8185 164.562 49.9337 135.777 60.5116 121.158C66.3447 114.117 73.4492 106.87 82.688 104.823C85.5295 104.402 88.5258 104.345 91.2348 103.314C91.4549 101.998 92.0733 100.786 93.4699 100.463C94.9396 100.138 96.5151 99.6371 97.9955 99.6003C98.3297 99.5057 98.7242 99.4467 99.0782 99.5114C100.091 96.8822 100.24 93.9192 101.403 91.349ZM44.8054 453.763C45.0586 453.888 45.3206 453.996 45.5888 454.092C45.9187 454.137 46.2471 454.179 46.5754 454.216C45.9804 454.083 45.3899 453.933 44.8054 453.763ZM77.6791 428.198C72.8263 429.959 71.4925 421.693 61.9484 425.039C58.2185 431.961 53.3895 438.248 47.87 443.838C45.9082 446.276 40.1014 449.044 43.2307 452.619L43.7099 452.707C49.1442 453.695 54.6604 454.48 60.1979 454.033C64.3823 452.879 67.5206 449.527 70.0571 446.145C71.892 442.894 74.0384 439.835 76.2298 436.817C77.4343 435.317 77.5567 433.407 77.551 431.562C77.5916 430.44 77.6341 429.319 77.6791 428.198ZM132.192 424.141C130.131 423.385 128.018 424.096 126.144 425.022C122.943 426.454 116.009 428.17 113.047 425.887C111.594 428.288 111.107 430.958 111.506 433.728L111.509 433.857C111.54 434.994 111.684 435.917 113.06 435.998L116.921 436.968C129.945 440.237 143.097 443.397 156.503 444.306C160.08 442.073 160.181 439.137 156.378 437.093L155.405 436.496C147.938 431.929 140.297 427.441 132.192 424.141ZM160.526 443.135C160.49 443.196 160.455 443.258 160.419 443.317C160.474 443.345 160.526 443.384 160.574 443.426C160.574 443.325 160.559 443.226 160.526 443.135ZM65.0502 418.661C65.0996 419.677 64.6011 420.823 64.2503 421.734C64.0442 422.272 63.8317 423.041 63.5032 423.658C71.6624 421.251 74.1462 428.303 77.088 426.836L77.1774 426.79V426.788C76.5768 425.416 77.232 423.485 77.6354 422.118C73.3509 421.343 69.1437 420.137 65.0502 418.661ZM129.529 416.491L127.176 416.563C123.517 416.674 119.857 416.771 116.195 416.766C116.578 419.397 115.829 423.737 114.126 425.782C114.122 425.783 114.119 425.783 114.118 425.784C118.938 426.514 123.503 424.306 127.797 422.45C127.977 420.434 128.77 418.376 129.529 416.491ZM113.788 424.506C113.642 424.78 113.494 425.054 113.346 425.327C113.411 425.398 113.483 425.463 113.56 425.518C113.515 425.177 113.637 424.839 113.788 424.506ZM120.563 200.733C123.25 214.309 125.372 228.052 126.108 241.894L126.115 242.031C126.186 243.432 126.395 244.994 125.459 246.163C124.487 247.377 122.974 247.53 121.538 247.751C109.498 249.583 97.2883 250.202 85.1166 249.833C80.6234 272.07 77.8758 294.583 76.1994 317.195C72.558 349.503 64.2916 381.086 58.1003 412.962C67.7014 417.162 77.6601 420.141 88.1833 420.555C103.079 365.516 130.964 307.429 132.45 252.371C132.53 252.282 132.721 252.303 132.742 252.437C133.233 255.449 133.024 258.593 132.915 261.63C132.503 270.975 131.463 280.315 129.93 289.537C126.037 312.44 118.845 334.6 111.478 356.582C111.231 357.569 111.605 358.667 111.617 359.675C113.156 376.486 113.314 393.384 113.809 410.247C113.704 412.112 114.291 414.222 113.645 415.973C119.209 415.228 124.8 414.826 130.392 414.359L130.434 414.332C130.666 414.185 131.035 414.03 131.248 414.291C135.972 413.92 140.701 413.58 145.428 413.263C138.725 365.272 143.358 315.246 161.495 270.163C160.346 269.11 160.847 266.766 160.583 265.302C160.341 259.322 160.354 253.206 161.529 247.32L161.23 247.337C157.619 247.544 141.731 248.181 141.295 245.484C140.691 240.916 142.15 236.388 142.449 231.853C142.984 221.606 142.855 211.32 142.785 201.059C139.64 201.48 136.625 200.903 133.516 200.785C129.194 200.747 124.88 200.857 120.563 200.733ZM64.5244 418.473C64.4425 418.826 64.348 419.18 64.2472 419.533C64.3867 419.218 64.544 418.915 64.7305 418.647L64.7876 418.568L64.5244 418.473ZM115.942 416.768L115.684 416.77L115.683 416.918C115.743 417.019 115.753 417.142 115.678 417.241C115.669 417.695 115.65 418.151 115.615 418.607C115.714 417.993 115.814 417.379 115.942 416.768ZM112.668 416.617L112.682 416.846C113.012 416.834 113.345 416.847 113.673 416.831C113.846 416.822 114.024 416.792 114.203 416.76C113.687 416.744 113.172 416.703 112.668 416.617ZM171.293 228.106C171.13 228.298 170.952 228.413 170.772 228.472C170.774 232.814 169.897 237.085 167.494 240.845C166.495 242.17 165.93 243.678 165.447 245.25C162.906 252.445 162.435 260.174 163.361 267.708C165.857 264.046 166.849 259.677 167.547 255.369C167.585 255.152 167.943 255.155 167.982 255.369C168.826 259.98 167.376 264.51 165.642 268.772C164.558 269.546 164.817 271.573 164.687 272.766C183.092 275.448 176.691 240.116 179.05 229.234C179.093 228.935 179.348 228.717 179.637 228.625C176.876 228.204 174.079 228.173 171.293 228.106ZM84.6155 249.812C84.6384 249.928 84.658 250.044 84.6726 250.16C84.7062 250.047 84.7392 249.932 84.7722 249.818C84.7214 249.816 84.6688 249.815 84.6155 249.812ZM97.0548 100.363L96.7326 100.447C93.3317 101.325 92.2312 101.204 92.0384 105.31C91.2024 110.882 88.1167 115.742 86.7289 121.13C86.1739 123.033 86.7613 126.54 89.3922 126.024C90.2447 125.763 90.9094 126.912 90.2643 127.521C88.359 129.323 86.5094 131.181 84.6485 133.026C92.1189 158.235 101.823 182.789 113.644 206.28C114.112 207.213 112.707 208.033 112.242 207.1C100.49 183.533 90.7159 158.988 83.1307 133.772L82.9011 133.008C82.5662 132.08 86.8501 128.753 87.6296 127.667C79.8078 123.899 90.728 110.702 91.0248 104.347C88.7865 105.331 86.2488 104.978 83.8836 105.375C79.3466 106.17 75.3647 108.791 71.8248 111.619C57.447 124.312 48.259 141.886 39.0681 158.45C32.8089 169.258 29.7913 182.469 36.0725 193.965C43.3608 208.705 51.8153 222.912 60.7538 236.704C61.7353 237.981 63.246 236.513 64.2802 235.977C70.2252 232.406 75.3805 227.546 79.3447 221.864C69.7336 210.073 61.3611 197.187 55.4399 183.147L55.3583 182.984C54.0298 180.314 52.9793 177.085 55.1955 174.571C63.0648 164.493 70.0634 153.795 76.6503 142.846C76.7182 142.736 76.8698 142.833 76.8203 142.947C76.1442 144.478 75.4319 145.998 74.6892 147.503C76.1892 169.764 75.9355 192.459 76.5837 214.862C78.3324 217.176 80.1331 219.452 81.975 221.691C87.9511 217.574 94.9808 214.888 102.201 214.056L102.668 214.01C105.734 213.694 110.799 213.1 111.201 217.08C110.704 221.977 100.582 219.224 97.3453 222.001C102.65 224.139 108.73 224.741 113.6 227.963C115.163 228.875 118.226 231.779 115.233 232.89C113.928 233.001 112.579 232.494 111.275 232.383C112.743 232.877 114.093 233.715 114.953 235.028C115.572 235.929 116.024 237.799 114.545 238.184C111.172 238.28 107.815 237.18 104.493 236.633L104.788 236.753C107.21 237.744 110.973 239.524 107.712 242.149C104.447 243.839 100.495 240.965 97.2432 240.197C88.4839 238.16 82.0049 243.744 73.0261 237.698C72.7711 239.718 72.3887 241.725 72.2352 243.756L72.2155 243.872C71.9047 245.726 72.1711 246.396 74.171 246.75C76.5818 247.478 79.1075 247.706 81.6135 247.841C93.6723 248.479 105.811 248.027 117.788 246.483C119.511 246.02 123.56 246.456 124.28 244.56C122.93 195.757 102.591 149.835 96.9902 101.665C96.8982 101.202 96.8918 100.73 97.0548 100.363ZM131.051 104.534C130.09 104.573 129.194 104.782 128.238 104.878C128.767 106.005 131.564 107.6 131.309 108.159C131.511 108.315 131.716 108.466 131.923 108.611C131.634 107.595 131.342 106.579 131.049 105.562C141.675 131.452 143.135 162.084 144.547 190.326C145.011 204.567 145.265 218.851 144.577 233.083C144.194 236.863 143.182 240.684 143.457 244.501C149.694 245.399 156.02 245.476 162.282 244.811C162.467 244.325 162.677 243.847 162.914 243.377C172.288 231.946 167.317 217.62 162.803 205.238C160.074 205.353 157.328 205.181 154.597 205.214C155.441 207.827 155.658 210.592 156.107 213.294C156.414 215.22 156.804 217.13 157.252 219.026L157.373 219.532C157.542 220.231 157.766 220.986 157.521 221.679C157.28 222.364 156.448 222.64 155.896 222.108C154.903 220.974 155.009 219.286 154.689 217.88L154.63 217.438C154.082 213.403 153.362 209.216 154.362 205.212C153.38 205.002 150.697 205.776 150.556 204.456C150.597 202.276 149.017 197.553 150.776 196.117C151.824 195.319 153.624 195.571 154.852 195.522C156.27 195.465 157.688 195.412 159.105 195.421C147.713 167.883 150.882 159.406 152.038 132.001L152.072 131.164C152.069 130.983 152.36 130.938 152.391 131.12C154.133 142.346 151.811 153.712 152.911 164.973C154.865 186.369 168.419 204.74 170.684 226.034C175.571 225.467 180.515 226.162 185.252 227.389C185.351 226.524 185.428 225.656 185.482 224.788C186.381 208.894 180.807 193.459 174.301 179.203C170.403 171.637 167.994 163.561 166.984 155.117C165.027 144.119 160.632 133.758 156.252 123.542C153.483 115.902 147.497 114.101 140.074 113.214C142.578 117.365 145.066 121.526 147.55 125.689C148.104 126.948 146.406 127.847 145.664 128.622C154.783 133.597 149.458 148.958 149.647 157.565C148.97 165.475 148.715 173.43 147.521 181.284C147.434 181.828 146.6 181.669 146.592 181.159C146.702 169.39 148.105 157.669 148.721 145.919L148.796 145.062C149.275 139.5 149.745 131.474 143.059 129.947C142.156 129.8 142.087 128.458 142.811 128.055C143.775 127.518 144.62 126.862 145.376 126.081C142.822 121.793 140.272 117.502 137.744 113.196L137.625 112.996C135.83 109.949 134.162 106.403 131.051 104.534ZM109.353 216.782C108.615 214.608 101.456 216.024 99.545 216.26C92.4982 217.591 85.4065 220.711 80.0393 225.515C79.7082 225.811 79.3168 225.806 79.0079 225.646C76.604 228.718 73.8278 231.502 70.7833 233.948C71.3402 234.387 71.913 234.813 72.5016 235.221C72.7838 235.251 73.0382 235.397 73.153 235.659C81.5298 241.73 87.6917 236.994 96.3939 238.088C99.6427 238.743 102.635 240.81 105.983 240.897C108.44 240.338 106.277 239.311 105.129 238.914C102.531 237.672 99.8812 236.541 97.2267 235.426L95.1026 234.535C94.0592 234.097 94.4175 232.519 95.5833 232.795C97.6244 233.276 99.6712 233.733 101.72 234.183C105.659 234.987 109.693 236.018 113.674 236.409C112.789 233.948 103.4 231.291 100.67 230.313C99.6389 229.826 96.6984 229.919 97.0339 228.32C97.3054 226.832 100.434 228.536 101.478 228.657C105.736 229.738 110.083 230.393 114.423 231.051C109.762 226.374 102.536 225.97 96.5836 223.779L96.4536 223.749C95.3918 223.505 93.9019 223.043 94.7715 221.827C97.8306 217.316 109.865 219.599 109.353 216.782ZM100.545 191.665C102.716 189.883 103.88 193.543 103.742 195.245C103.844 196.657 103.954 198.07 104.046 199.482C103.912 200.586 105.088 204.612 103.514 204.648C96.6356 204.299 89.769 204.387 82.8884 203.973C82.8789 205.361 82.8117 206.748 82.8821 208.138C82.8446 209.876 83.4485 211.612 83.0958 213.33C82.8808 214.12 81.807 214.226 81.3877 213.552C80.1306 210.595 80.9945 206.78 81.885 203.788C78.5157 203.165 78.0508 199.997 78.9388 197.17L78.9293 197.017C78.8798 196.145 78.8836 195.21 79.2731 194.505C80.3133 193.279 82.4717 194.075 83.9051 193.983C88.2987 193.53 92.7729 193.405 97.1157 192.597C98.2397 192.307 99.3858 191.72 100.545 191.665ZM73.2329 150.367C69.8123 156.898 65.8766 163.113 61.6867 169.165C60.7889 170.457 59.867 171.733 58.9304 172.999L58.757 173.221C56.8851 175.599 54.9412 177.572 56.7098 180.727C61.3439 191.986 67.5486 202.559 74.7374 212.372C74.282 191.703 73.8798 171.029 73.2329 150.367ZM159.232 195.751C150.637 197.553 150.476 194.18 151.91 203.728C155.358 203.751 158.802 203.674 162.25 203.729C161.265 201.063 160.244 198.408 159.232 195.751ZM101.542 193.055C97.0536 194.615 92.2877 194.393 87.5998 194.584C87.6093 195.593 82.8129 194.657 81.8926 194.795L81.538 194.765C80.7769 194.704 79.8204 194.694 79.8122 195.627C80.0564 197.26 79.1373 199.049 79.7069 200.654C80.475 202.815 83.7618 202.593 85.5752 202.635C88.5651 202.702 91.5551 202.774 94.5457 202.853C97.2312 202.923 99.9262 203.057 102.615 203.077C102.373 201.163 102.306 199.202 102.16 197.29C101.976 195.916 102.241 194.287 101.542 193.055ZM120.416 200.005C120.421 200.029 120.426 200.054 120.432 200.079C120.484 200.064 120.543 200.055 120.595 200.041C120.536 200.031 120.475 200.019 120.416 200.005Z" fill="black"/>
<path fill-rule="evenodd" clip-rule="evenodd" d="M144.308 67.6925C143.737 58.3368 140.697 47.7297 131.748 43.1362C112.022 35.2309 86.0853 55.1386 84.7121 75.4761C84.2332 82.4372 88.1042 90.0443 95.1782 91.9799C96.7512 94.0608 99.1297 95.3313 101.477 96.4343C129.439 110.919 147.501 99.1447 144.308 67.6925Z" fill="white"/>
<path fill-rule="evenodd" clip-rule="evenodd" d="M150.678 61.8728C149.69 59.1323 148.646 56.4129 147.548 53.7145C146.479 51.0884 145.512 48.4055 144.184 45.9038C136.252 30.962 121.827 30.962 114.371 32.9143C110.504 31.2508 103.262 31.72 99.2356 33.2212C92.7172 35.6514 84.7717 45.2111 82.0551 49.5062C76.0568 58.9895 72.3133 71.6113 76.2978 82.5698C76.8185 84.0021 77.4826 85.3285 78.2304 86.6066C77.7592 87.2444 77.2175 87.8479 76.6168 88.4413C74.832 90.2042 73.0472 91.9094 71.5059 93.8977C69.9735 95.8739 68.7037 97.9757 67.758 100.293C65.975 104.663 65.8888 109.61 68.2464 113.78C70.297 117.408 73.9294 120.109 78.0224 120.367C78.233 120.396 78.4429 120.423 78.6548 120.444C79.1971 121.336 79.858 122.157 80.6127 122.873C82.9247 125.069 88.4365 126.196 91.5806 126.268C91.7417 126.397 91.904 126.526 92.0671 126.655C93.9902 128.166 96.009 129.691 98.2169 130.767C99.7132 131.496 101.674 132.105 103.235 131.579C103.943 132.051 105.104 131.952 105.806 131.565C106.96 130.931 107.898 129.788 108.469 128.617C109.853 125.776 109.521 122.667 109.165 119.632C108.774 116.279 108.397 112.925 108.015 109.573C107.715 106.95 107.401 104.286 106.603 101.76C106.19 100.451 105.649 99.1942 104.95 98.0119C104.969 97.9129 104.966 97.8133 104.937 97.72C104.708 96.9768 104.235 96.5872 103.675 96.082C103.603 96.0173 103.53 95.9513 103.459 95.8834C103.179 95.5648 102.879 95.2685 102.559 95.0171C102.435 94.8921 102.313 94.7658 102.191 94.6395C101.177 93.5791 100.219 92.4647 99.3681 91.2704C98.5423 90.1122 97.7971 88.9033 97.0873 87.6715C96.3661 86.4181 95.8885 85.0359 95.1686 83.7921C95.1065 83.6855 94.9498 83.6645 94.8623 83.7527C94.6397 83.9831 94.4963 84.2388 94.5236 84.5079L94.4119 84.5244C94.3701 84.1183 93.9946 83.7876 93.4859 83.8765C92.7235 84.0085 92.0969 84.0586 91.4372 83.8054C91.5533 83.0369 91.6598 82.2671 91.7658 81.4954C91.9586 80.0751 92.1375 78.6511 92.2909 77.227C92.6633 77.3152 93.0324 77.4434 93.3939 77.6058C93.909 77.8356 94.3955 78.1459 94.8115 78.526C95.2213 78.9024 95.5042 79.4094 96.0046 79.6709C96.5799 79.9704 97.2744 79.4754 97.1057 78.8256C96.7638 77.5126 94.828 76.7605 93.6305 76.5124C93.2189 76.4267 92.799 76.3906 92.3785 76.3994C92.4736 75.485 92.558 74.5705 92.6271 73.6547C92.6601 73.2213 92.6905 72.7878 92.7191 72.3531C93.6502 72.072 94.6473 71.9876 95.6158 72.1202C95.9348 72.3747 96.2545 72.6254 96.5634 72.8799C97.544 73.689 98.5201 74.5026 99.4842 75.3314C99.5711 75.405 99.6574 75.4786 99.7443 75.5541C100.317 76.046 101.031 75.5586 100.935 74.8624C100.148 69.1559 103.649 64.6165 107.748 61.0997C112.284 57.2056 120.533 56.7521 125.929 50.0069C128.414 50.5119 133.963 52.0119 136.252 55.6548C139.457 60.7598 139.039 65.3336 139.283 71.1245C139.526 76.9198 140.147 82.9645 138.829 88.6786C137.613 93.9478 134.322 98.4498 129.216 100.519C129.089 100.57 128.961 100.62 128.833 100.668C126.193 101.662 123.311 101.943 120.533 101.42C117.459 100.84 114.892 99.4347 112.335 97.7066C112.187 97.6089 111.971 97.8101 112.083 97.958C115.454 102.419 122.076 103.909 127.328 102.732C127.574 102.676 127.818 102.616 128.061 102.55C126.885 105.924 127.122 109.627 128.652 112.911C129.573 114.888 130.976 116.598 132.686 117.947C134.571 119.433 136.909 120.633 138.216 122.72C139.413 124.631 139.058 126.779 137.008 127.883C136.491 128.163 136.293 129.067 136.805 129.464C137.001 129.614 137.196 129.768 137.397 129.918C138.545 130.783 141.698 132.407 142.208 132.468C146.742 133.005 149.791 129.68 151.744 125.76C154.039 121.157 153.442 115.548 150.915 111.165C148.887 107.649 144.894 104.183 146.481 99.7323C147.048 98.1426 148.206 96.7877 149.332 95.5629C150.615 94.1687 151.994 92.8633 153.225 91.4195C154.448 89.9859 155.533 88.426 156.139 86.6275C157.023 83.9983 156.583 81.1552 155.918 78.5305C154.495 72.8964 152.647 67.3371 150.678 61.8728Z" fill="black"/>
<path fill-rule="evenodd" clip-rule="evenodd" d="M125.281 91.2881C124.268 90.8756 123.364 90.1877 122.704 89.3088C122.475 89.0029 122.415 88.6805 122.463 88.3854C122.517 88.0535 122.714 87.7527 122.982 87.5509C123.251 87.3484 123.588 87.2488 123.912 87.2996C124.195 87.344 124.476 87.4982 124.7 87.8187L124.746 87.8828C125.138 88.4133 125.65 88.8487 126.233 89.1292C126.795 89.3995 127.424 89.5258 128.074 89.4522C129.313 89.3126 130.167 88.6437 131.075 87.7355C131.187 87.6207 131.299 87.502 131.413 87.3821C131.484 87.2729 131.583 87.2031 131.693 87.1663C131.815 87.1257 131.954 87.1276 132.08 87.172C132.202 87.2145 132.311 87.2951 132.384 87.4024C132.454 87.5045 132.493 87.6308 132.481 87.7755C132.398 88.7167 131.905 89.5569 131.205 90.2169C130.427 90.9492 129.396 91.4563 128.426 91.634C127.356 91.8301 126.267 91.6898 125.281 91.2881ZM128.93 76.7643C130.067 77.4548 131.801 79.0648 130.577 80.7763C129.137 82.2855 127.063 80.5549 126.041 79.7724C125.093 79.1657 124.028 80.7256 124.908 81.4338C132.292 86.8934 135.289 76.9452 129.505 75.9526C128.869 75.8435 128.632 76.5511 128.93 76.7643ZM115.697 70.4137C115.823 68.8564 118.198 68.5023 118.435 70.0437C118.647 71.4247 118.397 72.6932 117.775 73.9365C117.18 75.1238 115.683 74.5698 115.57 73.4884C115.419 72.039 115.619 71.3828 115.697 70.4137ZM133.782 69.7245C134.114 69.2911 134.592 68.9953 135.165 69.1623C136.956 69.6845 136.428 72.223 135.799 73.458C135.457 74.1287 134.353 74.2988 133.854 73.708C133.04 72.7453 132.651 70.8218 133.685 69.8724C133.713 69.8235 133.744 69.774 133.782 69.7245ZM117.749 63.5979L118.032 63.5484C118.907 63.3973 119.995 63.2521 120.614 63.9546C120.941 64.3271 121.055 65.0188 120.614 65.3755C119.837 66.0025 118.98 65.7594 118.049 65.8128C117.283 65.8565 116.547 65.9835 115.808 66.1942C114.188 66.6562 112.869 67.5002 111.486 68.4267C111.304 68.5479 111.119 68.3163 111.205 68.1469C112.004 66.5851 113.552 65.3025 115.102 64.52C115.929 64.1031 116.834 63.7566 117.749 63.5979ZM132.15 62.8983L132.367 62.9425C134.722 63.4341 137.783 64.416 138.898 66.7266C138.941 67.0534 138.896 67.1232 138.859 67.1689L138.847 67.1842C138.817 67.2229 138.793 67.2768 138.651 67.3212C138.612 67.3123 138.572 67.3022 138.532 67.2914C138.02 67.1581 137.616 66.9735 137.224 66.7824L136.8 66.5737C136.307 66.3325 135.81 66.0996 135.284 65.9283C134.16 65.5621 133.003 65.3044 131.829 65.1667C131.574 65.1369 131.33 65.0512 131.136 64.904C130.953 64.7644 130.813 64.5714 130.749 64.3144C130.666 63.9825 130.69 63.7306 130.868 63.431C131.002 63.2059 131.194 63.0499 131.415 62.9603C131.64 62.8689 131.896 62.8474 132.15 62.8983Z" fill="black"/>
</svg>
