<svg width="340" height="176" viewBox="0 0 340 176" fill="none" xmlns="http://www.w3.org/2000/svg">
<g clip-path="url(#clip0_77_129)">
<path fill-rule="evenodd" clip-rule="evenodd" d="M49.2898 205.556C49.744 205.329 50.2174 205.069 50.7362 205.05C51.6269 205.019 51.6281 203.632 50.7362 203.663C49.9581 203.691 49.2749 204.016 48.5904 204.358C47.7916 204.756 48.4942 205.953 49.2898 205.556ZM50.7362 166.499C50.1283 166.5 49.5156 166.576 49.0487 167.002C48.7712 167.255 48.7932 167.727 49.0487 167.983C49.3223 168.257 49.7523 168.236 50.0289 167.983C49.9386 168.065 50.028 167.984 50.0607 167.966C50.0686 167.962 50.0728 167.959 50.0749 167.957C50.0818 167.955 50.0888 167.954 50.1 167.951C50.1724 167.933 50.244 167.915 50.3172 167.901C50.3184 167.905 50.4719 167.891 50.508 167.89C50.5842 167.887 50.6601 167.887 50.7362 167.887C51.1121 167.886 51.4291 167.569 51.4291 167.193C51.4291 166.818 51.1107 166.499 50.7362 166.499ZM57.2522 182.064C57.4507 182.935 58.7865 182.564 58.5885 181.694C58.3005 180.431 58.353 179.135 58.5885 177.867C58.7506 176.993 57.4148 176.622 57.2522 177.499C56.9697 179.02 56.9065 180.546 57.2522 182.064ZM59.0025 132.196C60.0345 131.951 61.0554 131.922 62.1111 131.921C63.0042 131.921 63.0028 130.533 62.1111 130.534C60.9336 130.534 59.7841 130.585 58.634 130.858C57.7654 131.065 58.1355 132.402 59.0025 132.196ZM62.4607 165.994C63.0593 165.694 63.6581 165.394 64.2567 165.095C65.0555 164.695 64.3528 163.498 63.5573 163.896L61.7613 164.796C60.9626 165.195 61.6653 166.392 62.4607 165.994ZM62.71 193.318C63.4694 194.415 64.5369 195.095 65.8181 195.436C66.6825 195.664 67.0479 194.325 66.1866 194.097C65.2703 193.854 64.4564 193.411 63.9067 192.619C63.4014 191.888 62.2005 192.582 62.71 193.318ZM67.4985 144.465C67.7041 144.081 68.0133 143.918 68.3971 143.91C69.2889 143.889 69.289 142.502 68.3971 142.522C67.5224 142.542 66.7201 142.982 66.3022 143.765C65.8813 144.553 67.0782 145.253 67.4985 144.465ZM76.2886 153.897C76.537 154.168 77.0187 154.161 77.2686 153.897C77.4216 153.735 77.55 153.554 77.6511 153.357C77.6896 153.282 77.7258 153.205 77.7681 153.132C77.787 153.1 77.8079 153.067 77.8294 153.036C77.8368 153.03 77.8517 153.014 77.8673 152.998C78.1337 152.716 78.1268 152.3 77.8673 152.016C77.6189 151.745 77.137 151.752 76.8872 152.016C76.7345 152.178 76.6057 152.359 76.5048 152.557C76.4663 152.632 76.4301 152.708 76.3876 152.781C76.3688 152.814 76.3478 152.846 76.3263 152.877C76.3191 152.883 76.3042 152.899 76.2886 152.916C76.0222 153.197 76.0289 153.614 76.2886 153.897ZM77.0276 174.386C77.93 174.799 78.92 174.799 79.8225 174.386C80.1642 174.23 80.2453 173.735 80.0708 173.436C79.8689 173.09 79.4629 173.032 79.1229 173.188C78.7136 173.375 78.1357 173.375 77.7269 173.188C77.3853 173.032 76.9833 173.087 76.779 173.436C76.6035 173.736 76.6871 174.23 77.0276 174.386ZM79.4894 188.889C79.6444 189.255 79.9793 189.451 80.3708 189.466C80.7585 189.48 81.0474 189.136 81.0637 188.772C81.074 188.537 80.9471 188.335 80.7647 188.212C80.7644 188.198 80.764 188.186 80.764 188.172C80.7639 187.784 80.4467 187.495 80.0712 187.48C79.6972 187.462 79.3781 187.809 79.3783 188.172C79.3784 188.418 79.3936 188.66 79.4894 188.889ZM83.0647 211.944C84.1707 211.961 85.2513 212.226 86.3574 212.243C87.251 212.259 87.2482 210.872 86.3574 210.856C85.2515 210.839 84.1709 210.574 83.0647 210.557C82.1711 210.542 82.1738 211.93 83.0647 211.944ZM87.6636 123.026C88.311 123.644 89.1107 123.948 89.8992 124.334C90.698 124.725 91.3998 123.528 90.5986 123.136C89.9306 122.809 89.1912 122.567 88.6434 122.045C87.9973 121.429 87.0163 122.409 87.6636 123.026ZM89.4012 139.02C89.8556 138.793 90.329 138.533 90.8474 138.515C91.7383 138.484 91.7395 137.096 90.8474 137.128C90.0695 137.155 89.3865 137.479 88.7018 137.822C87.9027 138.221 88.6055 139.417 89.4012 139.02ZM97.7321 203.21C97.9371 202.825 98.2464 202.661 98.6302 202.653C99.5222 202.634 99.5226 201.245 98.6302 201.266C97.7554 201.286 96.9532 201.726 96.5352 202.508C96.1147 203.297 97.3112 203.997 97.7321 203.21ZM100.617 173.078C100.893 172.825 100.873 172.354 100.617 172.097C100.318 171.797 100.018 171.498 99.7189 171.198C99.4451 170.924 99.0157 170.944 98.739 171.198C98.4633 171.451 98.4825 171.921 98.739 172.179C99.0385 172.478 99.3376 172.779 99.6371 173.078C99.911 173.353 100.34 173.332 100.617 173.078ZM104.018 220.036C105.018 220.014 105.955 219.727 106.897 219.412C107.74 219.132 107.376 217.791 106.528 218.075C105.71 218.347 104.888 218.628 104.018 218.649C103.127 218.67 103.126 220.057 104.018 220.036ZM108.509 190.365C109.412 190.34 110.161 189.879 110.795 189.262C111.435 188.64 110.454 187.658 109.815 188.282C109.452 188.634 109.034 188.963 108.509 188.978C107.617 189.002 107.616 190.389 108.509 190.365ZM105.72 152.207C105.709 152.577 105.553 152.973 105.325 153.215C104.712 153.865 105.691 154.847 106.304 154.196C106.811 153.66 107.085 152.942 107.106 152.207C107.132 151.313 105.746 151.316 105.72 152.207ZM116.291 121.987C116.581 121.418 116.961 120.752 117.539 120.438C118.324 120.011 117.624 118.813 116.84 119.239C116.054 119.666 115.491 120.508 115.094 121.286C114.689 122.081 115.885 122.782 116.291 121.987ZM118.087 136.417C118.409 136.408 118.728 136.353 119.038 136.268C119.17 136.232 119.301 136.191 119.434 136.155C119.491 136.14 119.732 136.109 119.584 136.117C119.959 136.097 120.277 135.816 120.277 135.424C120.277 135.063 119.958 134.71 119.584 134.73C119.07 134.757 118.602 135.015 118.087 135.029C117.196 135.055 117.195 136.442 118.087 136.417ZM122.577 158.596H124.074C124.967 158.596 124.966 157.208 124.074 157.208H122.577C121.684 157.208 121.686 158.596 122.577 158.596ZM124.323 219.942C124.777 220.168 125.312 220.385 125.68 220.732C126.328 221.346 127.309 220.366 126.66 219.751C126.191 219.307 125.593 219.029 125.023 218.744C124.687 218.575 124.274 218.651 124.074 218.993C123.894 219.3 123.989 219.775 124.323 219.942ZM127.667 202.41C127.725 202.393 127.787 202.383 127.845 202.374C128.081 202.343 128.328 202.354 128.564 202.354C129.457 202.354 129.456 200.965 128.564 200.967C127.861 200.967 127.13 200.977 126.577 201.468C126.297 201.719 126.324 202.197 126.577 202.45C126.853 202.727 127.278 202.699 127.557 202.45C127.528 202.477 127.629 202.421 127.667 202.41ZM128.564 178.831C128.362 178.415 128.359 178.145 128.359 177.683C128.358 176.789 126.973 176.791 126.973 177.683C126.974 178.353 127.073 178.924 127.367 179.532C127.531 179.871 128.011 179.958 128.315 179.781C128.656 179.582 128.727 179.168 128.564 178.831ZM132.571 146.283C133.375 146.556 134.092 146.944 134.8 147.412C135.547 147.905 136.241 146.703 135.499 146.214C134.692 145.68 133.856 145.257 132.939 144.945C132.092 144.656 131.731 145.997 132.571 146.283ZM137.245 122.93C137.842 122.947 138.458 123.176 138.991 123.435C139.79 123.824 140.492 122.627 139.69 122.236C138.93 121.867 138.098 121.566 137.245 121.542C136.351 121.517 136.355 122.905 137.245 122.93ZM139.34 185.269C139.575 185.281 139.776 185.154 139.901 184.97C139.913 184.97 139.926 184.97 139.939 184.97C140.327 184.97 140.615 184.652 140.632 184.276C140.649 183.903 140.301 183.583 139.939 183.583C139.694 183.583 139.452 183.599 139.224 183.693C138.858 183.85 138.662 184.185 138.647 184.577C138.633 184.965 138.977 185.254 139.34 185.269ZM142.748 137.291C143.599 137.57 143.961 136.229 143.117 135.953C142.126 135.629 141.114 135.378 140.123 135.054C139.272 134.776 138.911 136.116 139.755 136.392C140.745 136.716 141.758 136.967 142.748 137.291ZM145.856 163.481C146.12 164.333 147.457 163.967 147.193 163.112C146.937 162.287 146.919 161.457 146.918 160.599C146.918 159.705 145.532 159.706 145.532 160.599C145.533 161.575 145.565 162.542 145.856 163.481ZM155.122 194.85C155.172 195.195 155.446 195.444 155.804 195.46C156.169 195.477 156.51 195.13 156.497 194.767C156.472 194.067 155.903 193.499 155.205 193.473C154.817 193.459 154.529 193.803 154.512 194.167C154.496 194.521 154.792 194.798 155.122 194.85ZM159.811 154.974C160.543 155.219 161.325 155.452 161.899 155.995C162.548 156.608 163.529 155.628 162.879 155.014C162.122 154.298 161.149 153.96 160.179 153.636C159.33 153.353 158.969 154.693 159.811 154.974ZM162.989 181.93C163.19 182.273 163.597 182.335 163.936 182.179C164.391 181.966 164.893 181.974 165.383 181.973C166.276 181.973 166.275 180.586 165.383 180.586C164.627 180.586 163.93 180.658 163.237 180.979C162.896 181.139 162.813 181.629 162.989 181.93ZM164.784 214.641C165.172 214.656 165.461 214.313 165.477 213.948C165.493 213.594 165.198 213.317 164.868 213.266C164.818 212.92 164.544 212.671 164.186 212.654C163.821 212.639 163.479 212.986 163.493 213.348C163.518 214.046 164.087 214.617 164.784 214.641ZM38.5305 219.888C38.766 219.039 39.3048 218.355 39.7118 217.592C39.8483 217.334 39.8959 217.174 39.9699 216.987C40.0703 217.188 40.2654 217.339 40.5585 217.339C41.1212 217.339 41.7792 217.303 42.3044 217.544C42.6457 217.7 43.0481 217.645 43.2522 217.295C43.4277 216.994 43.3439 216.502 43.0038 216.346C42.2298 215.992 41.398 215.952 40.5585 215.951C40.3513 215.951 40.1943 216.028 40.0834 216.143C39.7626 211.745 39.7705 207.343 40.0741 202.941C40.3978 198.237 41.1429 193.627 41.9225 188.983C42.2999 186.732 42.7901 184.458 42.6948 182.165C42.5995 179.888 41.6244 177.765 42.3155 175.481C42.5927 174.565 43.0673 173.726 43.3757 172.82C43.7064 171.846 43.6771 170.883 43.5263 169.874C43.2164 167.818 42.7019 165.787 43.5248 163.781C43.8885 162.891 44.4776 162.096 44.7615 161.177C45.1149 160.034 45.0663 158.77 45.1253 157.585C45.2448 155.195 45.2759 152.789 45.4736 150.405C45.5618 149.336 45.754 148.323 46.1924 147.343C46.6134 146.4 47.2387 145.541 47.5175 144.54C47.7947 143.555 47.8189 142.516 47.9679 141.508C48.1239 140.444 48.368 139.394 48.6972 138.371C49.9688 134.409 52.2986 130.85 55.0513 127.765C57.9772 124.485 61.4745 122.015 65.1869 119.713C67.139 118.503 69.0909 117.293 71.0416 116.082C71.0833 116.31 71.2279 116.518 71.5056 116.611C72.2381 116.856 73.0203 117.089 73.5945 117.632C74.2431 118.244 75.2244 117.265 74.5745 116.651C73.8965 116.01 73.0443 115.672 72.1771 115.376C73.0659 114.815 73.9644 114.234 74.9674 113.91C75.8459 113.626 77.1413 113.874 77.8536 113.228C78.4129 112.72 78.5897 111.778 78.8044 111.088C79.073 110.231 79.305 109.328 79.6463 108.495C79.8785 107.926 80.2163 107.38 80.6423 106.939C80.8295 106.218 81.1725 105.559 81.7789 105.158C83.3655 104.107 85.3144 105.151 86.0124 106.65C86.5894 106.648 87.1972 106.774 87.7586 106.809C88.9124 106.882 90.0677 106.915 91.2232 106.912C93.4838 106.905 95.7462 106.757 97.9878 106.457C101.996 105.919 105.885 104.835 109.826 103.991C109.849 103.939 109.875 103.887 109.906 103.835C110.755 102.409 112.87 102.65 114.202 103.189C114.774 103.42 115.356 103.711 115.683 104.253C116.03 104.487 116.329 104.771 116.528 105.071C116.941 105.69 117.259 106.939 118.096 107.043C118.647 107.111 119.207 107.005 119.766 107.085C120.466 107.182 121.093 107.428 121.739 107.709C126.659 109.848 131.745 112.226 137.084 113.055C138.336 113.249 139.611 113.45 140.699 114.153C141.582 114.723 142.265 115.507 142.994 116.251C143.705 116.977 144.29 117.297 145.303 117.427C146.533 117.585 147.599 117.925 148.498 118.82C149.244 119.564 149.731 120.515 150.317 121.378C150.913 122.26 151.787 122.756 152.695 123.267C154.841 124.478 156.84 125.94 158.581 127.694C162.249 131.392 164.469 136.144 166.708 140.775C169.128 145.784 171.39 150.854 172.959 156.203C174.497 161.455 175.412 166.857 175.835 172.31C176.28 178.033 176.343 183.777 176.714 189.502C176.898 192.362 177.039 195.226 177.181 198.088C177.32 200.915 177.523 203.747 177.49 206.578C177.427 212.051 176.335 217.54 174.423 222.664C173.946 223.938 173.419 225.196 172.856 226.433C172.361 227.521 170.673 227.399 170.143 226.433C170.021 226.212 169.926 225.983 169.846 225.751C168.461 225.763 167.061 225.655 165.684 225.784C163.252 226.01 160.814 226.138 158.375 226.289C153.549 226.588 148.714 226.787 143.886 227.064C143.418 227.09 142.95 227.117 142.481 227.145C145.922 216.483 145.476 204.956 146.02 193.868C146.064 192.973 144.678 192.978 144.634 193.868C144.087 205.004 144.553 216.561 140.991 227.239C139.609 227.334 138.229 227.447 136.853 227.616C135.741 227.748 134.624 227.906 133.501 227.851C132.228 227.791 130.984 227.499 129.742 227.246C127.485 226.786 125.311 226.994 123.045 227.277C120.622 227.58 118.19 227.748 115.751 227.855C105.984 228.283 96.1514 228.673 86.3883 228.02C84.0255 227.862 81.6678 227.64 79.3206 227.337C76.9023 227.028 74.5101 226.505 72.0937 226.208C69.7118 225.918 67.5221 226.717 65.1678 226.865C62.767 227.014 60.3019 226.514 57.9234 226.225C57.1474 226.131 56.3707 226.04 55.5939 225.949C56.594 219.086 57.1627 212.169 57.7151 205.257C57.7864 204.364 56.3999 204.373 56.3294 205.257C55.7814 212.116 55.2254 218.979 54.2267 225.789C50.1082 225.309 45.9856 224.824 41.9101 224.077C40.7495 223.865 39.5959 223.52 38.9011 222.484C38.3868 221.715 38.2827 220.773 38.5305 219.888Z" fill="black"/>
<path fill-rule="evenodd" clip-rule="evenodd" d="M100.358 33.6711C97.6536 33.1247 94.8769 32.7847 92.1155 32.887L91.9026 32.8954C89.8248 32.9785 87.1936 33.1624 85.3811 34.3722C85.2767 34.2673 85.1091 34.2135 84.957 34.2862C82.8031 35.3156 80.434 36.06 78.1661 36.7994C75.9085 37.5354 73.5665 38.0213 71.2004 38.217C70.3102 38.2908 69.5483 39.2533 70.1121 40.1164C70.2462 40.3222 70.3767 40.53 70.5068 40.7383C70.2893 40.7156 70.0717 40.692 69.8541 40.67C69.1381 40.5978 68.4229 41.363 68.4653 42.061C68.4919 42.5 68.5391 42.9336 68.6092 43.3623C68.3365 43.3566 68.0654 43.3975 67.8035 43.5084C66.4771 44.069 66.5695 45.6508 66.6688 46.8541C66.8063 48.524 67.4302 50.2928 68.5882 51.5427C67.7235 52.4419 67.1113 53.516 66.7462 54.7915C66.4813 55.7228 66.3339 56.7149 66.4067 57.6845L66.4299 57.9748C66.5199 59.027 66.6987 60.1918 67.4547 60.9487C67.8428 61.339 68.3209 61.4812 68.7766 61.4361C68.501 63.8608 68.3243 66.2995 68.1581 68.7295L68.0799 69.8908C67.709 75.507 67.4303 81.1597 67.5031 86.785C67.571 92.0421 68.6083 97.1449 71.8287 101.413C74.7616 105.3 78.9727 108.166 83.7364 109.255C86.3038 109.843 88.9247 109.884 91.5231 109.51C92.7827 109.328 94.0505 109.048 95.2459 108.608C96.5692 108.119 97.5203 107.399 98.4107 106.32C98.8317 105.808 98.6291 104.719 97.7905 104.822C96.5223 104.976 95.3644 105.161 94.1485 105.537L93.9744 105.592C92.7634 105.98 91.5092 106.27 90.2431 106.393C87.6497 106.644 85.0168 106.391 82.5325 105.604C78.4876 104.32 75.0039 101.46 72.7711 97.8664C70.1206 93.6067 69.821 88.771 69.8593 83.8729C69.9003 78.4982 70.075 73.1202 70.3598 67.751L70.4084 66.8562C70.5592 64.0933 70.7046 61.3285 70.8326 58.5638C70.8726 57.6967 70.9332 56.8225 71.0424 55.9569C72.0418 55.3707 72.9373 54.5625 73.5212 53.5651C74.694 54.0508 75.9273 54.4011 77.0621 54.6804C79.6908 55.3277 82.4197 55.4848 85.0952 55.0795C85.817 55.3781 86.5529 55.6405 87.3002 55.8662C87.5024 55.9559 87.7043 56.0441 87.9061 56.1304C89.7079 56.9023 91.5355 57.5561 93.4372 58.0349L93.9045 58.1514C94.9054 58.3986 95.9926 58.6418 97.0577 58.7183C97.2327 58.7858 97.4216 58.8431 97.6278 58.8934C98.5977 59.1292 99.6045 59.2038 100.599 59.1206C101.567 59.0392 102.267 58.0591 101.733 57.1417C101.344 56.472 100.95 55.8043 100.554 55.1383C101.934 55.7141 103.36 56.1929 104.798 56.5987C106.249 57.0081 107.722 57.3532 109.196 57.6705C109.984 57.8388 110.776 57.988 111.562 58.1563C112.125 58.2759 112.99 58.3384 113.449 58.7095C113.956 59.1172 114.1 60.0677 114.292 60.6539C114.545 61.4153 114.783 62.1802 114.999 62.9538C115.43 64.4974 115.784 66.0635 116.058 67.6455C116.331 69.229 116.515 70.8281 116.617 72.4325C116.719 74.0351 116.674 75.6481 116.839 77.2438C116.927 78.0903 117.835 78.5257 118.505 77.9341C118.584 77.8648 118.663 77.7947 118.742 77.7237L118.859 77.6168C119.432 77.0964 119.988 76.5448 120.447 75.924C120.53 75.8095 120.61 75.6897 120.684 75.5684C120.696 75.5684 120.707 75.565 120.719 75.5562L120.846 75.4603C122.247 74.4163 124.588 73.0551 125.954 74.7896C126.389 75.3422 126.612 76.0459 126.797 76.7246L127.122 77.9394C127.332 78.7326 127.529 79.5301 127.645 80.3415C127.907 82.1593 127.775 84.2544 126.526 85.7114C126.027 86.2943 125.339 86.7104 124.572 86.8197C124.144 86.8786 123.721 86.8057 123.297 86.7521C122.865 86.6983 122.45 86.785 122.018 86.7434C121.332 86.6758 121.033 87.4979 121.289 88.0147C121.428 88.2923 121.591 88.5315 121.776 88.7345C121.627 88.8629 121.485 89.0016 121.348 89.1474C120.943 89.2775 120.579 89.5566 120.307 89.9261C120.087 90.2245 119.973 90.5488 119.953 90.8905C119.929 90.9754 119.908 91.0622 119.889 91.1506L119.518 91.7545C119.436 91.8871 119.355 92.0179 119.273 92.1463C118.327 93.6378 117.277 94.9005 115.973 96.0903C114.717 97.2351 113.354 98.2602 112.174 99.4881L112.035 99.634C110.935 100.794 109.775 102.199 110.206 103.887C110.317 104.32 110.921 104.632 111.316 104.339C112.586 103.396 113.225 101.901 114.303 100.756C115.412 99.5766 116.64 98.5168 117.752 97.3408C118.803 96.2309 119.633 94.9734 120.258 93.5893C120.508 93.865 120.871 94.0611 121.376 94.1374C122.242 94.2674 123.049 93.7593 123.427 93.0082C123.669 93.1158 123.917 93.2129 124.167 93.2892C125.479 93.6916 126.306 92.2294 125.81 91.1489C125.545 90.5696 125.215 90.0666 124.804 89.6434C126.088 89.4665 127.394 88.8022 128.237 87.9731C130.354 85.89 130.645 82.7593 130.169 79.9756C129.916 78.4995 129.479 77.0063 128.913 75.6205C128.814 75.3793 128.708 75.1365 128.593 74.897C128.657 74.8953 128.722 74.8677 128.764 74.8139C129.147 74.2902 129.613 73.8617 129.897 73.2754C130.158 72.7378 130.449 72.1931 130.656 71.633C131.08 70.4864 131.288 69.1925 131.426 67.9801C131.712 65.4982 131.601 63.0318 131.222 60.5654C130.576 56.3646 129.016 52.3445 126.717 48.8169C126.842 48.7511 126.962 48.6717 127.074 48.5777L127.129 48.5294L127.218 48.4482C127.874 47.8539 127.818 46.7398 127.218 46.1377L127.029 45.9478C126.789 45.7094 126.583 45.5203 126.196 45.2608C126.138 45.2225 126.08 45.1864 126.021 45.1527C126.224 44.7778 126.294 44.3392 126.153 43.8556C125.661 42.1703 123.239 42.23 121.704 42.9649C120.006 41.4474 118.123 40.1302 116.082 39.0635C111.221 36.5242 105.725 34.7534 100.358 33.6711ZM125.484 78.0556C124.577 77.7589 123.371 78.3816 122.555 78.7563C121.521 79.2316 120.641 79.934 119.789 80.6763C119.364 81.0474 119.288 81.6545 119.394 82.1732C119.404 82.2251 119.415 82.2789 119.427 82.3327C119.539 82.886 120.156 83.3213 120.702 83.3057C121.843 83.2746 122.387 82.2877 123.034 81.4517C123.11 81.5869 123.205 81.7117 123.323 81.8054L123.402 81.8678C123.671 82.0723 123.966 82.2358 124.321 82.22C124.572 82.2078 124.812 82.1436 125.034 82.0275C125.589 81.7342 125.833 81.0163 125.682 80.4318C125.589 80.0641 125.374 79.7761 125.093 79.5767L125.198 79.505C125.422 79.3491 125.626 79.1846 125.785 78.942L125.821 78.8845H125.807C125.98 78.5863 125.867 78.1804 125.484 78.0556Z" fill="black"/>
<path fill-rule="evenodd" clip-rule="evenodd" d="M82.7296 95.5101C84.0058 95.8801 85.3756 95.9131 86.6763 95.5311C87.856 95.1844 89.0675 94.4214 89.9359 93.4118C90.7072 92.515 91.2067 91.4253 91.1872 90.2619C91.1849 90.129 91.1375 90.0182 91.0646 89.9321C90.9859 89.8394 90.8762 89.7758 90.7586 89.7482C90.6377 89.7198 90.5099 89.7298 90.401 89.7793C90.3025 89.8241 90.2182 89.9003 90.1653 90.0115C90.0319 90.1869 89.8989 90.36 89.7655 90.5281C88.6925 91.8546 87.6534 92.846 86.0399 93.2016C85.1645 93.3945 84.2903 93.3089 83.4881 93.0146C82.6295 92.6994 81.8531 92.1453 81.2449 91.4363C80.97 91.1158 80.6454 90.985 80.3281 90.9827C79.9684 90.9803 79.6129 91.1476 79.3452 91.415C79.082 91.678 78.9056 92.0351 78.8896 92.4088C78.8757 92.7367 78.9825 93.0793 79.2667 93.385C80.2031 94.3917 81.4166 95.1292 82.7296 95.5101ZM82.7691 78.8954C81.4609 79.6916 79.4678 81.548 80.875 83.5216C82.5314 85.2619 84.9164 83.2666 86.0916 82.3642C87.1813 81.6649 88.4057 83.4635 87.3946 84.2801C78.9023 90.5754 75.456 79.1036 82.1074 77.9594C82.8398 77.8333 83.1118 78.6492 82.7691 78.8954ZM95.0058 75.3925C95.4262 75.1231 95.9209 75.0308 96.469 75.2804C96.8973 75.4755 97.6485 76.1257 98.1714 76.9802C98.5291 77.565 98.7827 78.2509 98.7298 78.9656C98.7176 79.1314 98.7788 79.2538 98.8755 79.3442C98.9517 79.4157 99.0619 79.4681 99.1914 79.4846C99.3013 79.4986 99.4243 79.486 99.5242 79.4547C99.7145 79.3953 99.8151 79.2717 99.853 79.1708C100.219 78.1975 100.062 77.1112 99.6511 76.1312C99.0975 74.8086 98.0919 73.7009 97.4332 73.3437C96.3059 72.7324 94.9759 72.7042 93.8471 73.327C92.8861 73.8571 92.2851 74.713 91.6875 75.5855C91.5605 75.7709 91.4344 75.955 91.3041 76.1358C91.0429 76.4983 91.017 76.8577 91.1181 77.1659C91.2301 77.5074 91.5158 77.7954 91.8732 77.9464C92.2032 78.0857 92.5865 78.1053 92.9256 77.9622C93.2121 77.8412 93.475 77.6054 93.6413 77.2052C93.9216 76.5313 94.3883 75.7878 95.0058 75.3925ZM73.6526 76.8917C73.9406 77.0419 74.1659 77.0872 74.4853 76.9914C74.662 76.9383 74.8364 76.8364 74.9731 76.6996C75.1086 76.564 75.2063 76.3954 75.2443 76.2082C75.3377 75.7465 75.5901 75.3143 75.9497 75.0324C76.257 74.7916 76.645 74.6639 77.0753 74.7359C77.5396 74.8136 77.9819 75.1118 78.2866 75.4633C78.3886 75.5808 78.4682 75.7144 78.5486 75.8472C78.6987 76.0953 78.8446 76.3259 79.0516 76.5083C79.13 76.5775 79.2484 76.6255 79.3629 76.6255C79.4094 76.6255 79.4566 76.6179 79.5018 76.6038C79.9639 76.1394 80.0527 75.7871 80.0379 75.4377C80.0223 75.0712 79.8779 74.7002 79.6447 74.354C79.0978 73.5421 78.0592 72.8762 77.3584 72.7253C76.3987 72.5189 75.4455 72.7667 74.6812 73.3035C73.8949 73.8557 73.3123 74.7132 73.1306 75.6795C73.087 75.9122 73.1055 76.1633 73.194 76.3811C73.2805 76.594 73.4313 76.7762 73.6526 76.8917ZM92.8891 66.7344C93.465 67.2963 94.1467 67.3834 94.8365 67.4608C95.2196 67.5043 95.5256 67.5392 95.8266 67.6072C96.654 67.7942 97.4718 68.0759 98.2179 68.4815C98.9981 68.9056 99.8481 69.4169 100.46 70.0721C100.605 70.228 100.742 70.3914 100.879 70.5554C101.004 70.7049 101.125 70.8488 101.252 70.9877C101.398 71.147 101.537 71.314 101.674 71.4806C101.76 71.6212 101.776 71.6557 101.794 71.6918C101.82 71.746 101.85 71.8065 101.884 71.8714C101.931 71.9603 101.986 72.0576 102.044 72.1459C102.139 72.3073 102.191 72.3517 102.235 72.3716C102.309 72.4044 102.379 72.4207 102.447 72.4118C102.511 72.4037 102.571 72.373 102.63 72.3229C102.926 72.0727 103.013 71.6623 103.004 71.2264C102.99 70.5652 102.747 69.833 102.522 69.3829C102 68.337 101.276 67.2499 100.405 66.4692C99.4116 65.5784 98.3244 64.9038 97.0757 64.439C96.2999 64.1501 95.4015 63.8849 94.5561 63.9184C93.9475 63.9425 93.3666 64.1236 92.887 64.5759C92.5923 64.8534 92.451 65.2484 92.451 65.643C92.451 66.0456 92.5978 66.4503 92.8891 66.7344ZM72.4812 71.8797C72.5179 71.9398 72.5686 71.9813 72.6249 72.0062C72.6841 72.0321 72.7501 72.0397 72.8134 72.029C72.8766 72.0184 72.9365 71.9897 72.9841 71.946C73.0296 71.9041 73.0643 71.8484 73.0799 71.7803C73.4623 70.0987 74.2049 68.8475 75.7896 68.0407C76.5692 67.6438 77.4658 67.3917 78.3144 67.1906C78.561 67.1322 78.8216 67.0942 79.084 67.0558C79.9065 66.9357 80.7349 66.7979 81.271 66.1324C81.5942 65.7314 81.7297 65.2185 81.6531 64.7496C81.581 64.3081 81.3232 63.9031 80.8548 63.6606C79.6885 63.0568 78.2392 63.6493 77.0614 64.1539C76.9741 64.1914 76.8883 64.2282 76.8045 64.2636C75.6526 64.7503 74.6022 65.3928 73.7388 66.3116C73.0537 67.0407 72.4188 68.1184 72.1631 69.227C71.9505 70.1492 72.0005 71.0908 72.4812 71.8797Z" fill="black"/>
<path fill-rule="evenodd" clip-rule="evenodd" d="M79.1001 98.3114C80.7133 96.8723 82.5217 93.9791 84.8394 96.2683C85.4126 96.915 85.6447 98.365 86.5212 98.6494C87.6852 99.0276 88.839 97.7944 89.2357 96.8473C90.8589 91.5856 84.1491 90.1423 80.3266 90.9924C78.4592 91.7603 77.0838 94.851 77.0007 96.464C76.9469 97.5481 77.8632 99.142 79.1001 98.3114ZM66.9291 90.2011C66.9449 90.1311 66.9669 90.0681 66.9933 90.0105C67.7068 89.7405 68.2714 90.016 68.6203 90.5304C68.6088 90.6583 68.5707 90.7877 68.5467 90.9145C68.8159 91.4824 69.0587 92.1851 69.4236 92.6758C69.4956 92.6813 69.5703 92.6737 69.6421 92.6529C75.6899 93.2852 72.7373 86.9494 78.8715 85.3757C83.6133 84.5925 92.1835 85.4897 94.4205 90.4314C96.1845 98.3244 105.155 92.8246 108.1 88.7197C111.243 84.9838 113.275 80.4187 115.234 75.9889C115.648 75.0515 116.94 75.7218 116.8 76.6212C118.61 80.2586 118.55 84.6277 118.999 88.6125C119.761 96.5622 120.505 107.711 113.128 112.565C103.516 123.443 79.5134 127.282 68.4272 117.287C64.5895 109.026 65.0625 98.9473 66.9291 90.2011Z" fill="black"/>
<path fill-rule="evenodd" clip-rule="evenodd" d="M73.2424 65.9968C69.1764 65.9968 66.8561 66.8722 66.0058 66.9404L65.9802 66.9423C65.6266 66.965 65.3093 66.9946 64.9765 67.1235C63.7525 67.5954 63.5531 68.8807 64.2673 69.6908C64.3174 71.3669 64.0973 73.3252 64.4751 75.0069C64.9411 82.0957 68.2707 83.2919 70.1634 83.7285C71.1135 83.9478 72.2398 84.0351 73.249 83.8036C74.971 83.7393 76.6732 83.1996 78.1297 82.2598C80.158 80.95 81.6645 78.9368 82.1534 76.5474C82.3852 75.4085 82.4934 74.2231 82.3673 73.0654L82.3486 72.9059C83.008 72.5901 83.772 72.5305 84.5595 72.5025C84.9357 72.4891 85.3066 72.477 85.6669 72.4932C86.0189 72.5325 86.3668 72.585 86.7159 72.6563C87.0969 72.7715 87.4569 72.9614 87.7891 73.2623L87.812 73.7016C87.8745 74.7989 88.0184 75.8994 88.2402 76.9759C88.5679 78.5642 89.0949 80.0811 90.2165 81.2078C90.5962 81.7755 91.066 82.2823 91.6364 82.7213C93.7084 84.3184 96.5232 84.9048 99.1067 84.6839C104.352 84.2359 107.383 80.0672 108.082 78.2854L108.124 78.1774C108.628 76.8528 109.031 75.134 110.625 74.8494L110.964 74.7884C111.692 74.6516 112.364 74.4612 112.79 73.7503C112.977 73.4399 113.074 73.0927 113.097 72.7388C113.346 72.758 113.595 72.7763 113.843 72.7941C115.819 73.2125 127.673 73.5674 128.618 73.5674C128.618 73.5674 130.437 74.3338 131.205 73.74C131.737 73.327 131.913 72.7766 131.62 72.1532C131.177 71.2151 129.138 70.6509 128.232 70.4721C128.232 70.4721 113.618 70.5936 112.566 70.3939C111.915 69.722 110.751 69.814 109.778 69.7078C108.973 69.1329 107.847 68.7479 106.957 68.49C106.775 68.4213 106.596 68.3548 106.421 68.292C104.79 67.7104 103.094 67.4023 101.373 67.2367C99.5974 67.068 97.8169 67.1443 96.052 67.3864C95.3083 67.4875 94.5714 67.6181 93.8399 67.789C92.5299 67.9619 91.2276 68.2467 89.917 68.5844L89.6548 68.6528C88.2749 69.015 86.8567 69.3283 85.4282 69.0827C84.2653 68.8842 83.1469 68.4359 82.0746 67.9514L81.9349 67.888C79.5773 66.8101 75.8951 65.9968 73.2424 65.9968ZM93.9818 69.9379C94.8517 69.7463 95.2231 71.0893 94.3504 71.2813C93.7324 71.4174 93.2087 71.7294 92.8548 72.2581L92.8175 72.3155C92.3427 73.0721 91.1421 72.3737 91.6201 71.6122C92.1581 70.7554 92.994 70.1552 93.9818 69.9379ZM68.5022 69.1052C68.8089 68.889 69.2729 69.0495 69.4509 69.3551C69.6469 69.6916 69.5186 70.0665 69.2313 70.2867L69.2021 70.3081C68.9385 70.4941 68.682 70.8274 68.6497 71.1687L68.647 71.2115C68.6124 72.1051 67.2253 72.1096 67.26 71.2115C67.2938 70.3329 67.8019 69.5988 68.5022 69.1052Z" fill="black"/>
<path fill-rule="evenodd" clip-rule="evenodd" d="M270.139 169.047C268.222 168.294 266.157 167.878 264.082 167.716C265.198 167.52 266.32 167.331 267.45 167.234C268.238 167.167 268.968 167.173 269.56 167.772C269.955 168.171 270.14 168.684 270.401 169.156C270.315 169.118 270.228 169.081 270.139 169.047ZM290.722 162.008C287.582 162.168 284.438 162.916 281.597 164.27C280.435 164.825 279.38 165.626 279.073 166.944C278.917 167.618 278.955 168.313 279.037 168.993C279.101 169.508 279.116 170.165 279.562 170.514C279.64 170.573 279.72 170.618 279.805 170.651C278.757 171.124 277.759 171.694 276.872 172.279C276.061 172.815 275.228 173.642 274.854 174.572C274.823 174.467 274.792 174.367 274.761 174.274C274.124 172.387 273.142 170.842 271.595 169.803C271.868 169.68 272.057 169.388 271.969 168.986C271.602 167.305 270.051 165.845 268.3 165.949C266.381 166.062 264.323 166.761 262.588 167.643C261.956 167.63 261.324 167.638 260.701 167.666C260.595 167.669 260.6 167.815 260.701 167.827C261.208 167.892 261.714 167.963 262.219 168.046C263.421 168.239 264.62 168.483 265.792 168.786C267.199 169.151 268.655 169.517 269.969 170.153C272.519 171.39 274.097 174.623 273.774 177.437C273.721 177.898 273.542 179.291 272.902 179.149C272.362 179.027 272.148 177.898 271.959 177.48C271.452 176.37 270.54 175.644 269.448 175.154C268.164 174.575 266.79 174.185 265.459 173.731C264.707 173.473 263.953 173.214 263.198 172.958C262.425 172.693 261.69 172.327 260.868 172.513C260.371 172.624 260.313 173.217 260.593 173.558C261.017 174.077 261.647 174.23 262.259 174.443C263.066 174.723 263.871 175.005 264.678 175.285C265.923 175.72 267.228 176.084 268.442 176.615L268.404 176.703C268.305 176.676 268.188 176.773 268.209 176.896C268.389 178.018 268.643 179.314 268.361 180.438C268.14 181.33 267.359 182.316 266.344 182.055C266.503 181.909 266.562 181.658 266.455 181.426C266.052 180.565 260.787 177.169 260.316 178.43C260.301 178.475 260.349 178.508 260.389 178.501C260.789 178.418 261.458 179.101 261.779 179.317C262.241 179.63 262.71 179.936 263.169 180.256C263.668 180.606 264.158 180.974 264.633 181.354C265.008 181.653 265.291 181.962 265.72 182.114C265.495 182.222 265.317 182.421 265.24 182.676C265.046 183.341 264.673 183.905 264.022 184.197C263.342 184.503 262.575 184.31 261.857 184.384C260.88 184.484 260.028 184.948 259.315 185.613C257.821 187.01 257.071 189.473 254.979 190.133C253.731 190.529 252.345 190.279 251.08 190.101C249.668 189.901 248.293 189.743 246.871 189.951C245.509 190.152 244.223 190.623 242.978 191.199C241.812 191.739 240.524 192.349 239.491 193.153C239.278 192.497 239.061 191.845 238.898 191.175C238.515 189.588 238.307 187.971 238.256 186.34C238.21 184.788 238.297 183.229 238.429 181.684C238.496 180.912 238.599 180.144 238.665 179.372C238.682 179.178 238.718 178.97 238.744 178.762C240.59 177.671 242.53 176.834 244.486 175.974C244.491 175.973 244.496 175.969 244.501 175.967C244.561 175.94 244.621 175.914 244.682 175.887C244.68 175.883 244.678 175.88 244.675 175.876C244.898 175.741 245.054 175.558 245.147 175.354C247.967 173.482 250.322 170.927 252.079 167.947C252.814 166.698 253.523 165.403 254.487 164.308C255.512 163.141 256.729 162.447 258.237 162.086C259.999 161.663 261.814 161.41 263.619 161.266C264.604 161.188 265.707 161.067 266.78 161.072C267.529 161.077 268.262 161.141 268.933 161.327C269.929 161.601 270.511 162.359 271.136 163.125C271.734 163.861 272.328 164.598 272.886 165.365C273.415 166.091 273.915 166.842 274.347 167.63C274.607 168.101 274.847 168.587 275.05 169.088C275.122 169.265 275.215 169.466 275.258 169.65C275.302 169.836 275.221 170.032 275.429 170.032C274.572 170.044 274.581 171.416 275.433 171.366C278.769 171.171 273.99 164.65 273.291 163.741C272.302 162.454 271.282 160.775 269.699 160.177C269.677 160.168 269.653 160.16 269.63 160.152C270.091 159.715 270.455 159.192 270.803 158.659C271.162 158.111 271.59 157.483 271.706 156.833C271.782 156.418 271.267 156.182 271.023 156.545C270.668 157.074 270.496 157.743 270.231 158.324C269.96 158.914 269.632 159.471 269.371 160.066C268.746 159.873 268.071 159.785 267.383 159.755C268.251 158.579 269.733 156.311 269.912 156.019C270.733 154.67 271.514 153.279 272.261 151.886C273.068 150.377 273.76 148.806 274.533 147.279C274.971 146.414 275.412 145.541 275.9 144.702C276.066 144.414 276.247 144.126 276.451 143.864C276.492 143.812 276.542 143.769 276.588 143.72C276.642 143.691 276.698 143.658 276.729 143.641C277.009 143.479 277.109 143.105 277.306 142.867C277.62 142.484 277.991 142.439 278.467 142.433C279.478 142.423 280.493 142.463 281.503 142.49C282.988 142.532 284.47 142.591 285.954 142.669C286.402 142.693 286.848 142.718 287.298 142.746C289.453 142.874 291.608 143.042 293.758 143.249C295.661 143.431 297.564 143.727 299.466 143.87C296.889 150.001 294.031 156.021 290.794 161.832C290.762 161.89 290.738 161.949 290.722 162.008ZM276.42 177.803C276.004 177.996 275.601 178.233 275.225 178.503C275.288 178.081 275.304 177.638 275.287 177.191C275.596 177.525 275.992 177.715 276.42 177.803ZM294.167 167.257C294.138 167.26 294.11 167.276 294.097 167.305C293.521 168.493 293.762 169.82 294.701 170.752C295.194 171.237 296.265 171.785 296.231 172.583C296.202 173.228 295.5 173.769 295.201 174.302C294.921 174.799 294.818 175.343 295.041 175.88C295.326 176.569 296.125 176.842 296.399 177.519C296.746 178.379 296.183 179.413 295.788 180.161C295.421 180.854 294.945 181.545 294.631 182.277C292.519 183.372 290.628 185.051 289.003 186.756C287.224 188.621 285.698 190.814 282.873 190.759C282.592 190.754 282.377 190.903 282.248 191.11C281.462 191.146 280.673 191.161 279.887 191.165C278.505 191.171 277.122 191.158 275.742 191.115C275.644 190.78 275.716 190.326 275.711 190.042C275.694 189.131 275.685 188.222 275.646 187.313C275.635 187.058 275.625 186.804 275.615 186.551C276.113 187.45 277.083 187.859 278.187 187.798C279.964 187.694 281.752 187.402 283.512 187.141C284.439 187.003 285.365 186.847 286.287 186.68C287.046 186.546 288.117 186.581 288.646 185.971C288.772 185.83 288.779 185.568 288.583 185.474C288.057 185.216 287.728 185.359 287.151 185.47C286.447 185.608 285.743 185.737 285.035 185.859C283.679 186.094 282.319 186.313 280.955 186.505C280.179 186.615 279.401 186.722 278.623 186.808C277.945 186.88 277.179 186.979 276.631 186.467C275.529 185.434 276.147 183.702 276.844 182.657C276.858 182.636 276.858 182.617 276.853 182.6C277.512 182.445 278.168 182.265 278.822 182.138C280.083 181.895 281.35 181.691 282.621 181.509C285.229 181.136 287.855 180.89 290.479 180.642C291.128 180.579 291.134 179.556 290.479 179.616C286.709 179.962 282.923 180.29 279.205 181.015C278.275 181.196 277.349 181.4 276.429 181.632C275.994 181.739 275.529 181.907 275.072 181.913C275.045 181.913 275.017 181.913 274.99 181.911C274.097 181.883 273.968 181.118 274.457 180.483C274.519 180.403 274.581 180.326 274.645 180.251C275.512 179.218 276.59 178.527 277.703 177.813C278.948 177.643 280.189 177.265 281.41 176.987C284.42 176.301 287.431 175.613 290.444 174.928C291.033 174.793 290.782 173.884 290.192 174.018C287.906 174.536 285.619 175.055 283.332 175.574L279.985 176.333C279.317 176.485 278.482 176.787 277.696 176.897C277.308 176.951 276.932 176.957 276.592 176.878C275.496 176.617 275.44 175.246 275.913 174.431C276.442 173.515 277.443 172.942 278.333 172.423C279.873 171.523 281.511 170.876 283.112 170.131C283.397 170.068 283.68 170.006 283.965 169.943C285.617 169.579 287.506 169.4 289.06 168.733C289.527 168.535 289.271 167.8 288.811 167.81C287.604 167.836 286.342 168.266 285.162 168.521C283.885 168.799 282.607 169.074 281.329 169.35C281.202 169.378 280.443 169.621 280.328 169.567C280.256 169.532 280.23 169.279 280.205 169.113C280.127 168.564 280.071 167.989 280.155 167.439C280.342 166.206 281.369 165.626 282.41 165.153C284.723 164.1 287.261 163.441 289.787 163.177C290.369 163.116 290.951 163.078 291.536 163.059C292.223 163.038 292.79 162.917 293.138 163.595C293.686 164.664 293.988 166.037 294.167 167.257ZM290.954 205.994C290.449 204.248 290.587 202.385 290.242 200.602C290.063 199.684 289.819 198.772 289.553 197.875C289.34 197.151 288.981 196.379 288.942 195.623C288.938 195.573 288.998 195.544 289.04 195.568C289.75 195.975 290.297 196.857 290.702 197.55C291.188 198.378 291.559 199.244 291.859 200.157C292.455 201.972 292.944 204.163 292.175 205.994C291.947 206.539 291.143 206.649 290.954 205.994ZM275.369 182.865C275.795 182.823 276.221 182.741 276.647 182.646C276.171 183.112 275.731 183.671 275.486 184.293C275.448 183.815 275.4 183.341 275.337 182.866C275.347 182.866 275.359 182.866 275.369 182.865ZM271.274 219.215C270.522 218.689 269.974 217.955 269.337 217.307C268.71 216.671 269.69 215.689 270.317 216.325C270.862 216.879 271.332 217.568 271.973 218.017C272.282 218.231 272.424 218.62 272.222 218.965C272.043 219.27 271.581 219.428 271.274 219.215ZM267.082 199.035C268.454 198.44 269.804 197.794 271.239 197.366C272.098 197.11 272.46 198.449 271.609 198.703C270.286 199.098 269.045 199.686 267.783 200.233C266.97 200.583 266.266 199.387 267.082 199.035ZM252.596 198.619C252.259 197.79 253.602 197.433 253.932 198.249C254.313 199.189 254.749 200.107 255.129 201.047C255.464 201.876 254.124 202.233 253.793 201.415C253.412 200.475 252.976 199.559 252.596 198.619ZM238.297 215.169C238.072 215.466 237.701 215.629 237.349 215.418C237.054 215.241 236.874 214.77 237.1 214.469C237.76 213.587 238.429 212.716 239.204 211.931C239.831 211.293 240.811 212.274 240.184 212.912C239.492 213.613 238.886 214.381 238.297 215.169ZM236.252 122.308C236.887 122.743 237.445 123.271 237.988 123.815C238.62 124.447 237.639 125.428 237.009 124.796C236.551 124.338 236.089 123.873 235.553 123.506C235.242 123.294 235.103 122.9 235.304 122.557C235.483 122.249 235.943 122.097 236.252 122.308ZM257.055 144.636C256.695 145.357 256.372 146.064 256.351 146.884C256.329 147.777 254.943 147.777 254.966 146.884C254.991 145.811 255.386 144.881 255.859 143.936C256.257 143.136 257.452 143.84 257.055 144.636ZM264.688 126.704C265.434 126.206 266.126 127.409 265.387 127.902C264.79 128.301 264.19 128.701 263.591 129.101C262.846 129.598 262.154 128.395 262.892 127.902C263.49 127.503 264.089 127.103 264.688 126.704ZM231.581 158.058C231.454 158.94 230.118 158.562 230.245 157.689C230.439 156.339 230.678 155.007 231.044 153.693C231.282 152.832 232.618 153.2 232.38 154.062C232.014 155.376 231.775 156.708 231.581 158.058ZM226.722 173.951C225.83 173.932 225.83 172.545 226.722 172.564C227.53 172.581 228.324 172.795 229.102 172.989C229.969 173.205 229.598 174.544 228.734 174.328C228.075 174.163 227.405 173.967 226.722 173.951ZM224.929 205.97C224.622 206.119 224.307 206.253 223.998 206.396C223.378 206.68 222.758 206.963 222.139 207.249C220.847 207.842 219.556 208.438 218.266 209.036C215.685 210.232 213.086 211.386 210.498 212.568C207.859 213.776 205.228 214.998 202.599 216.227C201.361 216.807 200.114 217.363 198.867 217.927C197.803 218.41 196.487 219.252 195.318 219.331C195.258 219.335 195.239 219.259 195.273 219.22C195.715 218.718 196.419 218.426 196.999 218.097C197.592 217.764 198.196 217.449 198.797 217.131C200.051 216.466 201.304 215.806 202.57 215.165C205.101 213.883 207.637 212.611 210.173 211.339C212.759 210.042 215.342 208.737 217.952 207.486C219.18 206.896 220.411 206.31 221.641 205.724C222.307 205.408 222.975 205.09 223.641 204.775C223.93 204.638 224.215 204.49 224.508 204.368C224.9 204.206 225.199 204.239 225.602 204.139C226.26 203.978 226.545 204.815 226.04 205.181C225.623 205.48 225.405 205.738 224.929 205.97ZM215.677 220.198C215.534 219.852 215.833 219.431 216.161 219.345C216.554 219.24 216.87 219.479 217.013 219.828C217.394 220.755 217.935 221.604 218.63 222.32C219.254 222.961 218.275 223.943 217.652 223.302C216.778 222.403 216.151 221.353 215.677 220.198ZM208.872 197.926C208.24 197.294 209.219 196.312 209.85 196.945L211.647 198.743C212.279 199.375 211.298 200.356 210.666 199.724L208.872 197.926ZM190.445 194.994C189.153 195.374 187.647 195.721 186.767 196.824C186.724 196.879 186.651 196.809 186.677 196.756C187.804 194.416 191.037 193.595 193.275 192.777C194.858 192.196 196.481 191.716 198.119 191.287C197.956 189.415 198.407 187.411 198.563 185.549C198.732 183.563 198.867 181.569 198.938 179.575C199.008 177.542 199.025 175.495 198.96 173.461C198.893 171.434 198.63 169.432 198.515 167.412C198.503 167.217 198.775 167.207 198.835 167.369C199.515 169.243 199.805 171.32 200.027 173.296C200.255 175.331 200.33 177.363 200.301 179.41C200.27 181.516 200.148 183.616 199.98 185.714C199.901 186.71 199.808 187.703 199.721 188.698C199.656 189.456 199.625 190.209 199.47 190.943C200.458 190.701 201.447 190.472 202.434 190.248C205.582 189.537 208.741 188.877 211.875 188.109C213.414 187.731 214.93 187.278 216.46 186.878C217.902 186.5 219.425 186.041 220.906 185.873C221.433 185.812 221.5 186.536 221.151 186.782C219.947 187.627 218.349 188.217 216.96 188.69C215.565 189.166 214.114 189.508 212.685 189.858C209.704 190.594 206.694 191.194 203.689 191.819C200.688 192.443 197.681 193.064 194.714 193.834C193.285 194.205 191.861 194.578 190.445 194.994ZM183.368 157.873C182.597 158.326 181.9 157.127 182.669 156.675C183.676 156.084 184.747 155.639 185.829 155.206C186.658 154.874 187.014 156.216 186.196 156.544C185.224 156.933 184.273 157.342 183.368 157.873ZM180.574 209.423C179.802 209.873 179.104 208.673 179.876 208.225C180.959 207.596 182.146 207.176 183.269 206.626C184.067 206.235 184.768 207.433 183.968 207.824C182.844 208.374 181.658 208.794 180.574 209.423ZM179.317 180.161C180.066 180.873 181.064 181.208 182.007 181.581C182.827 181.906 182.467 183.248 181.637 182.92C180.465 182.454 179.269 182.028 178.339 181.143C177.69 180.526 178.672 179.546 179.317 180.161ZM187.594 140.42C188.415 140.743 188.056 142.085 187.225 141.758C186.305 141.397 185.352 141.121 184.431 140.759C183.609 140.436 183.969 139.095 184.8 139.421C185.721 139.783 186.672 140.058 187.594 140.42ZM202.192 124.635C203.066 124.488 203.439 125.825 202.561 125.974C201.472 126.158 200.399 126.373 199.367 126.773C198.534 127.096 198.175 125.754 199 125.435C200.032 125.035 201.103 124.819 202.192 124.635ZM207.015 163.068C206.215 162.673 206.918 161.477 207.714 161.87C208.556 162.284 209.426 162.603 210.343 162.799C211.217 162.985 210.845 164.323 209.974 164.137C208.942 163.917 207.96 163.533 207.015 163.068ZM211.571 141.419C212.435 141.183 212.799 142.522 211.94 142.757C210.429 143.172 208.872 143.388 207.35 143.756C206.481 143.967 206.116 142.628 206.981 142.419C208.504 142.049 210.06 141.834 211.571 141.419ZM230.898 134.626C231.775 134.788 231.401 136.125 230.529 135.964C229.601 135.792 228.66 135.789 227.719 135.789C226.826 135.789 226.828 134.401 227.719 134.401C228.789 134.402 229.843 134.431 230.898 134.626ZM293.928 141.875C291.665 141.658 289.397 141.485 287.127 141.355C287.02 141.349 286.917 141.342 286.811 141.337C286.799 141.313 286.783 141.29 286.768 141.266C286.026 140.177 285.48 139.088 285.008 137.856C284.556 136.684 284.116 135.475 283.421 134.417C282.626 133.211 281.554 132.268 280.378 131.451C279.666 131.931 279.004 132.493 278.4 133.088C277.763 133.715 276.782 132.734 277.419 132.107C277.957 131.578 278.53 131.089 279.138 130.647C278.438 130.221 277.722 129.82 277.024 129.421C274.411 127.928 271.734 126.547 269.004 125.285C267.733 124.697 266.448 124.175 265.154 123.646C264.457 123.361 263.77 122.995 263.072 122.666C263.124 122.173 262.976 121.622 262.599 121.297C262.32 121.06 262.104 120.971 261.771 120.803C261.695 120.777 261.651 120.761 261.63 120.753C261.646 120.756 261.69 120.77 261.766 120.794C261.943 120.876 261.956 120.852 261.807 120.723C261.798 120.442 261.245 119.849 261.12 119.56C260.679 118.566 260.543 117.514 259.892 116.609C258.998 115.362 257.493 114.89 256.092 115.313C255.946 113.813 255.908 112.247 255.343 110.908C255.328 110.872 255.278 110.856 255.256 110.896C254.667 111.9 254.615 113.019 254.571 114.177C254.528 115.265 254.569 116.377 254.712 117.457C254.621 117.527 254.53 117.593 254.435 117.657C253.987 117.952 253.506 118.179 253 118.347C252.036 118.666 251.027 118.805 250.017 118.854C247.41 118.978 244.723 118.715 242.159 118.267C239.566 117.815 235.591 117.135 233.283 115.836C231.76 114.979 230.355 113.933 228.932 112.92C229.449 111.255 229.579 109.465 229.06 108.058C228.997 107.89 228.734 107.859 228.684 108.058C228.358 109.401 228.264 110.75 227.829 112.077C227.822 112.096 227.816 112.117 227.809 112.136C227.675 112.044 227.539 111.954 227.403 111.864C227.093 111.657 226.667 111.812 226.48 112.107C223.488 116.826 218.751 117.096 213.776 117.94C208.331 118.862 202.858 119.858 197.624 121.663C192.617 123.391 187.833 125.906 184.043 129.663C183.185 130.513 182.383 131.42 181.625 132.366C182.359 132.458 183.085 132.602 183.803 132.828C184.651 133.095 184.287 134.434 183.433 134.166C182.511 133.876 181.579 133.732 180.638 133.661C178.062 137.188 176.055 141.188 174.317 145.125C170.987 152.674 168.819 160.712 167.821 168.897C168.369 168.568 168.927 168.255 169.498 167.964C170.292 167.559 170.993 168.757 170.198 169.162C169.315 169.611 168.458 170.107 167.627 170.644C167.264 174.226 167.123 177.832 167.208 181.433C167.411 190.015 168.568 198.847 171.186 207.036C172.469 211.056 174.171 215.041 176.706 218.438C177.851 219.976 179.154 221.363 180.689 222.52C181.433 223.082 182.219 223.584 183.049 224.006C184.117 224.555 185.51 224.735 186.432 225.51C186.736 225.765 186.969 226.102 187.146 226.481C187.043 227.203 187.031 227.925 187.228 228.647C187.29 228.872 187.46 229.056 187.67 229.146C187.673 229.207 187.673 229.268 187.673 229.328C187.673 229.355 187.714 229.362 187.721 229.335C187.73 229.281 187.738 229.226 187.747 229.171C187.814 229.194 187.884 229.204 187.958 229.204C190.589 229.214 193.223 229.151 195.859 229.061C195.655 228.436 195.435 227.817 195.222 227.191C194.935 226.342 196.273 225.981 196.558 226.822C196.807 227.552 197.066 228.278 197.296 229.01C200.119 228.905 202.942 228.779 205.758 228.685C211.751 228.486 217.741 228.42 223.734 228.293C233.043 228.095 242.418 227.691 251.739 228.087C252.062 227.403 252.423 226.732 252.766 226.057C253.17 225.259 254.365 225.962 253.961 226.758C253.724 227.227 253.477 227.691 253.243 228.159C255.132 228.257 257.018 228.388 258.9 228.565C262.111 228.865 265.293 229.402 268.5 229.735C271.761 230.075 274.954 230.013 278.189 229.476C278.771 229.378 279.114 229.025 279.257 228.589C279.262 228.587 279.265 228.583 279.269 228.578C279.434 228.384 279.59 228.223 279.751 228.082C279.944 227.958 280.151 227.851 280.395 227.758C280.852 227.585 281.326 227.478 281.809 227.408C282.337 227.327 282.875 227.32 283.406 227.255C283.852 227.198 284.288 227.112 284.724 227.009C285.509 226.822 286.254 226.576 286.996 226.253C287.642 225.969 288.226 225.564 288.777 225.122C289.917 224.287 290.904 223.223 291.766 222.116C292.27 221.468 292.742 220.798 293.171 220.098C293.92 218.888 294.557 217.63 295.202 216.363C295.436 215.987 295.649 215.602 295.845 215.21C294.584 214.837 293.314 214.534 291.978 214.514C291.086 214.498 291.086 213.111 291.978 213.125C293.509 213.151 294.959 213.508 296.398 213.935C296.466 213.749 296.535 213.56 296.597 213.371C296.769 212.974 296.909 212.566 297.028 212.152C297.097 211.965 297.167 211.778 297.236 211.59C297.392 210.942 297.548 210.293 297.704 209.641C298.019 208.601 298.266 207.544 298.448 206.473C298.601 205.771 298.719 205.061 298.798 204.342C299.04 202.603 299.238 200.867 299.252 199.109C299.231 198.024 299.162 196.941 299.044 195.865C298.994 195.133 298.91 194.404 298.795 193.681C298.645 192.605 298.498 191.541 298.25 190.479C298.065 189.762 297.88 189.044 297.694 188.325C297.232 186.828 296.686 185.36 296.058 183.927C296.023 183.836 295.848 183.638 295.742 183.636C295.663 183.635 295.551 183.709 295.589 183.805C295.592 183.813 295.596 183.824 295.599 183.832C295.563 183.752 295.527 183.667 295.491 183.587C295.46 183.511 295.338 183.358 295.245 183.36C295.24 183.36 295.235 183.36 295.228 183.361C295.252 183.344 295.275 183.322 295.297 183.294C295.919 182.559 296.322 181.588 296.769 180.735C297.138 180.031 297.485 179.288 297.586 178.492C297.673 177.794 297.555 177.105 297.115 176.54C296.617 175.895 295.678 175.594 296.2 174.665C296.793 173.606 297.663 172.69 296.796 171.487C296.355 170.875 295.654 170.538 295.134 170.006C294.536 169.39 294.253 168.566 294.268 167.725C294.304 167.746 294.352 167.736 294.37 167.683C294.873 166.164 294.509 164.496 293.995 163.016C293.714 162.213 293.12 161.993 292.429 161.953C295.422 156.099 298.223 150.152 300.72 144.067C300.802 143.868 300.885 143.668 300.965 143.469C301.087 143.17 300.83 142.773 300.534 142.707C298.376 142.234 296.126 142.083 293.928 141.875Z" fill="black"/>
<path fill-rule="evenodd" clip-rule="evenodd" d="M218.33 10.2947C219.395 10.1345 220.198 10.7963 220.581 11.7291L220.602 11.7794C220.725 12.0968 220.861 12.4055 221.009 12.709C223.675 11.3995 227.479 11.736 229.167 14.388C230.371 16.282 229.636 18.5298 229.182 20.5384L228.884 21.8616C229.461 22.2288 229.893 22.8858 229.874 23.5663L229.871 23.6187L229.751 25.4641C230.135 25.074 230.486 24.6489 230.8 24.1962C231.016 23.799 231.25 23.4089 231.501 23.0307C232.979 20.8055 236.297 22.7394 235.077 25.1225C234.842 25.5821 234.579 26.0174 234.298 26.4371C233.978 27.0564 233.717 27.6928 233.517 28.3468C234.094 28.5983 234.537 29.1569 234.583 29.9998C234.693 31.9684 233.659 33.6108 232.017 34.6428C231.535 34.9463 231.035 35.0054 230.584 34.8927C230.503 35.0001 230.424 35.1077 230.348 35.217C231.003 35.7495 231.593 36.3566 232.1 37.0294C233.628 36.8005 235.165 36.6929 236.702 36.6895C238.579 35.7686 240.828 35.7876 242.846 36.1328C244.146 36.3548 245.393 36.7866 246.672 37.0972C248.018 37.4232 249.387 37.4352 250.75 37.6573C252.469 37.9366 253.977 38.731 254.923 39.9988C255.965 40.03 257.059 40.4568 257.967 41.036C260.081 42.3854 262.181 43.7539 264.29 45.112C265.099 45.6333 265.401 46.4657 265.253 47.394L265.243 47.4535L265.173 47.8385L265.339 48.0755C265.983 48.9878 266.685 49.9433 267.103 50.9501C267.875 52.0654 268.574 53.2343 269.193 54.4399C270.025 56.0598 270.714 57.777 271.179 59.5391C271.296 59.9849 271.411 60.434 271.488 60.8884C271.597 61.5302 271.428 62.028 271.337 62.6438C271.222 63.4243 271.181 64.2153 271.059 64.9975C270.978 65.516 270.539 65.7709 270.077 65.7848C270.25 67.1048 270.376 68.4334 270.496 69.7515C270.662 71.6351 270.777 73.524 270.877 75.4127C271.385 76.1534 272.426 76.7396 273.178 76.9426C274.22 77.2217 275.311 76.9182 276.295 76.5628C276.913 76.339 277.421 77.1177 277.119 77.638C276.171 79.2719 274.145 79.265 272.61 78.5417C271.961 78.2365 271.391 77.7942 270.968 77.2183C270.994 77.7664 271.021 78.3145 271.049 78.8643L271.075 79.3623C271.387 85.1783 272.062 91.1943 270.97 96.9528C269.079 106.928 260.835 114.523 250.764 115.112C245.48 115.422 241.079 113.859 238.89 112.987C236.702 112.115 237.552 110.338 239.072 110.846C241.689 111.721 246.497 113.025 250.8 112.462C260.94 111.135 269.539 106.06 268.655 84.2029C268.53 81.1033 268.145 78.0022 268.061 74.9028C267.982 71.8728 268.011 68.8409 267.877 65.8127L267.833 64.7794C267.781 63.5721 267.726 62.3592 267.635 61.1504C267.527 60.682 267.436 60.2068 267.302 59.7472C266.941 58.4966 266.467 57.2808 265.88 56.1205C265.75 56.2195 265.605 56.2904 265.447 56.3183C264.251 56.5333 263.127 56.4726 262.006 55.9732C261.484 55.7423 261.022 55.4354 260.593 55.0555C260.389 54.8769 260.253 54.7035 260.145 54.5231C259.602 54.5318 259.06 54.3687 258.721 53.9786C258.333 53.5337 258.27 53.0743 258.421 52.6489L258.436 52.6065L258.398 52.5927C257.942 53.7773 257.03 54.8197 256.03 55.5239C254.451 56.6409 252.474 56.9635 250.578 56.9929C248.487 57.0242 246.28 56.7016 244.215 56.3721C243.668 56.2853 243.128 56.1865 242.595 56.0529C242.575 56.0737 242.554 56.0979 242.53 56.1187C240.758 57.8169 238.266 58.2539 236.017 57.2844C234.719 56.7241 233.628 55.8223 232.665 54.7884C232.651 55.3297 232.624 55.8707 232.577 56.4066L232.558 56.6196C232.462 57.6177 232.277 58.6766 231.525 59.3969C230.305 60.5641 228.538 60.0959 227.134 59.3362C227.136 59.3727 227.136 59.4108 227.136 59.449C227.515 60.7393 227.896 62.0316 228.277 63.3237L228.36 63.5989C228.636 64.5164 228.94 65.435 229.024 66.3953C229.184 68.2304 227.963 70.0428 225.927 69.4272C224.859 69.1054 224.002 68.2058 223.181 67.4852L222.664 67.0371C224.002 71.4201 224.931 75.9591 225.017 80.5329C225.023 80.7809 224.809 80.9683 224.574 80.9768C224.022 80.9994 223.43 80.8902 222.877 80.6699C222.844 80.6682 222.813 80.6664 222.781 80.6611C221.835 80.5241 220.957 80.1824 220.183 79.6778C220.361 80.245 220.44 80.8538 220.394 81.4902C220.382 81.6446 220.142 81.6984 220.107 81.5284C219.659 79.3274 217.087 77.6641 214.87 78.0856C212.49 78.5383 210.737 80.5884 210.307 82.9211C209.845 85.4274 210.728 88.3257 212.361 90.2596C213.113 91.1512 214.102 91.8952 215.277 92.0826C215.814 92.1675 216.372 92.1381 216.893 91.9854C217.114 91.9194 217.322 91.8275 217.533 91.7409C217.842 91.6159 218.203 91.5968 218.493 91.465C219.154 91.1685 219.817 91.7773 219.482 92.4553C219.192 93.0469 218.931 93.4459 218.447 93.7511C218.838 94.2298 219.194 94.8958 219.326 95.0744C219.997 95.9832 220.679 96.8418 221.445 97.6726C222.224 98.5157 223.076 99.2857 223.974 99.9986L224.352 100.297C225.219 100.985 225.973 101.622 226.583 102.609C227.065 103.388 226.442 104.444 225.539 104.432C222.716 104.392 220.662 101.908 219.201 99.7384C218.993 99.428 218.797 99.1 218.615 98.7637C218.55 98.8694 218.476 98.9682 218.395 99.0584L218.557 99.4921C219.034 100.769 216.975 101.603 216.377 100.411C215.941 99.5476 215.438 98.7255 214.877 97.9485C214.545 97.9016 214.222 97.7005 214.042 97.4402C213.585 96.7794 213.075 96.1116 212.644 95.4075C212.404 95.1803 212.158 94.9616 211.908 94.7483C211.836 94.8126 211.76 94.8767 211.69 94.9444C211.374 95.6641 210.984 96.3215 210.501 96.9408L210.397 97.0728C209.471 98.2412 208.266 99.4369 206.773 99.7227C206.317 99.8095 205.879 99.2424 206.282 98.8799C207.328 97.9397 208.563 97.2998 209.526 96.2504C210 95.7334 210.436 95.1641 210.81 94.5674L210.896 94.4292C210.958 94.3269 211.022 94.2246 211.089 94.1205C210.654 93.824 210.218 93.5256 209.784 93.2272C208.587 94.2511 207.027 94.7195 205.704 95.5677L205.573 95.6538C204.376 96.4551 203.114 94.6825 204.074 93.7094C205.132 92.6408 206.014 91.3665 206.952 90.1789C206.512 89.3661 206.303 88.4049 206.226 87.4337C206.195 87.1588 206.171 86.8837 206.147 86.6087C205.473 86.619 204.799 86.3883 204.227 85.9911L204.01 85.8368C203.315 86.0588 202.587 86.1663 201.888 86.1472C200.246 86.0987 199.573 84.2203 200.6 83.0321C201.649 81.818 203.483 81.5526 204.936 82.1423C204.984 82.1181 205.032 82.0921 205.078 82.066C205.01 81.747 205.025 81.4574 205.104 81.2032L205.08 81.0482C204.761 80.5571 204.551 79.9965 204.471 79.4042C204.409 78.9351 204.421 78.4701 204.529 78.0069C204.565 77.8527 204.641 77.6928 204.697 77.5321C204.581 77.2334 204.51 76.9247 204.489 76.6141C204.455 76.5748 204.423 76.5344 204.392 76.4907C203.67 75.4768 203.816 74.2553 204.503 73.435C204.505 73.3827 204.51 73.3305 204.517 73.2787C204.477 73.1882 204.441 73.0967 204.407 73.0043C203.736 72.3271 203.245 71.512 203.336 70.5021C203.391 69.9078 203.634 69.3729 204.004 68.9731C203.937 68.7792 203.931 68.5546 204.01 68.3671C203.421 66.7982 203.495 64.9084 203.919 63.1538C203.827 62.8867 203.779 62.5969 203.789 62.2899C203.837 60.9874 204.963 59.7907 206.296 59.8061C206.457 59.8075 206.607 59.8287 206.753 59.8593L206.754 59.8283C206.804 59.4373 206.912 59.076 207.069 58.7519C206.991 58.7239 206.921 58.6838 206.857 58.6305C206.004 59.0872 205.099 59.4361 204.151 59.6738C203.454 59.8488 202.74 59.0552 203.172 58.3999C203.373 58.0958 203.597 57.8229 203.835 57.5735C203.495 57.5754 203.15 57.5984 202.802 57.6433C202.173 57.7249 201.474 57.2964 201.067 56.7172C200.561 57.2098 200.054 57.7005 199.546 58.1914C198.261 59.4385 196.319 58.521 196.117 56.8767C195.734 56.7744 195.376 56.601 195.062 56.353C193.036 57.234 190.855 57.7179 188.626 57.8098C187.024 57.8758 186.09 56.0094 186.837 54.6913C187.34 53.8067 187.963 53.0124 188.683 52.322C187.567 52.6637 186.415 52.91 185.238 53.068C184.603 53.1529 183.705 52.6256 183.449 52.0412C182.475 49.7932 182.56 47.4501 183.679 45.2629C183.724 45.1761 183.772 45.093 183.818 45.0096C183.935 44.72 184.06 44.4338 184.198 44.1528C182.819 42.7132 182.699 40.573 183.442 38.7812C183.145 38.2974 183.03 37.7145 183.233 37.1872C183.81 35.6696 184.641 34.2683 185.692 33.0645C185.59 32.8702 185.503 32.6638 185.427 32.4419C184.836 30.6467 185.522 28.4804 186.902 27.2298C187.769 26.4425 188.767 25.9707 189.833 25.6688C190.282 24.8744 190.859 24.1581 191.53 23.5546C191.556 23.4974 191.583 23.4401 191.612 23.3829C192.658 21.4091 194.564 20.351 196.606 20.1065C196.687 19.3346 197.205 18.5976 197.961 18.3581C198.169 17.6904 198.479 17.0521 198.905 16.4728C199.575 15.5605 200.689 15.1303 201.739 15.7287C202.314 16.0565 202.865 16.4329 203.382 16.8492C203.614 16.7403 203.876 16.6698 204.172 16.6474L204.247 16.6428L205.956 16.5561C206.67 16.2386 207.385 15.9056 208.101 15.5813C208.53 15.2257 209.009 14.9291 209.533 14.7089C210.125 14.4608 210.731 14.3204 211.339 14.2735C211.834 14.1122 212.33 13.97 212.837 13.859C214.025 13.5988 215.268 13.4531 216.501 13.4653C216.527 13.1456 216.539 12.8222 216.537 12.4949L216.534 12.3309C216.506 11.2816 217.344 10.4439 218.33 10.2947ZM217.131 94.2506C216.963 94.287 216.791 94.3164 216.62 94.3374C216.671 94.4656 216.723 94.594 216.774 94.7224C216.912 94.8004 217.052 94.875 217.193 94.9443C217.152 94.7085 217.126 94.4709 217.131 94.2506ZM208.233 91.6027L208.116 91.8149C208.099 91.8497 208.08 91.884 208.061 91.9177C208.307 91.8986 208.552 91.9038 208.794 91.9316V91.9059C208.764 91.8952 208.731 91.8854 208.702 91.871C208.535 91.7904 208.379 91.7003 208.233 91.6027ZM213.043 81.9153C214.574 82.0047 215.873 82.2398 217.267 82.9111L217.387 82.9697C218.618 83.582 220.655 84.7129 220.483 86.3345C220.435 86.796 220.102 87.2816 219.575 87.2451C218.132 87.1463 217.306 85.6893 216.329 84.7804C215.344 83.8647 214.133 82.923 212.94 82.2932C212.771 82.2047 212.838 81.924 213.02 81.9151L213.043 81.9153ZM206.092 60.5485C205.724 60.5607 205.848 60.918 206.037 60.6196C206.052 60.5954 206.071 60.5712 206.092 60.5485ZM225.916 36.6962C222.437 36.7876 218.938 38.8439 216.331 40.9222C214.064 42.7304 212.109 44.8812 210.374 47.1993C209.929 48.3536 209.547 49.5321 209.222 50.7195C209.009 51.5034 208.875 52.2961 208.698 53.087L208.642 53.3294C208.503 53.5917 208.398 53.8739 208.322 54.1654C208.638 54.4825 209.047 54.7095 209.498 54.8173C209.644 54.8518 209.765 54.927 209.861 55.0266C210.223 54.4199 210.541 53.7795 210.725 53.1006L210.731 53.0693C211.43 51.9246 212.188 50.8157 213 49.7448C215.242 46.7875 217.71 44.0921 220.677 41.8495C222.928 40.1497 225.444 38.8176 228.118 37.9522C227.464 37.4234 226.72 37.005 225.916 36.6962Z" fill="black"/>
<path fill-rule="evenodd" clip-rule="evenodd" d="M257.27 101.01C255.994 101.38 254.624 101.413 253.324 101.031C252.144 100.684 250.932 99.9214 250.065 98.9118C249.292 98.0152 248.792 96.9253 248.813 95.7619C248.815 95.629 248.863 95.5182 248.935 95.4321C249.014 95.3394 249.124 95.2758 249.241 95.2482C249.362 95.2198 249.49 95.2298 249.599 95.2793C249.697 95.3241 249.782 95.4003 249.835 95.5115C249.969 95.6871 250.101 95.86 250.235 96.0281C251.308 97.3546 252.347 98.346 253.959 98.7016C254.835 98.8945 255.709 98.8089 256.511 98.5146C257.371 98.1994 258.148 97.6453 258.755 96.9363C259.03 96.6158 259.355 96.485 259.672 96.4827C260.031 96.4803 260.387 96.6476 260.655 96.915C260.917 97.178 261.094 97.5351 261.11 97.9088C261.125 98.2367 261.017 98.5793 260.734 98.885C259.796 99.8917 258.584 100.629 257.27 101.01ZM257.231 84.3954C258.539 85.1916 260.533 87.048 259.125 89.0216C257.469 90.7619 255.084 88.7666 253.908 87.8642C252.819 87.1649 251.595 88.9635 252.605 89.7801C261.098 96.0754 264.544 84.6036 257.893 83.4594C257.16 83.3333 256.889 84.1492 257.231 84.3954ZM244.994 80.8925C244.573 80.6231 244.079 80.5308 243.531 80.7804C243.103 80.9755 242.351 81.6257 241.829 82.4802C241.47 83.065 241.218 83.7509 241.269 84.4656C241.283 84.6314 241.221 84.7538 241.125 84.8442C241.048 84.9157 240.938 84.9681 240.809 84.9846C240.699 84.9986 240.576 84.986 240.476 84.9547C240.286 84.8953 240.184 84.7717 240.146 84.6708C239.781 83.6975 239.939 82.6112 240.349 81.6312C240.902 80.3086 241.908 79.2009 242.566 78.8437C243.694 78.2324 245.023 78.2042 246.153 78.827C247.115 79.3571 247.714 80.213 248.312 81.0855C248.439 81.2709 248.566 81.455 248.696 81.6358C248.957 81.9983 248.983 82.3577 248.882 82.6659C248.77 83.0074 248.483 83.2954 248.126 83.4464C247.796 83.5857 247.414 83.6053 247.074 83.4622C246.788 83.3412 246.526 83.1054 246.359 82.7052C246.079 82.0313 245.612 81.2878 244.994 80.8925ZM266.347 82.3917C266.06 82.5419 265.834 82.5872 265.514 82.4914C265.337 82.4383 265.164 82.3364 265.027 82.1996C264.891 82.064 264.793 81.8954 264.755 81.7082C264.663 81.2465 264.41 80.8143 264.051 80.5324C263.744 80.2916 263.356 80.1639 262.925 80.2359C262.461 80.3136 262.018 80.6118 261.714 80.9633C261.611 81.0808 261.532 81.2146 261.451 81.3472C261.302 81.5953 261.156 81.8259 260.948 82.0083C260.869 82.0775 260.751 82.1255 260.637 82.1255C260.591 82.1255 260.543 82.1179 260.498 82.104C260.036 81.6394 259.947 81.2873 259.963 80.9377C259.978 80.5712 260.122 80.2002 260.356 79.854C260.902 79.0421 261.941 78.3762 262.641 78.2253C263.601 78.0189 264.554 78.2667 265.318 78.8035C266.105 79.3557 266.687 80.2132 266.869 81.1795C266.914 81.4122 266.895 81.6633 266.806 81.8811C266.72 82.094 266.569 82.2762 266.347 82.3917ZM247.111 72.2344C246.534 72.7963 245.853 72.8834 245.164 72.9608C244.781 73.0043 244.474 73.0392 244.173 73.1072C243.346 73.2942 242.528 73.5759 241.781 73.9815C241.002 74.4056 240.152 74.9169 239.54 75.5721C239.394 75.728 239.259 75.8914 239.121 76.0554C238.996 76.2049 238.876 76.3488 238.749 76.4877C238.603 76.647 238.464 76.814 238.326 76.9806C238.24 77.1212 238.223 77.1557 238.206 77.1918C238.18 77.246 238.151 77.3065 238.117 77.3714C238.069 77.4603 238.014 77.5576 237.957 77.6459C237.861 77.8073 237.809 77.8517 237.765 77.8716C237.691 77.9044 237.62 77.9207 237.554 77.912C237.49 77.9037 237.43 77.873 237.37 77.8229C237.074 77.5727 236.987 77.1623 236.995 76.7264C237.009 76.0652 237.253 75.333 237.478 74.8829C238 73.837 238.725 72.7499 239.595 71.9692C240.588 71.0784 241.676 70.4038 242.925 69.939C243.701 69.6501 244.599 69.3849 245.444 69.4184C246.052 69.4425 246.634 69.6236 247.113 70.0759C247.408 70.3534 247.549 70.7484 247.549 71.143C247.549 71.5456 247.402 71.9503 247.111 72.2344ZM267.518 77.3797C267.482 77.4398 267.432 77.4813 267.376 77.5062C267.316 77.5321 267.25 77.5397 267.187 77.529C267.123 77.5184 267.063 77.4897 267.017 77.446C266.97 77.4041 266.936 77.3484 266.921 77.2803C266.538 75.5987 265.796 74.3475 264.211 73.5407C263.431 73.1438 262.535 72.8917 261.685 72.6906C261.439 72.6322 261.178 72.5942 260.916 72.5558C260.093 72.4357 259.265 72.298 258.73 71.6324C258.405 71.2314 258.269 70.7185 258.347 70.2496C258.419 69.8081 258.676 69.4031 259.145 69.1606C260.311 68.5568 261.76 69.1493 262.938 69.6539C263.026 69.6914 263.112 69.7282 263.196 69.7636C264.347 70.2503 265.397 70.8928 266.261 71.8116C266.946 72.5407 267.582 73.6184 267.838 74.727C268.049 75.6492 267.999 76.5908 267.518 77.3797Z" fill="black"/>
</g>
<defs>
<clipPath id="clip0_77_129">
<rect width="340" height="176" fill="white"/>
</clipPath>
</defs>
</svg>
