<svg width="908" height="116" viewBox="0 0 908 116" fill="none" xmlns="http://www.w3.org/2000/svg">
<path d="M24.096 10.304V33.248C24.096 36.8 23.088 39.536 21.072 41.456C19.088 43.376 16.4 44.336 13.008 44.336C9.456 44.336 6.608 43.328 4.464 41.312C2.32 39.296 1.248 36.432 1.248 32.72H9.408C9.408 34.128 9.696 35.2 10.272 35.936C10.848 36.64 11.68 36.992 12.768 36.992C13.76 36.992 14.528 36.672 15.072 36.032C15.616 35.392 15.888 34.464 15.888 33.248V10.304H24.096ZM29.094 30.56C29.094 27.808 29.606 25.392 30.63 23.312C31.686 21.232 33.11 19.632 34.902 18.512C36.694 17.392 38.694 16.832 40.902 16.832C42.79 16.832 44.438 17.216 45.846 17.984C47.286 18.752 48.39 19.76 49.158 21.008V17.216H57.366V44H49.158V40.208C48.358 41.456 47.238 42.464 45.798 43.232C44.39 44 42.742 44.384 40.854 44.384C38.678 44.384 36.694 43.824 34.902 42.704C33.11 41.552 31.686 39.936 30.63 37.856C29.606 35.744 29.094 33.312 29.094 30.56ZM49.158 30.608C49.158 28.56 48.582 26.944 47.43 25.76C46.31 24.576 44.934 23.984 43.302 23.984C41.67 23.984 40.278 24.576 39.126 25.76C38.006 26.912 37.446 28.512 37.446 30.56C37.446 32.608 38.006 34.24 39.126 35.456C40.278 36.64 41.67 37.232 43.302 37.232C44.934 37.232 46.31 36.64 47.43 35.456C48.582 34.272 49.158 32.656 49.158 30.608ZM61.6721 30.608C61.6721 27.824 62.2321 25.392 63.3521 23.312C64.5041 21.232 66.0881 19.632 68.1041 18.512C70.1521 17.392 72.4881 16.832 75.1121 16.832C78.4721 16.832 81.2721 17.712 83.5121 19.472C85.7841 21.232 87.2721 23.712 87.9761 26.912H79.2401C78.5041 24.864 77.0801 23.84 74.9681 23.84C73.4641 23.84 72.2641 24.432 71.3681 25.616C70.4721 26.768 70.0241 28.432 70.0241 30.608C70.0241 32.784 70.4721 34.464 71.3681 35.648C72.2641 36.8 73.4641 37.376 74.9681 37.376C77.0801 37.376 78.5041 36.352 79.2401 34.304H87.9761C87.2721 37.44 85.7841 39.904 83.5121 41.696C81.2401 43.488 78.4401 44.384 75.1121 44.384C72.4881 44.384 70.1521 43.824 68.1041 42.704C66.0881 41.584 64.5041 39.984 63.3521 37.904C62.2321 35.824 61.6721 33.392 61.6721 30.608ZM108.735 44L100.575 32.768V44H92.3666V8.48H100.575V28.112L108.687 17.216H118.815L107.679 30.656L118.911 44H108.735ZM161.394 10.304V44H153.186V30.128H140.418V44H132.21V10.304H140.418V23.504H153.186V10.304H161.394ZM165.688 30.56C165.688 27.808 166.2 25.392 167.224 23.312C168.28 21.232 169.704 19.632 171.496 18.512C173.288 17.392 175.288 16.832 177.496 16.832C179.384 16.832 181.032 17.216 182.44 17.984C183.88 18.752 184.984 19.76 185.752 21.008V17.216H193.96V44H185.752V40.208C184.952 41.456 183.832 42.464 182.392 43.232C180.984 44 179.336 44.384 177.448 44.384C175.272 44.384 173.288 43.824 171.496 42.704C169.704 41.552 168.28 39.936 167.224 37.856C166.2 35.744 165.688 33.312 165.688 30.56ZM185.752 30.608C185.752 28.56 185.176 26.944 184.024 25.76C182.904 24.576 181.528 23.984 179.896 23.984C178.264 23.984 176.872 24.576 175.72 25.76C174.6 26.912 174.04 28.512 174.04 30.56C174.04 32.608 174.6 34.24 175.72 35.456C176.872 36.64 178.264 37.232 179.896 37.232C181.528 37.232 182.904 36.64 184.024 35.456C185.176 34.272 185.752 32.656 185.752 30.608ZM208.106 8.48V44H199.898V8.48H208.106ZM222.262 8.48V44H214.054V8.48H222.262ZM259.022 23.744V30.56H237.902V23.744H259.022ZM297.374 38.048H284.798L282.782 44H274.19L286.382 10.304H295.886L308.078 44H299.39L297.374 38.048ZM295.262 31.712L291.086 19.376L286.958 31.712H295.262ZM321.965 16.832C323.853 16.832 325.501 17.216 326.909 17.984C328.349 18.752 329.453 19.76 330.221 21.008V17.216H338.429V43.952C338.429 46.416 337.933 48.64 336.941 50.624C335.981 52.64 334.493 54.24 332.477 55.424C330.493 56.608 328.013 57.2 325.037 57.2C321.069 57.2 317.853 56.256 315.389 54.368C312.925 52.512 311.517 49.984 311.165 46.784H319.277C319.533 47.808 320.141 48.608 321.101 49.184C322.061 49.792 323.245 50.096 324.653 50.096C326.349 50.096 327.693 49.6 328.685 48.608C329.709 47.648 330.221 46.096 330.221 43.952V40.16C329.421 41.408 328.317 42.432 326.909 43.232C325.501 44 323.853 44.384 321.965 44.384C319.757 44.384 317.757 43.824 315.965 42.704C314.173 41.552 312.749 39.936 311.693 37.856C310.669 35.744 310.157 33.312 310.157 30.56C310.157 27.808 310.669 25.392 311.693 23.312C312.749 21.232 314.173 19.632 315.965 18.512C317.757 17.392 319.757 16.832 321.965 16.832ZM330.221 30.608C330.221 28.56 329.645 26.944 328.493 25.76C327.373 24.576 325.997 23.984 324.365 23.984C322.733 23.984 321.341 24.576 320.189 25.76C319.069 26.912 318.509 28.512 318.509 30.56C318.509 32.608 319.069 34.24 320.189 35.456C321.341 36.64 322.733 37.232 324.365 37.232C325.997 37.232 327.373 36.64 328.493 35.456C329.645 34.272 330.221 32.656 330.221 30.608ZM369.615 30.176C369.615 30.944 369.567 31.744 369.471 32.576H350.895C351.023 34.24 351.551 35.52 352.479 36.416C353.439 37.28 354.607 37.712 355.983 37.712C358.031 37.712 359.455 36.848 360.255 35.12H368.991C368.543 36.88 367.727 38.464 366.543 39.872C365.391 41.28 363.935 42.384 362.175 43.184C360.415 43.984 358.447 44.384 356.271 44.384C353.647 44.384 351.311 43.824 349.263 42.704C347.215 41.584 345.615 39.984 344.463 37.904C343.311 35.824 342.735 33.392 342.735 30.608C342.735 27.824 343.295 25.392 344.415 23.312C345.567 21.232 347.167 19.632 349.215 18.512C351.263 17.392 353.615 16.832 356.271 16.832C358.863 16.832 361.167 17.376 363.183 18.464C365.199 19.552 366.767 21.104 367.887 23.12C369.039 25.136 369.615 27.488 369.615 30.176ZM361.215 28.016C361.215 26.608 360.735 25.488 359.775 24.656C358.815 23.824 357.615 23.408 356.175 23.408C354.799 23.408 353.631 23.808 352.671 24.608C351.743 25.408 351.167 26.544 350.943 28.016H361.215ZM390.265 16.928C393.401 16.928 395.897 17.952 397.753 20C399.641 22.016 400.585 24.8 400.585 28.352V44H392.425V29.456C392.425 27.664 391.961 26.272 391.033 25.28C390.105 24.288 388.857 23.792 387.289 23.792C385.721 23.792 384.473 24.288 383.545 25.28C382.617 26.272 382.153 27.664 382.153 29.456V44H373.945V17.216H382.153V20.768C382.985 19.584 384.105 18.656 385.513 17.984C386.921 17.28 388.505 16.928 390.265 16.928ZM404.657 30.608C404.657 27.824 405.217 25.392 406.337 23.312C407.489 21.232 409.073 19.632 411.089 18.512C413.137 17.392 415.473 16.832 418.097 16.832C421.457 16.832 424.257 17.712 426.497 19.472C428.769 21.232 430.257 23.712 430.961 26.912H422.225C421.489 24.864 420.065 23.84 417.953 23.84C416.449 23.84 415.249 24.432 414.353 25.616C413.457 26.768 413.009 28.432 413.009 30.608C413.009 32.784 413.457 34.464 414.353 35.648C415.249 36.8 416.449 37.376 417.953 37.376C420.065 37.376 421.489 36.352 422.225 34.304H430.961C430.257 37.44 428.769 39.904 426.497 41.696C424.225 43.488 421.425 44.384 418.097 44.384C415.473 44.384 413.137 43.824 411.089 42.704C409.073 41.584 407.489 39.984 406.337 37.904C405.217 35.824 404.657 33.392 404.657 30.608ZM460.599 30.176C460.599 30.944 460.551 31.744 460.455 32.576H441.879C442.007 34.24 442.535 35.52 443.463 36.416C444.423 37.28 445.591 37.712 446.967 37.712C449.015 37.712 450.439 36.848 451.239 35.12H459.975C459.527 36.88 458.711 38.464 457.527 39.872C456.375 41.28 454.919 42.384 453.159 43.184C451.399 43.984 449.431 44.384 447.255 44.384C444.631 44.384 442.295 43.824 440.247 42.704C438.199 41.584 436.599 39.984 435.447 37.904C434.295 35.824 433.719 33.392 433.719 30.608C433.719 27.824 434.279 25.392 435.399 23.312C436.551 21.232 438.151 19.632 440.199 18.512C442.247 17.392 444.599 16.832 447.255 16.832C449.847 16.832 452.151 17.376 454.167 18.464C456.183 19.552 457.751 21.104 458.871 23.12C460.023 25.136 460.599 27.488 460.599 30.176ZM452.199 28.016C452.199 26.608 451.719 25.488 450.759 24.656C449.799 23.824 448.599 23.408 447.159 23.408C445.783 23.408 444.615 23.808 443.655 24.608C442.727 25.408 442.151 26.544 441.927 28.016H452.199ZM496.077 38.048H483.501L481.485 44H472.893L485.085 10.304H494.589L506.781 44H498.093L496.077 38.048ZM493.965 31.712L489.789 19.376L485.661 31.712H493.965ZM518.7 21.008C519.5 19.76 520.604 18.752 522.012 17.984C523.42 17.216 525.068 16.832 526.956 16.832C529.164 16.832 531.164 17.392 532.956 18.512C534.748 19.632 536.156 21.232 537.18 23.312C538.236 25.392 538.764 27.808 538.764 30.56C538.764 33.312 538.236 35.744 537.18 37.856C536.156 39.936 534.748 41.552 532.956 42.704C531.164 43.824 529.164 44.384 526.956 44.384C525.1 44.384 523.452 44 522.012 43.232C520.604 42.464 519.5 41.472 518.7 40.256V56.768H510.492V17.216H518.7V21.008ZM530.412 30.56C530.412 28.512 529.836 26.912 528.684 25.76C527.564 24.576 526.172 23.984 524.508 23.984C522.876 23.984 521.484 24.576 520.332 25.76C519.212 26.944 518.652 28.56 518.652 30.608C518.652 32.656 519.212 34.272 520.332 35.456C521.484 36.64 522.876 37.232 524.508 37.232C526.14 37.232 527.532 36.64 528.684 35.456C529.836 34.24 530.412 32.608 530.412 30.56ZM553.966 44.384C551.63 44.384 549.55 43.984 547.726 43.184C545.902 42.384 544.462 41.296 543.406 39.92C542.35 38.512 541.758 36.944 541.63 35.216H549.742C549.838 36.144 550.27 36.896 551.038 37.472C551.806 38.048 552.75 38.336 553.87 38.336C554.894 38.336 555.678 38.144 556.222 37.76C556.798 37.344 557.086 36.816 557.086 36.176C557.086 35.408 556.686 34.848 555.886 34.496C555.086 34.112 553.79 33.696 551.998 33.248C550.078 32.8 548.478 32.336 547.198 31.856C545.918 31.344 544.814 30.56 543.886 29.504C542.958 28.416 542.494 26.96 542.494 25.136C542.494 23.6 542.91 22.208 543.742 20.96C544.606 19.68 545.854 18.672 547.486 17.936C549.15 17.2 551.118 16.832 553.39 16.832C556.75 16.832 559.39 17.664 561.31 19.328C563.262 20.992 564.382 23.2 564.67 25.952H557.086C556.958 25.024 556.542 24.288 555.838 23.744C555.166 23.2 554.27 22.928 553.15 22.928C552.19 22.928 551.454 23.12 550.942 23.504C550.43 23.856 550.174 24.352 550.174 24.992C550.174 25.76 550.574 26.336 551.374 26.72C552.206 27.104 553.486 27.488 555.214 27.872C557.198 28.384 558.814 28.896 560.062 29.408C561.31 29.888 562.398 30.688 563.326 31.808C564.286 32.896 564.782 34.368 564.814 36.224C564.814 37.792 564.366 39.2 563.47 40.448C562.606 41.664 561.342 42.624 559.678 43.328C558.046 44.032 556.142 44.384 553.966 44.384ZM573.963 14.432C572.523 14.432 571.339 14.016 570.411 13.184C569.515 12.32 569.067 11.264 569.067 10.016C569.067 8.736 569.515 7.68 570.411 6.848C571.339 5.984 572.523 5.552 573.963 5.552C575.371 5.552 576.523 5.984 577.419 6.848C578.347 7.68 578.811 8.736 578.811 10.016C578.811 11.264 578.347 12.32 577.419 13.184C576.523 14.016 575.371 14.432 573.963 14.432ZM578.043 17.216V44H569.835V17.216H578.043ZM582.36 30.56C582.36 27.808 582.872 25.392 583.896 23.312C584.952 21.232 586.376 19.632 588.168 18.512C589.96 17.392 591.96 16.832 594.168 16.832C595.928 16.832 597.528 17.2 598.968 17.936C600.44 18.672 601.592 19.664 602.424 20.912V8.48H610.632V44H602.424V40.16C601.656 41.44 600.552 42.464 599.112 43.232C597.704 44 596.056 44.384 594.168 44.384C591.96 44.384 589.96 43.824 588.168 42.704C586.376 41.552 584.952 39.936 583.896 37.856C582.872 35.744 582.36 33.312 582.36 30.56ZM602.424 30.608C602.424 28.56 601.848 26.944 600.696 25.76C599.576 24.576 598.2 23.984 596.568 23.984C594.936 23.984 593.544 24.576 592.392 25.76C591.272 26.912 590.712 28.512 590.712 30.56C590.712 32.608 591.272 34.24 592.392 35.456C593.544 36.64 594.936 37.232 596.568 37.232C598.2 37.232 599.576 36.64 600.696 35.456C601.848 34.272 602.424 32.656 602.424 30.608ZM641.818 30.176C641.818 30.944 641.77 31.744 641.674 32.576H623.098C623.226 34.24 623.754 35.52 624.682 36.416C625.642 37.28 626.81 37.712 628.186 37.712C630.234 37.712 631.658 36.848 632.458 35.12H641.194C640.746 36.88 639.93 38.464 638.746 39.872C637.594 41.28 636.138 42.384 634.378 43.184C632.618 43.984 630.65 44.384 628.474 44.384C625.85 44.384 623.514 43.824 621.466 42.704C619.418 41.584 617.818 39.984 616.666 37.904C615.514 35.824 614.938 33.392 614.938 30.608C614.938 27.824 615.498 25.392 616.618 23.312C617.77 21.232 619.37 19.632 621.418 18.512C623.466 17.392 625.818 16.832 628.474 16.832C631.066 16.832 633.37 17.376 635.386 18.464C637.402 19.552 638.97 21.104 640.09 23.12C641.242 25.136 641.818 27.488 641.818 30.176ZM633.418 28.016C633.418 26.608 632.938 25.488 631.978 24.656C631.018 23.824 629.818 23.408 628.378 23.408C627.002 23.408 625.834 23.808 624.874 24.608C623.946 25.408 623.37 26.544 623.146 28.016H633.418ZM682 21.152C682 23.104 681.552 24.896 680.656 26.528C679.76 28.128 678.384 29.424 676.528 30.416C674.672 31.408 672.368 31.904 669.616 31.904H664.528V44H656.32V10.304H669.616C672.304 10.304 674.576 10.768 676.432 11.696C678.288 12.624 679.68 13.904 680.608 15.536C681.536 17.168 682 19.04 682 21.152ZM668.992 25.376C670.56 25.376 671.728 25.008 672.496 24.272C673.264 23.536 673.648 22.496 673.648 21.152C673.648 19.808 673.264 18.768 672.496 18.032C671.728 17.296 670.56 16.928 668.992 16.928H664.528V25.376H668.992ZM707.249 38.048H694.673L692.657 44H684.065L696.257 10.304H705.761L717.953 44H709.265L707.249 38.048ZM705.137 31.712L700.961 19.376L696.833 31.712H705.137ZM738.848 44L731.84 31.28H729.872V44H721.664V10.304H735.44C738.096 10.304 740.352 10.768 742.208 11.696C744.096 12.624 745.504 13.904 746.432 15.536C747.36 17.136 747.824 18.928 747.824 20.912C747.824 23.152 747.184 25.152 745.904 26.912C744.656 28.672 742.8 29.92 740.336 30.656L748.112 44H738.848ZM729.872 25.472H734.96C736.464 25.472 737.584 25.104 738.32 24.368C739.088 23.632 739.472 22.592 739.472 21.248C739.472 19.968 739.088 18.96 738.32 18.224C737.584 17.488 736.464 17.12 734.96 17.12H729.872V25.472ZM761.184 10.304V44H752.976V10.304H761.184ZM779.324 44.336C776.86 44.336 774.652 43.936 772.7 43.136C770.748 42.336 769.18 41.152 767.996 39.584C766.844 38.016 766.236 36.128 766.172 33.92H774.908C775.036 35.168 775.468 36.128 776.204 36.8C776.94 37.44 777.9 37.76 779.084 37.76C780.3 37.76 781.26 37.488 781.964 36.944C782.668 36.368 783.02 35.584 783.02 34.592C783.02 33.76 782.732 33.072 782.156 32.528C781.612 31.984 780.924 31.536 780.092 31.184C779.292 30.832 778.14 30.432 776.636 29.984C774.46 29.312 772.684 28.64 771.308 27.968C769.932 27.296 768.748 26.304 767.756 24.992C766.764 23.68 766.268 21.968 766.268 19.856C766.268 16.72 767.404 14.272 769.676 12.512C771.948 10.72 774.908 9.824 778.556 9.824C782.268 9.824 785.26 10.72 787.532 12.512C789.804 14.272 791.02 16.736 791.18 19.904H782.3C782.236 18.816 781.836 17.968 781.1 17.36C780.364 16.72 779.42 16.4 778.268 16.4C777.276 16.4 776.476 16.672 775.868 17.216C775.26 17.728 774.956 18.48 774.956 19.472C774.956 20.56 775.468 21.408 776.492 22.016C777.516 22.624 779.116 23.28 781.292 23.984C783.468 24.72 785.228 25.424 786.572 26.096C787.948 26.768 789.132 27.744 790.124 29.024C791.116 30.304 791.612 31.952 791.612 33.968C791.612 35.888 791.116 37.632 790.124 39.2C789.164 40.768 787.756 42.016 785.9 42.944C784.044 43.872 781.852 44.336 779.324 44.336ZM817.875 54.032C814.771 51.056 812.355 47.216 810.627 42.512C808.899 37.808 808.035 32.736 808.035 27.296C808.035 21.792 808.931 16.656 810.723 11.888C812.515 7.088 815.059 3.184 818.355 0.175998H826.419V0.943999C823.059 4.272 820.467 8.272 818.643 12.944C816.819 17.584 815.907 22.368 815.907 27.296C815.907 32.192 816.787 36.912 818.547 41.456C820.307 46 822.787 49.936 825.987 53.264V54.032H817.875ZM851.646 10.304V16.88H837.918V23.984H848.19V30.368H837.918V44H829.71V10.304H851.646ZM873.144 44L866.136 31.28H864.168V44H855.96V10.304H869.736C872.392 10.304 874.648 10.768 876.504 11.696C878.392 12.624 879.8 13.904 880.728 15.536C881.656 17.136 882.12 18.928 882.12 20.912C882.12 23.152 881.48 25.152 880.2 26.912C878.952 28.672 877.096 29.92 874.632 30.656L882.408 44H873.144ZM864.168 25.472H869.256C870.76 25.472 871.88 25.104 872.616 24.368C873.384 23.632 873.768 22.592 873.768 21.248C873.768 19.968 873.384 18.96 872.616 18.224C871.88 17.488 870.76 17.12 869.256 17.12H864.168V25.472ZM885.065 54.032V53.264C888.265 49.936 890.745 46 892.505 41.456C894.265 36.912 895.145 32.192 895.145 27.296C895.145 22.368 894.233 17.584 892.409 12.944C890.585 8.272 887.993 4.272 884.633 0.943999V0.175998H892.697C895.993 3.184 898.537 7.088 900.329 11.888C902.121 16.656 903.017 21.792 903.017 27.296C903.017 32.736 902.153 37.808 900.425 42.512C898.697 47.216 896.281 51.056 893.177 54.032H885.065Z" fill="#E79759"/>
<path d="M15.6 73.304C19.152 73.304 22.256 74.008 24.912 75.416C27.568 76.824 29.616 78.808 31.056 81.368C32.528 83.896 33.264 86.824 33.264 90.152C33.264 93.448 32.528 96.376 31.056 98.936C29.616 101.496 27.552 103.48 24.864 104.888C22.208 106.296 19.12 107 15.6 107H2.976V73.304H15.6ZM15.072 99.896C18.176 99.896 20.592 99.048 22.32 97.352C24.048 95.656 24.912 93.256 24.912 90.152C24.912 87.048 24.048 84.632 22.32 82.904C20.592 81.176 18.176 80.312 15.072 80.312H11.184V99.896H15.072ZM46.059 79.88V86.696H57.051V93.032H46.059V100.424H58.491V107H37.851V73.304H58.491V79.88H46.059ZM53.547 66.536L41.979 71.384V65.72L53.547 60.152V66.536ZM95.4518 73.304L83.4998 107H73.2278L61.2758 73.304H70.0118L78.3638 98.744L86.7638 73.304H95.4518ZM107.09 79.88V86.696H118.082V93.032H107.09V100.424H119.522V107H98.8823V73.304H119.522V79.88H107.09ZM133.059 100.664H143.811V107H124.851V73.304H133.059V100.664ZM163.662 107.336C160.494 107.336 157.582 106.6 154.926 105.128C152.302 103.656 150.206 101.608 148.638 98.984C147.102 96.328 146.334 93.352 146.334 90.056C146.334 86.76 147.102 83.8 148.638 81.176C150.206 78.552 152.302 76.504 154.926 75.032C157.582 73.56 160.494 72.824 163.662 72.824C166.83 72.824 169.726 73.56 172.35 75.032C175.006 76.504 177.086 78.552 178.59 81.176C180.126 83.8 180.894 86.76 180.894 90.056C180.894 93.352 180.126 96.328 178.59 98.984C177.054 101.608 174.974 103.656 172.35 105.128C169.726 106.6 166.83 107.336 163.662 107.336ZM163.662 99.848C166.35 99.848 168.494 98.952 170.094 97.16C171.726 95.368 172.542 93 172.542 90.056C172.542 87.08 171.726 84.712 170.094 82.952C168.494 81.16 166.35 80.264 163.662 80.264C160.942 80.264 158.766 81.144 157.134 82.904C155.534 84.664 154.734 87.048 154.734 90.056C154.734 93.032 155.534 95.416 157.134 97.208C158.766 98.968 160.942 99.848 163.662 99.848ZM211.14 84.152C211.14 86.104 210.692 87.896 209.796 89.528C208.9 91.128 207.524 92.424 205.668 93.416C203.812 94.408 201.508 94.904 198.756 94.904H193.668V107H185.46V73.304H198.756C201.444 73.304 203.716 73.768 205.572 74.696C207.428 75.624 208.82 76.904 209.748 78.536C210.676 80.168 211.14 82.04 211.14 84.152ZM198.132 88.376C199.7 88.376 200.868 88.008 201.636 87.272C202.404 86.536 202.788 85.496 202.788 84.152C202.788 82.808 202.404 81.768 201.636 81.032C200.868 80.296 199.7 79.928 198.132 79.928H193.668V88.376H198.132ZM241.094 84.152C241.094 86.104 240.646 87.896 239.75 89.528C238.854 91.128 237.478 92.424 235.622 93.416C233.766 94.408 231.462 94.904 228.71 94.904H223.622V107H215.414V73.304H228.71C231.398 73.304 233.67 73.768 235.526 74.696C237.382 75.624 238.774 76.904 239.702 78.536C240.63 80.168 241.094 82.04 241.094 84.152ZM228.086 88.376C229.654 88.376 230.822 88.008 231.59 87.272C232.358 86.536 232.742 85.496 232.742 84.152C232.742 82.808 232.358 81.768 231.59 81.032C230.822 80.296 229.654 79.928 228.086 79.928H223.622V88.376H228.086ZM253.575 79.88V86.696H264.567V93.032H253.575V100.424H266.007V107H245.367V73.304H266.007V79.88H253.575ZM279.399 73.304V93.464C279.399 95.48 279.895 97.032 280.887 98.12C281.879 99.208 283.335 99.752 285.255 99.752C287.175 99.752 288.647 99.208 289.671 98.12C290.695 97.032 291.207 95.48 291.207 93.464V73.304H299.415V93.416C299.415 96.424 298.775 98.968 297.495 101.048C296.215 103.128 294.487 104.696 292.311 105.752C290.167 106.808 287.767 107.336 285.111 107.336C282.455 107.336 280.071 106.824 277.959 105.8C275.879 104.744 274.231 103.176 273.015 101.096C271.799 98.984 271.191 96.424 271.191 93.416V73.304H279.399ZM322.363 107L315.355 94.28H313.387V107H305.179V73.304H318.955C321.611 73.304 323.867 73.768 325.723 74.696C327.611 75.624 329.019 76.904 329.947 78.536C330.875 80.136 331.339 81.928 331.339 83.912C331.339 86.152 330.699 88.152 329.419 89.912C328.171 91.672 326.315 92.92 323.851 93.656L331.627 107H322.363ZM313.387 88.472H318.475C319.979 88.472 321.099 88.104 321.835 87.368C322.603 86.632 322.987 85.592 322.987 84.248C322.987 82.968 322.603 81.96 321.835 81.224C321.099 80.488 319.979 80.12 318.475 80.12H313.387V88.472ZM345.271 90.104C345.271 86.776 345.992 83.816 347.432 81.224C348.872 78.6 350.872 76.568 353.432 75.128C356.024 73.656 358.952 72.92 362.216 72.92C366.216 72.92 369.64 73.976 372.488 76.088C375.336 78.2 377.24 81.08 378.2 84.728H369.176C368.504 83.32 367.544 82.248 366.296 81.512C365.08 80.776 363.688 80.408 362.12 80.408C359.592 80.408 357.544 81.288 355.976 83.048C354.408 84.808 353.624 87.16 353.624 90.104C353.624 93.048 354.408 95.4 355.976 97.16C357.544 98.92 359.592 99.8 362.12 99.8C363.688 99.8 365.08 99.432 366.296 98.696C367.544 97.96 368.504 96.888 369.176 95.48H378.2C377.24 99.128 375.336 102.008 372.488 104.12C369.64 106.2 366.216 107.24 362.216 107.24C358.952 107.24 356.024 106.52 353.432 105.08C350.872 103.608 348.872 101.576 347.432 98.984C345.992 96.392 345.271 93.432 345.271 90.104ZM414.57 85.976L413.226 92.264H418.986V99.656H411.642L410.058 107H402.378L403.962 99.656H395.994L394.41 107H386.73L388.314 99.656H381.21V92.264H389.898L391.242 85.976H384.282V78.584H392.778L394.314 71.48H401.994L400.458 78.584H408.426L409.962 71.48H417.642L416.106 78.584H422.058V85.976H414.57ZM406.89 85.976H398.922L397.578 92.264H405.546L406.89 85.976ZM444.92 61.4L432.056 115.976H424.136L437 61.4H444.92ZM452.222 107.384C450.782 107.384 449.598 106.968 448.67 106.136C447.774 105.272 447.326 104.216 447.326 102.968C447.326 101.688 447.774 100.616 448.67 99.752C449.598 98.888 450.782 98.456 452.222 98.456C453.63 98.456 454.782 98.888 455.678 99.752C456.606 100.616 457.07 101.688 457.07 102.968C457.07 104.216 456.606 105.272 455.678 106.136C454.782 106.968 453.63 107.384 452.222 107.384ZM492.073 107H483.865L470.137 86.216V107H461.929V73.304H470.137L483.865 94.184V73.304H492.073V107ZM506.231 79.88V86.696H517.223V93.032H506.231V100.424H518.663V107H498.023V73.304H518.663V79.88H506.231ZM548.232 73.304V79.88H539.304V107H531.096V79.88H522.168V73.304H548.232Z" fill="#183650"/>
</svg>
