<svg width="1088" height="116" viewBox="0 0 1088 116" fill="none" xmlns="http://www.w3.org/2000/svg">
<path d="M31.872 10.304L20.208 32.864V44H12V32.864L0.336 10.304H9.648L16.176 24.416L22.656 10.304H31.872ZM33.5471 30.56C33.5471 27.808 34.0591 25.392 35.0831 23.312C36.1391 21.232 37.5631 19.632 39.3551 18.512C41.1471 17.392 43.1471 16.832 45.3551 16.832C47.2431 16.832 48.8911 17.216 50.2991 17.984C51.7391 18.752 52.8431 19.76 53.6111 21.008V17.216H61.8191V44H53.6111V40.208C52.8111 41.456 51.6911 42.464 50.2511 43.232C48.8431 44 47.1951 44.384 45.3071 44.384C43.1311 44.384 41.1471 43.824 39.3551 42.704C37.5631 41.552 36.1391 39.936 35.0831 37.856C34.0591 35.744 33.5471 33.312 33.5471 30.56ZM53.6111 30.608C53.6111 28.56 53.0351 26.944 51.8831 25.76C50.7631 24.576 49.3871 23.984 47.7551 23.984C46.1231 23.984 44.7311 24.576 43.5791 25.76C42.4591 26.912 41.8991 28.512 41.8991 30.56C41.8991 32.608 42.4591 34.24 43.5791 35.456C44.7311 36.64 46.1231 37.232 47.7551 37.232C49.3871 37.232 50.7631 36.64 51.8831 35.456C53.0351 34.272 53.6111 32.656 53.6111 30.608ZM66.1253 30.56C66.1253 27.808 66.6373 25.392 67.6613 23.312C68.7173 21.232 70.1413 19.632 71.9333 18.512C73.7253 17.392 75.7253 16.832 77.9333 16.832C79.6933 16.832 81.2933 17.2 82.7333 17.936C84.2053 18.672 85.3573 19.664 86.1893 20.912V8.48H94.3973V44H86.1893V40.16C85.4213 41.44 84.3173 42.464 82.8773 43.232C81.4693 44 79.8213 44.384 77.9333 44.384C75.7253 44.384 73.7253 43.824 71.9333 42.704C70.1413 41.552 68.7173 39.936 67.6613 37.856C66.6373 35.744 66.1253 33.312 66.1253 30.56ZM86.1893 30.608C86.1893 28.56 85.6133 26.944 84.4613 25.76C83.3413 24.576 81.9653 23.984 80.3333 23.984C78.7013 23.984 77.3093 24.576 76.1573 25.76C75.0373 26.912 74.4773 28.512 74.4773 30.56C74.4773 32.608 75.0373 34.24 76.1573 35.456C77.3093 36.64 78.7013 37.232 80.3333 37.232C81.9653 37.232 83.3413 36.64 84.4613 35.456C85.6133 34.272 86.1893 32.656 86.1893 30.608ZM104.463 14.432C103.023 14.432 101.839 14.016 100.911 13.184C100.015 12.32 99.5674 11.264 99.5674 10.016C99.5674 8.736 100.015 7.68 100.911 6.848C101.839 5.984 103.023 5.552 104.463 5.552C105.871 5.552 107.023 5.984 107.919 6.848C108.847 7.68 109.311 8.736 109.311 10.016C109.311 11.264 108.847 12.32 107.919 13.184C107.023 14.016 105.871 14.432 104.463 14.432ZM108.543 17.216V44H100.335V17.216H108.543ZM122.7 21.68C123.66 20.208 124.86 19.056 126.3 18.224C127.74 17.36 129.34 16.928 131.1 16.928V25.616H128.844C126.796 25.616 125.26 26.064 124.236 26.96C123.212 27.824 122.7 29.36 122.7 31.568V44H114.492V17.216H122.7V21.68ZM133.391 30.56C133.391 27.808 133.903 25.392 134.927 23.312C135.983 21.232 137.407 19.632 139.199 18.512C140.991 17.392 142.991 16.832 145.199 16.832C147.087 16.832 148.735 17.216 150.143 17.984C151.583 18.752 152.687 19.76 153.455 21.008V17.216H161.663V44H153.455V40.208C152.655 41.456 151.535 42.464 150.095 43.232C148.687 44 147.039 44.384 145.151 44.384C142.975 44.384 140.991 43.824 139.199 42.704C137.407 41.552 135.983 39.936 134.927 37.856C133.903 35.744 133.391 33.312 133.391 30.56ZM153.455 30.608C153.455 28.56 152.879 26.944 151.727 25.76C150.607 24.576 149.231 23.984 147.599 23.984C145.967 23.984 144.575 24.576 143.423 25.76C142.303 26.912 141.743 28.512 141.743 30.56C141.743 32.608 142.303 34.24 143.423 35.456C144.575 36.64 145.967 37.232 147.599 37.232C149.231 37.232 150.607 36.64 151.727 35.456C152.879 34.272 153.455 32.656 153.455 30.608ZM203.453 21.152C203.453 23.104 203.005 24.896 202.109 26.528C201.213 28.128 199.837 29.424 197.981 30.416C196.125 31.408 193.821 31.904 191.069 31.904H185.981V44H177.773V10.304H191.069C193.757 10.304 196.029 10.768 197.885 11.696C199.741 12.624 201.133 13.904 202.061 15.536C202.989 17.168 203.453 19.04 203.453 21.152ZM190.445 25.376C192.013 25.376 193.181 25.008 193.949 24.272C194.717 23.536 195.101 22.496 195.101 21.152C195.101 19.808 194.717 18.768 193.949 18.032C193.181 17.296 192.013 16.928 190.445 16.928H185.981V25.376H190.445ZM215.934 21.68C216.894 20.208 218.094 19.056 219.534 18.224C220.974 17.36 222.574 16.928 224.334 16.928V25.616H222.078C220.03 25.616 218.494 26.064 217.47 26.96C216.446 27.824 215.934 29.36 215.934 31.568V44H207.726V17.216H215.934V21.68ZM240.449 44.384C237.825 44.384 235.457 43.824 233.345 42.704C231.265 41.584 229.617 39.984 228.401 37.904C227.217 35.824 226.625 33.392 226.625 30.608C226.625 27.856 227.233 25.44 228.449 23.36C229.665 21.248 231.329 19.632 233.441 18.512C235.553 17.392 237.921 16.832 240.545 16.832C243.169 16.832 245.537 17.392 247.649 18.512C249.761 19.632 251.425 21.248 252.641 23.36C253.857 25.44 254.465 27.856 254.465 30.608C254.465 33.36 253.841 35.792 252.593 37.904C251.377 39.984 249.697 41.584 247.553 42.704C245.441 43.824 243.073 44.384 240.449 44.384ZM240.449 37.28C242.017 37.28 243.345 36.704 244.433 35.552C245.553 34.4 246.113 32.752 246.113 30.608C246.113 28.464 245.569 26.816 244.481 25.664C243.425 24.512 242.113 23.936 240.545 23.936C238.945 23.936 237.617 24.512 236.561 25.664C235.505 26.784 234.977 28.432 234.977 30.608C234.977 32.752 235.489 34.4 236.513 35.552C237.569 36.704 238.881 37.28 240.449 37.28ZM275.284 16.928C278.356 16.928 280.82 17.952 282.676 20C284.532 22.016 285.46 24.8 285.46 28.352V44H277.3V29.456C277.3 27.664 276.836 26.272 275.908 25.28C274.98 24.288 273.732 23.792 272.164 23.792C270.596 23.792 269.348 24.288 268.42 25.28C267.492 26.272 267.028 27.664 267.028 29.456V44H258.82V8.48H267.028V20.816C267.86 19.632 268.996 18.688 270.436 17.984C271.876 17.28 273.492 16.928 275.284 16.928ZM289.532 30.56C289.532 27.808 290.044 25.392 291.068 23.312C292.124 21.232 293.548 19.632 295.34 18.512C297.132 17.392 299.132 16.832 301.34 16.832C303.228 16.832 304.876 17.216 306.284 17.984C307.724 18.752 308.828 19.76 309.596 21.008V17.216H317.804V44H309.596V40.208C308.796 41.456 307.676 42.464 306.236 43.232C304.828 44 303.18 44.384 301.292 44.384C299.116 44.384 297.132 43.824 295.34 42.704C293.548 41.552 292.124 39.936 291.068 37.856C290.044 35.744 289.532 33.312 289.532 30.56ZM309.596 30.608C309.596 28.56 309.02 26.944 307.868 25.76C306.748 24.576 305.372 23.984 303.74 23.984C302.108 23.984 300.716 24.576 299.564 25.76C298.444 26.912 297.884 28.512 297.884 30.56C297.884 32.608 298.444 34.24 299.564 35.456C300.716 36.64 302.108 37.232 303.74 37.232C305.372 37.232 306.748 36.64 307.868 35.456C309.02 34.272 309.596 32.656 309.596 30.608ZM334.638 44.384C332.302 44.384 330.222 43.984 328.398 43.184C326.574 42.384 325.134 41.296 324.078 39.92C323.022 38.512 322.43 36.944 322.302 35.216H330.414C330.51 36.144 330.942 36.896 331.71 37.472C332.478 38.048 333.422 38.336 334.542 38.336C335.566 38.336 336.35 38.144 336.894 37.76C337.47 37.344 337.758 36.816 337.758 36.176C337.758 35.408 337.358 34.848 336.558 34.496C335.758 34.112 334.462 33.696 332.67 33.248C330.75 32.8 329.15 32.336 327.87 31.856C326.59 31.344 325.486 30.56 324.558 29.504C323.63 28.416 323.166 26.96 323.166 25.136C323.166 23.6 323.582 22.208 324.414 20.96C325.278 19.68 326.526 18.672 328.158 17.936C329.822 17.2 331.79 16.832 334.062 16.832C337.422 16.832 340.062 17.664 341.982 19.328C343.934 20.992 345.054 23.2 345.342 25.952H337.758C337.63 25.024 337.214 24.288 336.51 23.744C335.838 23.2 334.942 22.928 333.822 22.928C332.862 22.928 332.126 23.12 331.614 23.504C331.102 23.856 330.846 24.352 330.846 24.992C330.846 25.76 331.246 26.336 332.046 26.72C332.878 27.104 334.158 27.488 335.886 27.872C337.87 28.384 339.486 28.896 340.734 29.408C341.982 29.888 343.07 30.688 343.998 31.808C344.958 32.896 345.454 34.368 345.486 36.224C345.486 37.792 345.038 39.2 344.142 40.448C343.278 41.664 342.014 42.624 340.35 43.328C338.718 44.032 336.814 44.384 334.638 44.384ZM366.875 44L358.715 32.768V44H350.507V8.48H358.715V28.112L366.827 17.216H376.955L365.819 30.656L377.051 44H366.875ZM378.547 30.56C378.547 27.808 379.059 25.392 380.083 23.312C381.139 21.232 382.563 19.632 384.355 18.512C386.147 17.392 388.147 16.832 390.355 16.832C392.243 16.832 393.891 17.216 395.299 17.984C396.739 18.752 397.843 19.76 398.611 21.008V17.216H406.819V44H398.611V40.208C397.811 41.456 396.691 42.464 395.251 43.232C393.843 44 392.195 44.384 390.307 44.384C388.131 44.384 386.147 43.824 384.355 42.704C382.563 41.552 381.139 39.936 380.083 37.856C379.059 35.744 378.547 33.312 378.547 30.56ZM398.611 30.608C398.611 28.56 398.035 26.944 396.883 25.76C395.763 24.576 394.387 23.984 392.755 23.984C391.123 23.984 389.731 24.576 388.579 25.76C387.459 26.912 386.899 28.512 386.899 30.56C386.899 32.608 387.459 34.24 388.579 35.456C389.731 36.64 391.123 37.232 392.755 37.232C394.387 37.232 395.763 36.64 396.883 35.456C398.035 34.272 398.611 32.656 398.611 30.608ZM443.569 23.744V30.56H422.449V23.744H443.569ZM481.921 38.048H469.345L467.329 44H458.737L470.929 10.304H480.433L492.625 44H483.937L481.921 38.048ZM479.809 31.712L475.633 19.376L471.505 31.712H479.809ZM506.511 16.832C508.399 16.832 510.047 17.216 511.455 17.984C512.895 18.752 513.999 19.76 514.767 21.008V17.216H522.975V43.952C522.975 46.416 522.479 48.64 521.487 50.624C520.527 52.64 519.039 54.24 517.023 55.424C515.039 56.608 512.559 57.2 509.583 57.2C505.615 57.2 502.399 56.256 499.935 54.368C497.471 52.512 496.063 49.984 495.711 46.784H503.823C504.079 47.808 504.687 48.608 505.647 49.184C506.607 49.792 507.791 50.096 509.199 50.096C510.895 50.096 512.239 49.6 513.231 48.608C514.255 47.648 514.767 46.096 514.767 43.952V40.16C513.967 41.408 512.863 42.432 511.455 43.232C510.047 44 508.399 44.384 506.511 44.384C504.303 44.384 502.303 43.824 500.511 42.704C498.719 41.552 497.295 39.936 496.239 37.856C495.215 35.744 494.703 33.312 494.703 30.56C494.703 27.808 495.215 25.392 496.239 23.312C497.295 21.232 498.719 19.632 500.511 18.512C502.303 17.392 504.303 16.832 506.511 16.832ZM514.767 30.608C514.767 28.56 514.191 26.944 513.039 25.76C511.919 24.576 510.543 23.984 508.911 23.984C507.279 23.984 505.887 24.576 504.735 25.76C503.615 26.912 503.055 28.512 503.055 30.56C503.055 32.608 503.615 34.24 504.735 35.456C505.887 36.64 507.279 37.232 508.911 37.232C510.543 37.232 511.919 36.64 513.039 35.456C514.191 34.272 514.767 32.656 514.767 30.608ZM554.161 30.176C554.161 30.944 554.114 31.744 554.018 32.576H535.442C535.57 34.24 536.098 35.52 537.026 36.416C537.986 37.28 539.154 37.712 540.53 37.712C542.578 37.712 544.002 36.848 544.802 35.12H553.538C553.09 36.88 552.274 38.464 551.09 39.872C549.938 41.28 548.482 42.384 546.722 43.184C544.962 43.984 542.994 44.384 540.818 44.384C538.194 44.384 535.858 43.824 533.81 42.704C531.762 41.584 530.162 39.984 529.01 37.904C527.858 35.824 527.282 33.392 527.282 30.608C527.282 27.824 527.842 25.392 528.962 23.312C530.114 21.232 531.714 19.632 533.762 18.512C535.81 17.392 538.162 16.832 540.818 16.832C543.41 16.832 545.714 17.376 547.73 18.464C549.746 19.552 551.314 21.104 552.434 23.12C553.586 25.136 554.161 27.488 554.161 30.176ZM545.762 28.016C545.762 26.608 545.282 25.488 544.322 24.656C543.362 23.824 542.162 23.408 540.722 23.408C539.346 23.408 538.178 23.808 537.218 24.608C536.29 25.408 535.714 26.544 535.49 28.016H545.762ZM574.812 16.928C577.948 16.928 580.444 17.952 582.3 20C584.188 22.016 585.132 24.8 585.132 28.352V44H576.972V29.456C576.972 27.664 576.508 26.272 575.58 25.28C574.652 24.288 573.404 23.792 571.836 23.792C570.268 23.792 569.02 24.288 568.092 25.28C567.164 26.272 566.7 27.664 566.7 29.456V44H558.492V17.216H566.7V20.768C567.532 19.584 568.652 18.656 570.06 17.984C571.468 17.28 573.052 16.928 574.812 16.928ZM589.203 30.608C589.203 27.824 589.763 25.392 590.883 23.312C592.035 21.232 593.619 19.632 595.635 18.512C597.683 17.392 600.019 16.832 602.643 16.832C606.003 16.832 608.803 17.712 611.043 19.472C613.315 21.232 614.803 23.712 615.507 26.912H606.771C606.035 24.864 604.611 23.84 602.499 23.84C600.995 23.84 599.795 24.432 598.899 25.616C598.003 26.768 597.555 28.432 597.555 30.608C597.555 32.784 598.003 34.464 598.899 35.648C599.795 36.8 600.995 37.376 602.499 37.376C604.611 37.376 606.035 36.352 606.771 34.304H615.507C614.803 37.44 613.315 39.904 611.043 41.696C608.771 43.488 605.971 44.384 602.643 44.384C600.019 44.384 597.683 43.824 595.635 42.704C593.619 41.584 592.035 39.984 590.883 37.904C589.763 35.824 589.203 33.392 589.203 30.608ZM645.146 30.176C645.146 30.944 645.098 31.744 645.002 32.576H626.426C626.554 34.24 627.082 35.52 628.01 36.416C628.97 37.28 630.138 37.712 631.514 37.712C633.562 37.712 634.986 36.848 635.786 35.12H644.522C644.074 36.88 643.258 38.464 642.074 39.872C640.922 41.28 639.466 42.384 637.706 43.184C635.946 43.984 633.978 44.384 631.802 44.384C629.178 44.384 626.842 43.824 624.794 42.704C622.746 41.584 621.146 39.984 619.994 37.904C618.842 35.824 618.266 33.392 618.266 30.608C618.266 27.824 618.826 25.392 619.946 23.312C621.098 21.232 622.698 19.632 624.746 18.512C626.794 17.392 629.146 16.832 631.802 16.832C634.394 16.832 636.698 17.376 638.714 18.464C640.73 19.552 642.298 21.104 643.418 23.12C644.57 25.136 645.146 27.488 645.146 30.176ZM636.746 28.016C636.746 26.608 636.266 25.488 635.306 24.656C634.346 23.824 633.146 23.408 631.706 23.408C630.33 23.408 629.162 23.808 628.202 24.608C627.274 25.408 626.698 26.544 626.474 28.016H636.746ZM680.624 38.048H668.048L666.032 44H657.44L669.632 10.304H679.136L691.328 44H682.64L680.624 38.048ZM678.512 31.712L674.336 19.376L670.208 31.712H678.512ZM703.247 21.008C704.047 19.76 705.151 18.752 706.559 17.984C707.967 17.216 709.615 16.832 711.503 16.832C713.711 16.832 715.711 17.392 717.503 18.512C719.295 19.632 720.703 21.232 721.727 23.312C722.783 25.392 723.311 27.808 723.311 30.56C723.311 33.312 722.783 35.744 721.727 37.856C720.703 39.936 719.295 41.552 717.503 42.704C715.711 43.824 713.711 44.384 711.503 44.384C709.647 44.384 707.999 44 706.559 43.232C705.151 42.464 704.047 41.472 703.247 40.256V56.768H695.039V17.216H703.247V21.008ZM714.959 30.56C714.959 28.512 714.383 26.912 713.231 25.76C712.111 24.576 710.719 23.984 709.055 23.984C707.423 23.984 706.031 24.576 704.879 25.76C703.759 26.944 703.199 28.56 703.199 30.608C703.199 32.656 703.759 34.272 704.879 35.456C706.031 36.64 707.423 37.232 709.055 37.232C710.687 37.232 712.079 36.64 713.231 35.456C714.383 34.24 714.959 32.608 714.959 30.56ZM738.513 44.384C736.177 44.384 734.097 43.984 732.273 43.184C730.449 42.384 729.009 41.296 727.953 39.92C726.897 38.512 726.305 36.944 726.177 35.216H734.289C734.385 36.144 734.817 36.896 735.585 37.472C736.353 38.048 737.297 38.336 738.417 38.336C739.441 38.336 740.225 38.144 740.769 37.76C741.345 37.344 741.633 36.816 741.633 36.176C741.633 35.408 741.233 34.848 740.433 34.496C739.633 34.112 738.337 33.696 736.545 33.248C734.625 32.8 733.025 32.336 731.745 31.856C730.465 31.344 729.361 30.56 728.433 29.504C727.505 28.416 727.041 26.96 727.041 25.136C727.041 23.6 727.457 22.208 728.289 20.96C729.153 19.68 730.401 18.672 732.033 17.936C733.697 17.2 735.665 16.832 737.937 16.832C741.297 16.832 743.937 17.664 745.857 19.328C747.809 20.992 748.929 23.2 749.217 25.952H741.633C741.505 25.024 741.089 24.288 740.385 23.744C739.713 23.2 738.817 22.928 737.697 22.928C736.737 22.928 736.001 23.12 735.489 23.504C734.977 23.856 734.721 24.352 734.721 24.992C734.721 25.76 735.121 26.336 735.921 26.72C736.753 27.104 738.033 27.488 739.761 27.872C741.745 28.384 743.361 28.896 744.609 29.408C745.857 29.888 746.945 30.688 747.873 31.808C748.833 32.896 749.329 34.368 749.361 36.224C749.361 37.792 748.913 39.2 748.017 40.448C747.153 41.664 745.889 42.624 744.225 43.328C742.593 44.032 740.689 44.384 738.513 44.384ZM758.51 14.432C757.07 14.432 755.886 14.016 754.958 13.184C754.062 12.32 753.614 11.264 753.614 10.016C753.614 8.736 754.062 7.68 754.958 6.848C755.886 5.984 757.07 5.552 758.51 5.552C759.918 5.552 761.07 5.984 761.966 6.848C762.894 7.68 763.358 8.736 763.358 10.016C763.358 11.264 762.894 12.32 761.966 13.184C761.07 14.016 759.918 14.432 758.51 14.432ZM762.59 17.216V44H754.382V17.216H762.59ZM766.907 30.56C766.907 27.808 767.419 25.392 768.443 23.312C769.499 21.232 770.923 19.632 772.715 18.512C774.507 17.392 776.507 16.832 778.715 16.832C780.475 16.832 782.075 17.2 783.515 17.936C784.987 18.672 786.139 19.664 786.971 20.912V8.48H795.179V44H786.971V40.16C786.203 41.44 785.099 42.464 783.659 43.232C782.251 44 780.603 44.384 778.715 44.384C776.507 44.384 774.507 43.824 772.715 42.704C770.923 41.552 769.499 39.936 768.443 37.856C767.419 35.744 766.907 33.312 766.907 30.56ZM786.971 30.608C786.971 28.56 786.395 26.944 785.243 25.76C784.123 24.576 782.747 23.984 781.115 23.984C779.483 23.984 778.091 24.576 776.939 25.76C775.819 26.912 775.259 28.512 775.259 30.56C775.259 32.608 775.819 34.24 776.939 35.456C778.091 36.64 779.483 37.232 781.115 37.232C782.747 37.232 784.123 36.64 785.243 35.456C786.395 34.272 786.971 32.656 786.971 30.608ZM826.365 30.176C826.365 30.944 826.317 31.744 826.221 32.576H807.645C807.773 34.24 808.301 35.52 809.229 36.416C810.189 37.28 811.357 37.712 812.733 37.712C814.781 37.712 816.205 36.848 817.005 35.12H825.741C825.293 36.88 824.477 38.464 823.293 39.872C822.141 41.28 820.685 42.384 818.925 43.184C817.165 43.984 815.197 44.384 813.021 44.384C810.397 44.384 808.061 43.824 806.013 42.704C803.965 41.584 802.365 39.984 801.213 37.904C800.061 35.824 799.485 33.392 799.485 30.608C799.485 27.824 800.045 25.392 801.165 23.312C802.317 21.232 803.917 19.632 805.965 18.512C808.013 17.392 810.365 16.832 813.021 16.832C815.613 16.832 817.917 17.376 819.933 18.464C821.949 19.552 823.517 21.104 824.637 23.12C825.789 25.136 826.365 27.488 826.365 30.176ZM817.965 28.016C817.965 26.608 817.485 25.488 816.525 24.656C815.565 23.824 814.365 23.408 812.925 23.408C811.549 23.408 810.381 23.808 809.421 24.608C808.493 25.408 807.917 26.544 807.693 28.016H817.965ZM866.547 21.152C866.547 23.104 866.099 24.896 865.203 26.528C864.307 28.128 862.931 29.424 861.075 30.416C859.219 31.408 856.915 31.904 854.163 31.904H849.075V44H840.867V10.304H854.163C856.851 10.304 859.123 10.768 860.979 11.696C862.835 12.624 864.227 13.904 865.155 15.536C866.083 17.168 866.547 19.04 866.547 21.152ZM853.539 25.376C855.107 25.376 856.275 25.008 857.043 24.272C857.811 23.536 858.195 22.496 858.195 21.152C858.195 19.808 857.811 18.768 857.043 18.032C856.275 17.296 855.107 16.928 853.539 16.928H849.075V25.376H853.539ZM891.796 38.048H879.22L877.204 44H868.612L880.804 10.304H890.308L902.5 44H893.812L891.796 38.048ZM889.684 31.712L885.508 19.376L881.38 31.712H889.684ZM923.394 44L916.386 31.28H914.418V44H906.21V10.304H919.986C922.642 10.304 924.898 10.768 926.754 11.696C928.642 12.624 930.05 13.904 930.978 15.536C931.906 17.136 932.37 18.928 932.37 20.912C932.37 23.152 931.73 25.152 930.45 26.912C929.202 28.672 927.346 29.92 924.882 30.656L932.658 44H923.394ZM914.418 25.472H919.506C921.01 25.472 922.13 25.104 922.866 24.368C923.634 23.632 924.018 22.592 924.018 21.248C924.018 19.968 923.634 18.96 922.866 18.224C922.13 17.488 921.01 17.12 919.506 17.12H914.418V25.472ZM945.731 10.304V44H937.523V10.304H945.731ZM963.871 44.336C961.407 44.336 959.199 43.936 957.247 43.136C955.295 42.336 953.727 41.152 952.543 39.584C951.391 38.016 950.783 36.128 950.719 33.92H959.455C959.583 35.168 960.015 36.128 960.751 36.8C961.487 37.44 962.447 37.76 963.631 37.76C964.847 37.76 965.807 37.488 966.511 36.944C967.215 36.368 967.567 35.584 967.567 34.592C967.567 33.76 967.279 33.072 966.703 32.528C966.159 31.984 965.471 31.536 964.639 31.184C963.839 30.832 962.687 30.432 961.183 29.984C959.007 29.312 957.231 28.64 955.855 27.968C954.479 27.296 953.295 26.304 952.303 24.992C951.311 23.68 950.815 21.968 950.815 19.856C950.815 16.72 951.951 14.272 954.223 12.512C956.495 10.72 959.455 9.824 963.103 9.824C966.815 9.824 969.807 10.72 972.079 12.512C974.351 14.272 975.567 16.736 975.727 19.904H966.847C966.783 18.816 966.383 17.968 965.647 17.36C964.911 16.72 963.967 16.4 962.815 16.4C961.823 16.4 961.023 16.672 960.415 17.216C959.807 17.728 959.503 18.48 959.503 19.472C959.503 20.56 960.015 21.408 961.039 22.016C962.063 22.624 963.663 23.28 965.839 23.984C968.015 24.72 969.775 25.424 971.119 26.096C972.495 26.768 973.679 27.744 974.671 29.024C975.663 30.304 976.159 31.952 976.159 33.968C976.159 35.888 975.663 37.632 974.671 39.2C973.711 40.768 972.303 42.016 970.447 42.944C968.591 43.872 966.399 44.336 963.871 44.336ZM1002.42 54.032C999.318 51.056 996.902 47.216 995.174 42.512C993.446 37.808 992.582 32.736 992.582 27.296C992.582 21.792 993.478 16.656 995.27 11.888C997.062 7.088 999.606 3.184 1002.9 0.175998H1010.97V0.943999C1007.61 4.272 1005.01 8.272 1003.19 12.944C1001.37 17.584 1000.45 22.368 1000.45 27.296C1000.45 32.192 1001.33 36.912 1003.09 41.456C1004.85 46 1007.33 49.936 1010.53 53.264V54.032H1002.42ZM1036.19 10.304V16.88H1022.47V23.984H1032.74V30.368H1022.47V44H1014.26V10.304H1036.19ZM1057.69 44L1050.68 31.28H1048.72V44H1040.51V10.304H1054.28C1056.94 10.304 1059.2 10.768 1061.05 11.696C1062.94 12.624 1064.35 13.904 1065.28 15.536C1066.2 17.136 1066.67 18.928 1066.67 20.912C1066.67 23.152 1066.03 25.152 1064.75 26.912C1063.5 28.672 1061.64 29.92 1059.18 30.656L1066.96 44H1057.69ZM1048.72 25.472H1053.8C1055.31 25.472 1056.43 25.104 1057.16 24.368C1057.93 23.632 1058.32 22.592 1058.32 21.248C1058.32 19.968 1057.93 18.96 1057.16 18.224C1056.43 17.488 1055.31 17.12 1053.8 17.12H1048.72V25.472ZM1069.61 54.032V53.264C1072.81 49.936 1075.29 46 1077.05 41.456C1078.81 36.912 1079.69 32.192 1079.69 27.296C1079.69 22.368 1078.78 17.584 1076.96 12.944C1075.13 8.272 1072.54 4.272 1069.18 0.943999V0.175998H1077.24C1080.54 3.184 1083.08 7.088 1084.88 11.888C1086.67 16.656 1087.56 21.792 1087.56 27.296C1087.56 32.736 1086.7 37.808 1084.97 42.512C1083.24 47.216 1080.83 51.056 1077.72 54.032H1069.61Z" fill="#E79759"/>
<path d="M15.6 73.304C19.152 73.304 22.256 74.008 24.912 75.416C27.568 76.824 29.616 78.808 31.056 81.368C32.528 83.896 33.264 86.824 33.264 90.152C33.264 93.448 32.528 96.376 31.056 98.936C29.616 101.496 27.552 103.48 24.864 104.888C22.208 106.296 19.12 107 15.6 107H2.976V73.304H15.6ZM15.072 99.896C18.176 99.896 20.592 99.048 22.32 97.352C24.048 95.656 24.912 93.256 24.912 90.152C24.912 87.048 24.048 84.632 22.32 82.904C20.592 81.176 18.176 80.312 15.072 80.312H11.184V99.896H15.072ZM46.059 79.88V86.696H57.051V93.032H46.059V100.424H58.491V107H37.851V73.304H58.491V79.88H46.059ZM95.4518 73.304L83.4998 107H73.2278L61.2758 73.304H70.0118L78.3638 98.744L86.7638 73.304H95.4518ZM107.09 79.88V86.696H118.082V93.032H107.09V100.424H119.522V107H98.8823V73.304H119.522V79.88H107.09ZM133.059 100.664H143.811V107H124.851V73.304H133.059V100.664ZM163.662 107.336C160.494 107.336 157.582 106.6 154.926 105.128C152.302 103.656 150.206 101.608 148.638 98.984C147.102 96.328 146.334 93.352 146.334 90.056C146.334 86.76 147.102 83.8 148.638 81.176C150.206 78.552 152.302 76.504 154.926 75.032C157.582 73.56 160.494 72.824 163.662 72.824C166.83 72.824 169.726 73.56 172.35 75.032C175.006 76.504 177.086 78.552 178.59 81.176C180.126 83.8 180.894 86.76 180.894 90.056C180.894 93.352 180.126 96.328 178.59 98.984C177.054 101.608 174.974 103.656 172.35 105.128C169.726 106.6 166.83 107.336 163.662 107.336ZM163.662 99.848C166.35 99.848 168.494 98.952 170.094 97.16C171.726 95.368 172.542 93 172.542 90.056C172.542 87.08 171.726 84.712 170.094 82.952C168.494 81.16 166.35 80.264 163.662 80.264C160.942 80.264 158.766 81.144 157.134 82.904C155.534 84.664 154.734 87.048 154.734 90.056C154.734 93.032 155.534 95.416 157.134 97.208C158.766 98.968 160.942 99.848 163.662 99.848ZM211.14 84.152C211.14 86.104 210.692 87.896 209.796 89.528C208.9 91.128 207.524 92.424 205.668 93.416C203.812 94.408 201.508 94.904 198.756 94.904H193.668V107H185.46V73.304H198.756C201.444 73.304 203.716 73.768 205.572 74.696C207.428 75.624 208.82 76.904 209.748 78.536C210.676 80.168 211.14 82.04 211.14 84.152ZM198.132 88.376C199.7 88.376 200.868 88.008 201.636 87.272C202.404 86.536 202.788 85.496 202.788 84.152C202.788 82.808 202.404 81.768 201.636 81.032C200.868 80.296 199.7 79.928 198.132 79.928H193.668V88.376H198.132ZM223.622 79.88V86.696H234.614V93.032H223.622V100.424H236.054V107H215.414V73.304H236.054V79.88H223.622ZM258.566 107L251.558 94.28H249.59V107H241.382V73.304H255.158C257.814 73.304 260.07 73.768 261.926 74.696C263.814 75.624 265.222 76.904 266.15 78.536C267.078 80.136 267.542 81.928 267.542 83.912C267.542 86.152 266.902 88.152 265.622 89.912C264.374 91.672 262.518 92.92 260.054 93.656L267.83 107H258.566ZM249.59 88.472H254.678C256.182 88.472 257.302 88.104 258.038 87.368C258.806 86.632 259.19 85.592 259.19 84.248C259.19 82.968 258.806 81.96 258.038 81.224C257.302 80.488 256.182 80.12 254.678 80.12H249.59V88.472ZM281.475 90.104C281.475 86.776 282.195 83.816 283.635 81.224C285.075 78.6 287.075 76.568 289.635 75.128C292.227 73.656 295.155 72.92 298.419 72.92C302.419 72.92 305.843 73.976 308.691 76.088C311.539 78.2 313.443 81.08 314.403 84.728H305.379C304.707 83.32 303.747 82.248 302.499 81.512C301.283 80.776 299.891 80.408 298.323 80.408C295.795 80.408 293.747 81.288 292.179 83.048C290.611 84.808 289.827 87.16 289.827 90.104C289.827 93.048 290.611 95.4 292.179 97.16C293.747 98.92 295.795 99.8 298.323 99.8C299.891 99.8 301.283 99.432 302.499 98.696C303.747 97.96 304.707 96.888 305.379 95.48H314.403C313.443 99.128 311.539 102.008 308.691 104.12C305.843 106.2 302.419 107.24 298.419 107.24C295.155 107.24 292.227 106.52 289.635 105.08C287.075 103.608 285.075 101.576 283.635 98.984C282.195 96.392 281.475 93.432 281.475 90.104ZM350.773 85.976L349.429 92.264H355.189V99.656H347.845L346.261 107H338.581L340.165 99.656H332.197L330.613 107H322.933L324.517 99.656H317.413V92.264H326.101L327.445 85.976H320.485V78.584H328.981L330.517 71.48H338.197L336.661 78.584H344.629L346.165 71.48H353.845L352.309 78.584H358.261V85.976H350.773ZM343.093 85.976H335.125L333.781 92.264H341.749L343.093 85.976ZM381.123 61.4L368.259 115.976H360.339L373.203 61.4H381.123ZM388.425 107.384C386.985 107.384 385.801 106.968 384.873 106.136C383.977 105.272 383.529 104.216 383.529 102.968C383.529 101.688 383.977 100.616 384.873 99.752C385.801 98.888 386.985 98.456 388.425 98.456C389.833 98.456 390.985 98.888 391.881 99.752C392.809 100.616 393.273 101.688 393.273 102.968C393.273 104.216 392.809 105.272 391.881 106.136C390.985 106.968 389.833 107.384 388.425 107.384ZM428.276 107H420.068L406.34 86.216V107H398.132V73.304H406.34L420.068 94.184V73.304H428.276V107ZM442.434 79.88V86.696H453.426V93.032H442.434V100.424H454.866V107H434.226V73.304H454.866V79.88H442.434ZM484.435 73.304V79.88H475.507V107H467.299V79.88H458.371V73.304H484.435Z" fill="#183650"/>
</svg>
