<svg width="973" height="116" viewBox="0 0 973 116" fill="none" xmlns="http://www.w3.org/2000/svg">
<path d="M11.184 16.88V23.696H22.176V30.032H11.184V37.424H23.616V44H2.976V10.304H23.616V16.88H11.184ZM37.1528 21.68C38.1128 20.208 39.3128 19.056 40.7528 18.224C42.1928 17.36 43.7928 16.928 45.5528 16.928V25.616H43.2968C41.2488 25.616 39.7128 26.064 38.6888 26.96C37.6648 27.824 37.1528 29.36 37.1528 31.568V44H28.9448V17.216H37.1528V21.68ZM53.604 14.432C52.164 14.432 50.98 14.016 50.052 13.184C49.156 12.32 48.708 11.264 48.708 10.016C48.708 8.736 49.156 7.68 50.052 6.848C50.98 5.984 52.164 5.552 53.604 5.552C55.012 5.552 56.164 5.984 57.06 6.848C57.988 7.68 58.452 8.736 58.452 10.016C58.452 11.264 57.988 12.32 57.06 13.184C56.164 14.016 55.012 14.432 53.604 14.432ZM57.684 17.216V44H49.476V17.216H57.684ZM80.0003 44L71.8403 32.768V44H63.6323V8.48H71.8403V28.112L79.9523 17.216H90.0803L78.9443 30.656L90.1763 44H80.0003ZM91.6721 30.56C91.6721 27.808 92.1841 25.392 93.2081 23.312C94.2641 21.232 95.6881 19.632 97.4801 18.512C99.2721 17.392 101.272 16.832 103.48 16.832C105.368 16.832 107.016 17.216 108.424 17.984C109.864 18.752 110.968 19.76 111.736 21.008V17.216H119.944V44H111.736V40.208C110.936 41.456 109.816 42.464 108.376 43.232C106.968 44 105.32 44.384 103.432 44.384C101.256 44.384 99.2721 43.824 97.4801 42.704C95.6881 41.552 94.2641 39.936 93.2081 37.856C92.1841 35.744 91.6721 33.312 91.6721 30.56ZM111.736 30.608C111.736 28.56 111.16 26.944 110.008 25.76C108.888 24.576 107.512 23.984 105.88 23.984C104.248 23.984 102.856 24.576 101.704 25.76C100.584 26.912 100.024 28.512 100.024 30.56C100.024 32.608 100.584 34.24 101.704 35.456C102.856 36.64 104.248 37.232 105.88 37.232C107.512 37.232 108.888 36.64 110.008 35.456C111.16 34.272 111.736 32.656 111.736 30.608ZM174.214 10.304V44H166.006V23.792L158.47 44H151.846L144.262 23.744V44H136.054V10.304H145.75L155.206 33.632L164.566 10.304H174.214ZM178.485 30.56C178.485 27.808 178.997 25.392 180.021 23.312C181.077 21.232 182.501 19.632 184.293 18.512C186.085 17.392 188.085 16.832 190.293 16.832C192.181 16.832 193.829 17.216 195.237 17.984C196.677 18.752 197.781 19.76 198.549 21.008V17.216H206.757V44H198.549V40.208C197.749 41.456 196.629 42.464 195.189 43.232C193.781 44 192.133 44.384 190.245 44.384C188.069 44.384 186.085 43.824 184.293 42.704C182.501 41.552 181.077 39.936 180.021 37.856C178.997 35.744 178.485 33.312 178.485 30.56ZM198.549 30.608C198.549 28.56 197.973 26.944 196.821 25.76C195.701 24.576 194.325 23.984 192.693 23.984C191.061 23.984 189.669 24.576 188.517 25.76C187.397 26.912 186.837 28.512 186.837 30.56C186.837 32.608 187.397 34.24 188.517 35.456C189.669 36.64 191.061 37.232 192.693 37.232C194.325 37.232 195.701 36.64 196.821 35.456C197.973 34.272 198.549 32.656 198.549 30.608ZM240.055 17.216L223.255 56.72H214.423L220.567 43.088L209.671 17.216H218.839L225.031 33.968L231.175 17.216H240.055ZM268.271 30.176C268.271 30.944 268.223 31.744 268.127 32.576H249.551C249.679 34.24 250.207 35.52 251.135 36.416C252.095 37.28 253.263 37.712 254.639 37.712C256.687 37.712 258.111 36.848 258.911 35.12H267.647C267.199 36.88 266.383 38.464 265.199 39.872C264.047 41.28 262.591 42.384 260.831 43.184C259.071 43.984 257.103 44.384 254.927 44.384C252.303 44.384 249.967 43.824 247.919 42.704C245.871 41.584 244.271 39.984 243.119 37.904C241.967 35.824 241.391 33.392 241.391 30.608C241.391 27.824 241.951 25.392 243.071 23.312C244.223 21.232 245.823 19.632 247.871 18.512C249.919 17.392 252.271 16.832 254.927 16.832C257.519 16.832 259.823 17.376 261.839 18.464C263.855 19.552 265.423 21.104 266.543 23.12C267.695 25.136 268.271 27.488 268.271 30.176ZM259.871 28.016C259.871 26.608 259.391 25.488 258.431 24.656C257.471 23.824 256.271 23.408 254.831 23.408C253.455 23.408 252.287 23.808 251.327 24.608C250.399 25.408 249.823 26.544 249.599 28.016H259.871ZM280.809 21.68C281.769 20.208 282.969 19.056 284.409 18.224C285.849 17.36 287.449 16.928 289.209 16.928V25.616H286.953C284.905 25.616 283.369 26.064 282.345 26.96C281.321 27.824 280.809 29.36 280.809 31.568V44H272.601V17.216H280.809V21.68ZM323.944 23.744V30.56H302.824V23.744H323.944ZM362.296 38.048H349.72L347.704 44H339.112L351.304 10.304H360.808L373 44H364.312L362.296 38.048ZM360.184 31.712L356.008 19.376L351.88 31.712H360.184ZM386.886 16.832C388.774 16.832 390.422 17.216 391.83 17.984C393.27 18.752 394.374 19.76 395.142 21.008V17.216H403.35V43.952C403.35 46.416 402.854 48.64 401.862 50.624C400.902 52.64 399.414 54.24 397.398 55.424C395.414 56.608 392.934 57.2 389.958 57.2C385.99 57.2 382.774 56.256 380.31 54.368C377.846 52.512 376.438 49.984 376.086 46.784H384.198C384.454 47.808 385.062 48.608 386.022 49.184C386.982 49.792 388.166 50.096 389.574 50.096C391.27 50.096 392.614 49.6 393.606 48.608C394.63 47.648 395.142 46.096 395.142 43.952V40.16C394.342 41.408 393.238 42.432 391.83 43.232C390.422 44 388.774 44.384 386.886 44.384C384.678 44.384 382.678 43.824 380.886 42.704C379.094 41.552 377.67 39.936 376.614 37.856C375.59 35.744 375.078 33.312 375.078 30.56C375.078 27.808 375.59 25.392 376.614 23.312C377.67 21.232 379.094 19.632 380.886 18.512C382.678 17.392 384.678 16.832 386.886 16.832ZM395.142 30.608C395.142 28.56 394.566 26.944 393.414 25.76C392.294 24.576 390.918 23.984 389.286 23.984C387.654 23.984 386.262 24.576 385.11 25.76C383.99 26.912 383.43 28.512 383.43 30.56C383.43 32.608 383.99 34.24 385.11 35.456C386.262 36.64 387.654 37.232 389.286 37.232C390.918 37.232 392.294 36.64 393.414 35.456C394.566 34.272 395.142 32.656 395.142 30.608ZM434.536 30.176C434.536 30.944 434.489 31.744 434.393 32.576H415.817C415.945 34.24 416.473 35.52 417.401 36.416C418.361 37.28 419.529 37.712 420.905 37.712C422.953 37.712 424.377 36.848 425.177 35.12H433.913C433.465 36.88 432.649 38.464 431.465 39.872C430.313 41.28 428.857 42.384 427.097 43.184C425.337 43.984 423.369 44.384 421.193 44.384C418.569 44.384 416.233 43.824 414.185 42.704C412.137 41.584 410.537 39.984 409.385 37.904C408.233 35.824 407.657 33.392 407.657 30.608C407.657 27.824 408.217 25.392 409.337 23.312C410.489 21.232 412.089 19.632 414.137 18.512C416.185 17.392 418.537 16.832 421.193 16.832C423.785 16.832 426.089 17.376 428.105 18.464C430.121 19.552 431.689 21.104 432.809 23.12C433.961 25.136 434.536 27.488 434.536 30.176ZM426.137 28.016C426.137 26.608 425.657 25.488 424.697 24.656C423.737 23.824 422.537 23.408 421.097 23.408C419.721 23.408 418.553 23.808 417.593 24.608C416.665 25.408 416.089 26.544 415.865 28.016H426.137ZM455.187 16.928C458.323 16.928 460.819 17.952 462.675 20C464.563 22.016 465.507 24.8 465.507 28.352V44H457.347V29.456C457.347 27.664 456.883 26.272 455.955 25.28C455.027 24.288 453.779 23.792 452.211 23.792C450.643 23.792 449.395 24.288 448.467 25.28C447.539 26.272 447.075 27.664 447.075 29.456V44H438.867V17.216H447.075V20.768C447.907 19.584 449.027 18.656 450.435 17.984C451.843 17.28 453.427 16.928 455.187 16.928ZM469.578 30.608C469.578 27.824 470.138 25.392 471.258 23.312C472.41 21.232 473.994 19.632 476.01 18.512C478.058 17.392 480.394 16.832 483.018 16.832C486.378 16.832 489.178 17.712 491.418 19.472C493.69 21.232 495.178 23.712 495.882 26.912H487.146C486.41 24.864 484.986 23.84 482.874 23.84C481.37 23.84 480.17 24.432 479.274 25.616C478.378 26.768 477.93 28.432 477.93 30.608C477.93 32.784 478.378 34.464 479.274 35.648C480.17 36.8 481.37 37.376 482.874 37.376C484.986 37.376 486.41 36.352 487.146 34.304H495.882C495.178 37.44 493.69 39.904 491.418 41.696C489.146 43.488 486.346 44.384 483.018 44.384C480.394 44.384 478.058 43.824 476.01 42.704C473.994 41.584 472.41 39.984 471.258 37.904C470.138 35.824 469.578 33.392 469.578 30.608ZM525.521 30.176C525.521 30.944 525.473 31.744 525.377 32.576H506.801C506.929 34.24 507.457 35.52 508.385 36.416C509.345 37.28 510.513 37.712 511.889 37.712C513.937 37.712 515.361 36.848 516.161 35.12H524.897C524.449 36.88 523.633 38.464 522.449 39.872C521.297 41.28 519.841 42.384 518.081 43.184C516.321 43.984 514.353 44.384 512.177 44.384C509.553 44.384 507.217 43.824 505.169 42.704C503.121 41.584 501.521 39.984 500.369 37.904C499.217 35.824 498.641 33.392 498.641 30.608C498.641 27.824 499.201 25.392 500.321 23.312C501.473 21.232 503.073 19.632 505.121 18.512C507.169 17.392 509.521 16.832 512.177 16.832C514.769 16.832 517.073 17.376 519.089 18.464C521.105 19.552 522.673 21.104 523.793 23.12C524.945 25.136 525.521 27.488 525.521 30.176ZM517.121 28.016C517.121 26.608 516.641 25.488 515.681 24.656C514.721 23.824 513.521 23.408 512.081 23.408C510.705 23.408 509.537 23.808 508.577 24.608C507.649 25.408 507.073 26.544 506.849 28.016H517.121ZM560.999 38.048H548.423L546.407 44H537.815L550.007 10.304H559.511L571.703 44H563.015L560.999 38.048ZM558.887 31.712L554.711 19.376L550.583 31.712H558.887ZM583.622 21.008C584.422 19.76 585.526 18.752 586.934 17.984C588.342 17.216 589.99 16.832 591.878 16.832C594.086 16.832 596.086 17.392 597.878 18.512C599.67 19.632 601.078 21.232 602.102 23.312C603.158 25.392 603.686 27.808 603.686 30.56C603.686 33.312 603.158 35.744 602.102 37.856C601.078 39.936 599.67 41.552 597.878 42.704C596.086 43.824 594.086 44.384 591.878 44.384C590.022 44.384 588.374 44 586.934 43.232C585.526 42.464 584.422 41.472 583.622 40.256V56.768H575.414V17.216H583.622V21.008ZM595.334 30.56C595.334 28.512 594.758 26.912 593.606 25.76C592.486 24.576 591.094 23.984 589.43 23.984C587.798 23.984 586.406 24.576 585.254 25.76C584.134 26.944 583.574 28.56 583.574 30.608C583.574 32.656 584.134 34.272 585.254 35.456C586.406 36.64 587.798 37.232 589.43 37.232C591.062 37.232 592.454 36.64 593.606 35.456C594.758 34.24 595.334 32.608 595.334 30.56ZM618.888 44.384C616.552 44.384 614.472 43.984 612.648 43.184C610.824 42.384 609.384 41.296 608.328 39.92C607.272 38.512 606.68 36.944 606.552 35.216H614.664C614.76 36.144 615.192 36.896 615.96 37.472C616.728 38.048 617.672 38.336 618.792 38.336C619.816 38.336 620.6 38.144 621.144 37.76C621.72 37.344 622.008 36.816 622.008 36.176C622.008 35.408 621.608 34.848 620.808 34.496C620.008 34.112 618.712 33.696 616.92 33.248C615 32.8 613.4 32.336 612.12 31.856C610.84 31.344 609.736 30.56 608.808 29.504C607.88 28.416 607.416 26.96 607.416 25.136C607.416 23.6 607.832 22.208 608.664 20.96C609.528 19.68 610.776 18.672 612.408 17.936C614.072 17.2 616.04 16.832 618.312 16.832C621.672 16.832 624.312 17.664 626.232 19.328C628.184 20.992 629.304 23.2 629.592 25.952H622.008C621.88 25.024 621.464 24.288 620.76 23.744C620.088 23.2 619.192 22.928 618.072 22.928C617.112 22.928 616.376 23.12 615.864 23.504C615.352 23.856 615.096 24.352 615.096 24.992C615.096 25.76 615.496 26.336 616.296 26.72C617.128 27.104 618.408 27.488 620.136 27.872C622.12 28.384 623.736 28.896 624.984 29.408C626.232 29.888 627.32 30.688 628.248 31.808C629.208 32.896 629.704 34.368 629.736 36.224C629.736 37.792 629.288 39.2 628.392 40.448C627.528 41.664 626.264 42.624 624.6 43.328C622.968 44.032 621.064 44.384 618.888 44.384ZM638.885 14.432C637.445 14.432 636.261 14.016 635.333 13.184C634.437 12.32 633.989 11.264 633.989 10.016C633.989 8.736 634.437 7.68 635.333 6.848C636.261 5.984 637.445 5.552 638.885 5.552C640.293 5.552 641.445 5.984 642.341 6.848C643.269 7.68 643.733 8.736 643.733 10.016C643.733 11.264 643.269 12.32 642.341 13.184C641.445 14.016 640.293 14.432 638.885 14.432ZM642.965 17.216V44H634.757V17.216H642.965ZM647.282 30.56C647.282 27.808 647.794 25.392 648.818 23.312C649.874 21.232 651.298 19.632 653.09 18.512C654.882 17.392 656.882 16.832 659.09 16.832C660.85 16.832 662.45 17.2 663.89 17.936C665.362 18.672 666.514 19.664 667.346 20.912V8.48H675.554V44H667.346V40.16C666.578 41.44 665.474 42.464 664.034 43.232C662.626 44 660.978 44.384 659.09 44.384C656.882 44.384 654.882 43.824 653.09 42.704C651.298 41.552 649.874 39.936 648.818 37.856C647.794 35.744 647.282 33.312 647.282 30.56ZM667.346 30.608C667.346 28.56 666.77 26.944 665.618 25.76C664.498 24.576 663.122 23.984 661.49 23.984C659.858 23.984 658.466 24.576 657.314 25.76C656.194 26.912 655.634 28.512 655.634 30.56C655.634 32.608 656.194 34.24 657.314 35.456C658.466 36.64 659.858 37.232 661.49 37.232C663.122 37.232 664.498 36.64 665.618 35.456C666.77 34.272 667.346 32.656 667.346 30.608ZM706.74 30.176C706.74 30.944 706.692 31.744 706.596 32.576H688.02C688.148 34.24 688.676 35.52 689.604 36.416C690.564 37.28 691.732 37.712 693.108 37.712C695.156 37.712 696.58 36.848 697.38 35.12H706.116C705.668 36.88 704.852 38.464 703.668 39.872C702.516 41.28 701.06 42.384 699.3 43.184C697.54 43.984 695.572 44.384 693.396 44.384C690.772 44.384 688.436 43.824 686.388 42.704C684.34 41.584 682.74 39.984 681.588 37.904C680.436 35.824 679.86 33.392 679.86 30.608C679.86 27.824 680.42 25.392 681.54 23.312C682.692 21.232 684.292 19.632 686.34 18.512C688.388 17.392 690.74 16.832 693.396 16.832C695.988 16.832 698.292 17.376 700.308 18.464C702.324 19.552 703.892 21.104 705.012 23.12C706.164 25.136 706.74 27.488 706.74 30.176ZM698.34 28.016C698.34 26.608 697.86 25.488 696.9 24.656C695.94 23.824 694.74 23.408 693.3 23.408C691.924 23.408 690.756 23.808 689.796 24.608C688.868 25.408 688.292 26.544 688.068 28.016H698.34ZM746.922 21.152C746.922 23.104 746.474 24.896 745.578 26.528C744.682 28.128 743.306 29.424 741.45 30.416C739.594 31.408 737.29 31.904 734.538 31.904H729.45V44H721.242V10.304H734.538C737.226 10.304 739.498 10.768 741.354 11.696C743.21 12.624 744.602 13.904 745.53 15.536C746.458 17.168 746.922 19.04 746.922 21.152ZM733.914 25.376C735.482 25.376 736.65 25.008 737.418 24.272C738.186 23.536 738.57 22.496 738.57 21.152C738.57 19.808 738.186 18.768 737.418 18.032C736.65 17.296 735.482 16.928 733.914 16.928H729.45V25.376H733.914ZM772.171 38.048H759.595L757.579 44H748.987L761.179 10.304H770.683L782.875 44H774.187L772.171 38.048ZM770.059 31.712L765.883 19.376L761.755 31.712H770.059ZM803.769 44L796.761 31.28H794.793V44H786.585V10.304H800.361C803.017 10.304 805.273 10.768 807.129 11.696C809.017 12.624 810.425 13.904 811.353 15.536C812.281 17.136 812.745 18.928 812.745 20.912C812.745 23.152 812.105 25.152 810.825 26.912C809.577 28.672 807.721 29.92 805.257 30.656L813.033 44H803.769ZM794.793 25.472H799.881C801.385 25.472 802.505 25.104 803.241 24.368C804.009 23.632 804.393 22.592 804.393 21.248C804.393 19.968 804.009 18.96 803.241 18.224C802.505 17.488 801.385 17.12 799.881 17.12H794.793V25.472ZM826.106 10.304V44H817.898V10.304H826.106ZM844.246 44.336C841.782 44.336 839.574 43.936 837.622 43.136C835.67 42.336 834.102 41.152 832.918 39.584C831.766 38.016 831.158 36.128 831.094 33.92H839.83C839.958 35.168 840.39 36.128 841.126 36.8C841.862 37.44 842.822 37.76 844.006 37.76C845.222 37.76 846.182 37.488 846.886 36.944C847.59 36.368 847.942 35.584 847.942 34.592C847.942 33.76 847.654 33.072 847.078 32.528C846.534 31.984 845.846 31.536 845.014 31.184C844.214 30.832 843.062 30.432 841.558 29.984C839.382 29.312 837.606 28.64 836.23 27.968C834.854 27.296 833.67 26.304 832.678 24.992C831.686 23.68 831.19 21.968 831.19 19.856C831.19 16.72 832.326 14.272 834.598 12.512C836.87 10.72 839.83 9.824 843.478 9.824C847.19 9.824 850.182 10.72 852.454 12.512C854.726 14.272 855.942 16.736 856.102 19.904H847.222C847.158 18.816 846.758 17.968 846.022 17.36C845.286 16.72 844.342 16.4 843.19 16.4C842.198 16.4 841.398 16.672 840.79 17.216C840.182 17.728 839.878 18.48 839.878 19.472C839.878 20.56 840.39 21.408 841.414 22.016C842.438 22.624 844.038 23.28 846.214 23.984C848.39 24.72 850.15 25.424 851.494 26.096C852.87 26.768 854.054 27.744 855.046 29.024C856.038 30.304 856.534 31.952 856.534 33.968C856.534 35.888 856.038 37.632 855.046 39.2C854.086 40.768 852.678 42.016 850.822 42.944C848.966 43.872 846.774 44.336 844.246 44.336ZM882.797 54.032C879.693 51.056 877.277 47.216 875.549 42.512C873.821 37.808 872.957 32.736 872.957 27.296C872.957 21.792 873.853 16.656 875.645 11.888C877.437 7.088 879.981 3.184 883.277 0.175998H891.341V0.943999C887.981 4.272 885.389 8.272 883.565 12.944C881.741 17.584 880.829 22.368 880.829 27.296C880.829 32.192 881.709 36.912 883.469 41.456C885.229 46 887.709 49.936 890.909 53.264V54.032H882.797ZM916.568 10.304V16.88H902.84V23.984H913.112V30.368H902.84V44H894.632V10.304H916.568ZM938.066 44L931.058 31.28H929.09V44H920.882V10.304H934.658C937.314 10.304 939.57 10.768 941.426 11.696C943.314 12.624 944.722 13.904 945.65 15.536C946.578 17.136 947.042 18.928 947.042 20.912C947.042 23.152 946.402 25.152 945.122 26.912C943.874 28.672 942.018 29.92 939.554 30.656L947.33 44H938.066ZM929.09 25.472H934.178C935.682 25.472 936.802 25.104 937.538 24.368C938.306 23.632 938.69 22.592 938.69 21.248C938.69 19.968 938.306 18.96 937.538 18.224C936.802 17.488 935.682 17.12 934.178 17.12H929.09V25.472ZM949.987 54.032V53.264C953.187 49.936 955.667 46 957.427 41.456C959.187 36.912 960.067 32.192 960.067 27.296C960.067 22.368 959.155 17.584 957.331 12.944C955.507 8.272 952.915 4.272 949.555 0.943999V0.175998H957.619C960.915 3.184 963.459 7.088 965.251 11.888C967.043 16.656 967.939 21.792 967.939 27.296C967.939 32.736 967.075 37.808 965.347 42.512C963.619 47.216 961.203 51.056 958.099 54.032H949.987Z" fill="#E79759"/>
<path d="M15.6 73.304C19.152 73.304 22.256 74.008 24.912 75.416C27.568 76.824 29.616 78.808 31.056 81.368C32.528 83.896 33.264 86.824 33.264 90.152C33.264 93.448 32.528 96.376 31.056 98.936C29.616 101.496 27.552 103.48 24.864 104.888C22.208 106.296 19.12 107 15.6 107H2.976V73.304H15.6ZM15.072 99.896C18.176 99.896 20.592 99.048 22.32 97.352C24.048 95.656 24.912 93.256 24.912 90.152C24.912 87.048 24.048 84.632 22.32 82.904C20.592 81.176 18.176 80.312 15.072 80.312H11.184V99.896H15.072ZM46.059 79.88V86.696H57.051V93.032H46.059V100.424H58.491V107H37.851V73.304H58.491V79.88H46.059ZM95.4518 73.304L83.4998 107H73.2278L61.2758 73.304H70.0118L78.3638 98.744L86.7638 73.304H95.4518ZM107.09 79.88V86.696H118.082V93.032H107.09V100.424H119.522V107H98.8823V73.304H119.522V79.88H107.09ZM133.059 100.664H143.811V107H124.851V73.304H133.059V100.664ZM163.662 107.336C160.494 107.336 157.582 106.6 154.926 105.128C152.302 103.656 150.206 101.608 148.638 98.984C147.102 96.328 146.334 93.352 146.334 90.056C146.334 86.76 147.102 83.8 148.638 81.176C150.206 78.552 152.302 76.504 154.926 75.032C157.582 73.56 160.494 72.824 163.662 72.824C166.83 72.824 169.726 73.56 172.35 75.032C175.006 76.504 177.086 78.552 178.59 81.176C180.126 83.8 180.894 86.76 180.894 90.056C180.894 93.352 180.126 96.328 178.59 98.984C177.054 101.608 174.974 103.656 172.35 105.128C169.726 106.6 166.83 107.336 163.662 107.336ZM163.662 99.848C166.35 99.848 168.494 98.952 170.094 97.16C171.726 95.368 172.542 93 172.542 90.056C172.542 87.08 171.726 84.712 170.094 82.952C168.494 81.16 166.35 80.264 163.662 80.264C160.942 80.264 158.766 81.144 157.134 82.904C155.534 84.664 154.734 87.048 154.734 90.056C154.734 93.032 155.534 95.416 157.134 97.208C158.766 98.968 160.942 99.848 163.662 99.848ZM211.14 84.152C211.14 86.104 210.692 87.896 209.796 89.528C208.9 91.128 207.524 92.424 205.668 93.416C203.812 94.408 201.508 94.904 198.756 94.904H193.668V107H185.46V73.304H198.756C201.444 73.304 203.716 73.768 205.572 74.696C207.428 75.624 208.82 76.904 209.748 78.536C210.676 80.168 211.14 82.04 211.14 84.152ZM198.132 88.376C199.7 88.376 200.868 88.008 201.636 87.272C202.404 86.536 202.788 85.496 202.788 84.152C202.788 82.808 202.404 81.768 201.636 81.032C200.868 80.296 199.7 79.928 198.132 79.928H193.668V88.376H198.132ZM223.622 79.88V86.696H234.614V93.032H223.622V100.424H236.054V107H215.414V73.304H236.054V79.88H223.622ZM258.566 107L251.558 94.28H249.59V107H241.382V73.304H255.158C257.814 73.304 260.07 73.768 261.926 74.696C263.814 75.624 265.222 76.904 266.15 78.536C267.078 80.136 267.542 81.928 267.542 83.912C267.542 86.152 266.902 88.152 265.622 89.912C264.374 91.672 262.518 92.92 260.054 93.656L267.83 107H258.566ZM249.59 88.472H254.678C256.182 88.472 257.302 88.104 258.038 87.368C258.806 86.632 259.19 85.592 259.19 84.248C259.19 82.968 258.806 81.96 258.038 81.224C257.302 80.488 256.182 80.12 254.678 80.12H249.59V88.472ZM281.475 90.104C281.475 86.776 282.195 83.816 283.635 81.224C285.075 78.6 287.075 76.568 289.635 75.128C292.227 73.656 295.155 72.92 298.419 72.92C302.419 72.92 305.843 73.976 308.691 76.088C311.539 78.2 313.443 81.08 314.403 84.728H305.379C304.707 83.32 303.747 82.248 302.499 81.512C301.283 80.776 299.891 80.408 298.323 80.408C295.795 80.408 293.747 81.288 292.179 83.048C290.611 84.808 289.827 87.16 289.827 90.104C289.827 93.048 290.611 95.4 292.179 97.16C293.747 98.92 295.795 99.8 298.323 99.8C299.891 99.8 301.283 99.432 302.499 98.696C303.747 97.96 304.707 96.888 305.379 95.48H314.403C313.443 99.128 311.539 102.008 308.691 104.12C305.843 106.2 302.419 107.24 298.419 107.24C295.155 107.24 292.227 106.52 289.635 105.08C287.075 103.608 285.075 101.576 283.635 98.984C282.195 96.392 281.475 93.432 281.475 90.104ZM350.773 85.976L349.429 92.264H355.189V99.656H347.845L346.261 107H338.581L340.165 99.656H332.197L330.613 107H322.933L324.517 99.656H317.413V92.264H326.101L327.445 85.976H320.485V78.584H328.981L330.517 71.48H338.197L336.661 78.584H344.629L346.165 71.48H353.845L352.309 78.584H358.261V85.976H350.773ZM343.093 85.976H335.125L333.781 92.264H341.749L343.093 85.976ZM381.123 61.4L368.259 115.976H360.339L373.203 61.4H381.123ZM388.425 107.384C386.985 107.384 385.801 106.968 384.873 106.136C383.977 105.272 383.529 104.216 383.529 102.968C383.529 101.688 383.977 100.616 384.873 99.752C385.801 98.888 386.985 98.456 388.425 98.456C389.833 98.456 390.985 98.888 391.881 99.752C392.809 100.616 393.273 101.688 393.273 102.968C393.273 104.216 392.809 105.272 391.881 106.136C390.985 106.968 389.833 107.384 388.425 107.384ZM428.276 107H420.068L406.34 86.216V107H398.132V73.304H406.34L420.068 94.184V73.304H428.276V107ZM442.434 79.88V86.696H453.426V93.032H442.434V100.424H454.866V107H434.226V73.304H454.866V79.88H442.434ZM484.435 73.304V79.88H475.507V107H467.299V79.88H458.371V73.304H484.435Z" fill="#183650"/>
</svg>
