<svg width="617" height="91" viewBox="0 0 617 91" fill="none" xmlns="http://www.w3.org/2000/svg">
<path d="M57.312 23.304C57.312 27.208 56.416 30.792 54.624 34.056C52.832 37.256 50.08 39.848 46.368 41.832C42.656 43.816 38.048 44.808 32.544 44.808H22.368V69H5.952V1.608H32.544C37.92 1.608 42.464 2.536 46.176 4.392C49.888 6.248 52.672 8.80799 54.528 12.072C56.384 15.336 57.312 19.08 57.312 23.304ZM31.296 31.752C34.432 31.752 36.768 31.016 38.304 29.544C39.84 28.072 40.608 25.992 40.608 23.304C40.608 20.616 39.84 18.536 38.304 17.064C36.768 15.592 34.432 14.856 31.296 14.856H22.368V31.752H31.296ZM100.226 69L86.2103 43.56H82.2743V69H65.8583V1.608H93.4103C98.7223 1.608 103.234 2.536 106.946 4.392C110.722 6.248 113.538 8.80799 115.394 12.072C117.25 15.272 118.178 18.856 118.178 22.824C118.178 27.304 116.898 31.304 114.338 34.824C111.842 38.344 108.13 40.84 103.202 42.312L118.754 69H100.226ZM82.2743 31.944H92.4503C95.4583 31.944 97.6983 31.208 99.1703 29.736C100.706 28.264 101.474 26.184 101.474 23.496C101.474 20.936 100.706 18.92 99.1703 17.448C97.6983 15.976 95.4583 15.24 92.4503 15.24H82.2743V31.944ZM160.355 69.672C154.019 69.672 148.195 68.2 142.883 65.256C137.635 62.312 133.443 58.216 130.307 52.968C127.235 47.656 125.699 41.704 125.699 35.112C125.699 28.52 127.235 22.6 130.307 17.352C133.443 12.104 137.635 8.008 142.883 5.064C148.195 2.12 154.019 0.647999 160.355 0.647999C166.691 0.647999 172.483 2.12 177.731 5.064C183.043 8.008 187.203 12.104 190.211 17.352C193.283 22.6 194.819 28.52 194.819 35.112C194.819 41.704 193.283 47.656 190.211 52.968C187.139 58.216 182.979 62.312 177.731 65.256C172.483 68.2 166.691 69.672 160.355 69.672ZM160.355 54.696C165.731 54.696 170.019 52.904 173.219 49.32C176.483 45.736 178.115 41 178.115 35.112C178.115 29.16 176.483 24.424 173.219 20.904C170.019 17.32 165.731 15.528 160.355 15.528C154.915 15.528 150.563 17.288 147.299 20.808C144.099 24.328 142.499 29.096 142.499 35.112C142.499 41.064 144.099 45.832 147.299 49.416C150.563 52.936 154.915 54.696 160.355 54.696ZM246.192 1.608V47.496C246.192 54.6 244.176 60.072 240.144 63.912C236.176 67.752 230.8 69.672 224.016 69.672C216.912 69.672 211.216 67.656 206.928 63.624C202.64 59.592 200.496 53.864 200.496 46.44H216.816C216.816 49.256 217.392 51.4 218.544 52.872C219.696 54.28 221.36 54.984 223.536 54.984C225.52 54.984 227.056 54.344 228.144 53.064C229.232 51.784 229.776 49.928 229.776 47.496V1.608H246.192ZM275.868 14.76V28.392H297.852V41.064H275.868V55.848H300.732V69H259.452V1.608H300.732V14.76H275.868ZM308.605 35.208C308.605 28.552 310.046 22.632 312.926 17.448C315.806 12.2 319.806 8.136 324.926 5.256C330.11 2.312 335.966 0.839996 342.494 0.839996C350.494 0.839996 357.342 2.952 363.038 7.17599C368.734 11.4 372.542 17.16 374.462 24.456H356.414C355.07 21.64 353.15 19.496 350.654 18.024C348.222 16.552 345.438 15.816 342.302 15.816C337.246 15.816 333.15 17.576 330.014 21.096C326.878 24.616 325.31 29.32 325.31 35.208C325.31 41.096 326.878 45.8 330.014 49.32C333.15 52.84 337.246 54.6 342.302 54.6C345.438 54.6 348.222 53.864 350.654 52.392C353.15 50.92 355.07 48.776 356.414 45.96H374.462C372.542 53.256 368.734 59.016 363.038 63.24C357.342 67.4 350.494 69.48 342.494 69.48C335.966 69.48 330.11 68.04 324.926 65.16C319.806 62.216 315.806 58.152 312.926 52.968C310.046 47.784 308.605 41.864 308.605 35.208ZM432.995 1.608V14.76H415.139V69H398.723V14.76H380.867V1.608H432.995Z" fill="#D5DADF"/>
<path d="M50.96 85.04H40.48L38.8 90H31.64L41.8 61.92H49.72L59.88 90H52.64L50.96 85.04ZM49.2 79.76L45.72 69.48L42.28 79.76H49.2ZM84.3722 70.96C84.3722 72.5867 83.9989 74.08 83.2522 75.44C82.5055 76.7733 81.3589 77.8533 79.8122 78.68C78.2655 79.5067 76.3455 79.92 74.0522 79.92H69.8122V90H62.9722V61.92H74.0522C76.2922 61.92 78.1855 62.3067 79.7322 63.08C81.2789 63.8533 82.4389 64.92 83.2122 66.28C83.9855 67.64 84.3722 69.2 84.3722 70.96ZM73.5322 74.48C74.8389 74.48 75.8122 74.1733 76.4522 73.56C77.0922 72.9467 77.4122 72.08 77.4122 70.96C77.4122 69.84 77.0922 68.9733 76.4522 68.36C75.8122 67.7467 74.8389 67.44 73.5322 67.44H69.8122V74.48H73.5322ZM98.0931 90.28C96.0398 90.28 94.1998 89.9467 92.5731 89.28C90.9465 88.6133 89.6398 87.6267 88.6531 86.32C87.6931 85.0133 87.1865 83.44 87.1331 81.6H94.4131C94.5198 82.64 94.8798 83.44 95.4931 84C96.1065 84.5333 96.9065 84.8 97.8931 84.8C98.9065 84.8 99.7065 84.5733 100.293 84.12C100.88 83.64 101.173 82.9867 101.173 82.16C101.173 81.4667 100.933 80.8933 100.453 80.44C99.9998 79.9867 99.4265 79.6133 98.7331 79.32C98.0665 79.0267 97.1065 78.6933 95.8531 78.32C94.0398 77.76 92.5598 77.2 91.4131 76.64C90.2665 76.08 89.2798 75.2533 88.4531 74.16C87.6265 73.0667 87.2131 71.64 87.2131 69.88C87.2131 67.2667 88.1598 65.2267 90.0531 63.76C91.9465 62.2667 94.4131 61.52 97.4531 61.52C100.546 61.52 103.04 62.2667 104.933 63.76C106.826 65.2267 107.84 67.28 107.973 69.92H100.573C100.52 69.0133 100.186 68.3067 99.5731 67.8C98.9598 67.2667 98.1731 67 97.2131 67C96.3865 67 95.7198 67.2267 95.2131 67.68C94.7065 68.1067 94.4531 68.7333 94.4531 69.56C94.4531 70.4667 94.8798 71.1733 95.7331 71.68C96.5865 72.1867 97.9198 72.7333 99.7331 73.32C101.546 73.9333 103.013 74.52 104.133 75.08C105.28 75.64 106.266 76.4533 107.093 77.52C107.92 78.5867 108.333 79.96 108.333 81.64C108.333 83.24 107.92 84.6933 107.093 86C106.293 87.3067 105.12 88.3467 103.573 89.12C102.026 89.8933 100.2 90.28 98.0931 90.28ZM119.383 61.92V90H112.543V61.92H119.383ZM134.859 61.92C137.819 61.92 140.406 62.5067 142.619 63.68C144.833 64.8533 146.539 66.5067 147.739 68.64C148.966 70.7467 149.579 73.1867 149.579 75.96C149.579 78.7067 148.966 81.1467 147.739 83.28C146.539 85.4133 144.819 87.0667 142.579 88.24C140.366 89.4133 137.793 90 134.859 90H124.339V61.92H134.859ZM134.419 84.08C137.006 84.08 139.019 83.3733 140.459 81.96C141.899 80.5467 142.619 78.5467 142.619 75.96C142.619 73.3733 141.899 71.36 140.459 69.92C139.019 68.48 137.006 67.76 134.419 67.76H131.179V84.08H134.419ZM160.242 67.4V73.08H169.402V78.36H160.242V84.52H170.602V90H153.402V61.92H170.602V67.4H160.242ZM194.039 61.92C196.999 61.92 199.586 62.5067 201.799 63.68C204.012 64.8533 205.719 66.5067 206.919 68.64C208.146 70.7467 208.759 73.1867 208.759 75.96C208.759 78.7067 208.146 81.1467 206.919 83.28C205.719 85.4133 203.999 87.0667 201.759 88.24C199.546 89.4133 196.972 90 194.039 90H183.519V61.92H194.039ZM193.599 84.08C196.186 84.08 198.199 83.3733 199.639 81.96C201.079 80.5467 201.799 78.5467 201.799 75.96C201.799 73.3733 201.079 71.36 199.639 69.92C198.199 68.48 196.186 67.76 193.599 67.76H190.359V84.08H193.599ZM230.062 85.04H219.582L217.902 90H210.742L220.902 61.92H228.822L238.982 90H231.742L230.062 85.04ZM228.302 79.76L224.822 69.48L221.382 79.76H228.302ZM252.234 90.28C250.18 90.28 248.34 89.9467 246.714 89.28C245.087 88.6133 243.78 87.6267 242.794 86.32C241.834 85.0133 241.327 83.44 241.274 81.6H248.554C248.66 82.64 249.02 83.44 249.634 84C250.247 84.5333 251.047 84.8 252.034 84.8C253.047 84.8 253.847 84.5733 254.434 84.12C255.02 83.64 255.314 82.9867 255.314 82.16C255.314 81.4667 255.074 80.8933 254.594 80.44C254.14 79.9867 253.567 79.6133 252.874 79.32C252.207 79.0267 251.247 78.6933 249.994 78.32C248.18 77.76 246.7 77.2 245.554 76.64C244.407 76.08 243.42 75.2533 242.594 74.16C241.767 73.0667 241.354 71.64 241.354 69.88C241.354 67.2667 242.3 65.2267 244.194 63.76C246.087 62.2667 248.554 61.52 251.594 61.52C254.687 61.52 257.18 62.2667 259.074 63.76C260.967 65.2267 261.98 67.28 262.114 69.92H254.714C254.66 69.0133 254.327 68.3067 253.714 67.8C253.1 67.2667 252.314 67 251.354 67C250.527 67 249.86 67.2267 249.354 67.68C248.847 68.1067 248.594 68.7333 248.594 69.56C248.594 70.4667 249.02 71.1733 249.874 71.68C250.727 72.1867 252.06 72.7333 253.874 73.32C255.687 73.9333 257.154 74.52 258.274 75.08C259.42 75.64 260.407 76.4533 261.234 77.52C262.06 78.5867 262.474 79.96 262.474 81.64C262.474 83.24 262.06 84.6933 261.234 86C260.434 87.3067 259.26 88.3467 257.714 89.12C256.167 89.8933 254.34 90.28 252.234 90.28ZM291.003 61.92V90H284.163V78.44H273.523V90H266.683V61.92H273.523V72.92H284.163V61.92H291.003ZM312.941 75.6C314.568 75.9467 315.874 76.76 316.861 78.04C317.848 79.2933 318.341 80.7333 318.341 82.36C318.341 84.7067 317.514 86.5733 315.861 87.96C314.234 89.32 311.954 90 309.021 90H295.941V61.92H308.581C311.434 61.92 313.661 62.5733 315.261 63.88C316.888 65.1867 317.701 66.96 317.701 69.2C317.701 70.8533 317.261 72.2267 316.381 73.32C315.528 74.4133 314.381 75.1733 312.941 75.6ZM302.781 73.28H307.261C308.381 73.28 309.234 73.04 309.821 72.56C310.434 72.0533 310.741 71.32 310.741 70.36C310.741 69.4 310.434 68.6667 309.821 68.16C309.234 67.6533 308.381 67.4 307.261 67.4H302.781V73.28ZM307.821 84.48C308.968 84.48 309.848 84.2267 310.461 83.72C311.101 83.1867 311.421 82.4267 311.421 81.44C311.421 80.4533 311.088 79.68 310.421 79.12C309.781 78.56 308.888 78.28 307.741 78.28H302.781V84.48H307.821ZM335.588 90.28C332.948 90.28 330.521 89.6667 328.308 88.44C326.121 87.2133 324.375 85.5067 323.068 83.32C321.788 81.1067 321.148 78.6267 321.148 75.88C321.148 73.1333 321.788 70.6667 323.068 68.48C324.375 66.2933 326.121 64.5867 328.308 63.36C330.521 62.1333 332.948 61.52 335.588 61.52C338.228 61.52 340.641 62.1333 342.828 63.36C345.041 64.5867 346.775 66.2933 348.028 68.48C349.308 70.6667 349.948 73.1333 349.948 75.88C349.948 78.6267 349.308 81.1067 348.028 83.32C346.748 85.5067 345.015 87.2133 342.828 88.44C340.641 89.6667 338.228 90.28 335.588 90.28ZM335.588 84.04C337.828 84.04 339.615 83.2933 340.948 81.8C342.308 80.3067 342.988 78.3333 342.988 75.88C342.988 73.4 342.308 71.4267 340.948 69.96C339.615 68.4667 337.828 67.72 335.588 67.72C333.321 67.72 331.508 68.4533 330.148 69.92C328.815 71.3867 328.148 73.3733 328.148 75.88C328.148 78.36 328.815 80.3467 330.148 81.84C331.508 83.3067 333.321 84.04 335.588 84.04ZM371.233 85.04H360.753L359.073 90H351.913L362.073 61.92H369.993L380.153 90H372.913L371.233 85.04ZM369.473 79.76L365.993 69.48L362.553 79.76H369.473ZM397.566 90L391.726 79.4H390.086V90H383.246V61.92H394.726C396.939 61.92 398.819 62.3067 400.366 63.08C401.939 63.8533 403.112 64.92 403.886 66.28C404.659 67.6133 405.046 69.1067 405.046 70.76C405.046 72.6267 404.512 74.2933 403.446 75.76C402.406 77.2267 400.859 78.2667 398.806 78.88L405.286 90H397.566ZM390.086 74.56H394.326C395.579 74.56 396.512 74.2533 397.126 73.64C397.766 73.0267 398.086 72.16 398.086 71.04C398.086 69.9733 397.766 69.1333 397.126 68.52C396.512 67.9067 395.579 67.6 394.326 67.6H390.086V74.56ZM419.859 61.92C422.819 61.92 425.406 62.5067 427.619 63.68C429.833 64.8533 431.539 66.5067 432.739 68.64C433.966 70.7467 434.579 73.1867 434.579 75.96C434.579 78.7067 433.966 81.1467 432.739 83.28C431.539 85.4133 429.819 87.0667 427.579 88.24C425.366 89.4133 422.793 90 419.859 90H409.339V61.92H419.859ZM419.419 84.08C422.006 84.08 424.019 83.3733 425.459 81.96C426.899 80.5467 427.619 78.5467 427.619 75.96C427.619 73.3733 426.899 71.36 425.459 69.92C424.019 68.48 422.006 67.76 419.419 67.76H416.179V84.08H419.419ZM465.158 61.92V67.4H453.718V73.32H462.278V78.64H453.718V90H446.878V61.92H465.158ZM475.593 67.4V73.08H484.753V78.36H475.593V84.52H485.953V90H468.753V61.92H485.953V67.4H475.593ZM507.874 85.04H497.394L495.714 90H488.554L498.714 61.92H506.634L516.794 90H509.554L507.874 85.04ZM506.114 79.76L502.634 69.48L499.194 79.76H506.114ZM540.086 61.92V67.4H532.646V90H525.806V67.4H518.366V61.92H540.086ZM550.239 61.92V78.72C550.239 80.4 550.652 81.6933 551.479 82.6C552.306 83.5067 553.519 83.96 555.119 83.96C556.719 83.96 557.946 83.5067 558.799 82.6C559.652 81.6933 560.079 80.4 560.079 78.72V61.92H566.919V78.68C566.919 81.1867 566.386 83.3067 565.319 85.04C564.252 86.7733 562.812 88.08 560.999 88.96C559.212 89.84 557.212 90.28 554.999 90.28C552.786 90.28 550.799 89.8533 549.039 89C547.306 88.12 545.932 86.8133 544.919 85.08C543.906 83.32 543.399 81.1867 543.399 78.68V61.92H550.239ZM586.042 90L580.202 79.4H578.562V90H571.722V61.92H583.202C585.416 61.92 587.296 62.3067 588.842 63.08C590.416 63.8533 591.589 64.92 592.362 66.28C593.136 67.6133 593.522 69.1067 593.522 70.76C593.522 72.6267 592.989 74.2933 591.922 75.76C590.882 77.2267 589.336 78.2667 587.282 78.88L593.762 90H586.042ZM578.562 74.56H582.802C584.056 74.56 584.989 74.2533 585.602 73.64C586.242 73.0267 586.562 72.16 586.562 71.04C586.562 69.9733 586.242 69.1333 585.602 68.52C584.989 67.9067 584.056 67.6 582.802 67.6H578.562V74.56ZM604.656 67.4V73.08H613.816V78.36H604.656V84.52H615.016V90H597.816V61.92H615.016V67.4H604.656Z" fill="#E79759"/>
</svg>
