<svg width="346" height="91" viewBox="0 0 346 91" fill="none" xmlns="http://www.w3.org/2000/svg">
<path d="M49.344 2.304L40.56 36H30.624L25.248 13.824L19.68 36H9.744L1.2 2.304H9.984L14.832 26.832L20.832 2.304H29.856L35.616 26.832L40.512 2.304H49.344ZM78.7084 22.176C78.7084 22.944 78.6604 23.744 78.5644 24.576H59.9884C60.1164 26.24 60.6444 27.52 61.5724 28.416C62.5324 29.28 63.7004 29.712 65.0764 29.712C67.1244 29.712 68.5484 28.848 69.3484 27.12H78.0844C77.6364 28.88 76.8204 30.464 75.6364 31.872C74.4844 33.28 73.0284 34.384 71.2684 35.184C69.5084 35.984 67.5404 36.384 65.3644 36.384C62.7404 36.384 60.4044 35.824 58.3564 34.704C56.3084 33.584 54.7084 31.984 53.5564 29.904C52.4044 27.824 51.8284 25.392 51.8284 22.608C51.8284 19.824 52.3884 17.392 53.5084 15.312C54.6604 13.232 56.2604 11.632 58.3084 10.512C60.3564 9.392 62.7084 8.832 65.3644 8.832C67.9564 8.832 70.2604 9.376 72.2764 10.464C74.2924 11.552 75.8604 13.104 76.9804 15.12C78.1324 17.136 78.7084 19.488 78.7084 22.176ZM70.3084 20.016C70.3084 18.608 69.8284 17.488 68.8684 16.656C67.9084 15.824 66.7084 15.408 65.2684 15.408C63.8924 15.408 62.7244 15.808 61.7644 16.608C60.8364 17.408 60.2604 18.544 60.0364 20.016H70.3084ZM91.2465 0.48V36H83.0385V0.48H91.2465ZM95.5628 22.608C95.5628 19.824 96.1228 17.392 97.2428 15.312C98.3948 13.232 99.9788 11.632 101.995 10.512C104.043 9.392 106.379 8.832 109.003 8.832C112.363 8.832 115.163 9.712 117.403 11.472C119.675 13.232 121.163 15.712 121.867 18.912H113.131C112.395 16.864 110.971 15.84 108.859 15.84C107.355 15.84 106.155 16.432 105.259 17.616C104.363 18.768 103.915 20.432 103.915 22.608C103.915 24.784 104.363 26.464 105.259 27.648C106.155 28.8 107.355 29.376 108.859 29.376C110.971 29.376 112.395 28.352 113.131 26.304H121.867C121.163 29.44 119.675 31.904 117.403 33.696C115.131 35.488 112.331 36.384 109.003 36.384C106.379 36.384 104.043 35.824 101.995 34.704C99.9788 33.584 98.3948 31.984 97.2428 29.904C96.1228 27.824 95.5628 25.392 95.5628 22.608ZM138.449 36.384C135.825 36.384 133.457 35.824 131.345 34.704C129.265 33.584 127.617 31.984 126.401 29.904C125.217 27.824 124.625 25.392 124.625 22.608C124.625 19.856 125.233 17.44 126.449 15.36C127.665 13.248 129.329 11.632 131.441 10.512C133.553 9.392 135.921 8.832 138.545 8.832C141.169 8.832 143.537 9.392 145.649 10.512C147.761 11.632 149.425 13.248 150.641 15.36C151.857 17.44 152.465 19.856 152.465 22.608C152.465 25.36 151.841 27.792 150.593 29.904C149.377 31.984 147.697 33.584 145.553 34.704C143.441 35.824 141.073 36.384 138.449 36.384ZM138.449 29.28C140.017 29.28 141.345 28.704 142.433 27.552C143.553 26.4 144.113 24.752 144.113 22.608C144.113 20.464 143.569 18.816 142.481 17.664C141.425 16.512 140.113 15.936 138.545 15.936C136.945 15.936 135.617 16.512 134.561 17.664C133.505 18.784 132.977 20.432 132.977 22.608C132.977 24.752 133.489 26.4 134.513 27.552C135.569 28.704 136.881 29.28 138.449 29.28ZM190.996 8.928C194.324 8.928 196.964 9.936 198.916 11.952C200.9 13.968 201.892 16.768 201.892 20.352V36H193.732V21.456C193.732 19.728 193.268 18.4 192.34 17.472C191.444 16.512 190.196 16.032 188.596 16.032C186.996 16.032 185.732 16.512 184.804 17.472C183.908 18.4 183.46 19.728 183.46 21.456V36H175.3V21.456C175.3 19.728 174.836 18.4 173.908 17.472C173.012 16.512 171.764 16.032 170.164 16.032C168.564 16.032 167.3 16.512 166.372 17.472C165.476 18.4 165.028 19.728 165.028 21.456V36H156.82V9.216H165.028V12.576C165.86 11.456 166.948 10.576 168.292 9.936C169.636 9.264 171.156 8.928 172.852 8.928C174.868 8.928 176.66 9.36 178.228 10.224C179.828 11.088 181.076 12.32 181.972 13.92C182.9 12.448 184.164 11.248 185.764 10.32C187.364 9.392 189.108 8.928 190.996 8.928ZM232.88 22.176C232.88 22.944 232.832 23.744 232.736 24.576H214.16C214.288 26.24 214.816 27.52 215.744 28.416C216.704 29.28 217.872 29.712 219.248 29.712C221.296 29.712 222.72 28.848 223.52 27.12H232.256C231.808 28.88 230.992 30.464 229.808 31.872C228.656 33.28 227.2 34.384 225.44 35.184C223.68 35.984 221.712 36.384 219.536 36.384C216.912 36.384 214.576 35.824 212.528 34.704C210.48 33.584 208.88 31.984 207.728 29.904C206.576 27.824 206 25.392 206 22.608C206 19.824 206.56 17.392 207.68 15.312C208.832 13.232 210.432 11.632 212.48 10.512C214.528 9.392 216.88 8.832 219.536 8.832C222.128 8.832 224.432 9.376 226.448 10.464C228.464 11.552 230.032 13.104 231.152 15.12C232.304 17.136 232.88 19.488 232.88 22.176ZM224.48 20.016C224.48 18.608 224 17.488 223.04 16.656C222.08 15.824 220.88 15.408 219.44 15.408C218.064 15.408 216.896 15.808 215.936 16.608C215.008 17.408 214.432 18.544 214.208 20.016H224.48Z" fill="#E79759"/>
<path d="M25.28 90.448C21.0133 90.448 17.088 89.4453 13.504 87.44C9.96267 85.4347 7.14667 82.6613 5.056 79.12C2.96533 75.5787 1.92 71.5893 1.92 67.152C1.92 62.7147 2.96533 58.7253 5.056 55.184C7.14667 51.6427 9.96267 48.8907 13.504 46.928C17.088 44.9227 21.0133 43.92 25.28 43.92C29.5467 43.92 33.4507 44.9227 36.992 46.928C40.5333 48.8907 43.328 51.6427 45.376 55.184C47.4667 58.7253 48.512 62.7147 48.512 67.152C48.512 71.5893 47.4667 75.5787 45.376 79.12C43.328 82.6613 40.512 85.4347 36.928 87.44C33.3867 89.4453 29.504 90.448 25.28 90.448ZM25.28 77.2C28.096 77.2 30.272 76.304 31.808 74.512C33.344 72.6773 34.112 70.224 34.112 67.152C34.112 64.0373 33.344 61.584 31.808 59.792C30.272 57.9573 28.096 57.04 25.28 57.04C22.4213 57.04 20.224 57.9573 18.688 59.792C17.152 61.584 16.384 64.0373 16.384 67.152C16.384 70.224 17.152 72.6773 18.688 74.512C20.224 76.304 22.4213 77.2 25.28 77.2ZM97.0935 90H82.8855L67.8455 67.216V90H53.6375V44.688H67.8455L82.8855 67.856V44.688H97.0935V90ZM144.724 66.768C147.454 67.408 149.566 68.7307 151.06 70.736C152.596 72.6987 153.364 74.9813 153.364 77.584C153.364 81.552 152.041 84.624 149.396 86.8C146.793 88.9333 143.038 90 138.132 90H114.388V44.688H137.492C142.1 44.688 145.726 45.6907 148.372 47.696C151.017 49.7013 152.34 52.624 152.34 56.464C152.34 59.1093 151.636 61.3493 150.228 63.184C148.862 64.976 147.028 66.1707 144.724 66.768ZM128.596 62.352H134.1C135.38 62.352 136.318 62.096 136.916 61.584C137.556 61.072 137.876 60.2827 137.876 59.216C137.876 58.1067 137.556 57.296 136.916 56.784C136.318 56.2293 135.38 55.952 134.1 55.952H128.596V62.352ZM135.06 78.608C136.34 78.608 137.278 78.3733 137.876 77.904C138.516 77.392 138.836 76.5813 138.836 75.472C138.836 73.296 137.577 72.208 135.06 72.208H128.596V78.608H135.06ZM180.218 90.448C175.951 90.448 172.026 89.4453 168.442 87.44C164.9 85.4347 162.084 82.6613 159.994 79.12C157.903 75.5787 156.858 71.5893 156.858 67.152C156.858 62.7147 157.903 58.7253 159.994 55.184C162.084 51.6427 164.9 48.8907 168.442 46.928C172.026 44.9227 175.951 43.92 180.218 43.92C184.484 43.92 188.388 44.9227 191.93 46.928C195.471 48.8907 198.266 51.6427 200.314 55.184C202.404 58.7253 203.45 62.7147 203.45 67.152C203.45 71.5893 202.404 75.5787 200.314 79.12C198.266 82.6613 195.45 85.4347 191.866 87.44C188.324 89.4453 184.442 90.448 180.218 90.448ZM180.218 77.2C183.034 77.2 185.21 76.304 186.746 74.512C188.282 72.6773 189.05 70.224 189.05 67.152C189.05 64.0373 188.282 61.584 186.746 59.792C185.21 57.9573 183.034 57.04 180.218 57.04C177.359 57.04 175.162 57.9573 173.626 59.792C172.09 61.584 171.322 64.0373 171.322 67.152C171.322 70.224 172.09 72.6773 173.626 74.512C175.162 76.304 177.359 77.2 180.218 77.2ZM237.631 83.152H222.527L220.287 90H205.375L221.951 44.688H238.335L254.847 90H239.871L237.631 83.152ZM234.175 72.464L230.079 59.856L225.983 72.464H234.175ZM280.859 90L272.347 73.744H272.283V90H258.075V44.688H279.195C282.864 44.688 286 45.3493 288.603 46.672C291.206 47.952 293.147 49.7227 294.427 51.984C295.75 54.2027 296.411 56.72 296.411 59.536C296.411 62.5653 295.558 65.2533 293.851 67.6C292.187 69.9467 289.776 71.632 286.619 72.656L296.475 90H280.859ZM272.283 64.272H277.915C279.28 64.272 280.304 63.9733 280.987 63.376C281.67 62.736 282.011 61.7547 282.011 60.432C282.011 59.2373 281.648 58.2987 280.923 57.616C280.24 56.9333 279.238 56.592 277.915 56.592H272.283V64.272ZM319.83 44.688C324.566 44.688 328.705 45.648 332.246 47.568C335.83 49.488 338.582 52.1547 340.502 55.568C342.422 58.9813 343.382 62.864 343.382 67.216C343.382 71.5253 342.422 75.408 340.502 78.864C338.582 82.32 335.83 85.0507 332.246 87.056C328.705 89.0187 324.566 90 319.83 90H300.95V44.688H319.83ZM318.55 77.328C321.75 77.328 324.289 76.4533 326.166 74.704C328.043 72.9547 328.982 70.4587 328.982 67.216C328.982 63.9733 328.043 61.4773 326.166 59.728C324.289 57.9787 321.75 57.104 318.55 57.104H315.158V77.328H318.55Z" fill="#183650"/>
</svg>
