<svg width="495" height="94" viewBox="0 0 495 94" fill="none" xmlns="http://www.w3.org/2000/svg">
<path d="M57.312 23.304C57.312 27.208 56.416 30.792 54.624 34.056C52.832 37.256 50.08 39.848 46.368 41.832C42.656 43.816 38.048 44.808 32.544 44.808H22.368V69H5.952V1.608H32.544C37.92 1.608 42.464 2.536 46.176 4.392C49.888 6.248 52.672 8.80799 54.528 12.072C56.384 15.336 57.312 19.08 57.312 23.304ZM31.296 31.752C34.432 31.752 36.768 31.016 38.304 29.544C39.84 28.072 40.608 25.992 40.608 23.304C40.608 20.616 39.84 18.536 38.304 17.064C36.768 15.592 34.432 14.856 31.296 14.856H22.368V31.752H31.296ZM100.226 69L86.2103 43.56H82.2743V69H65.8583V1.608H93.4103C98.7223 1.608 103.234 2.536 106.946 4.392C110.722 6.248 113.538 8.80799 115.394 12.072C117.25 15.272 118.178 18.856 118.178 22.824C118.178 27.304 116.898 31.304 114.338 34.824C111.842 38.344 108.13 40.84 103.202 42.312L118.754 69H100.226ZM82.2743 31.944H92.4503C95.4583 31.944 97.6983 31.208 99.1703 29.736C100.706 28.264 101.474 26.184 101.474 23.496C101.474 20.936 100.706 18.92 99.1703 17.448C97.6983 15.976 95.4583 15.24 92.4503 15.24H82.2743V31.944ZM160.355 69.672C154.019 69.672 148.195 68.2 142.883 65.256C137.635 62.312 133.443 58.216 130.307 52.968C127.235 47.656 125.699 41.704 125.699 35.112C125.699 28.52 127.235 22.6 130.307 17.352C133.443 12.104 137.635 8.008 142.883 5.064C148.195 2.12 154.019 0.647999 160.355 0.647999C166.691 0.647999 172.483 2.12 177.731 5.064C183.043 8.008 187.203 12.104 190.211 17.352C193.283 22.6 194.819 28.52 194.819 35.112C194.819 41.704 193.283 47.656 190.211 52.968C187.139 58.216 182.979 62.312 177.731 65.256C172.483 68.2 166.691 69.672 160.355 69.672ZM160.355 54.696C165.731 54.696 170.019 52.904 173.219 49.32C176.483 45.736 178.115 41 178.115 35.112C178.115 29.16 176.483 24.424 173.219 20.904C170.019 17.32 165.731 15.528 160.355 15.528C154.915 15.528 150.563 17.288 147.299 20.808C144.099 24.328 142.499 29.096 142.499 35.112C142.499 41.064 144.099 45.832 147.299 49.416C150.563 52.936 154.915 54.696 160.355 54.696ZM246.192 1.608V47.496C246.192 54.6 244.176 60.072 240.144 63.912C236.176 67.752 230.8 69.672 224.016 69.672C216.912 69.672 211.216 67.656 206.928 63.624C202.64 59.592 200.496 53.864 200.496 46.44H216.816C216.816 49.256 217.392 51.4 218.544 52.872C219.696 54.28 221.36 54.984 223.536 54.984C225.52 54.984 227.056 54.344 228.144 53.064C229.232 51.784 229.776 49.928 229.776 47.496V1.608H246.192ZM275.868 14.76V28.392H297.852V41.064H275.868V55.848H300.732V69H259.452V1.608H300.732V14.76H275.868ZM308.605 35.208C308.605 28.552 310.046 22.632 312.926 17.448C315.806 12.2 319.806 8.136 324.926 5.256C330.11 2.312 335.966 0.839996 342.494 0.839996C350.494 0.839996 357.342 2.952 363.038 7.17599C368.734 11.4 372.542 17.16 374.462 24.456H356.414C355.07 21.64 353.15 19.496 350.654 18.024C348.222 16.552 345.438 15.816 342.302 15.816C337.246 15.816 333.15 17.576 330.014 21.096C326.878 24.616 325.31 29.32 325.31 35.208C325.31 41.096 326.878 45.8 330.014 49.32C333.15 52.84 337.246 54.6 342.302 54.6C345.438 54.6 348.222 53.864 350.654 52.392C353.15 50.92 355.07 48.776 356.414 45.96H374.462C372.542 53.256 368.734 59.016 363.038 63.24C357.342 67.4 350.494 69.48 342.494 69.48C335.966 69.48 330.11 68.04 324.926 65.16C319.806 62.216 315.806 58.152 312.926 52.968C310.046 47.784 308.605 41.864 308.605 35.208ZM432.995 1.608V14.76H415.139V69H398.723V14.76H380.867V1.608H432.995ZM465.617 69.672C460.689 69.672 456.273 68.872 452.369 67.272C448.465 65.672 445.329 63.304 442.961 60.168C440.657 57.032 439.441 53.256 439.313 48.84H456.785C457.041 51.336 457.905 53.256 459.377 54.6C460.849 55.88 462.769 56.52 465.137 56.52C467.569 56.52 469.489 55.976 470.897 54.888C472.305 53.736 473.009 52.168 473.009 50.184C473.009 48.52 472.433 47.144 471.281 46.056C470.193 44.968 468.817 44.072 467.153 43.368C465.553 42.664 463.249 41.864 460.241 40.968C455.889 39.624 452.337 38.28 449.585 36.936C446.833 35.592 444.465 33.608 442.481 30.984C440.497 28.36 439.505 24.936 439.505 20.712C439.505 14.44 441.777 9.544 446.321 6.024C450.865 2.44 456.785 0.647999 464.081 0.647999C471.505 0.647999 477.489 2.44 482.033 6.024C486.577 9.544 489.009 14.472 489.329 20.808H471.569C471.441 18.632 470.641 16.936 469.169 15.72C467.697 14.44 465.809 13.8 463.505 13.8C461.521 13.8 459.921 14.344 458.705 15.432C457.489 16.456 456.881 17.96 456.881 19.944C456.881 22.12 457.905 23.816 459.953 25.032C462.001 26.248 465.201 27.56 469.553 28.968C473.905 30.44 477.425 31.848 480.113 33.192C482.865 34.536 485.233 36.488 487.217 39.048C489.201 41.608 490.193 44.904 490.193 48.936C490.193 52.776 489.201 56.264 487.217 59.4C485.297 62.536 482.481 65.032 478.769 66.888C475.057 68.744 470.673 69.672 465.617 69.672Z" fill="#D5DADF"/>
<path d="M168.216 59.304V65.88H159.288V93H151.08V65.88H142.152V59.304H168.216ZM201.519 59.304V93H193.311V79.128H180.543V93H172.335V59.304H180.543V72.504H193.311V59.304H201.519ZM215.653 65.88V72.696H226.645V79.032H215.653V86.424H228.085V93H207.445V59.304H228.085V65.88H215.653ZM269.265 70.152C269.265 72.104 268.817 73.896 267.921 75.528C267.025 77.128 265.649 78.424 263.793 79.416C261.937 80.408 259.633 80.904 256.881 80.904H251.793V93H243.585V59.304H256.881C259.569 59.304 261.841 59.768 263.697 60.696C265.553 61.624 266.945 62.904 267.873 64.536C268.801 66.168 269.265 68.04 269.265 70.152ZM256.257 74.376C257.825 74.376 258.993 74.008 259.761 73.272C260.529 72.536 260.913 71.496 260.913 70.152C260.913 68.808 260.529 67.768 259.761 67.032C258.993 66.296 257.825 65.928 256.257 65.928H251.793V74.376H256.257ZM290.723 93L283.715 80.28H281.747V93H273.539V59.304H287.315C289.971 59.304 292.227 59.768 294.083 60.696C295.971 61.624 297.379 62.904 298.307 64.536C299.235 66.136 299.699 67.928 299.699 69.912C299.699 72.152 299.059 74.152 297.779 75.912C296.531 77.672 294.675 78.92 292.211 79.656L299.987 93H290.723ZM281.747 74.472H286.835C288.339 74.472 289.459 74.104 290.195 73.368C290.963 72.632 291.347 71.592 291.347 70.248C291.347 68.968 290.963 67.96 290.195 67.224C289.459 66.488 288.339 66.12 286.835 66.12H281.747V74.472ZM320.787 93.336C317.619 93.336 314.707 92.6 312.051 91.128C309.427 89.656 307.331 87.608 305.763 84.984C304.227 82.328 303.459 79.352 303.459 76.056C303.459 72.76 304.227 69.8 305.763 67.176C307.331 64.552 309.427 62.504 312.051 61.032C314.707 59.56 317.619 58.824 320.787 58.824C323.955 58.824 326.851 59.56 329.475 61.032C332.131 62.504 334.211 64.552 335.715 67.176C337.251 69.8 338.019 72.76 338.019 76.056C338.019 79.352 337.251 82.328 335.715 84.984C334.179 87.608 332.099 89.656 329.475 91.128C326.851 92.6 323.955 93.336 320.787 93.336ZM320.787 85.848C323.475 85.848 325.619 84.952 327.219 83.16C328.851 81.368 329.667 79 329.667 76.056C329.667 73.08 328.851 70.712 327.219 68.952C325.619 67.16 323.475 66.264 320.787 66.264C318.067 66.264 315.891 67.144 314.259 68.904C312.659 70.664 311.859 73.048 311.859 76.056C311.859 79.032 312.659 81.416 314.259 83.208C315.891 84.968 318.067 85.848 320.787 85.848ZM363.705 59.304V82.248C363.705 85.8 362.697 88.536 360.681 90.456C358.697 92.376 356.009 93.336 352.617 93.336C349.065 93.336 346.217 92.328 344.073 90.312C341.929 88.296 340.857 85.432 340.857 81.72H349.017C349.017 83.128 349.305 84.2 349.881 84.936C350.457 85.64 351.289 85.992 352.377 85.992C353.369 85.992 354.137 85.672 354.681 85.032C355.225 84.392 355.497 83.464 355.497 82.248V59.304H363.705ZM378.543 65.88V72.696H389.535V79.032H378.543V86.424H390.975V93H370.335V59.304H390.975V65.88H378.543ZM394.912 76.104C394.912 72.776 395.632 69.816 397.072 67.224C398.512 64.6 400.512 62.568 403.072 61.128C405.664 59.656 408.592 58.92 411.856 58.92C415.856 58.92 419.28 59.976 422.128 62.088C424.976 64.2 426.88 67.08 427.84 70.728H418.816C418.144 69.32 417.184 68.248 415.936 67.512C414.72 66.776 413.328 66.408 411.76 66.408C409.232 66.408 407.184 67.288 405.616 69.048C404.048 70.808 403.264 73.16 403.264 76.104C403.264 79.048 404.048 81.4 405.616 83.16C407.184 84.92 409.232 85.8 411.76 85.8C413.328 85.8 414.72 85.432 415.936 84.696C417.184 83.96 418.144 82.888 418.816 81.48H427.84C426.88 85.128 424.976 88.008 422.128 90.12C419.28 92.2 415.856 93.24 411.856 93.24C408.592 93.24 405.664 92.52 403.072 91.08C400.512 89.608 398.512 87.576 397.072 84.984C395.632 82.392 394.912 79.432 394.912 76.104ZM457.107 59.304V65.88H448.179V93H439.971V65.88H431.043V59.304H457.107ZM473.418 93.336C470.954 93.336 468.746 92.936 466.794 92.136C464.842 91.336 463.274 90.152 462.09 88.584C460.938 87.016 460.33 85.128 460.266 82.92H469.002C469.13 84.168 469.562 85.128 470.298 85.8C471.034 86.44 471.994 86.76 473.178 86.76C474.394 86.76 475.354 86.488 476.058 85.944C476.762 85.368 477.114 84.584 477.114 83.592C477.114 82.76 476.826 82.072 476.25 81.528C475.706 80.984 475.018 80.536 474.186 80.184C473.386 79.832 472.234 79.432 470.73 78.984C468.554 78.312 466.778 77.64 465.402 76.968C464.026 76.296 462.842 75.304 461.85 73.992C460.858 72.68 460.362 70.968 460.362 68.856C460.362 65.72 461.498 63.272 463.77 61.512C466.042 59.72 469.002 58.824 472.65 58.824C476.362 58.824 479.354 59.72 481.626 61.512C483.898 63.272 485.114 65.736 485.274 68.904H476.394C476.33 67.816 475.93 66.968 475.194 66.36C474.458 65.72 473.514 65.4 472.362 65.4C471.37 65.4 470.57 65.672 469.962 66.216C469.354 66.728 469.05 67.48 469.05 68.472C469.05 69.56 469.562 70.408 470.586 71.016C471.61 71.624 473.21 72.28 475.386 72.984C477.562 73.72 479.322 74.424 480.666 75.096C482.042 75.768 483.226 76.744 484.218 78.024C485.21 79.304 485.706 80.952 485.706 82.968C485.706 84.888 485.21 86.632 484.218 88.2C483.258 89.768 481.85 91.016 479.994 91.944C478.138 92.872 475.946 93.336 473.418 93.336Z" fill="#E79759"/>
</svg>
