<svg width="431" height="611" viewBox="0 0 431 611" fill="none" xmlns="http://www.w3.org/2000/svg">
<g filter="url(#filter0_d_77_130)">
<g clip-path="url(#clip0_77_130)">
<rect x="5" width="421" height="601" rx="23.3889" fill="#FFFFFE"/>
<path d="M29.5052 79.8542V76.7545H45.791V79.8542H39.482V97.1666H35.8142V79.8542H29.5052ZM53.2288 97.4656C51.7338 97.4656 50.4381 97.1367 49.3417 96.4789C48.2454 95.8211 47.3949 94.9008 46.7902 93.7181C46.1922 92.5354 45.8932 91.1533 45.8932 89.5719C45.8932 87.9905 46.1922 86.6051 46.7902 85.4157C47.3949 84.2263 48.2454 83.3027 49.3417 82.6449C50.4381 81.9871 51.7338 81.6582 53.2288 81.6582C54.7238 81.6582 56.0195 81.9871 57.1159 82.6449C58.2122 83.3027 59.0594 84.2263 59.6574 85.4157C60.2621 86.6051 60.5644 87.9905 60.5644 89.5719C60.5644 91.1533 60.2621 92.5354 59.6574 93.7181C59.0594 94.9008 58.2122 95.8211 57.1159 96.4789C56.0195 97.1367 54.7238 97.4656 53.2288 97.4656ZM53.2487 94.5752C54.0594 94.5752 54.7371 94.3527 55.282 93.9075C55.8268 93.4556 56.2322 92.851 56.4979 92.0935C56.7704 91.336 56.9066 90.4922 56.9066 89.5619C56.9066 88.625 56.7704 87.7778 56.4979 87.0204C56.2322 86.2562 55.8268 85.6483 55.282 85.1964C54.7371 84.7446 54.0594 84.5187 53.2487 84.5187C52.4182 84.5187 51.7271 84.7446 51.1756 85.1964C50.6308 85.6483 50.2221 86.2562 49.9497 87.0204C49.6839 87.7778 49.551 88.625 49.551 89.5619C49.551 90.4922 49.6839 91.336 49.9497 92.0935C50.2221 92.851 50.6308 93.4556 51.1756 93.9075C51.7271 94.3527 52.4182 94.5752 53.2487 94.5752ZM77.6651 97.1666H70.7481V76.7545H77.8046C79.8312 76.7545 81.5721 77.1631 83.0272 77.9804C84.489 78.7911 85.612 79.9572 86.396 81.4788C87.1801 83.0004 87.5721 84.821 87.5721 86.9406C87.5721 89.0669 87.1768 90.8942 86.3861 92.4224C85.602 93.9507 84.4691 95.1234 82.9874 95.9407C81.5123 96.758 79.7382 97.1666 77.6651 97.1666ZM74.4458 93.9673H77.4856C78.9076 93.9673 80.0936 93.7081 81.0438 93.1899C81.994 92.6649 82.7083 91.8842 83.1867 90.8476C83.6651 89.8044 83.9043 88.5021 83.9043 86.9406C83.9043 85.3792 83.6651 84.0835 83.1867 83.0536C82.7083 82.017 82.0006 81.2429 81.0638 80.7313C80.1335 80.213 78.9774 79.9539 77.5953 79.9539H74.4458V93.9673ZM97.6037 97.4656C96.1087 97.4656 94.813 97.1367 93.7167 96.4789C92.6203 95.8211 91.7698 94.9008 91.1652 93.7181C90.5671 92.5354 90.2681 91.1533 90.2681 89.5719C90.2681 87.9905 90.5671 86.6051 91.1652 85.4157C91.7698 84.2263 92.6203 83.3027 93.7167 82.6449C94.813 81.9871 96.1087 81.6582 97.6037 81.6582C99.0988 81.6582 100.394 81.9871 101.491 82.6449C102.587 83.3027 103.434 84.2263 104.032 85.4157C104.637 86.6051 104.939 87.9905 104.939 89.5719C104.939 91.1533 104.637 92.5354 104.032 93.7181C103.434 94.9008 102.587 95.8211 101.491 96.4789C100.394 97.1367 99.0988 97.4656 97.6037 97.4656ZM97.6237 94.5752C98.4343 94.5752 99.1121 94.3527 99.6569 93.9075C100.202 93.4556 100.607 92.851 100.873 92.0935C101.145 91.336 101.282 90.4922 101.282 89.5619C101.282 88.625 101.145 87.7778 100.873 87.0204C100.607 86.2562 100.202 85.6483 99.6569 85.1964C99.1121 84.7446 98.4343 84.5187 97.6237 84.5187C96.7931 84.5187 96.1021 84.7446 95.5506 85.1964C95.0057 85.6483 94.5971 86.2562 94.3246 87.0204C94.0589 87.7778 93.926 88.625 93.926 89.5619C93.926 90.4922 94.0589 91.336 94.3246 92.0935C94.5971 92.851 95.0057 93.4556 95.5506 93.9075C96.1021 94.3527 96.7931 94.5752 97.6237 94.5752ZM115.123 97.1666V76.7545H118.821V94.0669H127.811V97.1666H115.123ZM130.861 97.1666V81.8575H134.469V97.1666H130.861ZM132.675 79.6848C132.103 79.6848 131.611 79.4954 131.2 79.1166C130.788 78.7313 130.582 78.2695 130.582 77.7313C130.582 77.1864 130.788 76.7246 131.2 76.3459C131.611 75.9605 132.103 75.7678 132.675 75.7678C133.253 75.7678 133.744 75.9605 134.15 76.3459C134.562 76.7246 134.768 77.1864 134.768 77.7313C134.768 78.2695 134.562 78.7313 134.15 79.1166C133.744 79.4954 133.253 79.6848 132.675 79.6848ZM150.279 85.9041L146.99 86.2629C146.896 85.9307 146.734 85.6184 146.501 85.326C146.275 85.0336 145.97 84.7978 145.584 84.6184C145.199 84.439 144.727 84.3492 144.169 84.3492C143.418 84.3492 142.787 84.512 142.275 84.8376C141.77 85.1632 141.521 85.5851 141.528 86.1034C141.521 86.5486 141.684 86.9107 142.016 87.1898C142.355 87.4689 142.913 87.6981 143.69 87.8775L146.302 88.4357C147.75 88.748 148.827 89.243 149.531 89.9207C150.242 90.5985 150.601 91.4855 150.607 92.5819C150.601 93.5453 150.318 94.3958 149.76 95.1334C149.209 95.8643 148.441 96.4357 147.458 96.8477C146.475 97.2596 145.345 97.4656 144.069 97.4656C142.195 97.4656 140.687 97.0736 139.544 96.2895C138.401 95.4988 137.72 94.3992 137.501 92.9905L141.019 92.6516C141.179 93.3427 141.518 93.8643 142.036 94.2164C142.554 94.5686 143.229 94.7447 144.059 94.7447C144.916 94.7447 145.604 94.5686 146.122 94.2164C146.647 93.8643 146.91 93.4291 146.91 92.9108C146.91 92.4722 146.74 92.1101 146.401 91.8244C146.069 91.5387 145.551 91.3194 144.847 91.1666L142.235 90.6184C140.767 90.3128 139.68 89.7978 138.976 89.0735C138.272 88.3426 137.923 87.419 137.93 86.3028C137.923 85.3592 138.179 84.5419 138.697 83.8509C139.222 83.1532 139.95 82.615 140.88 82.2363C141.817 81.8509 142.896 81.6582 144.119 81.6582C145.913 81.6582 147.325 82.0403 148.355 82.8044C149.392 83.5685 150.033 84.6017 150.279 85.9041ZM161.227 81.8575V84.6483H152.426V81.8575H161.227ZM154.599 78.1897H158.207V92.5619C158.207 93.047 158.28 93.4191 158.426 93.6782C158.579 93.9307 158.779 94.1035 159.024 94.1965C159.27 94.2895 159.543 94.336 159.842 94.336C160.068 94.336 160.274 94.3194 160.46 94.2862C160.652 94.253 160.799 94.2231 160.898 94.1965L161.506 97.0171C161.314 97.0836 161.038 97.1567 160.679 97.2364C160.327 97.3161 159.895 97.3626 159.383 97.3759C158.48 97.4025 157.666 97.2663 156.941 96.9673C156.217 96.6616 155.642 96.1899 155.217 95.552C154.799 94.9141 154.593 94.1168 154.599 93.1599V78.1897Z" fill="black"/>
<path d="M29.1331 152.639V150.572H39.9903V152.639H35.7843V164.181H33.3391V152.639H29.1331ZM44.3824 158.2V164.181H41.9771V150.572H44.3292V155.709H44.4488C44.688 155.133 45.0579 154.679 45.5585 154.347C46.0635 154.01 46.7058 153.842 47.4854 153.842C48.1942 153.842 48.8121 153.99 49.3392 154.287C49.8664 154.584 50.2739 155.018 50.5618 155.589C50.8542 156.161 51.0004 156.858 51.0004 157.682V164.181H48.5951V158.054C48.5951 157.368 48.4179 156.834 48.0635 156.453C47.7135 156.068 47.2218 155.875 46.5884 155.875C46.1631 155.875 45.7822 155.968 45.4455 156.154C45.1133 156.336 44.8519 156.599 44.6615 156.945C44.4754 157.29 44.3824 157.709 44.3824 158.2ZM53.4522 164.181V153.974H55.8576V164.181H53.4522ZM54.6615 152.526C54.2806 152.526 53.9528 152.4 53.6782 152.147C53.4035 151.89 53.2662 151.582 53.2662 151.224C53.2662 150.86 53.4035 150.553 53.6782 150.3C53.9528 150.043 54.2806 149.915 54.6615 149.915C55.0469 149.915 55.3747 150.043 55.6449 150.3C55.9196 150.553 56.0569 150.86 56.0569 151.224C56.0569 151.582 55.9196 151.89 55.6449 152.147C55.3747 152.4 55.0469 152.526 54.6615 152.526ZM66.3975 156.672L64.2048 156.911C64.1428 156.69 64.0343 156.482 63.8792 156.287C63.7286 156.092 63.5249 155.935 63.2679 155.815C63.011 155.695 62.6965 155.636 62.3244 155.636C61.8238 155.636 61.403 155.744 61.0619 155.961C60.7253 156.178 60.5592 156.46 60.5636 156.805C60.5592 157.102 60.6677 157.343 60.8892 157.529C61.1151 157.715 61.4872 157.868 62.0055 157.988L63.7463 158.36C64.712 158.568 65.4296 158.898 65.8992 159.35C66.3732 159.802 66.6124 160.393 66.6168 161.124C66.6124 161.766 66.4241 162.333 66.052 162.825C65.6843 163.312 65.1727 163.693 64.5171 163.968C63.8615 164.243 63.1085 164.38 62.258 164.38C61.0088 164.38 60.0032 164.119 59.2413 163.596C58.4794 163.069 58.0254 162.336 57.8792 161.396L60.2247 161.171C60.331 161.631 60.5569 161.979 60.9025 162.214C61.248 162.449 61.6976 162.566 62.2513 162.566C62.8227 162.566 63.2812 162.449 63.6267 162.214C63.9767 161.979 64.1517 161.689 64.1517 161.343C64.1517 161.051 64.0387 160.81 63.8128 160.619C63.5913 160.429 63.2458 160.282 62.7762 160.181L61.0354 159.815C60.0564 159.611 59.3321 159.268 58.8626 158.785C58.393 158.298 58.1605 157.682 58.1649 156.938C58.1605 156.309 58.331 155.764 58.6765 155.303C59.0265 154.838 59.5115 154.479 60.1317 154.227C60.7563 153.97 61.4761 153.842 62.2912 153.842C63.4872 153.842 64.4285 154.096 65.1151 154.606C65.8062 155.115 66.2336 155.804 66.3975 156.672ZM76.2116 164.181L72.371 150.572H75.0222L77.474 160.573H77.6003L80.2182 150.572H82.6302L85.2548 160.579H85.3744L87.8263 150.572H90.4774L86.6369 164.181H84.205L81.4807 154.632H81.3744L78.6435 164.181H76.2116ZM95.5572 164.38C94.534 164.38 93.6502 164.167 92.906 163.742C92.1663 163.312 91.5971 162.705 91.1984 161.921C90.7997 161.133 90.6004 160.205 90.6004 159.137C90.6004 158.087 90.7997 157.166 91.1984 156.373C91.6015 155.576 92.1641 154.956 92.8861 154.513C93.6081 154.065 94.4564 153.842 95.431 153.842C96.06 153.842 96.6536 153.943 97.2117 154.147C97.7743 154.347 98.2704 154.657 98.7001 155.077C99.1342 155.498 99.4753 156.034 99.7234 156.685C99.9714 157.332 100.095 158.103 100.095 158.998V159.735H91.7299V158.114H97.7898C97.7854 157.653 97.6857 157.244 97.4908 156.885C97.2959 156.522 97.0235 156.236 96.6735 156.028C96.328 155.819 95.9249 155.715 95.4642 155.715C94.9725 155.715 94.5406 155.835 94.1685 156.074C93.7964 156.309 93.5063 156.619 93.2981 157.004C93.0943 157.385 92.9902 157.804 92.9858 158.26V159.676C92.9858 160.269 93.0943 160.779 93.3114 161.204C93.5284 161.625 93.8318 161.948 94.2217 162.174C94.6115 162.395 95.0677 162.506 95.5904 162.506C95.9404 162.506 96.2571 162.457 96.5406 162.36C96.8241 162.258 97.07 162.11 97.2782 161.915C97.4864 161.72 97.6436 161.478 97.7499 161.19L99.9958 161.443C99.854 162.037 99.5838 162.555 99.1852 162.998C98.7909 163.436 98.2859 163.777 97.6702 164.021C97.0545 164.26 96.3501 164.38 95.5572 164.38ZM106.649 164.38C105.625 164.38 104.742 164.167 103.997 163.742C103.258 163.312 102.689 162.705 102.29 161.921C101.891 161.133 101.692 160.205 101.692 159.137C101.692 158.087 101.891 157.166 102.29 156.373C102.693 155.576 103.256 154.956 103.978 154.513C104.7 154.065 105.548 153.842 106.522 153.842C107.151 153.842 107.745 153.943 108.303 154.147C108.866 154.347 109.362 154.657 109.792 155.077C110.226 155.498 110.567 156.034 110.815 156.685C111.063 157.332 111.187 158.103 111.187 158.998V159.735H102.821V158.114H108.881C108.877 157.653 108.777 157.244 108.582 156.885C108.387 156.522 108.115 156.236 107.765 156.028C107.419 155.819 107.016 155.715 106.556 155.715C106.064 155.715 105.632 155.835 105.26 156.074C104.888 156.309 104.598 156.619 104.39 157.004C104.186 157.385 104.082 157.804 104.077 158.26V159.676C104.077 160.269 104.186 160.779 104.403 161.204C104.62 161.625 104.923 161.948 105.313 162.174C105.703 162.395 106.159 162.506 106.682 162.506C107.032 162.506 107.349 162.457 107.632 162.36C107.916 162.258 108.161 162.11 108.37 161.915C108.578 161.72 108.735 161.478 108.841 161.19L111.087 161.443C110.945 162.037 110.675 162.555 110.277 162.998C109.882 163.436 109.377 163.777 108.762 164.021C108.146 164.26 107.442 164.38 106.649 164.38ZM115.415 160.978L115.408 158.074H115.793L119.461 153.974H122.272L117.76 158.998H117.262L115.415 160.978ZM113.222 164.181V150.572H115.627V164.181H113.222ZM119.627 164.181L116.305 159.536L117.926 157.842L122.504 164.181H119.627Z" fill="black"/>
<path d="M29.6971 200.56H31.8773L35.668 209.815H35.8076L39.5983 200.56H41.7786V212.467H40.0692V203.85H39.9588L36.4471 212.449H35.0285L31.5168 203.845H31.4064V212.467H29.6971V200.56ZM48.0126 212.647C47.1754 212.647 46.4448 212.455 45.8207 212.071C45.1967 211.688 44.7122 211.151 44.3672 210.461C44.0223 209.771 43.8498 208.965 43.8498 208.042C43.8498 207.116 44.0223 206.306 44.3672 205.612C44.7122 204.918 45.1967 204.379 45.8207 203.996C46.4448 203.612 47.1754 203.42 48.0126 203.42C48.8498 203.42 49.5805 203.612 50.2045 203.996C50.8285 204.379 51.313 204.918 51.658 205.612C52.003 206.306 52.1754 207.116 52.1754 208.042C52.1754 208.965 52.003 209.771 51.658 210.461C51.313 211.151 50.8285 211.688 50.2045 212.071C49.5805 212.455 48.8498 212.647 48.0126 212.647ZM48.0184 211.188C48.5611 211.188 49.0107 211.044 49.3673 210.757C49.7239 210.471 49.9874 210.089 50.158 209.612C50.3324 209.135 50.4196 208.61 50.4196 208.036C50.4196 207.467 50.3324 206.943 50.158 206.467C49.9874 205.986 49.7239 205.6 49.3673 205.31C49.0107 205.019 48.5611 204.874 48.0184 204.874C47.4719 204.874 47.0184 205.019 46.658 205.31C46.3014 205.6 46.0359 205.986 45.8614 206.467C45.6909 206.943 45.6056 207.467 45.6056 208.036C45.6056 208.61 45.6909 209.135 45.8614 209.612C46.0359 210.089 46.3014 210.471 46.658 210.757C47.0184 211.044 47.4719 211.188 48.0184 211.188ZM55.8543 207.164V212.467H54.1159V203.536H55.7845V204.99H55.8949C56.1004 204.517 56.4221 204.137 56.8601 203.85C57.3019 203.564 57.8581 203.42 58.5287 203.42C59.1372 203.42 59.6702 203.548 60.1275 203.804C60.5849 204.056 60.9396 204.432 61.1915 204.932C61.4434 205.432 61.5694 206.05 61.5694 206.786V212.467H59.831V206.996C59.831 206.348 59.6624 205.843 59.3252 205.478C58.988 205.11 58.5248 204.926 57.9357 204.926C57.5326 204.926 57.174 205.013 56.8601 205.188C56.55 205.362 56.3039 205.618 56.1217 205.955C55.9434 206.288 55.8543 206.691 55.8543 207.164ZM67.2439 212.641C66.5229 212.641 65.8795 212.457 65.3136 212.089C64.7516 211.717 64.3097 211.188 63.988 210.502C63.6702 209.812 63.5113 208.984 63.5113 208.019C63.5113 207.054 63.6721 206.228 63.9939 205.542C64.3194 204.856 64.7652 204.331 65.3311 203.967C65.897 203.602 66.5384 203.42 67.2555 203.42C67.8098 203.42 68.2555 203.513 68.5927 203.699C68.9338 203.881 69.1974 204.095 69.3834 204.339C69.5734 204.583 69.7206 204.798 69.8253 204.984H69.9299V200.56H71.6683V212.467H69.9706V211.077H69.8253C69.7206 211.267 69.5695 211.484 69.3718 211.728C69.178 211.972 68.9106 212.186 68.5695 212.368C68.2284 212.55 67.7865 212.641 67.2439 212.641ZM67.6276 211.159C68.1276 211.159 68.5501 211.027 68.8951 210.763C69.2439 210.496 69.5075 210.126 69.6858 209.653C69.8679 209.18 69.959 208.629 69.959 208.002C69.959 207.381 69.8699 206.839 69.6916 206.374C69.5133 205.908 69.2516 205.546 68.9067 205.286C68.5617 205.027 68.1354 204.897 67.6276 204.897C67.1043 204.897 66.6683 205.033 66.3195 205.304C65.9706 205.575 65.707 205.945 65.5287 206.414C65.3543 206.883 65.2671 207.412 65.2671 208.002C65.2671 208.598 65.3563 209.135 65.5346 209.612C65.7129 210.089 65.9764 210.467 66.3253 210.746C66.678 211.021 67.1121 211.159 67.6276 211.159ZM76.7483 212.664C76.1824 212.664 75.6708 212.56 75.2134 212.35C74.756 212.137 74.3936 211.829 74.1262 211.426C73.8626 211.023 73.7308 210.529 73.7308 209.943C73.7308 209.44 73.8277 209.025 74.0215 208.699C74.2153 208.374 74.477 208.116 74.8064 207.926C75.1359 207.736 75.5041 207.593 75.9111 207.496C76.3181 207.399 76.7328 207.325 77.1553 207.275C77.6902 207.213 78.1243 207.162 78.4576 207.124C78.791 207.081 79.0332 207.013 79.1844 206.92C79.3355 206.827 79.4111 206.676 79.4111 206.467V206.426C79.4111 205.918 79.2677 205.525 78.9809 205.246C78.6979 204.967 78.2755 204.827 77.7134 204.827C77.1282 204.827 76.6669 204.957 76.3297 205.217C75.9964 205.472 75.7657 205.757 75.6378 206.071L74.0041 205.699C74.1979 205.157 74.4809 204.719 74.8529 204.385C75.2289 204.048 75.6611 203.804 76.1495 203.653C76.6378 203.498 77.1514 203.42 77.6902 203.42C78.0468 203.42 78.4247 203.463 78.8239 203.548C79.227 203.629 79.603 203.781 79.9518 204.001C80.3045 204.222 80.5933 204.538 80.8181 204.949C81.0429 205.356 81.1553 205.885 81.1553 206.536V212.467H79.4576V211.246H79.3879C79.2755 211.471 79.1069 211.691 78.882 211.909C78.6572 212.126 78.3685 212.306 78.0158 212.449C77.663 212.593 77.2406 212.664 76.7483 212.664ZM77.1262 211.269C77.6068 211.269 78.0177 211.174 78.3588 210.984C78.7038 210.794 78.9654 210.546 79.1437 210.24C79.3259 209.93 79.4169 209.598 79.4169 209.246V208.095C79.3549 208.157 79.2348 208.215 79.0565 208.269C78.882 208.319 78.6824 208.364 78.4576 208.403C78.2328 208.438 78.0138 208.471 77.8006 208.502C77.5875 208.529 77.4092 208.552 77.2658 208.571C76.9285 208.614 76.6204 208.686 76.3413 208.786C76.0661 208.887 75.8452 209.033 75.6785 209.222C75.5157 209.409 75.4343 209.657 75.4343 209.967C75.4343 210.397 75.5933 210.722 75.9111 210.943C76.2289 211.16 76.634 211.269 77.1262 211.269ZM84.2498 215.816C83.9901 215.816 83.7537 215.794 83.5405 215.752C83.3273 215.713 83.1684 215.67 83.0638 215.624L83.4824 214.199C83.8002 214.285 84.0832 214.321 84.3312 214.31C84.5793 214.298 84.7983 214.205 84.9882 214.031C85.182 213.856 85.3525 213.571 85.4998 213.176L85.715 212.583L82.4475 203.536H84.308L86.5696 210.467H86.6626L88.9243 203.536H90.7906L87.1103 213.659C86.9398 214.124 86.7227 214.517 86.4591 214.839C86.1956 215.164 85.8816 215.409 85.5173 215.571C85.1529 215.734 84.7304 215.816 84.2498 215.816ZM94.1264 210.839L94.0391 211.472C93.981 211.938 93.8822 212.422 93.7426 212.926C93.607 213.434 93.4655 213.905 93.3182 214.339C93.1748 214.773 93.0566 215.118 92.9636 215.374H91.731C91.7814 215.133 91.8511 214.808 91.9403 214.397C92.0294 213.99 92.1167 213.535 92.2019 213.031C92.2872 212.527 92.3512 212.013 92.3938 211.49L92.4519 210.839H94.1264ZM105.217 200.56V212.467H103.414V202.362H103.344L100.496 204.222V202.501L103.467 200.56H105.217ZM108.438 212.467V211.164L112.467 206.99C112.897 206.536 113.252 206.139 113.531 205.798C113.814 205.453 114.025 205.126 114.164 204.815C114.304 204.505 114.374 204.176 114.374 203.827C114.374 203.432 114.281 203.091 114.095 202.804C113.908 202.513 113.655 202.29 113.333 202.135C113.011 201.976 112.649 201.897 112.246 201.897C111.819 201.897 111.447 201.984 111.129 202.158C110.812 202.333 110.567 202.579 110.397 202.897C110.226 203.215 110.141 203.587 110.141 204.013H108.426C108.426 203.288 108.593 202.655 108.926 202.112C109.259 201.569 109.717 201.149 110.298 200.85C110.879 200.548 111.54 200.397 112.281 200.397C113.029 200.397 113.688 200.546 114.257 200.844C114.831 201.139 115.279 201.542 115.6 202.054C115.922 202.562 116.083 203.135 116.083 203.775C116.083 204.217 116 204.649 115.833 205.071C115.67 205.494 115.385 205.965 114.978 206.484C114.571 207 114.005 207.626 113.281 208.362L110.914 210.839V210.926H116.275V212.467H108.438ZM122.67 203.536V204.932H117.792V203.536H122.67ZM119.1 201.397H120.839V209.845C120.839 210.182 120.889 210.436 120.99 210.606C121.091 210.773 121.221 210.887 121.379 210.949C121.542 211.007 121.719 211.036 121.909 211.036C122.048 211.036 122.17 211.027 122.275 211.007C122.379 210.988 122.461 210.972 122.519 210.961L122.833 212.397C122.732 212.436 122.589 212.474 122.403 212.513C122.217 212.556 121.984 212.579 121.705 212.583C121.248 212.591 120.821 212.509 120.426 212.339C120.031 212.168 119.711 211.905 119.467 211.548C119.222 211.191 119.1 210.744 119.1 210.205V201.397ZM126.523 207.164V212.467H124.785V200.56H126.5V204.99H126.611C126.82 204.509 127.14 204.127 127.57 203.845C128 203.562 128.562 203.42 129.256 203.42C129.868 203.42 130.403 203.546 130.861 203.798C131.322 204.05 131.678 204.426 131.93 204.926C132.186 205.422 132.314 206.042 132.314 206.786V212.467H130.576V206.996C130.576 206.341 130.407 205.833 130.07 205.472C129.733 205.108 129.264 204.926 128.663 204.926C128.252 204.926 127.884 205.013 127.558 205.188C127.237 205.362 126.983 205.618 126.797 205.955C126.615 206.288 126.523 206.691 126.523 207.164ZM139.106 200.56H141.287L145.077 209.815H145.217L149.008 200.56H151.188V212.467H149.479V203.85H149.368L145.856 212.449H144.438L140.926 203.845H140.816V212.467H139.106V200.56ZM156.259 212.664C155.693 212.664 155.182 212.56 154.724 212.35C154.267 212.137 153.904 211.829 153.637 211.426C153.373 211.023 153.242 210.529 153.242 209.943C153.242 209.44 153.339 209.025 153.532 208.699C153.726 208.374 153.988 208.116 154.317 207.926C154.647 207.736 155.015 207.593 155.422 207.496C155.829 207.399 156.244 207.325 156.666 207.275C157.201 207.213 157.635 207.162 157.968 207.124C158.302 207.081 158.544 207.013 158.695 206.92C158.846 206.827 158.922 206.676 158.922 206.467V206.426C158.922 205.918 158.779 205.525 158.492 205.246C158.209 204.967 157.786 204.827 157.224 204.827C156.639 204.827 156.178 204.957 155.841 205.217C155.507 205.472 155.277 205.757 155.149 206.071L153.515 205.699C153.709 205.157 153.992 204.719 154.364 204.385C154.74 204.048 155.172 203.804 155.66 203.653C156.149 203.498 156.662 203.42 157.201 203.42C157.558 203.42 157.935 203.463 158.335 203.548C158.738 203.629 159.114 203.781 159.463 204.001C159.815 204.222 160.104 204.538 160.329 204.949C160.554 205.356 160.666 205.885 160.666 206.536V212.467H158.968V211.246H158.899C158.786 211.471 158.618 211.691 158.393 211.909C158.168 212.126 157.879 212.306 157.527 212.449C157.174 212.593 156.751 212.664 156.259 212.664ZM156.637 211.269C157.118 211.269 157.529 211.174 157.87 210.984C158.215 210.794 158.476 210.546 158.654 210.24C158.837 209.93 158.928 209.598 158.928 209.246V208.095C158.866 208.157 158.746 208.215 158.567 208.269C158.393 208.319 158.193 208.364 157.968 208.403C157.744 208.438 157.525 208.471 157.311 208.502C157.098 208.529 156.92 208.552 156.777 208.571C156.439 208.614 156.131 208.686 155.852 208.786C155.577 208.887 155.356 209.033 155.189 209.222C155.027 209.409 154.945 209.657 154.945 209.967C154.945 210.397 155.104 210.722 155.422 210.943C155.74 211.16 156.145 211.269 156.637 211.269ZM163.761 215.816C163.501 215.816 163.264 215.794 163.051 215.752C162.838 215.713 162.679 215.67 162.575 215.624L162.993 214.199C163.311 214.285 163.594 214.321 163.842 214.31C164.09 214.298 164.309 214.205 164.499 214.031C164.693 213.856 164.863 213.571 165.011 213.176L165.226 212.583L161.958 203.536H163.819L166.08 210.467H166.173L168.435 203.536H170.301L166.621 213.659C166.451 214.124 166.234 214.517 165.97 214.839C165.706 215.164 165.392 215.409 165.028 215.571C164.664 215.734 164.241 215.816 163.761 215.816Z" fill="#E79759"/>
<path d="M32.0285 456.881L28.7261 444.974H30.6157L32.9355 454.195H33.0459L35.4587 444.974H37.3308L39.7437 454.2H39.8541L42.1681 444.974H44.0635L40.7553 456.881H38.9471L36.4413 447.962H36.3483L33.8424 456.881H32.0285ZM48.5315 457.061C47.6517 457.061 46.8939 456.873 46.2582 456.497C45.6265 456.117 45.1381 455.584 44.7931 454.898C44.452 454.208 44.2815 453.4 44.2815 452.474C44.2815 451.559 44.452 450.753 44.7931 450.055C45.1381 449.357 45.6187 448.813 46.235 448.421C46.8551 448.03 47.58 447.834 48.4094 447.834C48.9133 447.834 49.4017 447.917 49.8746 448.084C50.3474 448.251 50.7718 448.512 51.1478 448.869C51.5238 449.226 51.8203 449.689 52.0374 450.258C52.2544 450.824 52.3629 451.512 52.3629 452.322V452.939H45.2641V451.636H50.6594C50.6594 451.179 50.5664 450.774 50.3804 450.421C50.1943 450.065 49.9327 449.784 49.5955 449.578C49.2621 449.373 48.8707 449.27 48.4211 449.27C47.9327 449.27 47.5063 449.39 47.142 449.631C46.7815 449.867 46.5024 450.177 46.3048 450.561C46.111 450.941 46.0141 451.353 46.0141 451.799V452.817C46.0141 453.414 46.1187 453.921 46.328 454.34C46.5412 454.759 46.8377 455.078 47.2176 455.299C47.5974 455.516 48.0412 455.625 48.549 455.625C48.8784 455.625 49.1788 455.578 49.4501 455.485C49.7215 455.388 49.9559 455.245 50.1536 455.055C50.3513 454.865 50.5025 454.631 50.6071 454.352L52.2525 454.648C52.1207 455.133 51.8843 455.557 51.5432 455.921C51.206 456.282 50.7815 456.563 50.2699 456.764C49.7621 456.962 49.1827 457.061 48.5315 457.061ZM57.6348 457.055C56.9139 457.055 56.2704 456.871 55.7045 456.503C55.1425 456.131 54.7007 455.602 54.3789 454.915C54.0611 454.226 53.9022 453.398 53.9022 452.433C53.9022 451.468 54.0631 450.642 54.3848 449.956C54.7103 449.27 55.1561 448.745 55.722 448.381C56.2879 448.016 56.9294 447.834 57.6464 447.834C58.2007 447.834 58.6464 447.927 58.9836 448.113C59.3247 448.295 59.5883 448.508 59.7743 448.753C59.9643 448.997 60.1116 449.212 60.2162 449.398H60.3209V444.974H62.0592V456.881H60.3616V455.491H60.2162C60.1116 455.681 59.9604 455.898 59.7627 456.142C59.5689 456.386 59.3015 456.6 58.9604 456.782C58.6193 456.964 58.1774 457.055 57.6348 457.055ZM58.0185 455.572C58.5185 455.572 58.941 455.441 59.286 455.177C59.6348 454.91 59.8984 454.54 60.0767 454.067C60.2588 453.594 60.3499 453.043 60.3499 452.415C60.3499 451.795 60.2608 451.253 60.0825 450.788C59.9042 450.322 59.6426 449.96 59.2976 449.7C58.9526 449.441 58.5263 449.311 58.0185 449.311C57.4953 449.311 57.0592 449.446 56.7104 449.718C56.3615 449.989 56.098 450.359 55.9197 450.828C55.7452 451.297 55.658 451.826 55.658 452.415C55.658 453.012 55.7472 453.549 55.9255 454.026C56.1038 454.503 56.3673 454.881 56.7162 455.16C57.0689 455.435 57.503 455.572 58.0185 455.572ZM66.2787 451.578V456.881H64.5404V447.95H66.209V449.404H66.3194C66.5249 448.931 66.8466 448.551 67.2846 448.264C67.7264 447.977 68.2826 447.834 68.9532 447.834C69.5617 447.834 70.0947 447.962 70.552 448.218C71.0094 448.47 71.3641 448.846 71.616 449.346C71.8679 449.846 71.9939 450.464 71.9939 451.2V456.881H70.2555V451.41C70.2555 450.762 70.0869 450.257 69.7497 449.892C69.4125 449.524 68.9493 449.34 68.3602 449.34C67.9571 449.34 67.5985 449.427 67.2846 449.601C66.9745 449.776 66.7284 450.032 66.5462 450.369C66.3679 450.702 66.2787 451.105 66.2787 451.578ZM78.1742 457.061C77.2943 457.061 76.5366 456.873 75.9009 456.497C75.2691 456.117 74.7808 455.584 74.4358 454.898C74.0947 454.208 73.9242 453.4 73.9242 452.474C73.9242 451.559 74.0947 450.753 74.4358 450.055C74.7808 449.357 75.2614 448.813 75.8777 448.421C76.4978 448.03 77.2226 447.834 78.0521 447.834C78.556 447.834 79.0444 447.917 79.5172 448.084C79.9901 448.251 80.4145 448.512 80.7905 448.869C81.1665 449.226 81.463 449.689 81.68 450.258C81.8971 450.824 82.0056 451.512 82.0056 452.322V452.939H74.9067V451.636H80.3021C80.3021 451.179 80.2091 450.774 80.023 450.421C79.837 450.065 79.5754 449.784 79.2382 449.578C78.9048 449.373 78.5133 449.27 78.0637 449.27C77.5754 449.27 77.149 449.39 76.7847 449.631C76.4242 449.867 76.1451 450.177 75.9474 450.561C75.7536 450.941 75.6567 451.353 75.6567 451.799V452.817C75.6567 453.414 75.7614 453.921 75.9707 454.34C76.1839 454.759 76.4804 455.078 76.8602 455.299C77.2401 455.516 77.6839 455.625 78.1916 455.625C78.5211 455.625 78.8215 455.578 79.0928 455.485C79.3641 455.388 79.5986 455.245 79.7963 455.055C79.994 454.865 80.1451 454.631 80.2498 454.352L81.8952 454.648C81.7634 455.133 81.5269 455.557 81.1858 455.921C80.8486 456.282 80.4242 456.563 79.9126 456.764C79.4048 456.962 78.8254 457.061 78.1742 457.061ZM90.6263 450.131L89.0507 450.41C88.9848 450.208 88.8802 450.016 88.7368 449.834C88.5972 449.652 88.4073 449.503 88.167 449.386C87.9267 449.27 87.6263 449.212 87.2658 449.212C86.7736 449.212 86.3627 449.322 86.0333 449.543C85.7038 449.76 85.5391 450.041 85.5391 450.386C85.5391 450.685 85.6495 450.925 85.8705 451.107C86.0914 451.289 86.448 451.439 86.9403 451.555L88.3589 451.881C89.1806 452.07 89.793 452.363 90.1961 452.758C90.5992 453.154 90.8007 453.667 90.8007 454.299C90.8007 454.834 90.6457 455.311 90.3356 455.729C90.0294 456.144 89.6011 456.47 89.0507 456.706C88.5042 456.943 87.8705 457.061 87.1496 457.061C86.1495 457.061 85.3337 456.848 84.7019 456.421C84.0701 455.991 83.6825 455.381 83.5391 454.59L85.2193 454.334C85.324 454.772 85.5391 455.103 85.8647 455.328C86.1902 455.549 86.6147 455.66 87.1379 455.66C87.7077 455.66 88.1631 455.541 88.5042 455.305C88.8453 455.065 89.0159 454.772 89.0159 454.427C89.0159 454.148 88.9112 453.914 88.7019 453.724C88.4965 453.534 88.1806 453.39 87.7542 453.293L86.2426 452.962C85.4092 452.772 84.7929 452.47 84.3937 452.055C83.9984 451.64 83.8007 451.115 83.8007 450.479C83.8007 449.952 83.948 449.491 84.2426 449.096C84.5371 448.7 84.9441 448.392 85.4635 448.171C85.9829 447.946 86.5778 447.834 87.2484 447.834C88.2135 447.834 88.9732 448.043 89.5275 448.462C90.0818 448.877 90.448 449.433 90.6263 450.131ZM96.0552 457.055C95.3342 457.055 94.6908 456.871 94.1249 456.503C93.5629 456.131 93.121 455.602 92.7993 454.915C92.4815 454.226 92.3226 453.398 92.3226 452.433C92.3226 451.468 92.4834 450.642 92.8051 449.956C93.1307 449.27 93.5764 448.745 94.1423 448.381C94.7082 448.016 95.3497 447.834 96.0668 447.834C96.621 447.834 97.0668 447.927 97.404 448.113C97.7451 448.295 98.0087 448.508 98.1947 448.753C98.3846 448.997 98.5319 449.212 98.6366 449.398H98.7412V444.974H100.48V456.881H98.7819V455.491H98.6366C98.5319 455.681 98.3808 455.898 98.1831 456.142C97.9893 456.386 97.7218 456.6 97.3807 456.782C97.0397 456.964 96.5978 457.055 96.0552 457.055ZM96.4389 455.572C96.9389 455.572 97.3614 455.441 97.7063 455.177C98.0552 454.91 98.3187 454.54 98.497 454.067C98.6792 453.594 98.7703 453.043 98.7703 452.415C98.7703 451.795 98.6811 451.253 98.5028 450.788C98.3245 450.322 98.0629 449.96 97.718 449.7C97.373 449.441 96.9466 449.311 96.4389 449.311C95.9156 449.311 95.4796 449.446 95.1307 449.718C94.7819 449.989 94.5183 450.359 94.34 450.828C94.1656 451.297 94.0784 451.826 94.0784 452.415C94.0784 453.012 94.1675 453.549 94.3458 454.026C94.5241 454.503 94.7877 454.881 95.1365 455.16C95.4893 455.435 95.9234 455.572 96.4389 455.572ZM105.56 457.078C104.994 457.078 104.482 456.974 104.025 456.764C103.567 456.551 103.205 456.243 102.937 455.84C102.674 455.437 102.542 454.943 102.542 454.357C102.542 453.853 102.639 453.439 102.833 453.113C103.027 452.788 103.288 452.53 103.618 452.34C103.947 452.15 104.315 452.007 104.722 451.91C105.129 451.813 105.544 451.739 105.967 451.689C106.501 451.627 106.936 451.576 107.269 451.538C107.602 451.495 107.844 451.427 107.996 451.334C108.147 451.241 108.222 451.09 108.222 450.881V450.84C108.222 450.332 108.079 449.939 107.792 449.66C107.509 449.381 107.087 449.241 106.525 449.241C105.939 449.241 105.478 449.371 105.141 449.631C104.808 449.886 104.577 450.171 104.449 450.485L102.815 450.113C103.009 449.57 103.292 449.132 103.664 448.799C104.04 448.462 104.472 448.218 104.961 448.067C105.449 447.912 105.963 447.834 106.501 447.834C106.858 447.834 107.236 447.877 107.635 447.962C108.038 448.043 108.414 448.194 108.763 448.415C109.116 448.636 109.405 448.952 109.629 449.363C109.854 449.77 109.967 450.299 109.967 450.95V456.881H108.269V455.66H108.199C108.087 455.884 107.918 456.105 107.693 456.322C107.469 456.54 107.18 456.72 106.827 456.863C106.474 457.007 106.052 457.078 105.56 457.078ZM105.937 455.683C106.418 455.683 106.829 455.588 107.17 455.398C107.515 455.208 107.777 454.96 107.955 454.654C108.137 454.344 108.228 454.012 108.228 453.66V452.508C108.166 452.571 108.046 452.629 107.868 452.683C107.693 452.733 107.494 452.778 107.269 452.817C107.044 452.852 106.825 452.884 106.612 452.915C106.399 452.943 106.22 452.966 106.077 452.985C105.74 453.028 105.432 453.1 105.153 453.2C104.877 453.301 104.656 453.446 104.49 453.636C104.327 453.822 104.246 454.071 104.246 454.381C104.246 454.811 104.405 455.136 104.722 455.357C105.04 455.574 105.445 455.683 105.937 455.683ZM113.061 460.229C112.801 460.229 112.565 460.208 112.352 460.166C112.139 460.127 111.98 460.084 111.875 460.038L112.294 458.613C112.611 458.698 112.894 458.735 113.142 458.724C113.391 458.712 113.61 458.619 113.799 458.445C113.993 458.27 114.164 457.985 114.311 457.59L114.526 456.997L111.259 447.95H113.119L115.381 454.881H115.474L117.736 447.95H119.602L115.922 458.072C115.751 458.538 115.534 458.931 115.27 459.253C115.007 459.578 114.693 459.822 114.329 459.985C113.964 460.148 113.542 460.229 113.061 460.229ZM122.938 455.253L122.85 455.886C122.792 456.352 122.693 456.836 122.554 457.34C122.418 457.848 122.277 458.319 122.129 458.753C121.986 459.187 121.868 459.532 121.775 459.788H120.542C120.593 459.547 120.662 459.222 120.752 458.811C120.841 458.404 120.928 457.948 121.013 457.445C121.098 456.941 121.162 456.427 121.205 455.904L121.263 455.253H122.938ZM134.028 444.974V456.881H132.225V446.776H132.156L129.307 448.636V446.915L132.278 444.974H134.028ZM136.999 454.555V453.102L142.144 444.974H143.29V447.113H142.563L138.883 452.939V453.032H145.935V454.555H136.999ZM142.644 456.881V454.113L142.656 453.45V444.974H144.359V456.881H142.644ZM152.153 447.95V449.346H147.275V447.95H152.153ZM148.583 445.811H150.322V454.259C150.322 454.596 150.372 454.85 150.473 455.02C150.574 455.187 150.703 455.301 150.862 455.363C151.025 455.421 151.201 455.45 151.391 455.45C151.531 455.45 151.653 455.441 151.758 455.421C151.862 455.402 151.944 455.386 152.002 455.375L152.316 456.811C152.215 456.85 152.072 456.888 151.886 456.927C151.699 456.97 151.467 456.993 151.188 456.997C150.73 457.005 150.304 456.923 149.909 456.753C149.513 456.582 149.194 456.319 148.949 455.962C148.705 455.605 148.583 455.158 148.583 454.619V445.811ZM156.006 451.578V456.881H154.268V444.974H155.983V449.404H156.093C156.303 448.923 156.622 448.541 157.053 448.258C157.483 447.976 158.045 447.834 158.739 447.834C159.351 447.834 159.886 447.96 160.343 448.212C160.805 448.464 161.161 448.84 161.413 449.34C161.669 449.836 161.797 450.456 161.797 451.2V456.881H160.059V451.41C160.059 450.755 159.89 450.247 159.553 449.886C159.216 449.522 158.747 449.34 158.146 449.34C157.735 449.34 157.367 449.427 157.041 449.601C156.719 449.776 156.466 450.032 156.279 450.369C156.097 450.702 156.006 451.105 156.006 451.578ZM168.589 444.974H170.769L174.56 454.229H174.7L178.49 444.974H180.671V456.881H178.961V448.264H178.851L175.339 456.863H173.921L170.409 448.258H170.298V456.881H168.589V444.974ZM185.742 457.078C185.176 457.078 184.664 456.974 184.207 456.764C183.75 456.551 183.387 456.243 183.12 455.84C182.856 455.437 182.724 454.943 182.724 454.357C182.724 453.853 182.821 453.439 183.015 453.113C183.209 452.788 183.471 452.53 183.8 452.34C184.129 452.15 184.498 452.007 184.905 451.91C185.312 451.813 185.726 451.739 186.149 451.689C186.684 451.627 187.118 451.576 187.451 451.538C187.785 451.495 188.027 451.427 188.178 451.334C188.329 451.241 188.405 451.09 188.405 450.881V450.84C188.405 450.332 188.261 449.939 187.974 449.66C187.692 449.381 187.269 449.241 186.707 449.241C186.122 449.241 185.661 449.371 185.323 449.631C184.99 449.886 184.759 450.171 184.631 450.485L182.998 450.113C183.192 449.57 183.474 449.132 183.847 448.799C184.223 448.462 184.655 448.218 185.143 448.067C185.631 447.912 186.145 447.834 186.684 447.834C187.04 447.834 187.418 447.877 187.818 447.962C188.221 448.043 188.597 448.194 188.945 448.415C189.298 448.636 189.587 448.952 189.812 449.363C190.037 449.77 190.149 450.299 190.149 450.95V456.881H188.451V455.66H188.381C188.269 455.884 188.1 456.105 187.876 456.322C187.651 456.54 187.362 456.72 187.009 456.863C186.657 457.007 186.234 457.078 185.742 457.078ZM186.12 455.683C186.6 455.683 187.011 455.588 187.352 455.398C187.697 455.208 187.959 454.96 188.137 454.654C188.319 454.344 188.411 454.012 188.411 453.66V452.508C188.349 452.571 188.228 452.629 188.05 452.683C187.876 452.733 187.676 452.778 187.451 452.817C187.226 452.852 187.007 452.884 186.794 452.915C186.581 452.943 186.403 452.966 186.259 452.985C185.922 453.028 185.614 453.1 185.335 453.2C185.06 453.301 184.839 453.446 184.672 453.636C184.509 453.822 184.428 454.071 184.428 454.381C184.428 454.811 184.587 455.136 184.905 455.357C185.223 455.574 185.628 455.683 186.12 455.683ZM193.243 460.229C192.984 460.229 192.747 460.208 192.534 460.166C192.321 460.127 192.162 460.084 192.057 460.038L192.476 458.613C192.794 458.698 193.077 458.735 193.325 458.724C193.573 458.712 193.792 458.619 193.982 458.445C194.176 458.27 194.346 457.985 194.493 457.59L194.709 456.997L191.441 447.95H193.302L195.563 454.881H195.656L197.918 447.95H199.784L196.104 458.072C195.933 458.538 195.716 458.931 195.453 459.253C195.189 459.578 194.875 459.822 194.511 459.985C194.147 460.148 193.724 460.229 193.243 460.229Z" fill="#E79759"/>
<g filter="url(#filter1_d_77_130)">
<rect x="28.3889" y="230.381" width="374.222" height="84.2" rx="11.6944" fill="white"/>
</g>
<path d="M53.4257 263.583V249.975H58.1832C59.1312 249.975 59.913 250.139 60.5287 250.467C61.1445 250.79 61.6029 251.227 61.9042 251.776C62.2054 252.321 62.356 252.925 62.356 253.59C62.356 254.175 62.2519 254.658 62.0437 255.038C61.8399 255.419 61.5697 255.721 61.2331 255.942C60.9008 256.164 60.5398 256.328 60.15 256.434V256.567C60.5664 256.593 60.985 256.739 61.4058 257.005C61.8266 257.271 62.1788 257.652 62.4623 258.148C62.7458 258.644 62.8876 259.251 62.8876 259.969C62.8876 260.651 62.7325 261.264 62.4224 261.809C62.1124 262.354 61.6229 262.786 60.954 263.105C60.2851 263.424 59.4147 263.583 58.3427 263.583H53.4257ZM55.0735 262.122H58.3427C59.4191 262.122 60.1832 261.913 60.635 261.497C61.0913 261.076 61.3194 260.567 61.3194 259.969C61.3194 259.508 61.202 259.083 60.9673 258.693C60.7325 258.299 60.3981 257.984 59.9639 257.749C59.5298 257.51 59.016 257.391 58.4224 257.391H55.0735V262.122ZM55.0735 255.955H58.13C58.6262 255.955 59.0736 255.858 59.4722 255.663C59.8753 255.468 60.1943 255.193 60.4291 254.839C60.6683 254.485 60.7879 254.068 60.7879 253.59C60.7879 252.992 60.5797 252.485 60.1633 252.068C59.7469 251.648 59.0869 251.437 58.1832 251.437H55.0735V255.955ZM71.8145 259.411V253.377H73.3827V263.583H71.8145V261.856H71.7082C71.469 262.374 71.0969 262.815 70.5919 263.178C70.0869 263.537 69.4491 263.716 68.6783 263.716C68.0404 263.716 67.4734 263.577 66.9773 263.298C66.4812 263.014 66.0913 262.589 65.8078 262.022C65.5243 261.45 65.3826 260.731 65.3826 259.862V253.377H66.9507V259.756C66.9507 260.5 67.1589 261.094 67.5753 261.537C67.9961 261.98 68.5321 262.201 69.1833 262.201C69.5731 262.201 69.9696 262.102 70.3727 261.902C70.7802 261.703 71.1213 261.397 71.3959 260.985C71.675 260.573 71.8145 260.048 71.8145 259.411ZM77.2647 267.411C76.999 267.411 76.762 267.388 76.5538 267.344C76.3456 267.304 76.2016 267.264 76.1219 267.225L76.5206 265.843C76.9015 265.94 77.2382 265.975 77.5305 265.949C77.8229 265.922 78.082 265.792 78.3079 265.557C78.5383 265.326 78.7487 264.952 78.9392 264.434L79.2315 263.637L75.4574 253.377H77.1584L79.9757 261.51H80.082L82.8993 253.377H84.6004L80.2681 265.072C80.0732 265.599 79.8318 266.035 79.5438 266.381C79.2559 266.731 78.9215 266.99 78.5405 267.158C78.164 267.326 77.7387 267.411 77.2647 267.411ZM96.0523 267.623C95.2948 267.623 94.6436 267.526 94.0988 267.331C93.5539 267.14 93.0999 266.888 92.7366 266.573C92.3778 266.263 92.0921 265.931 91.8795 265.577L93.1287 264.7C93.2704 264.886 93.4498 265.098 93.6669 265.338C93.8839 265.581 94.1807 265.792 94.5572 265.969C94.9382 266.15 95.4365 266.241 96.0523 266.241C96.8762 266.241 97.5562 266.042 98.0922 265.643C98.6281 265.245 98.8961 264.62 98.8961 263.769V261.696H98.7633C98.6481 261.882 98.4842 262.113 98.2716 262.387C98.0634 262.658 97.7621 262.899 97.3679 263.112C96.9781 263.32 96.4509 263.424 95.7865 263.424C94.9626 263.424 94.2228 263.229 93.5672 262.839C92.916 262.449 92.4 261.882 92.019 261.138C91.6425 260.394 91.4542 259.49 91.4542 258.427C91.4542 257.382 91.6381 256.471 92.0057 255.696C92.3734 254.917 92.885 254.314 93.5406 253.889C94.1962 253.459 94.9537 253.244 95.8131 253.244C96.4775 253.244 97.0047 253.355 97.3945 253.577C97.7887 253.794 98.0899 254.042 98.2981 254.321C98.5108 254.595 98.6747 254.821 98.7898 254.999H98.9493V253.377H100.464V263.876C100.464 264.753 100.265 265.466 99.8663 266.015C99.472 266.569 98.9404 266.974 98.2716 267.231C97.6071 267.493 96.8673 267.623 96.0523 267.623ZM95.9991 262.015C96.6281 262.015 97.1597 261.871 97.5938 261.583C98.0279 261.295 98.3579 260.881 98.5838 260.341C98.8098 259.8 98.9227 259.154 98.9227 258.401C98.9227 257.665 98.812 257.016 98.5905 256.454C98.369 255.891 98.0412 255.45 97.6071 255.131C97.173 254.813 96.637 254.653 95.9991 254.653C95.3347 254.653 94.7809 254.821 94.338 255.158C93.8994 255.495 93.5694 255.947 93.3479 256.514C93.1309 257.081 93.0223 257.71 93.0223 258.401C93.0223 259.109 93.1331 259.736 93.3546 260.281C93.5805 260.821 93.9127 261.247 94.3513 261.557C94.7942 261.862 95.3435 262.015 95.9991 262.015ZM103.335 263.583V253.377H104.85V254.919H104.956C105.142 254.414 105.479 254.004 105.966 253.69C106.453 253.375 107.003 253.218 107.614 253.218C107.729 253.218 107.873 253.22 108.046 253.224C108.218 253.229 108.349 253.236 108.438 253.244V254.839C108.385 254.826 108.263 254.806 108.072 254.779C107.886 254.748 107.689 254.733 107.481 254.733C106.985 254.733 106.542 254.837 106.152 255.045C105.767 255.249 105.461 255.532 105.235 255.896C105.014 256.254 104.903 256.664 104.903 257.125V263.583H103.335ZM114.132 263.796C113.211 263.796 112.402 263.577 111.707 263.138C111.016 262.7 110.475 262.086 110.086 261.298C109.7 260.509 109.508 259.588 109.508 258.534C109.508 257.47 109.7 256.542 110.086 255.749C110.475 254.957 111.016 254.341 111.707 253.902C112.402 253.464 113.211 253.244 114.132 253.244C115.054 253.244 115.86 253.464 116.551 253.902C117.246 254.341 117.787 254.957 118.172 255.749C118.562 256.542 118.757 257.47 118.757 258.534C118.757 259.588 118.562 260.509 118.172 261.298C117.787 262.086 117.246 262.7 116.551 263.138C115.86 263.577 115.054 263.796 114.132 263.796ZM114.132 262.387C114.832 262.387 115.408 262.208 115.86 261.849C116.312 261.49 116.646 261.019 116.863 260.434C117.08 259.849 117.189 259.216 117.189 258.534C117.189 257.851 117.08 257.216 116.863 256.627C116.646 256.037 116.312 255.561 115.86 255.198C115.408 254.835 114.832 254.653 114.132 254.653C113.432 254.653 112.856 254.835 112.405 255.198C111.953 255.561 111.618 256.037 111.401 256.627C111.184 257.216 111.076 257.851 111.076 258.534C111.076 259.216 111.184 259.849 111.401 260.434C111.618 261.019 111.953 261.49 112.405 261.849C112.856 262.208 113.432 262.387 114.132 262.387ZM125.297 263.796C124.34 263.796 123.516 263.57 122.825 263.118C122.134 262.666 121.602 262.044 121.23 261.251C120.858 260.458 120.672 259.552 120.672 258.534C120.672 257.497 120.863 256.582 121.243 255.789C121.629 254.992 122.165 254.37 122.851 253.922C123.543 253.47 124.349 253.244 125.27 253.244C125.988 253.244 126.634 253.377 127.21 253.643C127.786 253.909 128.258 254.281 128.626 254.759C128.993 255.238 129.221 255.796 129.31 256.434H127.742C127.622 255.969 127.357 255.557 126.945 255.198C126.537 254.835 125.988 254.653 125.297 254.653C124.685 254.653 124.149 254.813 123.689 255.131C123.232 255.446 122.876 255.891 122.619 256.467C122.366 257.038 122.24 257.71 122.24 258.48C122.24 259.269 122.364 259.955 122.612 260.54C122.865 261.125 123.219 261.579 123.675 261.902C124.136 262.226 124.677 262.387 125.297 262.387C125.704 262.387 126.074 262.316 126.406 262.175C126.739 262.033 127.02 261.829 127.25 261.563C127.481 261.298 127.644 260.979 127.742 260.607H129.31C129.221 261.209 129.002 261.752 128.652 262.235C128.307 262.713 127.848 263.094 127.277 263.377C126.71 263.656 126.05 263.796 125.297 263.796ZM135.881 263.796C134.898 263.796 134.05 263.579 133.337 263.145C132.628 262.706 132.081 262.095 131.695 261.311C131.314 260.522 131.124 259.605 131.124 258.56C131.124 257.515 131.314 256.593 131.695 255.796C132.081 254.994 132.617 254.37 133.303 253.922C133.994 253.47 134.801 253.244 135.722 253.244C136.254 253.244 136.779 253.333 137.297 253.51C137.815 253.687 138.287 253.975 138.712 254.374C139.137 254.768 139.476 255.291 139.729 255.942C139.981 256.593 140.107 257.395 140.107 258.347V259.012H132.24V257.656H138.513C138.513 257.081 138.398 256.567 138.167 256.115C137.941 255.663 137.618 255.306 137.197 255.045C136.781 254.784 136.289 254.653 135.722 254.653C135.097 254.653 134.557 254.808 134.101 255.118C133.649 255.424 133.301 255.823 133.058 256.314C132.814 256.806 132.692 257.333 132.692 257.896V258.799C132.692 259.57 132.825 260.223 133.091 260.759C133.361 261.291 133.735 261.696 134.214 261.975C134.692 262.25 135.248 262.387 135.881 262.387C136.293 262.387 136.666 262.33 136.998 262.215C137.334 262.095 137.625 261.918 137.868 261.683C138.112 261.444 138.3 261.147 138.433 260.793L139.948 261.218C139.788 261.732 139.52 262.184 139.144 262.573C138.767 262.959 138.302 263.26 137.749 263.477C137.195 263.69 136.573 263.796 135.881 263.796ZM142.493 263.583V253.377H144.008V254.919H144.114C144.3 254.414 144.637 254.004 145.124 253.69C145.611 253.375 146.161 253.218 146.772 253.218C146.887 253.218 147.031 253.22 147.204 253.224C147.377 253.229 147.507 253.236 147.596 253.244V254.839C147.543 254.826 147.421 254.806 147.23 254.779C147.044 254.748 146.847 254.733 146.639 254.733C146.143 254.733 145.7 254.837 145.31 255.045C144.925 255.249 144.619 255.532 144.393 255.896C144.172 256.254 144.061 256.664 144.061 257.125V263.583H142.493ZM149.455 263.583V253.377H151.023V263.583H149.455ZM150.252 251.676C149.946 251.676 149.683 251.572 149.461 251.364C149.244 251.156 149.136 250.906 149.136 250.613C149.136 250.321 149.244 250.071 149.461 249.862C149.683 249.654 149.946 249.55 150.252 249.55C150.558 249.55 150.819 249.654 151.036 249.862C151.258 250.071 151.368 250.321 151.368 250.613C151.368 250.906 151.258 251.156 151.036 251.364C150.819 251.572 150.558 251.676 150.252 251.676ZM158.174 263.796C157.191 263.796 156.342 263.579 155.629 263.145C154.92 262.706 154.373 262.095 153.988 261.311C153.607 260.522 153.417 259.605 153.417 258.56C153.417 257.515 153.607 256.593 153.988 255.796C154.373 254.994 154.909 254.37 155.596 253.922C156.287 253.47 157.093 253.244 158.015 253.244C158.546 253.244 159.071 253.333 159.589 253.51C160.108 253.687 160.579 253.975 161.005 254.374C161.43 254.768 161.769 255.291 162.021 255.942C162.274 256.593 162.4 257.395 162.4 258.347V259.012H154.533V257.656H160.805C160.805 257.081 160.69 256.567 160.46 256.115C160.234 255.663 159.91 255.306 159.49 255.045C159.073 254.784 158.582 254.653 158.015 254.653C157.39 254.653 156.85 254.808 156.393 255.118C155.941 255.424 155.594 255.823 155.35 256.314C155.106 256.806 154.985 257.333 154.985 257.896V258.799C154.985 259.57 155.118 260.223 155.383 260.759C155.654 261.291 156.028 261.696 156.506 261.975C156.985 262.25 157.541 262.387 158.174 262.387C158.586 262.387 158.958 262.33 159.29 262.215C159.627 262.095 159.917 261.918 160.161 261.683C160.404 261.444 160.593 261.147 160.726 260.793L162.24 261.218C162.081 261.732 161.813 262.184 161.437 262.573C161.06 262.959 160.595 263.26 160.041 263.477C159.487 263.69 158.865 263.796 158.174 263.796ZM172.015 255.663L170.606 256.062C170.517 255.827 170.387 255.599 170.214 255.377C170.046 255.151 169.815 254.965 169.523 254.819C169.231 254.673 168.856 254.6 168.4 254.6C167.775 254.6 167.255 254.744 166.839 255.032C166.427 255.315 166.221 255.676 166.221 256.115C166.221 256.505 166.362 256.813 166.646 257.038C166.929 257.264 167.372 257.453 167.975 257.603L169.49 257.975C170.402 258.197 171.082 258.536 171.53 258.992C171.977 259.444 172.201 260.026 172.201 260.739C172.201 261.324 172.032 261.847 171.696 262.308C171.363 262.768 170.898 263.132 170.3 263.397C169.702 263.663 169.007 263.796 168.214 263.796C167.173 263.796 166.311 263.57 165.629 263.118C164.947 262.666 164.515 262.006 164.334 261.138L165.822 260.766C165.964 261.315 166.232 261.727 166.626 262.002C167.025 262.277 167.545 262.414 168.187 262.414C168.918 262.414 169.499 262.259 169.928 261.949C170.362 261.634 170.579 261.258 170.579 260.819C170.579 260.465 170.455 260.168 170.207 259.929C169.959 259.685 169.578 259.504 169.064 259.384L167.363 258.985C166.429 258.764 165.742 258.421 165.304 257.955C164.87 257.486 164.652 256.899 164.652 256.195C164.652 255.619 164.814 255.109 165.138 254.666C165.465 254.223 165.911 253.876 166.473 253.623C167.04 253.371 167.682 253.244 168.4 253.244C169.41 253.244 170.203 253.466 170.779 253.909C171.359 254.352 171.771 254.937 172.015 255.663Z" fill="#183650"/>
<path d="M345.232 262.143L341.8 258.693C341.573 258.467 341.266 258.34 340.946 258.34C340.626 258.34 340.319 258.467 340.092 258.693L327.924 270.843L326.813 275.638C326.775 275.813 326.776 275.995 326.817 276.17C326.858 276.344 326.938 276.508 327.05 276.648C327.162 276.788 327.304 276.901 327.465 276.979C327.627 277.058 327.803 277.099 327.983 277.1C328.066 277.108 328.151 277.108 328.234 277.1L333.082 275.989L345.232 263.85C345.458 263.623 345.585 263.316 345.585 262.996C345.585 262.676 345.458 262.369 345.232 262.143ZM332.497 274.936L327.954 275.889L328.989 271.434L338.093 262.365L341.601 265.873L332.497 274.936ZM342.385 265.025L338.876 261.517L340.911 259.494L344.361 263.002L342.385 265.025Z" fill="#183650"/>
<path d="M370.276 261.488C370.276 261.069 370.11 260.668 369.814 260.371C369.517 260.075 369.116 259.909 368.697 259.909C368.279 259.909 367.877 260.075 367.581 260.371C367.285 260.668 367.118 261.069 367.118 261.488H366.066C366.066 260.79 366.343 260.121 366.837 259.627C367.33 259.134 367.999 258.857 368.697 258.857C369.395 258.857 370.064 259.134 370.558 259.627C371.051 260.121 371.328 260.79 371.328 261.488H376.065C376.204 261.488 376.338 261.543 376.437 261.642C376.536 261.741 376.591 261.874 376.591 262.014C376.591 262.154 376.536 262.287 376.437 262.386C376.338 262.485 376.204 262.54 376.065 262.54H375.482L374.118 274.36C374.058 274.873 373.812 275.346 373.427 275.69C373.041 276.033 372.543 276.223 372.026 276.223H365.368C364.852 276.223 364.353 276.033 363.968 275.69C363.582 275.346 363.336 274.873 363.277 274.36L361.912 262.54H361.33C361.207 262.54 361.087 262.497 360.993 262.418C360.898 262.339 360.834 262.23 360.812 262.109L360.803 262.014C360.803 261.874 360.859 261.741 360.958 261.642C361.056 261.543 361.19 261.488 361.33 261.488H370.276ZM374.421 262.54H362.973L364.322 274.239C364.352 274.495 364.475 274.732 364.668 274.904C364.861 275.076 365.11 275.17 365.368 275.17H372.026C372.284 275.17 372.533 275.075 372.726 274.904C372.919 274.732 373.042 274.495 373.071 274.239L374.421 262.54ZM367.118 265.172C367.376 265.172 367.592 265.335 367.636 265.549L367.645 265.633V272.079C367.645 272.333 367.409 272.539 367.118 272.539C366.861 272.539 366.645 272.376 366.601 272.161L366.592 272.078V265.634C366.592 265.379 366.828 265.173 367.118 265.173V265.172ZM370.276 265.172C370.534 265.172 370.75 265.335 370.794 265.549L370.802 265.633V272.079C370.802 272.333 370.566 272.539 370.276 272.539C370.018 272.539 369.802 272.376 369.758 272.161L369.75 272.078V265.634C369.75 265.379 369.985 265.173 370.276 265.173V265.172Z" fill="#183650"/>
<rect x="51.7778" y="277.158" width="38.8639" height="23.0167" rx="4.67778" fill="#B7DAF9" fill-opacity="0.3"/>
<path d="M66.4746 293.667H65.1099V289.898H61.2612V293.667H59.8908V285.318H61.2612V288.733H65.1099V285.318H66.4746V293.667ZM69.8893 287.346V293.667H68.5474V287.346H69.8893ZM69.2269 284.924C69.4325 284.924 69.6095 284.98 69.758 285.09C69.9102 285.2 69.9864 285.391 69.9864 285.661C69.9864 285.928 69.9102 286.118 69.758 286.232C69.6095 286.342 69.4325 286.398 69.2269 286.398C69.0137 286.398 68.8329 286.342 68.6845 286.232C68.5398 286.118 68.4675 285.928 68.4675 285.661C68.4675 285.391 68.5398 285.2 68.6845 285.09C68.8329 284.98 69.0137 284.924 69.2269 284.924ZM73.6181 296.476C72.7615 296.476 72.1049 296.322 71.648 296.014C71.1912 295.705 70.9628 295.273 70.9628 294.717C70.9628 294.329 71.0846 294 71.3283 293.73C71.5719 293.463 71.9202 293.278 72.3732 293.176C72.2019 293.1 72.0535 292.982 71.9278 292.822C71.806 292.658 71.7451 292.477 71.7451 292.279C71.7451 292.043 71.8117 291.841 71.945 291.674C72.0782 291.506 72.2781 291.345 72.5445 291.189C72.2134 291.048 71.9469 290.819 71.7451 290.503C71.5472 290.184 71.4482 289.809 71.4482 289.378C71.4482 288.922 71.5453 288.533 71.7394 288.214C71.9336 287.89 72.2172 287.644 72.5902 287.477C72.9633 287.306 73.4144 287.22 73.9435 287.22C74.0577 287.22 74.1815 287.228 74.3147 287.243C74.4517 287.254 74.5774 287.269 74.6916 287.288C74.8096 287.304 74.899 287.321 74.9599 287.34H77.1469V288.088L76.0734 288.288C76.1762 288.432 76.2581 288.598 76.319 288.785C76.3799 288.967 76.4103 289.167 76.4103 289.384C76.4103 290.039 76.1838 290.555 75.7308 290.932C75.2816 291.305 74.6611 291.491 73.8693 291.491C73.679 291.484 73.4943 291.468 73.3154 291.445C73.1784 291.529 73.0737 291.623 73.0014 291.725C72.929 291.824 72.8929 291.937 72.8929 292.062C72.8929 292.165 72.929 292.249 73.0014 292.313C73.0737 292.374 73.1803 292.42 73.3211 292.45C73.4658 292.481 73.6409 292.496 73.8465 292.496H74.9371C75.6299 292.496 76.1591 292.643 76.5245 292.936C76.89 293.229 77.0727 293.659 77.0727 294.226C77.0727 294.946 76.7758 295.5 76.1819 295.888C75.5881 296.28 74.7334 296.476 73.6181 296.476ZM73.6694 295.534C74.1377 295.534 74.5317 295.488 74.8515 295.397C75.1712 295.306 75.413 295.174 75.5766 295.003C75.7403 294.835 75.8222 294.636 75.8222 294.403C75.8222 294.198 75.7708 294.04 75.668 293.929C75.5652 293.819 75.4111 293.743 75.2055 293.701C74.9999 293.659 74.7449 293.638 74.4403 293.638H73.4468C73.1993 293.638 72.9804 293.676 72.7901 293.752C72.5997 293.832 72.4513 293.947 72.3447 294.095C72.2419 294.243 72.1905 294.422 72.1905 294.632C72.1905 294.921 72.318 295.144 72.5731 295.3C72.832 295.456 73.1974 295.534 73.6694 295.534ZM73.9321 290.612C74.3242 290.612 74.6154 290.505 74.8058 290.292C74.9961 290.075 75.0913 289.771 75.0913 289.378C75.0913 288.952 74.9923 288.632 74.7944 288.419C74.6002 288.206 74.3109 288.099 73.9264 288.099C73.5495 288.099 73.2621 288.208 73.0642 288.425C72.87 288.642 72.7729 288.963 72.7729 289.39C72.7729 289.774 72.87 290.075 73.0642 290.292C73.2621 290.505 73.5514 290.612 73.9321 290.612ZM79.6423 284.782V287.014C79.6423 287.247 79.6347 287.473 79.6195 287.694C79.608 287.915 79.5947 288.086 79.5795 288.208H79.6537C79.787 287.987 79.9506 287.806 80.1448 287.665C80.3389 287.521 80.5559 287.412 80.7957 287.34C81.0394 287.268 81.2982 287.231 81.5723 287.231C82.0558 287.231 82.4669 287.313 82.8057 287.477C83.1445 287.637 83.4034 287.886 83.5823 288.225C83.765 288.564 83.8564 289.003 83.8564 289.544V293.667H82.5145V289.795C82.5145 289.304 82.4136 288.937 82.2119 288.693C82.0101 288.446 81.698 288.322 81.2754 288.322C80.8681 288.322 80.5445 288.408 80.3047 288.579C80.0687 288.746 79.8993 288.996 79.7965 289.327C79.6937 289.654 79.6423 290.054 79.6423 290.526V293.667H78.3004V284.782H79.6423Z" fill="#571032"/>
<g filter="url(#filter2_d_77_130)">
<rect x="28.3889" y="474.794" width="374.222" height="84.2" rx="11.6944" fill="white"/>
</g>
<path d="M57.6251 507.997H53.4257V494.389H57.8111C59.1312 494.389 60.2607 494.662 61.1998 495.206C62.1389 495.747 62.8588 496.524 63.3593 497.539C63.8599 498.549 64.1102 499.758 64.1102 501.167C64.1102 502.584 63.8577 503.804 63.3527 504.828C62.8477 505.847 62.1124 506.631 61.1467 507.18C60.181 507.725 59.0071 507.997 57.6251 507.997ZM55.0735 506.535H57.5187C58.6439 506.535 59.5763 506.318 60.3161 505.884C61.0559 505.45 61.6074 504.832 61.9706 504.03C62.3338 503.229 62.5155 502.274 62.5155 501.167C62.5155 500.068 62.3361 499.122 61.9772 498.329C61.6184 497.532 61.0824 496.921 60.3693 496.495C59.6561 496.066 58.7679 495.851 57.7048 495.851H55.0735V506.535ZM66.6617 507.997V497.791H68.2298V507.997H66.6617ZM67.459 496.09C67.1534 496.09 66.8898 495.986 66.6683 495.778C66.4513 495.57 66.3427 495.319 66.3427 495.027C66.3427 494.735 66.4513 494.484 66.6683 494.276C66.8898 494.068 67.1534 493.964 67.459 493.964C67.7647 493.964 68.026 494.068 68.2431 494.276C68.4646 494.484 68.5753 494.735 68.5753 495.027C68.5753 495.319 68.4646 495.57 68.2431 495.778C68.026 495.986 67.7647 496.09 67.459 496.09ZM72.67 501.858V507.997H71.1019V497.791H72.6169V499.386H72.7498C72.989 498.868 73.3522 498.451 73.8395 498.137C74.3267 497.818 74.9558 497.658 75.7265 497.658C76.4176 497.658 77.0222 497.8 77.5405 498.083C78.0588 498.363 78.4619 498.788 78.7498 499.359C79.0377 499.926 79.1817 500.644 79.1817 501.512V507.997H77.6136V501.618C77.6136 500.817 77.4054 500.192 76.989 499.745C76.5726 499.293 76.0012 499.067 75.2747 499.067C74.7741 499.067 74.3267 499.175 73.9325 499.392C73.5427 499.61 73.2348 499.926 73.0089 500.343C72.783 500.759 72.67 501.264 72.67 501.858ZM83.6153 501.858V507.997H82.0472V497.791H83.5621V499.386H83.695C83.9342 498.868 84.2975 498.451 84.7847 498.137C85.272 497.818 85.901 497.658 86.6718 497.658C87.3628 497.658 87.9675 497.8 88.4858 498.083C89.004 498.363 89.4071 498.788 89.6951 499.359C89.983 499.926 90.127 500.644 90.127 501.512V507.997H88.5589V501.618C88.5589 500.817 88.3507 500.192 87.9343 499.745C87.5179 499.293 86.9464 499.067 86.22 499.067C85.7194 499.067 85.272 499.175 84.8778 499.392C84.4879 499.61 84.1801 499.926 83.9542 500.343C83.7282 500.759 83.6153 501.264 83.6153 501.858ZM97.2715 508.21C96.2881 508.21 95.4399 507.993 94.7267 507.559C94.0179 507.12 93.4708 506.509 93.0855 505.725C92.7045 504.936 92.514 504.019 92.514 502.974C92.514 501.928 92.7045 501.007 93.0855 500.21C93.4708 499.408 94.0068 498.783 94.6935 498.336C95.3845 497.884 96.1907 497.658 97.1121 497.658C97.6436 497.658 98.1686 497.747 98.6868 497.924C99.2051 498.101 99.6769 498.389 100.102 498.788C100.527 499.182 100.866 499.705 101.119 500.356C101.371 501.007 101.497 501.809 101.497 502.761V503.426H93.6303V502.07H99.9028C99.9028 501.494 99.7876 500.981 99.5573 500.529C99.3314 500.077 99.008 499.72 98.5872 499.459C98.1708 499.198 97.6791 499.067 97.1121 499.067C96.4875 499.067 95.9471 499.222 95.4908 499.532C95.039 499.838 94.6912 500.236 94.4476 500.728C94.204 501.22 94.0821 501.747 94.0821 502.309V503.213C94.0821 503.984 94.215 504.637 94.4808 505.173C94.751 505.705 95.1253 506.11 95.6038 506.389C96.0822 506.664 96.6381 506.801 97.2715 506.801C97.6835 506.801 98.0556 506.744 98.3878 506.628C98.7245 506.509 99.0146 506.332 99.2583 506.097C99.5019 505.858 99.6902 505.561 99.8231 505.206L101.338 505.632C101.179 506.146 100.911 506.597 100.534 506.987C100.158 507.373 99.6924 507.674 99.1387 507.891C98.585 508.104 97.9626 508.21 97.2715 508.21ZM103.883 507.997V497.791H105.398V499.333H105.504C105.69 498.828 106.027 498.418 106.514 498.103C107.001 497.789 107.551 497.632 108.162 497.632C108.277 497.632 108.421 497.634 108.594 497.638C108.767 497.643 108.897 497.649 108.986 497.658V499.253C108.933 499.24 108.811 499.22 108.62 499.193C108.434 499.162 108.237 499.147 108.029 499.147C107.533 499.147 107.09 499.251 106.7 499.459C106.315 499.663 106.009 499.946 105.783 500.309C105.562 500.668 105.451 501.078 105.451 501.539V507.997H103.883ZM118.42 507.997L115.31 497.791H116.958L119.164 505.605H119.27L121.449 497.791H123.124L125.277 505.579H125.383L127.589 497.791H129.237L126.127 507.997H124.586L122.353 500.157H122.194L119.961 507.997H118.42ZM131.31 507.997V497.791H132.878V507.997H131.31ZM132.107 496.09C131.802 496.09 131.538 495.986 131.317 495.778C131.1 495.57 130.991 495.319 130.991 495.027C130.991 494.735 131.1 494.484 131.317 494.276C131.538 494.068 131.802 493.964 132.107 493.964C132.413 493.964 132.674 494.068 132.891 494.276C133.113 494.484 133.224 494.735 133.224 495.027C133.224 495.319 133.113 495.57 132.891 495.778C132.674 495.986 132.413 496.09 132.107 496.09ZM140.189 497.791V499.12H134.9V497.791H140.189ZM136.441 495.346H138.009V505.074C138.009 505.517 138.074 505.849 138.202 506.07C138.335 506.287 138.503 506.434 138.707 506.509C138.915 506.58 139.135 506.615 139.365 506.615C139.538 506.615 139.679 506.606 139.79 506.589C139.901 506.566 139.989 506.549 140.056 506.535L140.375 507.944C140.269 507.984 140.12 508.024 139.93 508.064C139.739 508.108 139.498 508.13 139.205 508.13C138.762 508.13 138.328 508.035 137.903 507.844C137.482 507.654 137.132 507.364 136.853 506.974C136.579 506.584 136.441 506.092 136.441 505.499V495.346ZM144.335 501.858V507.997H142.767V494.389H144.335V499.386H144.468C144.707 498.859 145.066 498.44 145.544 498.13C146.027 497.815 146.67 497.658 147.471 497.658C148.167 497.658 148.776 497.798 149.299 498.077C149.821 498.351 150.227 498.775 150.514 499.346C150.807 499.913 150.953 500.635 150.953 501.512V507.997H149.385V501.618C149.385 500.808 149.175 500.181 148.754 499.738C148.337 499.291 147.759 499.067 147.019 499.067C146.506 499.067 146.045 499.175 145.637 499.392C145.234 499.61 144.915 499.926 144.681 500.343C144.45 500.759 144.335 501.264 144.335 501.858ZM159.297 507.997V494.389H160.865V499.412H160.998C161.113 499.235 161.273 499.009 161.476 498.735C161.685 498.456 161.981 498.208 162.367 497.99C162.757 497.769 163.284 497.658 163.948 497.658C164.808 497.658 165.565 497.873 166.221 498.303C166.876 498.732 167.388 499.342 167.755 500.13C168.123 500.919 168.307 501.849 168.307 502.921C168.307 504.002 168.123 504.938 167.755 505.731C167.388 506.52 166.878 507.131 166.227 507.565C165.576 507.995 164.825 508.21 163.975 508.21C163.319 508.21 162.794 508.101 162.4 507.884C162.006 507.663 161.702 507.412 161.49 507.133C161.277 506.85 161.113 506.615 160.998 506.429H160.812V507.997H159.297ZM160.838 502.894C160.838 503.665 160.951 504.345 161.177 504.934C161.403 505.519 161.733 505.977 162.167 506.309C162.602 506.637 163.133 506.801 163.762 506.801C164.418 506.801 164.965 506.628 165.403 506.283C165.846 505.933 166.179 505.463 166.4 504.874C166.626 504.281 166.739 503.621 166.739 502.894C166.739 502.177 166.628 501.53 166.407 500.954C166.19 500.374 165.86 499.915 165.417 499.579C164.978 499.237 164.427 499.067 163.762 499.067C163.124 499.067 162.588 499.229 162.154 499.552C161.72 499.871 161.392 500.318 161.171 500.894C160.949 501.466 160.838 502.132 160.838 502.894ZM173.709 508.236C173.062 508.236 172.475 508.115 171.948 507.871C171.421 507.623 171.002 507.266 170.692 506.801C170.382 506.332 170.227 505.765 170.227 505.1C170.227 504.515 170.342 504.041 170.573 503.678C170.803 503.311 171.111 503.023 171.496 502.814C171.882 502.606 172.307 502.451 172.772 502.349C173.242 502.243 173.713 502.159 174.187 502.097C174.808 502.017 175.31 501.957 175.696 501.917C176.086 501.873 176.369 501.8 176.546 501.698C176.728 501.596 176.819 501.419 176.819 501.167V501.113C176.819 500.458 176.639 499.948 176.28 499.585C175.926 499.222 175.388 499.04 174.666 499.04C173.917 499.04 173.33 499.204 172.905 499.532C172.48 499.86 172.181 500.21 172.008 500.582L170.52 500.05C170.785 499.43 171.14 498.947 171.583 498.602C172.03 498.252 172.517 498.008 173.045 497.871C173.576 497.729 174.099 497.658 174.613 497.658C174.94 497.658 175.317 497.698 175.742 497.778C176.172 497.853 176.586 498.01 176.985 498.25C177.388 498.489 177.722 498.85 177.988 499.333C178.254 499.816 178.387 500.462 178.387 501.273V507.997H176.819V506.615H176.739C176.633 506.837 176.455 507.074 176.207 507.326C175.959 507.579 175.629 507.793 175.217 507.971C174.805 508.148 174.303 508.236 173.709 508.236ZM173.948 506.828C174.568 506.828 175.091 506.706 175.516 506.462C175.946 506.219 176.269 505.904 176.486 505.519C176.708 505.133 176.819 504.728 176.819 504.303V502.868C176.752 502.947 176.606 503.02 176.38 503.087C176.159 503.149 175.902 503.204 175.609 503.253C175.321 503.297 175.04 503.337 174.766 503.373C174.495 503.404 174.276 503.43 174.108 503.452C173.7 503.505 173.319 503.592 172.965 503.711C172.615 503.827 172.331 504.002 172.114 504.236C171.902 504.467 171.795 504.781 171.795 505.18C171.795 505.725 171.997 506.137 172.4 506.416C172.808 506.69 173.324 506.828 173.948 506.828ZM185.528 508.21C184.545 508.21 183.696 507.993 182.983 507.559C182.274 507.12 181.727 506.509 181.342 505.725C180.961 504.936 180.771 504.019 180.771 502.974C180.771 501.928 180.961 501.007 181.342 500.21C181.727 499.408 182.263 498.783 182.95 498.336C183.641 497.884 184.447 497.658 185.369 497.658C185.9 497.658 186.425 497.747 186.943 497.924C187.462 498.101 187.933 498.389 188.359 498.788C188.784 499.182 189.123 499.705 189.375 500.356C189.628 501.007 189.754 501.809 189.754 502.761V503.426H181.887V502.07H188.159C188.159 501.494 188.044 500.981 187.814 500.529C187.588 500.077 187.264 499.72 186.844 499.459C186.427 499.198 185.936 499.067 185.369 499.067C184.744 499.067 184.204 499.222 183.747 499.532C183.295 499.838 182.948 500.236 182.704 500.728C182.46 501.22 182.339 501.747 182.339 502.309V503.213C182.339 503.984 182.472 504.637 182.737 505.173C183.008 505.705 183.382 506.11 183.86 506.389C184.339 506.664 184.895 506.801 185.528 506.801C185.94 506.801 186.312 506.744 186.644 506.628C186.981 506.509 187.271 506.332 187.515 506.097C187.758 505.858 187.947 505.561 188.08 505.206L189.595 505.632C189.435 506.146 189.167 506.597 188.791 506.987C188.414 507.373 187.949 507.674 187.395 507.891C186.841 508.104 186.219 508.21 185.528 508.21Z" fill="#183650"/>
<path d="M345.232 506.556L341.8 503.107C341.573 502.881 341.266 502.754 340.946 502.754C340.626 502.754 340.319 502.881 340.092 503.107L327.924 515.257L326.813 520.052C326.775 520.227 326.776 520.409 326.817 520.583C326.858 520.758 326.938 520.922 327.05 521.062C327.162 521.202 327.304 521.315 327.465 521.393C327.627 521.471 327.803 521.513 327.983 521.514C328.066 521.522 328.151 521.522 328.234 521.514L333.082 520.403L345.232 508.264C345.458 508.037 345.585 507.73 345.585 507.41C345.585 507.09 345.458 506.783 345.232 506.556ZM332.497 519.35L327.954 520.303L328.989 515.848L338.093 506.779L341.601 510.287L332.497 519.35ZM342.385 509.439L338.876 505.931L340.911 503.908L344.361 507.416L342.385 509.439Z" fill="#183650"/>
<path d="M370.276 505.902C370.276 505.483 370.11 505.081 369.814 504.785C369.517 504.489 369.116 504.323 368.697 504.323C368.279 504.323 367.877 504.489 367.581 504.785C367.285 505.081 367.118 505.483 367.118 505.902H366.066C366.066 505.204 366.343 504.535 366.837 504.041C367.33 503.548 367.999 503.27 368.697 503.27C369.395 503.27 370.064 503.548 370.558 504.041C371.051 504.535 371.328 505.204 371.328 505.902H376.065C376.204 505.902 376.338 505.957 376.437 506.056C376.536 506.154 376.591 506.288 376.591 506.428C376.591 506.567 376.536 506.701 376.437 506.8C376.338 506.899 376.204 506.954 376.065 506.954H375.482L374.118 518.774C374.058 519.287 373.812 519.76 373.427 520.103C373.041 520.447 372.543 520.637 372.026 520.637H365.368C364.852 520.637 364.353 520.447 363.968 520.103C363.582 519.76 363.336 519.287 363.277 518.774L361.912 506.954H361.33C361.207 506.954 361.087 506.911 360.993 506.832C360.898 506.753 360.834 506.644 360.812 506.523L360.803 506.428C360.803 506.288 360.859 506.154 360.958 506.056C361.056 505.957 361.19 505.902 361.33 505.902H370.276ZM374.421 506.954H362.973L364.322 518.653C364.352 518.909 364.475 519.146 364.668 519.318C364.861 519.489 365.11 519.584 365.368 519.584H372.026C372.284 519.584 372.533 519.489 372.726 519.317C372.919 519.146 373.042 518.909 373.071 518.653L374.421 506.954ZM367.118 509.585C367.376 509.585 367.592 509.749 367.636 509.963L367.645 510.046V516.493C367.645 516.747 367.409 516.953 367.118 516.953C366.861 516.953 366.645 516.79 366.601 516.575L366.592 516.492V510.047C366.592 509.793 366.828 509.586 367.118 509.586V509.585ZM370.276 509.585C370.534 509.585 370.75 509.749 370.794 509.963L370.802 510.046V516.493C370.802 516.747 370.566 516.953 370.276 516.953C370.018 516.953 369.802 516.79 369.758 516.575L369.75 516.492V510.047C369.75 509.793 369.985 509.586 370.276 509.586V509.585Z" fill="#183650"/>
<rect x="51.7778" y="521.572" width="38.8639" height="23.0167" rx="4.67778" fill="#B7DAF9" fill-opacity="0.3"/>
<path d="M66.4746 538.081H65.1099V534.312H61.2612V538.081H59.8908V529.732H61.2612V533.147H65.1099V529.732H66.4746V538.081ZM69.8893 531.759V538.081H68.5474V531.759H69.8893ZM69.2269 529.338C69.4325 529.338 69.6095 529.393 69.758 529.504C69.9102 529.614 69.9864 529.805 69.9864 530.075C69.9864 530.341 69.9102 530.532 69.758 530.646C69.6095 530.756 69.4325 530.812 69.2269 530.812C69.0137 530.812 68.8329 530.756 68.6845 530.646C68.5398 530.532 68.4675 530.341 68.4675 530.075C68.4675 529.805 68.5398 529.614 68.6845 529.504C68.8329 529.393 69.0137 529.338 69.2269 529.338ZM73.6181 540.89C72.7615 540.89 72.1049 540.736 71.648 540.427C71.1912 540.119 70.9628 539.687 70.9628 539.131C70.9628 538.743 71.0846 538.414 71.3283 538.143C71.5719 537.877 71.9202 537.692 72.3732 537.589C72.2019 537.513 72.0535 537.395 71.9278 537.235C71.806 537.072 71.7451 536.891 71.7451 536.693C71.7451 536.457 71.8117 536.255 71.945 536.088C72.0782 535.92 72.2781 535.758 72.5445 535.602C72.2134 535.461 71.9469 535.233 71.7451 534.917C71.5472 534.597 71.4482 534.222 71.4482 533.792C71.4482 533.335 71.5453 532.947 71.7394 532.627C71.9336 532.304 72.2172 532.058 72.5902 531.891C72.9633 531.719 73.4144 531.634 73.9435 531.634C74.0577 531.634 74.1815 531.641 74.3147 531.657C74.4517 531.668 74.5774 531.683 74.6916 531.702C74.8096 531.718 74.899 531.735 74.9599 531.754H77.1469V532.502L76.0734 532.702C76.1762 532.846 76.2581 533.012 76.319 533.198C76.3799 533.381 76.4103 533.581 76.4103 533.798C76.4103 534.453 76.1838 534.969 75.7308 535.345C75.2816 535.718 74.6611 535.905 73.8693 535.905C73.679 535.897 73.4943 535.882 73.3154 535.859C73.1784 535.943 73.0737 536.036 73.0014 536.139C72.929 536.238 72.8929 536.35 72.8929 536.476C72.8929 536.579 72.929 536.663 73.0014 536.727C73.0737 536.788 73.1803 536.834 73.3211 536.864C73.4658 536.895 73.6409 536.91 73.8465 536.91H74.9371C75.6299 536.91 76.1591 537.057 76.5245 537.35C76.89 537.643 77.0727 538.073 77.0727 538.64C77.0727 539.36 76.7758 539.914 76.1819 540.302C75.5881 540.694 74.7334 540.89 73.6181 540.89ZM73.6694 539.948C74.1377 539.948 74.5317 539.902 74.8515 539.811C75.1712 539.719 75.413 539.588 75.5766 539.417C75.7403 539.249 75.8222 539.049 75.8222 538.817C75.8222 538.612 75.7708 538.454 75.668 538.343C75.5652 538.233 75.4111 538.157 75.2055 538.115C74.9999 538.073 74.7449 538.052 74.4403 538.052H73.4468C73.1993 538.052 72.9804 538.09 72.7901 538.166C72.5997 538.246 72.4513 538.36 72.3447 538.509C72.2419 538.657 72.1905 538.836 72.1905 539.046C72.1905 539.335 72.318 539.558 72.5731 539.714C72.832 539.87 73.1974 539.948 73.6694 539.948ZM73.9321 535.026C74.3242 535.026 74.6154 534.919 74.8058 534.706C74.9961 534.489 75.0913 534.184 75.0913 533.792C75.0913 533.366 74.9923 533.046 74.7944 532.833C74.6002 532.62 74.3109 532.513 73.9264 532.513C73.5495 532.513 73.2621 532.622 73.0642 532.839C72.87 533.056 72.7729 533.377 72.7729 533.804C72.7729 534.188 72.87 534.489 73.0642 534.706C73.2621 534.919 73.5514 535.026 73.9321 535.026ZM79.6423 529.196V531.428C79.6423 531.66 79.6347 531.887 79.6195 532.108C79.608 532.329 79.5947 532.5 79.5795 532.622H79.6537C79.787 532.401 79.9506 532.22 80.1448 532.079C80.3389 531.935 80.5559 531.826 80.7957 531.754C81.0394 531.681 81.2982 531.645 81.5723 531.645C82.0558 531.645 82.4669 531.727 82.8057 531.891C83.1445 532.051 83.4034 532.3 83.5823 532.639C83.765 532.978 83.8564 533.417 83.8564 533.958V538.081H82.5145V534.209C82.5145 533.718 82.4136 533.351 82.2119 533.107C82.0101 532.86 81.698 532.736 81.2754 532.736C80.8681 532.736 80.5445 532.821 80.3047 532.993C80.0687 533.16 79.8993 533.41 79.7965 533.741C79.6937 534.068 79.6423 534.468 79.6423 534.94V538.081H78.3004V529.196H79.6423Z" fill="#571032"/>
<g filter="url(#filter3_d_77_130)">
<rect x="28.3889" y="328.614" width="374.222" height="84.2" rx="11.6944" fill="white"/>
</g>
<path d="M64.3759 352.461H62.7281C62.6306 351.987 62.4601 351.571 62.2165 351.212C61.9772 350.853 61.6849 350.552 61.3394 350.308C60.9983 350.06 60.6195 349.874 60.2031 349.75C59.7868 349.626 59.3526 349.564 58.9008 349.564C58.0769 349.564 57.3305 349.772 56.6616 350.189C55.9971 350.605 55.4678 351.219 55.0735 352.029C54.6837 352.84 54.4888 353.834 54.4888 355.013C54.4888 356.191 54.6837 357.185 55.0735 357.996C55.4678 358.807 55.9971 359.42 56.6616 359.837C57.3305 360.253 58.0769 360.461 58.9008 360.461C59.3526 360.461 59.7868 360.399 60.2031 360.275C60.6195 360.151 60.9983 359.967 61.3394 359.724C61.6849 359.476 61.9772 359.172 62.2165 358.813C62.4601 358.45 62.6306 358.034 62.7281 357.564H64.3759C64.2519 358.26 64.026 358.882 63.6982 359.431C63.3704 359.981 62.9629 360.448 62.4756 360.833C61.9883 361.214 61.4413 361.504 60.8344 361.704C60.2319 361.903 59.5874 362.003 58.9008 362.003C57.7402 362.003 56.7081 361.719 55.8044 361.152C54.9008 360.585 54.1898 359.779 53.6715 358.734C53.1533 357.688 52.8941 356.448 52.8941 355.013C52.8941 353.577 53.1533 352.337 53.6715 351.292C54.1898 350.246 54.9008 349.44 55.8044 348.873C56.7081 348.306 57.7402 348.023 58.9008 348.023C59.5874 348.023 60.2319 348.122 60.8344 348.322C61.4413 348.521 61.9883 348.813 62.4756 349.199C62.9629 349.58 63.3704 350.045 63.6982 350.594C64.026 351.139 64.2519 351.761 64.3759 352.461ZM69.8295 362.056C69.1827 362.056 68.5958 361.934 68.0687 361.69C67.5415 361.442 67.1229 361.086 66.8128 360.621C66.5028 360.151 66.3477 359.584 66.3477 358.92C66.3477 358.335 66.4629 357.861 66.6932 357.498C66.9236 357.13 67.2314 356.842 67.6168 356.634C68.0022 356.426 68.4275 356.271 68.8926 356.169C69.3621 356.062 69.8339 355.978 70.3079 355.916C70.928 355.837 71.4308 355.777 71.8162 355.737C72.206 355.693 72.4895 355.619 72.6667 355.518C72.8483 355.416 72.9391 355.239 72.9391 354.986V354.933C72.9391 354.277 72.7597 353.768 72.4009 353.405C72.0465 353.041 71.5083 352.86 70.7863 352.86C70.0377 352.86 69.4507 353.024 69.0255 353.351C68.6002 353.679 68.3012 354.029 68.1285 354.401L66.6401 353.87C66.9059 353.25 67.2602 352.767 67.7032 352.421C68.1506 352.071 68.6379 351.828 69.165 351.69C69.6966 351.549 70.2193 351.478 70.7331 351.478C71.0609 351.478 71.4375 351.518 71.8627 351.597C72.2924 351.673 72.7066 351.83 73.1052 352.069C73.5083 352.308 73.8428 352.669 74.1086 353.152C74.3744 353.635 74.5072 354.282 74.5072 355.092V361.817H72.9391V360.435H72.8594C72.7531 360.656 72.5759 360.893 72.3278 361.146C72.0798 361.398 71.7498 361.613 71.3378 361.79C70.9258 361.967 70.4231 362.056 69.8295 362.056ZM70.0687 360.647C70.6888 360.647 71.2115 360.525 71.6368 360.282C72.0665 360.038 72.3898 359.724 72.6069 359.338C72.8284 358.953 72.9391 358.548 72.9391 358.122V356.687C72.8727 356.767 72.7265 356.84 72.5006 356.906C72.2791 356.968 72.0222 357.024 71.7298 357.072C71.4419 357.117 71.1606 357.157 70.886 357.192C70.6157 357.223 70.3965 357.25 70.2281 357.272C69.8206 357.325 69.4397 357.411 69.0853 357.531C68.7353 357.646 68.4518 357.821 68.2348 358.056C68.0221 358.286 67.9158 358.601 67.9158 358.999C67.9158 359.544 68.1174 359.956 68.5205 360.235C68.928 360.51 69.4441 360.647 70.0687 360.647ZM77.3694 361.817V351.611H78.8844V353.152H78.9907C79.1767 352.647 79.5134 352.237 80.0006 351.923C80.4879 351.608 81.0372 351.451 81.6485 351.451C81.7637 351.451 81.9076 351.453 82.0804 351.458C82.2532 351.462 82.3838 351.469 82.4724 351.478V353.072C82.4193 353.059 82.2975 353.039 82.107 353.013C81.9209 352.982 81.7238 352.966 81.5156 352.966C81.0195 352.966 80.5765 353.07 80.1867 353.278C79.8013 353.482 79.4957 353.766 79.2697 354.129C79.0483 354.488 78.9375 354.897 78.9375 355.358V361.817H77.3694ZM87.8745 362.029C87.024 362.029 86.2731 361.814 85.622 361.385C84.9708 360.951 84.4614 360.339 84.0937 359.551C83.726 358.758 83.5422 357.821 83.5422 356.74C83.5422 355.668 83.726 354.738 84.0937 353.949C84.4614 353.161 84.973 352.552 85.6286 352.122C86.2842 351.693 87.0417 351.478 87.901 351.478C88.5655 351.478 89.0904 351.588 89.4758 351.81C89.8656 352.027 90.1624 352.275 90.3662 352.554C90.5744 352.829 90.7361 353.055 90.8512 353.232H90.9841V348.209H92.5522V361.817H91.0373V360.249H90.8512C90.7361 360.435 90.5722 360.669 90.3595 360.953C90.1469 361.232 89.8435 361.482 89.4492 361.704C89.055 361.921 88.5301 362.029 87.8745 362.029ZM88.0871 360.621C88.7161 360.621 89.2477 360.457 89.6818 360.129C90.1159 359.797 90.4459 359.338 90.6718 358.754C90.8977 358.164 91.0107 357.484 91.0107 356.714C91.0107 355.952 90.9 355.285 90.6785 354.714C90.457 354.138 90.1292 353.69 89.6951 353.371C89.261 353.048 88.725 352.886 88.0871 352.886C87.4226 352.886 86.8689 353.057 86.4259 353.398C85.9874 353.735 85.6574 354.193 85.4359 354.773C85.2188 355.349 85.1103 355.996 85.1103 356.714C85.1103 357.44 85.2211 358.1 85.4425 358.694C85.6685 359.283 86.0007 359.752 86.4392 360.102C86.8822 360.448 87.4315 360.621 88.0871 360.621ZM95.642 361.817V351.611H97.2101V361.817H95.642ZM96.4393 349.91C96.1337 349.91 95.8701 349.805 95.6486 349.597C95.4316 349.389 95.323 349.139 95.323 348.846C95.323 348.554 95.4316 348.304 95.6486 348.096C95.8701 347.887 96.1337 347.783 96.4393 347.783C96.745 347.783 97.0063 347.887 97.2234 348.096C97.4449 348.304 97.5556 348.554 97.5556 348.846C97.5556 349.139 97.4449 349.389 97.2234 349.597C97.0063 349.805 96.745 349.91 96.4393 349.91ZM104.228 362.029C103.307 362.029 102.499 361.81 101.803 361.371C101.112 360.933 100.572 360.319 100.182 359.531C99.7965 358.742 99.6038 357.821 99.6038 356.767C99.6038 355.704 99.7965 354.776 100.182 353.983C100.572 353.19 101.112 352.574 101.803 352.136C102.499 351.697 103.307 351.478 104.228 351.478C105.15 351.478 105.956 351.697 106.647 352.136C107.343 352.574 107.883 353.19 108.268 353.983C108.658 354.776 108.853 355.704 108.853 356.767C108.853 357.821 108.658 358.742 108.268 359.531C107.883 360.319 107.343 360.933 106.647 361.371C105.956 361.81 105.15 362.029 104.228 362.029ZM104.228 360.621C104.928 360.621 105.504 360.441 105.956 360.082C106.408 359.724 106.742 359.252 106.959 358.667C107.176 358.082 107.285 357.449 107.285 356.767C107.285 356.085 107.176 355.449 106.959 354.86C106.742 354.271 106.408 353.794 105.956 353.431C105.504 353.068 104.928 352.886 104.228 352.886C103.529 352.886 102.953 353.068 102.501 353.431C102.049 353.794 101.715 354.271 101.497 354.86C101.28 355.449 101.172 356.085 101.172 356.767C101.172 357.449 101.28 358.082 101.497 358.667C101.715 359.252 102.049 359.724 102.501 360.082C102.953 360.441 103.529 360.621 104.228 360.621ZM119.513 362.056C118.866 362.056 118.279 361.934 117.752 361.69C117.225 361.442 116.806 361.086 116.496 360.621C116.186 360.151 116.031 359.584 116.031 358.92C116.031 358.335 116.146 357.861 116.376 357.498C116.607 357.13 116.915 356.842 117.3 356.634C117.685 356.426 118.111 356.271 118.576 356.169C119.045 356.062 119.517 355.978 119.991 355.916C120.611 355.837 121.114 355.777 121.499 355.737C121.889 355.693 122.173 355.619 122.35 355.518C122.531 355.416 122.622 355.239 122.622 354.986V354.933C122.622 354.277 122.443 353.768 122.084 353.405C121.73 353.041 121.191 352.86 120.469 352.86C119.721 352.86 119.134 353.024 118.709 353.351C118.283 353.679 117.984 354.029 117.812 354.401L116.323 353.87C116.589 353.25 116.943 352.767 117.386 352.421C117.834 352.071 118.321 351.828 118.848 351.69C119.38 351.549 119.902 351.478 120.416 351.478C120.744 351.478 121.121 351.518 121.546 351.597C121.976 351.673 122.39 351.83 122.788 352.069C123.191 352.308 123.526 352.669 123.792 353.152C124.057 353.635 124.19 354.282 124.19 355.092V361.817H122.622V360.435H122.543C122.436 360.656 122.259 360.893 122.011 361.146C121.763 361.398 121.433 361.613 121.021 361.79C120.609 361.967 120.106 362.056 119.513 362.056ZM119.752 360.647C120.372 360.647 120.895 360.525 121.32 360.282C121.75 360.038 122.073 359.724 122.29 359.338C122.512 358.953 122.622 358.548 122.622 358.122V356.687C122.556 356.767 122.41 356.84 122.184 356.906C121.962 356.968 121.705 357.024 121.413 357.072C121.125 357.117 120.844 357.157 120.569 357.192C120.299 357.223 120.08 357.25 119.911 357.272C119.504 357.325 119.123 357.411 118.768 357.531C118.418 357.646 118.135 357.821 117.918 358.056C117.705 358.286 117.599 358.601 117.599 358.999C117.599 359.544 117.801 359.956 118.204 360.235C118.611 360.51 119.127 360.647 119.752 360.647ZM131.491 351.611V352.94H126.202V351.611H131.491ZM127.744 349.165H129.312V358.893C129.312 359.336 129.376 359.668 129.504 359.89C129.637 360.107 129.806 360.253 130.009 360.328C130.218 360.399 130.437 360.435 130.667 360.435C130.84 360.435 130.982 360.426 131.092 360.408C131.203 360.386 131.292 360.368 131.358 360.355L131.677 361.763C131.571 361.803 131.422 361.843 131.232 361.883C131.041 361.927 130.8 361.95 130.508 361.95C130.065 361.95 129.631 361.854 129.205 361.664C128.785 361.473 128.435 361.183 128.156 360.793C127.881 360.404 127.744 359.912 127.744 359.318V349.165ZM143.604 362.003C143.046 361.994 142.488 361.888 141.93 361.684C141.372 361.48 140.862 361.137 140.401 360.654C139.941 360.167 139.571 359.509 139.292 358.68C139.013 357.848 138.873 356.802 138.873 355.544C138.873 354.339 138.986 353.272 139.212 352.341C139.438 351.407 139.766 350.621 140.195 349.983C140.625 349.34 141.143 348.853 141.75 348.521C142.362 348.189 143.05 348.023 143.817 348.023C144.579 348.023 145.256 348.175 145.85 348.481C146.448 348.782 146.935 349.203 147.312 349.743C147.688 350.284 147.932 350.906 148.043 351.611H146.421C146.271 350.999 145.978 350.492 145.544 350.089C145.11 349.686 144.534 349.484 143.817 349.484C142.762 349.484 141.932 349.943 141.325 350.86C140.723 351.777 140.419 353.064 140.415 354.72H140.521C140.769 354.344 141.064 354.023 141.405 353.757C141.75 353.487 142.131 353.278 142.548 353.132C142.964 352.986 143.405 352.913 143.87 352.913C144.65 352.913 145.363 353.108 146.009 353.498C146.656 353.883 147.174 354.417 147.564 355.099C147.954 355.777 148.149 356.554 148.149 357.431C148.149 358.273 147.961 359.044 147.584 359.744C147.208 360.439 146.678 360.993 145.996 361.405C145.318 361.812 144.521 362.012 143.604 362.003ZM143.604 360.541C144.162 360.541 144.663 360.401 145.106 360.122C145.553 359.843 145.905 359.469 146.162 358.999C146.424 358.53 146.554 358.007 146.554 357.431C146.554 356.869 146.428 356.357 146.176 355.896C145.928 355.431 145.584 355.061 145.146 354.787C144.712 354.512 144.215 354.375 143.657 354.375C143.236 354.375 142.844 354.459 142.481 354.627C142.118 354.791 141.799 355.017 141.524 355.305C141.254 355.593 141.042 355.923 140.887 356.295C140.731 356.663 140.654 357.05 140.654 357.458C140.654 357.998 140.78 358.503 141.033 358.973C141.29 359.442 141.64 359.821 142.083 360.109C142.53 360.397 143.037 360.541 143.604 360.541ZM150.789 365.644V351.611H152.304V353.232H152.49C152.605 353.055 152.764 352.829 152.968 352.554C153.176 352.275 153.473 352.027 153.858 351.81C154.248 351.588 154.775 351.478 155.44 351.478C156.299 351.478 157.057 351.693 157.712 352.122C158.368 352.552 158.879 353.161 159.247 353.949C159.615 354.738 159.799 355.668 159.799 356.74C159.799 357.821 159.615 358.758 159.247 359.551C158.879 360.339 158.37 360.951 157.719 361.385C157.068 361.814 156.317 362.029 155.466 362.029C154.811 362.029 154.286 361.921 153.892 361.704C153.497 361.482 153.194 361.232 152.981 360.953C152.769 360.669 152.605 360.435 152.49 360.249H152.357V365.644H150.789ZM152.33 356.714C152.33 357.484 152.443 358.164 152.669 358.754C152.895 359.338 153.225 359.797 153.659 360.129C154.093 360.457 154.625 360.621 155.254 360.621C155.909 360.621 156.456 360.448 156.895 360.102C157.338 359.752 157.67 359.283 157.892 358.694C158.118 358.1 158.231 357.44 158.231 356.714C158.231 355.996 158.12 355.349 157.898 354.773C157.681 354.193 157.351 353.735 156.908 353.398C156.47 353.057 155.918 352.886 155.254 352.886C154.616 352.886 154.08 353.048 153.646 353.371C153.212 353.69 152.884 354.138 152.662 354.714C152.441 355.285 152.33 355.952 152.33 356.714ZM162.191 361.817V351.611H163.706V353.205H163.839C164.051 352.66 164.394 352.237 164.868 351.936C165.342 351.631 165.912 351.478 166.576 351.478C167.249 351.478 167.81 351.631 168.257 351.936C168.709 352.237 169.061 352.66 169.314 353.205H169.42C169.681 352.678 170.073 352.26 170.596 351.949C171.119 351.635 171.746 351.478 172.476 351.478C173.389 351.478 174.135 351.763 174.716 352.335C175.296 352.902 175.586 353.786 175.586 354.986V361.817H174.018V354.986C174.018 354.233 173.812 353.695 173.4 353.371C172.988 353.048 172.503 352.886 171.945 352.886C171.227 352.886 170.671 353.103 170.277 353.538C169.883 353.967 169.686 354.512 169.686 355.172V361.817H168.091V354.827C168.091 354.246 167.903 353.779 167.526 353.425C167.15 353.066 166.665 352.886 166.071 352.886C165.664 352.886 165.283 352.995 164.928 353.212C164.578 353.429 164.295 353.73 164.078 354.116C163.865 354.497 163.759 354.937 163.759 355.438V361.817H162.191Z" fill="#183650"/>
<path d="M345.232 360.376L341.8 356.926C341.573 356.701 341.266 356.574 340.946 356.574C340.626 356.574 340.319 356.701 340.092 356.926L327.924 369.077L326.813 373.871C326.775 374.047 326.776 374.228 326.817 374.403C326.858 374.578 326.938 374.741 327.05 374.881C327.162 375.021 327.304 375.135 327.465 375.213C327.627 375.291 327.803 375.332 327.983 375.333C328.066 375.342 328.151 375.342 328.234 375.333L333.082 374.222L345.232 362.083C345.458 361.857 345.585 361.55 345.585 361.23C345.585 360.91 345.458 360.603 345.232 360.376ZM332.497 373.17L327.954 374.123L328.989 369.667L338.093 360.598L341.601 364.107L332.497 373.17ZM342.385 363.259L338.876 359.75L340.911 357.727L344.361 361.236L342.385 363.259Z" fill="#183650"/>
<path d="M370.276 359.721C370.276 359.302 370.11 358.901 369.814 358.605C369.517 358.309 369.116 358.142 368.697 358.142C368.279 358.142 367.877 358.309 367.581 358.605C367.285 358.901 367.118 359.302 367.118 359.721H366.066C366.066 359.023 366.343 358.354 366.837 357.861C367.33 357.367 367.999 357.09 368.697 357.09C369.395 357.09 370.064 357.367 370.558 357.861C371.051 358.354 371.328 359.023 371.328 359.721H376.065C376.204 359.721 376.338 359.777 376.437 359.875C376.536 359.974 376.591 360.108 376.591 360.247C376.591 360.387 376.536 360.521 376.437 360.619C376.338 360.718 376.204 360.774 376.065 360.774H375.482L374.118 372.593C374.058 373.106 373.812 373.579 373.427 373.923C373.041 374.266 372.543 374.456 372.026 374.456H365.368C364.852 374.456 364.353 374.266 363.968 373.923C363.582 373.579 363.336 373.106 363.277 372.593L361.912 360.774H361.33C361.207 360.774 361.087 360.73 360.993 360.652C360.898 360.573 360.834 360.463 360.812 360.342L360.803 360.247C360.803 360.108 360.859 359.974 360.958 359.875C361.056 359.777 361.19 359.721 361.33 359.721H370.276ZM374.421 360.774H362.973L364.322 372.472C364.352 372.729 364.475 372.965 364.668 373.137C364.861 373.309 365.11 373.404 365.368 373.404H372.026C372.284 373.403 372.533 373.309 372.726 373.137C372.919 372.965 373.042 372.729 373.071 372.472L374.421 360.774ZM367.118 363.405C367.376 363.405 367.592 363.568 367.636 363.783L367.645 363.866V370.312C367.645 370.566 367.409 370.772 367.118 370.772C366.861 370.772 366.645 370.609 366.601 370.394L366.592 370.311V363.867C366.592 363.612 366.828 363.406 367.118 363.406V363.405ZM370.276 363.405C370.534 363.405 370.75 363.568 370.794 363.783L370.802 363.866V370.312C370.802 370.566 370.566 370.772 370.276 370.772C370.018 370.772 369.802 370.609 369.758 370.394L369.75 370.311V363.867C369.75 363.612 369.985 363.406 370.276 363.406V363.405Z" fill="#183650"/>
<rect x="51.7778" y="375.392" width="59.8639" height="23.0167" rx="4.67778" fill="#F8F2F4"/>
<path d="M63.4939 391.9L61.0899 384.928H61.0385C61.05 385.084 61.0633 385.297 61.0785 385.567C61.0937 385.838 61.1071 386.127 61.1185 386.435C61.1299 386.744 61.1356 387.039 61.1356 387.32V391.9H59.8908V383.552H61.8151L64.1277 390.216H64.162L66.5546 383.552H68.4732V391.9H67.1656V387.252C67.1656 386.997 67.1694 386.721 67.177 386.424C67.1884 386.127 67.1998 385.845 67.2112 385.579C67.2265 385.312 67.2379 385.099 67.2455 384.939H67.1998L64.7045 391.9H63.4939ZM73.0527 385.459C73.6162 385.459 74.0996 385.575 74.5031 385.807C74.9067 386.039 75.2169 386.369 75.4339 386.795C75.6509 387.221 75.7594 387.732 75.7594 388.325V389.045H71.5396C71.5548 389.658 71.7185 390.13 72.0306 390.461C72.3466 390.792 72.7882 390.958 73.3554 390.958C73.7589 390.958 74.1206 390.92 74.4403 390.844C74.7639 390.764 75.097 390.648 75.4396 390.495V391.586C75.1236 391.734 74.802 391.843 74.4746 391.911C74.1472 391.98 73.7551 392.014 73.2983 392.014C72.6778 392.014 72.1315 391.894 71.6595 391.654C71.1912 391.411 70.8239 391.049 70.5574 390.57C70.2947 390.09 70.1634 389.494 70.1634 388.782C70.1634 388.074 70.2833 387.473 70.5231 386.978C70.763 386.483 71.0999 386.106 71.5338 385.847C71.9678 385.588 72.4741 385.459 73.0527 385.459ZM73.0527 386.47C72.6302 386.47 72.2876 386.607 72.0249 386.881C71.7661 387.155 71.6138 387.556 71.5681 388.086H74.446C74.4422 387.77 74.3889 387.49 74.2861 387.246C74.1872 387.003 74.0349 386.812 73.8293 386.675C73.6276 386.538 73.3687 386.47 73.0527 386.47ZM79.3968 392.014C78.643 392.014 78.0377 391.74 77.5809 391.192C77.1279 390.64 76.9014 389.827 76.9014 388.754C76.9014 387.669 77.1317 386.848 77.5923 386.293C78.0568 385.737 78.6678 385.459 79.4253 385.459C79.7451 385.459 80.0249 385.503 80.2647 385.59C80.5045 385.674 80.7101 385.788 80.8814 385.933C81.0565 386.078 81.205 386.239 81.3268 386.418H81.3896C81.3706 386.3 81.3477 386.131 81.3211 385.91C81.2982 385.685 81.2868 385.478 81.2868 385.288V383.015H82.6344V391.9H81.5838L81.3439 391.038H81.2868C81.1726 391.221 81.028 391.386 80.8529 391.535C80.6815 391.679 80.476 391.795 80.2362 391.883C80.0001 391.97 79.7203 392.014 79.3968 392.014ZM79.7736 390.924C80.3485 390.924 80.7539 390.758 80.9899 390.427C81.2259 390.096 81.3477 389.599 81.3553 388.936V388.759C81.3553 388.051 81.2411 387.509 81.0127 387.132C80.7843 386.751 80.3675 386.561 79.7622 386.561C79.2787 386.561 78.9095 386.757 78.6544 387.149C78.4032 387.537 78.2776 388.08 78.2776 388.777C78.2776 389.473 78.4032 390.006 78.6544 390.375C78.9095 390.741 79.2826 390.924 79.7736 390.924ZM85.9006 385.579V391.9H84.5588V385.579H85.9006ZM85.2383 383.158C85.4438 383.158 85.6209 383.213 85.7693 383.323C85.9216 383.434 85.9977 383.624 85.9977 383.894C85.9977 384.161 85.9216 384.351 85.7693 384.465C85.6209 384.576 85.4438 384.631 85.2383 384.631C85.0251 384.631 84.8443 384.576 84.6958 384.465C84.5511 384.351 84.4788 384.161 84.4788 383.894C84.4788 383.624 84.5511 383.434 84.6958 383.323C84.8443 383.213 85.0251 383.158 85.2383 383.158ZM93.3353 385.579V391.9H92.2789L92.0962 391.049H92.022C91.8887 391.266 91.7193 391.447 91.5138 391.592C91.3082 391.733 91.0798 391.837 90.8285 391.906C90.5773 391.978 90.3127 392.014 90.0348 392.014C89.559 392.014 89.1516 391.934 88.8128 391.774C88.4778 391.611 88.2209 391.359 88.042 391.021C87.863 390.682 87.7736 390.244 87.7736 389.707V385.579H89.1212V389.456C89.1212 389.947 89.2202 390.314 89.4181 390.558C89.6199 390.802 89.932 390.924 90.3546 390.924C90.7619 390.924 91.0855 390.84 91.3253 390.672C91.5651 390.505 91.7345 390.257 91.8335 389.93C91.9363 389.603 91.9877 389.201 91.9877 388.725V385.579H93.3353ZM102.403 385.459C103.111 385.459 103.644 385.642 104.002 386.007C104.364 386.373 104.544 386.959 104.544 387.766V391.9H103.202V388.006C103.202 387.526 103.109 387.164 102.923 386.921C102.736 386.677 102.453 386.555 102.072 386.555C101.539 386.555 101.154 386.727 100.918 387.069C100.686 387.408 100.57 387.901 100.57 388.548V391.9H99.2282V388.006C99.2282 387.686 99.1863 387.419 99.1026 387.206C99.0226 386.989 98.8989 386.827 98.7314 386.721C98.5639 386.61 98.3526 386.555 98.0976 386.555C97.7283 386.555 97.4333 386.639 97.2125 386.807C96.9955 386.974 96.8394 387.221 96.7443 387.549C96.6491 387.872 96.6015 388.27 96.6015 388.742V391.9H95.2596V385.579H96.3046L96.493 386.43H96.5673C96.6967 386.209 96.8566 386.028 97.0469 385.887C97.2411 385.743 97.4561 385.636 97.6922 385.567C97.9282 385.495 98.1737 385.459 98.4288 385.459C98.9008 385.459 99.2986 385.543 99.6222 385.71C99.9458 385.874 100.188 386.125 100.347 386.464H100.45C100.648 386.121 100.924 385.868 101.278 385.704C101.632 385.541 102.007 385.459 102.403 385.459Z" fill="#303030"/>
<circle cx="369" cy="95" r="25" fill="#E79759"/>
<path d="M370.042 86.1459C370.042 85.7315 369.877 85.334 369.584 85.041C369.291 84.748 368.893 84.5834 368.479 84.5834C368.065 84.5834 367.667 84.748 367.374 85.041C367.081 85.334 366.917 85.7315 366.917 86.1459V92.9167H360.146C359.731 92.9167 359.334 93.0813 359.041 93.3744C358.748 93.6674 358.583 94.0648 358.583 94.4792C358.583 94.8936 358.748 95.291 359.041 95.5841C359.334 95.8771 359.731 96.0417 360.146 96.0417H366.917V102.813C366.917 103.227 367.081 103.624 367.374 103.917C367.667 104.21 368.065 104.375 368.479 104.375C368.893 104.375 369.291 104.21 369.584 103.917C369.877 103.624 370.042 103.227 370.042 102.813V96.0417H376.812C377.227 96.0417 377.624 95.8771 377.917 95.5841C378.21 95.291 378.375 94.8936 378.375 94.4792C378.375 94.0648 378.21 93.6674 377.917 93.3744C377.624 93.0813 377.227 92.9167 376.812 92.9167H370.042V86.1459Z" fill="white"/>
<rect x="426" y="32" width="652" height="4.68443" rx="2" transform="rotate(90 426 32)" fill="#F1F1F1"/>
<rect x="426" y="47.9891" width="552.512" height="4.99997" rx="2.49998" transform="rotate(90 426 47.9891)" fill="#D9D9D9"/>
</g>
</g>
<defs>
<filter id="filter0_d_77_130" x="0.322222" y="0" width="430.356" height="610.356" filterUnits="userSpaceOnUse" color-interpolation-filters="sRGB">
<feFlood flood-opacity="0" result="BackgroundImageFix"/>
<feColorMatrix in="SourceAlpha" type="matrix" values="0 0 0 0 0 0 0 0 0 0 0 0 0 0 0 0 0 0 127 0" result="hardAlpha"/>
<feOffset dy="4.67778"/>
<feGaussianBlur stdDeviation="2.33889"/>
<feComposite in2="hardAlpha" operator="out"/>
<feColorMatrix type="matrix" values="0 0 0 0 1 0 0 0 0 1 0 0 0 0 1 0 0 0 1 0"/>
<feBlend mode="normal" in2="BackgroundImageFix" result="effect1_dropShadow_77_130"/>
<feBlend mode="normal" in="SourceGraphic" in2="effect1_dropShadow_77_130" result="shape"/>
</filter>
<filter id="filter1_d_77_130" x="19.0334" y="221.025" width="392.933" height="102.911" filterUnits="userSpaceOnUse" color-interpolation-filters="sRGB">
<feFlood flood-opacity="0" result="BackgroundImageFix"/>
<feColorMatrix in="SourceAlpha" type="matrix" values="0 0 0 0 0 0 0 0 0 0 0 0 0 0 0 0 0 0 127 0" result="hardAlpha"/>
<feOffset/>
<feGaussianBlur stdDeviation="4.67778"/>
<feComposite in2="hardAlpha" operator="out"/>
<feColorMatrix type="matrix" values="0 0 0 0 0.9 0 0 0 0 0.9 0 0 0 0 0.9 0 0 0 1 0"/>
<feBlend mode="normal" in2="BackgroundImageFix" result="effect1_dropShadow_77_130"/>
<feBlend mode="normal" in="SourceGraphic" in2="effect1_dropShadow_77_130" result="shape"/>
</filter>
<filter id="filter2_d_77_130" x="19.0334" y="465.439" width="392.933" height="102.911" filterUnits="userSpaceOnUse" color-interpolation-filters="sRGB">
<feFlood flood-opacity="0" result="BackgroundImageFix"/>
<feColorMatrix in="SourceAlpha" type="matrix" values="0 0 0 0 0 0 0 0 0 0 0 0 0 0 0 0 0 0 127 0" result="hardAlpha"/>
<feOffset/>
<feGaussianBlur stdDeviation="4.67778"/>
<feComposite in2="hardAlpha" operator="out"/>
<feColorMatrix type="matrix" values="0 0 0 0 0.9 0 0 0 0 0.9 0 0 0 0 0.9 0 0 0 1 0"/>
<feBlend mode="normal" in2="BackgroundImageFix" result="effect1_dropShadow_77_130"/>
<feBlend mode="normal" in="SourceGraphic" in2="effect1_dropShadow_77_130" result="shape"/>
</filter>
<filter id="filter3_d_77_130" x="19.0334" y="319.258" width="392.933" height="102.911" filterUnits="userSpaceOnUse" color-interpolation-filters="sRGB">
<feFlood flood-opacity="0" result="BackgroundImageFix"/>
<feColorMatrix in="SourceAlpha" type="matrix" values="0 0 0 0 0 0 0 0 0 0 0 0 0 0 0 0 0 0 127 0" result="hardAlpha"/>
<feOffset/>
<feGaussianBlur stdDeviation="4.67778"/>
<feComposite in2="hardAlpha" operator="out"/>
<feColorMatrix type="matrix" values="0 0 0 0 0.9 0 0 0 0 0.9 0 0 0 0 0.9 0 0 0 1 0"/>
<feBlend mode="normal" in2="BackgroundImageFix" result="effect1_dropShadow_77_130"/>
<feBlend mode="normal" in="SourceGraphic" in2="effect1_dropShadow_77_130" result="shape"/>
</filter>
<clipPath id="clip0_77_130">
<rect x="5" width="421" height="601" rx="23.3889" fill="white"/>
</clipPath>
</defs>
</svg>
